<?xml version="1.0" encoding="UTF-8" standalone="no"?>
<!-- Created with Inkscape (http://www.inkscape.org/) -->

<svg
   xmlns:dc="http://purl.org/dc/elements/1.1/"
   xmlns:cc="http://creativecommons.org/ns#"
   xmlns:rdf="http://www.w3.org/1999/02/22-rdf-syntax-ns#"
   xmlns:svg="http://www.w3.org/2000/svg"
   xmlns="http://www.w3.org/2000/svg"
   xmlns:xlink="http://www.w3.org/1999/xlink"
   xmlns:sodipodi="http://sodipodi.sourceforge.net/DTD/sodipodi-0.dtd"
   xmlns:inkscape="http://www.inkscape.org/namespaces/inkscape"
   width="50"
   height="50"
   id="svg2"
   version="1.1"
   inkscape:version="0.49+devel r"
   sodipodi:docname="siduction-muster.svg">
  <title
     id="title875">patter siduction-logo-blue</title>
  <defs
     id="defs4">
    <radialGradient
       inkscape:collect="always"
       xlink:href="#linearGradient6147-1-1-4-4-7-0-3-0"
       id="radialGradient4414-6"
       gradientUnits="userSpaceOnUse"
       gradientTransform="matrix(1.0507753,1.0507753,-1.0507833,1.0507833,525.88971,-1084.3827)"
       spreadMethod="pad"
       cx="1027.8583"
       cy="477.45059"
       fx="1027.8583"
       fy="477.45059"
       r="57.480274" />
    <linearGradient
       id="linearGradient6147-1-1-4-4-7-0-3-0">
      <stop
         style="stop-color:#5f8dd3;stop-opacity:1;"
         offset="0"
         id="stop6149-6-3-9-3-3-6-8-8" />
      <stop
         style="stop-color:#162d50;stop-opacity:1;"
         offset="1"
         id="stop6151-5-0-9-5-1-1-9-2" />
    </linearGradient>
    <radialGradient
       inkscape:collect="always"
       xlink:href="#linearGradient6147-1-1-5-94-7-1-5-4-1"
       id="radialGradient4416-0"
       gradientUnits="userSpaceOnUse"
       gradientTransform="matrix(0.94569776,0.94569776,-0.94570497,0.94570497,447.86331,-788.20071)"
       spreadMethod="pad"
       cx="1027.8583"
       cy="477.45059"
       fx="1027.8583"
       fy="477.45059"
       r="57.480274" />
    <linearGradient
       id="linearGradient6147-1-1-5-94-7-1-5-4-1">
      <stop
         style="stop-color:#5f8dd3;stop-opacity:1;"
         offset="0"
         id="stop6149-6-3-5-2-4-9-5-4-1" />
      <stop
         style="stop-color:#162d50;stop-opacity:1;"
         offset="1"
         id="stop6151-5-0-3-06-3-0-4-3-6" />
    </linearGradient>
    <radialGradient
       inkscape:collect="always"
       xlink:href="#linearGradient6147-1-1-0-9-4-5-7-7-8"
       id="radialGradient4418-7"
       gradientUnits="userSpaceOnUse"
       gradientTransform="matrix(0.94569776,0.94569776,-0.94570497,0.94570497,450.90469,-1055.4519)"
       spreadMethod="pad"
       cx="1027.8583"
       cy="477.45059"
       fx="1027.8583"
       fy="477.45059"
       r="57.480274" />
    <linearGradient
       id="linearGradient6147-1-1-0-9-4-5-7-7-8">
      <stop
         style="stop-color:#5f8dd3;stop-opacity:1;"
         offset="0"
         id="stop6149-6-3-3-5-6-6-6-5-2" />
      <stop
         style="stop-color:#162d50;stop-opacity:1;"
         offset="1"
         id="stop6151-5-0-36-6-9-7-5-3-2" />
    </linearGradient>
    <radialGradient
       inkscape:collect="always"
       xlink:href="#linearGradient6147-1-1-5-3-14-2-7-6-6-6"
       id="radialGradient4420-0"
       gradientUnits="userSpaceOnUse"
       gradientTransform="matrix(0.85112803,0.85112803,-0.85113446,0.85113446,367.16622,-775.37358)"
       spreadMethod="pad"
       cx="1027.8583"
       cy="477.45059"
       fx="1027.8583"
       fy="477.45059"
       r="57.480274" />
    <linearGradient
       id="linearGradient6147-1-1-5-3-14-2-7-6-6-6">
      <stop
         style="stop-color:#5f8dd3;stop-opacity:1;"
         offset="0"
         id="stop6149-6-3-5-0-3-2-4-9-7-4" />
      <stop
         style="stop-color:#162d50;stop-opacity:1;"
         offset="1"
         id="stop6151-5-0-3-0-7-6-0-3-6-4" />
    </linearGradient>
    <radialGradient
       inkscape:collect="always"
       xlink:href="#linearGradient6147-1-1-0-5-7-1-64-7-6-5"
       id="radialGradient4422-1"
       gradientUnits="userSpaceOnUse"
       gradientTransform="matrix(0.85112803,0.85112803,-0.85113446,0.85113446,372.26819,-1040.5642)"
       spreadMethod="pad"
       cx="1027.8583"
       cy="477.45059"
       fx="1027.8583"
       fy="477.45059"
       r="57.480274" />
    <linearGradient
       id="linearGradient6147-1-1-0-5-7-1-64-7-6-5">
      <stop
         style="stop-color:#5f8dd3;stop-opacity:1;"
         offset="0"
         id="stop6149-6-3-3-1-3-2-7-4-9-3" />
      <stop
         style="stop-color:#162d50;stop-opacity:1;"
         offset="1"
         id="stop6151-5-0-36-1-39-8-4-5-8-0" />
    </linearGradient>
    <radialGradient
       inkscape:collect="always"
       xlink:href="#linearGradient6147-1-1-0-2-4-9-8-2-8-2"
       id="radialGradient4424-0"
       gradientUnits="userSpaceOnUse"
       gradientTransform="matrix(0.85112803,0.85112803,-0.85113446,0.85113446,374.01573,-518.01311)"
       spreadMethod="pad"
       cx="1027.8583"
       cy="477.45059"
       fx="1027.8583"
       fy="477.45059"
       r="57.480274" />
    <linearGradient
       id="linearGradient6147-1-1-0-2-4-9-8-2-8-2">
      <stop
         style="stop-color:#5f8dd3;stop-opacity:1;"
         offset="0"
         id="stop6149-6-3-3-4-4-28-5-5-6-4" />
      <stop
         style="stop-color:#162d50;stop-opacity:1;"
         offset="1"
         id="stop6151-5-0-36-9-49-8-8-4-7-7" />
    </linearGradient>
    <radialGradient
       inkscape:collect="always"
       xlink:href="#linearGradient6147-1-1-5-3-1-3-6-2-7-7-2"
       id="radialGradient4426-1"
       gradientUnits="userSpaceOnUse"
       gradientTransform="matrix(0.76601521,0.76601521,-0.76602101,0.76602101,288.17779,-519.67927)"
       spreadMethod="pad"
       cx="1027.8583"
       cy="477.45059"
       fx="1027.8583"
       fy="477.45059"
       r="57.480274" />
    <linearGradient
       id="linearGradient6147-1-1-5-3-1-3-6-2-7-7-2">
      <stop
         style="stop-color:#5f8dd3;stop-opacity:1;"
         offset="0"
         id="stop6149-6-3-5-0-7-8-8-6-4-0-0" />
      <stop
         style="stop-color:#162d50;stop-opacity:1;"
         offset="1"
         id="stop6151-5-0-3-0-2-32-3-0-4-9-4" />
    </linearGradient>
    <radialGradient
       inkscape:collect="always"
       xlink:href="#linearGradient6147-1-1-0-5-6-5-3-6-3-5-6"
       id="radialGradient4428-3"
       gradientUnits="userSpaceOnUse"
       gradientTransform="matrix(0.76601521,0.76601521,-0.76602101,0.76602101,283.38898,-774.97902)"
       spreadMethod="pad"
       cx="1027.8583"
       cy="477.45059"
       fx="1027.8583"
       fy="477.45059"
       r="57.480274" />
    <linearGradient
       id="linearGradient6147-1-1-0-5-6-5-3-6-3-5-6">
      <stop
         style="stop-color:#5f8dd3;stop-opacity:1;"
         offset="0"
         id="stop6149-6-3-3-1-1-4-3-6-0-5-5" />
      <stop
         style="stop-color:#162d50;stop-opacity:1;"
         offset="1"
         id="stop6151-5-0-36-1-5-3-3-4-7-3-7" />
    </linearGradient>
    <radialGradient
       inkscape:collect="always"
       xlink:href="#linearGradient6147-1-1-5-3-1-8-4-0-6-8-2-2"
       id="radialGradient4430-7"
       gradientUnits="userSpaceOnUse"
       gradientTransform="matrix(0.68941368,0.68941368,-0.68941893,0.68941893,199.77384,-532.32858)"
       spreadMethod="pad"
       cx="1027.8583"
       cy="477.45059"
       fx="1027.8583"
       fy="477.45059"
       r="57.480274" />
    <linearGradient
       id="linearGradient6147-1-1-5-3-1-8-4-0-6-8-2-2">
      <stop
         style="stop-color:#5f8dd3;stop-opacity:1;"
         offset="0"
         id="stop6149-6-3-5-0-7-1-9-4-2-6-3-4" />
      <stop
         style="stop-color:#162d50;stop-opacity:1;"
         offset="1"
         id="stop6151-5-0-3-0-2-3-5-7-8-8-8-1" />
    </linearGradient>
    <radialGradient
       r="57.480274"
       fy="477.45059"
       fx="1027.8583"
       cy="477.45059"
       cx="1027.8583"
       spreadMethod="pad"
       gradientTransform="matrix(0.68941368,0.68941368,-0.68941893,0.68941893,199.77384,-532.32858)"
       gradientUnits="userSpaceOnUse"
       id="radialGradient3554"
       xlink:href="#linearGradient6147-1-1-5-3-1-8-4-0-6-8-2-2"
       inkscape:collect="always" />
    <radialGradient
       inkscape:collect="always"
       xlink:href="#linearGradient6147-1-1-4-4-7-0-3-0"
       id="radialGradient3675"
       gradientUnits="userSpaceOnUse"
       gradientTransform="matrix(1.0507753,1.0507753,-1.0507833,1.0507833,525.88971,-1084.3827)"
       spreadMethod="pad"
       cx="1027.8583"
       cy="477.45059"
       fx="1027.8583"
       fy="477.45059"
       r="57.480274" />
    <radialGradient
       inkscape:collect="always"
       xlink:href="#linearGradient6147-1-1-5-94-7-1-5-4-1"
       id="radialGradient3677"
       gradientUnits="userSpaceOnUse"
       gradientTransform="matrix(0.94569776,0.94569776,-0.94570497,0.94570497,447.86331,-788.20071)"
       spreadMethod="pad"
       cx="1027.8583"
       cy="477.45059"
       fx="1027.8583"
       fy="477.45059"
       r="57.480274" />
    <radialGradient
       inkscape:collect="always"
       xlink:href="#linearGradient6147-1-1-0-9-4-5-7-7-8"
       id="radialGradient3679"
       gradientUnits="userSpaceOnUse"
       gradientTransform="matrix(0.94569776,0.94569776,-0.94570497,0.94570497,450.90469,-1055.4519)"
       spreadMethod="pad"
       cx="1027.8583"
       cy="477.45059"
       fx="1027.8583"
       fy="477.45059"
       r="57.480274" />
    <radialGradient
       inkscape:collect="always"
       xlink:href="#linearGradient6147-1-1-5-3-14-2-7-6-6-6"
       id="radialGradient3681"
       gradientUnits="userSpaceOnUse"
       gradientTransform="matrix(0.85112803,0.85112803,-0.85113446,0.85113446,367.16622,-775.37358)"
       spreadMethod="pad"
       cx="1027.8583"
       cy="477.45059"
       fx="1027.8583"
       fy="477.45059"
       r="57.480274" />
    <radialGradient
       inkscape:collect="always"
       xlink:href="#linearGradient6147-1-1-0-5-7-1-64-7-6-5"
       id="radialGradient3683"
       gradientUnits="userSpaceOnUse"
       gradientTransform="matrix(0.85112803,0.85112803,-0.85113446,0.85113446,372.26819,-1040.5642)"
       spreadMethod="pad"
       cx="1027.8583"
       cy="477.45059"
       fx="1027.8583"
       fy="477.45059"
       r="57.480274" />
    <radialGradient
       inkscape:collect="always"
       xlink:href="#linearGradient6147-1-1-0-2-4-9-8-2-8-2"
       id="radialGradient3685"
       gradientUnits="userSpaceOnUse"
       gradientTransform="matrix(0.85112803,0.85112803,-0.85113446,0.85113446,374.01573,-518.01311)"
       spreadMethod="pad"
       cx="1027.8583"
       cy="477.45059"
       fx="1027.8583"
       fy="477.45059"
       r="57.480274" />
    <radialGradient
       inkscape:collect="always"
       xlink:href="#linearGradient6147-1-1-5-3-1-3-6-2-7-7-2"
       id="radialGradient3687"
       gradientUnits="userSpaceOnUse"
       gradientTransform="matrix(0.76601521,0.76601521,-0.76602101,0.76602101,288.17779,-519.67927)"
       spreadMethod="pad"
       cx="1027.8583"
       cy="477.45059"
       fx="1027.8583"
       fy="477.45059"
       r="57.480274" />
    <radialGradient
       inkscape:collect="always"
       xlink:href="#linearGradient6147-1-1-0-5-6-5-3-6-3-5-6"
       id="radialGradient3689"
       gradientUnits="userSpaceOnUse"
       gradientTransform="matrix(0.76601521,0.76601521,-0.76602101,0.76602101,283.38898,-774.97902)"
       spreadMethod="pad"
       cx="1027.8583"
       cy="477.45059"
       fx="1027.8583"
       fy="477.45059"
       r="57.480274" />
    <radialGradient
       inkscape:collect="always"
       xlink:href="#linearGradient6147-1-1-5-3-1-8-4-0-6-8-2-2"
       id="radialGradient3691"
       gradientUnits="userSpaceOnUse"
       gradientTransform="matrix(0.68941368,0.68941368,-0.68941893,0.68941893,199.77384,-532.32858)"
       spreadMethod="pad"
       cx="1027.8583"
       cy="477.45059"
       fx="1027.8583"
       fy="477.45059"
       r="57.480274" />
    <pattern
       patternUnits="userSpaceOnUse"
       width="50"
       height="49.999968"
       patternTransform="translate(4.58482e-8,1002.3622)"
       id="pattern3693">
      <g
         id="g6718-5-6-0"
         style="display:inline"
         transform="matrix(0.03765003,0,0,0.03782568,-19.52135,17.637704)">
        <path
           style="fill:url(#radialGradient4414-6);fill-opacity:1;fill-rule:nonzero;stroke:none;display:inline"
           d="m 1182.5051,525.9733 c 0,-47.17499 -38.2417,-85.4166 -85.4166,-85.41659 -47.1758,9.8e-4 -85.4174,38.24261 -85.4175,85.41746 0,47.17489 38.2417,85.4165 85.4166,85.41659 C 1144.2625,611.39068 1182.5053,573.1479 1182.5051,525.9733 Z"
           id="path4680-7-52-4"
           inkscape:connector-curvature="0" />
        <path
           inkscape:connector-curvature="0"
           style="fill:url(#radialGradient4416-0);fill-opacity:1;fill-rule:nonzero;stroke:none;display:inline"
           d="m 1038.8171,661.11962 c 0,-42.45748 -34.4175,-76.8749 -76.87491,-76.87492 -42.45823,8.1e-4 -76.8757,34.41829 -76.8757,76.87571 3e-5,42.45743 34.41745,76.87486 76.87492,76.87491 C 1004.3988,737.9953 1038.8173,703.5768 1038.8171,661.11962 Z"
           id="path4680-8-3-6-6" />
        <path
           inkscape:connector-curvature="0"
           style="fill:url(#radialGradient4418-7);fill-opacity:1;fill-rule:nonzero;stroke:none;display:inline"
           d="m 1041.8584,393.8684 c 10e-5,-42.4574 -34.4174,-76.87487 -76.87485,-76.87489 -42.45824,8.2e-4 -76.87571,34.41829 -76.87571,76.87571 4e-5,42.45742 34.41751,76.87489 76.87489,76.87489 C 1007.44,470.74394 1041.8585,436.32544 1041.8584,393.8684 Z"
           id="path4680-87-9-5-7" />
        <path
           inkscape:connector-curvature="0"
           style="fill:url(#radialGradient4420-0);fill-opacity:1;fill-rule:nonzero;stroke:none;display:inline"
           d="m 899.0246,529.01469 c -2e-5,-38.21171 -30.97571,-69.18741 -69.18742,-69.18743 -38.2124,7.3e-4 -69.18813,30.97646 -69.18813,69.18813 3e-5,38.2117 30.97572,69.1874 69.18743,69.18742 C 868.0481,598.20276 899.02474,567.22611 899.0246,529.01469 Z"
           id="path4680-8-4-0-87-6" />
        <path
           inkscape:connector-curvature="0"
           style="fill:url(#radialGradient4422-1);fill-opacity:1;fill-rule:nonzero;stroke:none;display:inline"
           d="m 904.12658,263.82411 c -10e-6,-38.2117 -30.97571,-69.18741 -69.18741,-69.18741 -38.21241,7.2e-4 -69.18814,30.97646 -69.18814,69.18814 2e-5,38.21168 30.97572,69.18739 69.18741,69.18741 C 873.15007,333.01219 904.12672,302.03554 904.12658,263.82411 Z"
           id="path4680-87-5-7-9-0" />
        <path
           inkscape:connector-curvature="0"
           style="fill:url(#radialGradient4424-0);fill-opacity:1;fill-rule:nonzero;stroke:none;display:inline"
           d="m 905.87411,786.37515 c -3e-5,-38.21171 -30.97572,-69.1874 -69.18743,-69.18742 -38.2124,7.3e-4 -69.18813,30.97646 -69.18814,69.18814 4e-5,38.21169 30.97573,69.18738 69.18743,69.18743 C 874.89759,855.56323 905.87425,824.58658 905.87411,786.37515 Z"
           id="path4680-87-6-2-6-9" />
        <path
           inkscape:connector-curvature="0"
           style="fill:url(#radialGradient4426-1);fill-opacity:1;fill-rule:nonzero;stroke:none;display:inline"
           d="m 766.85033,654.2702 c -10e-6,-34.39054 -27.87814,-62.26867 -62.26867,-62.26867 -34.39116,6.5e-4 -62.26931,27.8788 -62.26931,62.2693 10e-6,34.39053 27.87814,62.26866 62.26867,62.26868 C 738.97148,716.53946 766.85046,688.66048 766.85033,654.2702 Z"
           id="path4680-8-4-2-7-0-7" />
        <path
           inkscape:connector-curvature="0"
           style="fill:url(#radialGradient4428-3);fill-opacity:1;fill-rule:nonzero;stroke:none;display:inline"
           d="m 762.06153,398.97041 c -3e-5,-34.39053 -27.87816,-62.26866 -62.26867,-62.26867 -34.39118,6.6e-4 -62.26933,27.87881 -62.26932,62.26932 0,34.39052 27.87814,62.26865 62.26867,62.26868 C 734.18267,461.23969 762.06166,433.36069 762.06153,398.97041 Z"
           id="path4680-87-5-9-2-4-5" />
        <path
           inkscape:connector-curvature="0"
           style="fill:url(#radialGradient3554);fill-opacity:1;fill-rule:nonzero;stroke:none;display:inline"
           d="m 630.57914,524.22594 c -1e-5,-30.95148 -25.09033,-56.0418 -56.04182,-56.04181 -30.95204,5.8e-4 -56.04238,25.09092 -56.04238,56.04239 2e-5,30.95147 25.09034,56.04179 56.04181,56.04181 C 605.48817,580.26828 630.57926,555.17719 630.57914,524.22594 Z"
           id="path4680-8-4-2-6-9-1-9" />
      </g>
      <g
         transform="matrix(0.03765003,0,0,0.03782568,5.4786475,-7.3622655)"
         style="display:inline"
         id="g3655">
        <path
           inkscape:connector-curvature="0"
           id="path3657"
           d="m 1182.5051,525.9733 c 0,-47.17499 -38.2417,-85.4166 -85.4166,-85.41659 -47.1758,9.8e-4 -85.4174,38.24261 -85.4175,85.41746 0,47.17489 38.2417,85.4165 85.4166,85.41659 C 1144.2625,611.39068 1182.5053,573.1479 1182.5051,525.9733 Z"
           style="fill:url(#radialGradient3675);fill-opacity:1;fill-rule:nonzero;stroke:none;display:inline" />
        <path
           id="path3659"
           d="m 1038.8171,661.11962 c 0,-42.45748 -34.4175,-76.8749 -76.87491,-76.87492 -42.45823,8.1e-4 -76.8757,34.41829 -76.8757,76.87571 3e-5,42.45743 34.41745,76.87486 76.87492,76.87491 C 1004.3988,737.9953 1038.8173,703.5768 1038.8171,661.11962 Z"
           style="fill:url(#radialGradient3677);fill-opacity:1;fill-rule:nonzero;stroke:none;display:inline"
           inkscape:connector-curvature="0" />
        <path
           id="path3661"
           d="m 1041.8584,393.8684 c 10e-5,-42.4574 -34.4174,-76.87487 -76.87485,-76.87489 -42.45824,8.2e-4 -76.87571,34.41829 -76.87571,76.87571 4e-5,42.45742 34.41751,76.87489 76.87489,76.87489 C 1007.44,470.74394 1041.8585,436.32544 1041.8584,393.8684 Z"
           style="fill:url(#radialGradient3679);fill-opacity:1;fill-rule:nonzero;stroke:none;display:inline"
           inkscape:connector-curvature="0" />
        <path
           id="path3663"
           d="m 899.0246,529.01469 c -2e-5,-38.21171 -30.97571,-69.18741 -69.18742,-69.18743 -38.2124,7.3e-4 -69.18813,30.97646 -69.18813,69.18813 3e-5,38.2117 30.97572,69.1874 69.18743,69.18742 C 868.0481,598.20276 899.02474,567.22611 899.0246,529.01469 Z"
           style="fill:url(#radialGradient3681);fill-opacity:1;fill-rule:nonzero;stroke:none;display:inline"
           inkscape:connector-curvature="0" />
        <path
           id="path3665"
           d="m 904.12658,263.82411 c -10e-6,-38.2117 -30.97571,-69.18741 -69.18741,-69.18741 -38.21241,7.2e-4 -69.18814,30.97646 -69.18814,69.18814 2e-5,38.21168 30.97572,69.18739 69.18741,69.18741 C 873.15007,333.01219 904.12672,302.03554 904.12658,263.82411 Z"
           style="fill:url(#radialGradient3683);fill-opacity:1;fill-rule:nonzero;stroke:none;display:inline"
           inkscape:connector-curvature="0" />
        <path
           id="path3667"
           d="m 905.87411,786.37515 c -3e-5,-38.21171 -30.97572,-69.1874 -69.18743,-69.18742 -38.2124,7.3e-4 -69.18813,30.97646 -69.18814,69.18814 4e-5,38.21169 30.97573,69.18738 69.18743,69.18743 C 874.89759,855.56323 905.87425,824.58658 905.87411,786.37515 Z"
           style="fill:url(#radialGradient3685);fill-opacity:1;fill-rule:nonzero;stroke:none;display:inline"
           inkscape:connector-curvature="0" />
        <path
           id="path3669"
           d="m 766.85033,654.2702 c -10e-6,-34.39054 -27.87814,-62.26867 -62.26867,-62.26867 -34.39116,6.5e-4 -62.26931,27.8788 -62.26931,62.2693 10e-6,34.39053 27.87814,62.26866 62.26867,62.26868 C 738.97148,716.53946 766.85046,688.66048 766.85033,654.2702 Z"
           style="fill:url(#radialGradient3687);fill-opacity:1;fill-rule:nonzero;stroke:none;display:inline"
           inkscape:connector-curvature="0" />
        <path
           id="path3671"
           d="m 762.06153,398.97041 c -3e-5,-34.39053 -27.87816,-62.26866 -62.26867,-62.26867 -34.39118,6.6e-4 -62.26933,27.87881 -62.26932,62.26932 0,34.39052 27.87814,62.26865 62.26867,62.26868 C 734.18267,461.23969 762.06166,433.36069 762.06153,398.97041 Z"
           style="fill:url(#radialGradient3689);fill-opacity:1;fill-rule:nonzero;stroke:none;display:inline"
           inkscape:connector-curvature="0" />
        <path
           id="path3673"
           d="m 630.57914,524.22594 c -1e-5,-30.95148 -25.09033,-56.0418 -56.04182,-56.04181 -30.95204,5.8e-4 -56.04238,25.09092 -56.04238,56.04239 2e-5,30.95147 25.09034,56.04179 56.04181,56.04181 C 605.48817,580.26828 630.57926,555.17719 630.57914,524.22594 Z"
           style="fill:url(#radialGradient3691);fill-opacity:1;fill-rule:nonzero;stroke:none;display:inline"
           inkscape:connector-curvature="0" />
      </g>
    </pattern>
  </defs>
  <sodipodi:namedview
     id="base"
     pagecolor="#ffffff"
     bordercolor="#666666"
     borderopacity="1.0"
     inkscape:pageopacity="0.0"
     inkscape:pageshadow="2"
     inkscape:zoom="10.68"
     inkscape:cx="25"
     inkscape:cy="23.81373"
     inkscape:document-units="px"
     inkscape:current-layer="layer1"
     showgrid="false"
     borderlayer="true"
     inkscape:showpageshadow="false"
     inkscape:window-width="1022"
     inkscape:window-height="718"
     inkscape:window-x="0"
     inkscape:window-y="26"
     inkscape:window-maximized="0" />
  <metadata
     id="metadata7">
    <rdf:RDF>
      <cc:Work
         rdf:about="">
        <dc:format>image/svg+xml</dc:format>
        <dc:type
           rdf:resource="http://purl.org/dc/dcmitype/StillImage" />
        <dc:title>patter siduction-logo-blue</dc:title>
        <cc:license
           rdf:resource="http://creativecommons.org/licenses/by/3.0/" />
        <dc:creator>
          <cc:Agent>
            <dc:title>siduction Art Team</dc:title>
          </cc:Agent>
        </dc:creator>
        <dc:rights>
          <cc:Agent>
            <dc:title>siduction.org</dc:title>
          </cc:Agent>
        </dc:rights>
        <dc:publisher>
          <cc:Agent>
            <dc:title>siduction Art Team</dc:title>
          </cc:Agent>
        </dc:publisher>
      </cc:Work>
      <cc:License
         rdf:about="http://creativecommons.org/licenses/by/3.0/">
        <cc:permits
           rdf:resource="http://creativecommons.org/ns#Reproduction" />
        <cc:permits
           rdf:resource="http://creativecommons.org/ns#Distribution" />
        <cc:requires
           rdf:resource="http://creativecommons.org/ns#Notice" />
        <cc:requires
           rdf:resource="http://creativecommons.org/ns#Attribution" />
        <cc:permits
           rdf:resource="http://creativecommons.org/ns#DerivativeWorks" />
      </cc:License>
    </rdf:RDF>
  </metadata>
  <g
     inkscape:label="Ebene 1"
     inkscape:groupmode="layer"
     id="layer1"
     transform="translate(0,-1002.3622)">
    <rect
       style="stroke:none;fill:url(#pattern3693)"
       width="50"
       height="49.999968"
       x="4.58482e-08"
       y="1002.3622"
       id="rect3715" />
  </g>
</svg>
