<?xml version="1.0" encoding="UTF-8" standalone="no"?>
<!-- Created with Inkscape (http://www.inkscape.org/) -->

<svg
   xmlns:dc="http://purl.org/dc/elements/1.1/"
   xmlns:cc="http://creativecommons.org/ns#"
   xmlns:rdf="http://www.w3.org/1999/02/22-rdf-syntax-ns#"
   xmlns:svg="http://www.w3.org/2000/svg"
   xmlns="http://www.w3.org/2000/svg"
   xmlns:xlink="http://www.w3.org/1999/xlink"
   xmlns:sodipodi="http://sodipodi.sourceforge.net/DTD/sodipodi-0.dtd"
   xmlns:inkscape="http://www.inkscape.org/namespaces/inkscape"
   width="1920"
   height="1200"
   id="svg2"
   sodipodi:version="0.32"
   inkscape:version="0.46+devel r21872 custom"
   version="1.0"
   inkscape:export-filename="/home/bernie/tmp/sidux-wall-tjalling2.png"
   inkscape:export-xdpi="60"
   inkscape:export-ydpi="60"
   sodipodi:docname="sidux-aether.svg"
   inkscape:output_extension="org.inkscape.output.svg.inkscape">
  <defs
     id="defs4">
    <linearGradient
       id="linearGradient4191">
      <stop
         style="stop-color:#550000;stop-opacity:1"
         offset="0"
         id="stop4193" />
      <stop
         style="stop-color:#2b0000;stop-opacity:0;"
         offset="1"
         id="stop4195" />
    </linearGradient>
    <linearGradient
       id="linearGradient4179">
      <stop
         style="stop-color:#430505;stop-opacity:1;"
         offset="0"
         id="stop4181" />
      <stop
         style="stop-color:#2b0000;stop-opacity:0;"
         offset="1"
         id="stop4183" />
    </linearGradient>
    <linearGradient
       id="linearGradient4057">
      <stop
         id="stop4059"
         offset="0"
         style="stop-color:#410000;stop-opacity:0;" />
      <stop
         style="stop-color:#310000;stop-opacity:1;"
         offset="0.72323418"
         id="stop4061" />
      <stop
         id="stop4063"
         offset="1"
         style="stop-color:#3a0000;stop-opacity:0;" />
    </linearGradient>
    <linearGradient
       id="linearGradient4041">
      <stop
         style="stop-color:#ffffff;stop-opacity:1;"
         offset="0"
         id="stop4043" />
      <stop
         style="stop-color:#ffffff;stop-opacity:0;"
         offset="1"
         id="stop4045" />
    </linearGradient>
    <linearGradient
       id="linearGradient3741">
      <stop
         style="stop-color:#ffffff;stop-opacity:0;"
         offset="0"
         id="stop3743" />
      <stop
         id="stop4051"
         offset="0.5"
         style="stop-color:#ffffff;stop-opacity:1;" />
      <stop
         style="stop-color:#ffffff;stop-opacity:0;"
         offset="1"
         id="stop3745" />
    </linearGradient>
    <linearGradient
       id="linearGradient3723">
      <stop
         style="stop-color:#000000;stop-opacity:0;"
         offset="0"
         id="stop3725" />
      <stop
         id="stop3731"
         offset="0.5"
         style="stop-color:#000000;stop-opacity:0.94927537;" />
      <stop
         style="stop-color:#000000;stop-opacity:0;"
         offset="1"
         id="stop3727" />
    </linearGradient>
    <linearGradient
       inkscape:collect="always"
       id="linearGradient3689">
      <stop
         style="stop-color:#ffffff;stop-opacity:1;"
         offset="0"
         id="stop3691" />
      <stop
         style="stop-color:#ffffff;stop-opacity:0"
         offset="1"
         id="stop3693" />
    </linearGradient>
    <linearGradient
       id="linearGradient3644">
      <stop
         style="stop-color:#ffffff;stop-opacity:0;"
         offset="0"
         id="stop3646" />
      <stop
         id="stop3652"
         offset="0.5"
         style="stop-color:#ffffff;stop-opacity:1;" />
      <stop
         style="stop-color:#ffffff;stop-opacity:0;"
         offset="1"
         id="stop3648" />
    </linearGradient>
    <linearGradient
       inkscape:collect="always"
       id="linearGradient3755">
      <stop
         style="stop-color:#ffffff;stop-opacity:1;"
         offset="0"
         id="stop3757" />
      <stop
         style="stop-color:#ffffff;stop-opacity:0"
         offset="1"
         id="stop3759" />
    </linearGradient>
    <pattern
       inkscape:collect="always"
       xlink:href="#Strips1_1white"
       id="pattern3658"
       patternTransform="matrix(6.4492481,7.6424603,-7.6424603,6.4492481,1524.4183,623.04397)" />
    <linearGradient
       inkscape:collect="always"
       id="linearGradient4444">
      <stop
         style="stop-color:#ffffff;stop-opacity:1;"
         offset="0"
         id="stop4446" />
      <stop
         style="stop-color:#000000;stop-opacity:1"
         offset="1"
         id="stop4448" />
    </linearGradient>
    <inkscape:perspective
       sodipodi:type="inkscape:persp3d"
       inkscape:vp_x="0 : 526.18109 : 1"
       inkscape:vp_y="0 : 1000 : 0"
       inkscape:vp_z="744.09448 : 526.18109 : 1"
       inkscape:persp3d-origin="372.04724 : 350.78739 : 1"
       id="perspective10" />
    <clipPath
       id="clipPath5939"
       clipPathUnits="userSpaceOnUse">
      <rect
         style="fill:#008080;fill-opacity:1;stroke:none"
         id="rect5941"
         width="681.5473"
         height="275.06491"
         x="1616.2054"
         y="1074.259"
         ry="48.318649" />
    </clipPath>
    <inkscape:perspective
       sodipodi:type="inkscape:persp3d"
       inkscape:vp_x="0 : 198.44482 : 1"
       inkscape:vp_y="0 : 1000 : 0"
       inkscape:vp_z="370.17422 : 198.44482 : 1"
       inkscape:persp3d-origin="185.08711 : 132.29655 : 1"
       id="perspective20714" />
    <linearGradient
       id="linearGradient6961">
      <stop
         style="stop-color:#2c2e2a;stop-opacity:1"
         offset="0"
         id="stop6963" />
      <stop
         style="stop-color:#7d1117;stop-opacity:1"
         offset="1"
         id="stop6965" />
    </linearGradient>
    <linearGradient
       id="linearGradient6951">
      <stop
         style="stop-color:#3d080b;stop-opacity:1;"
         offset="0"
         id="stop6953" />
      <stop
         style="stop-color:#ad1318;stop-opacity:1"
         offset="1"
         id="stop6955" />
    </linearGradient>
    <radialGradient
       inkscape:collect="always"
       xlink:href="#linearGradient6951"
       id="radialGradient6959"
       cx="2278.6704"
       cy="1697.4512"
       fx="3337.8401"
       fy="1691.9596"
       r="1373.0468"
       gradientTransform="matrix(0,-0.64805885,1.9323382,2.6036907e-5,-1111.3729,2963.4948)"
       gradientUnits="userSpaceOnUse" />
    <linearGradient
       inkscape:collect="always"
       xlink:href="#linearGradient6961"
       id="linearGradient6967"
       x1="2145.8865"
       y1="-646.45251"
       x2="2145.8865"
       y2="631.65625"
       gradientUnits="userSpaceOnUse"
       gradientTransform="translate(180,0)" />
    <inkscape:perspective
       sodipodi:type="inkscape:persp3d"
       inkscape:vp_x="0 : 215.71428 : 1"
       inkscape:vp_y="0 : 1000 : 0"
       inkscape:vp_z="914.28571 : 215.71428 : 1"
       inkscape:persp3d-origin="457.14285 : 143.80952 : 1"
       id="perspective3585" />
    <inkscape:perspective
       id="perspective10-1"
       inkscape:persp3d-origin="372.04724 : 350.78739 : 1"
       inkscape:vp_z="744.09448 : 526.18109 : 1"
       inkscape:vp_y="0 : 1000 : 0"
       inkscape:vp_x="0 : 526.18109 : 1"
       sodipodi:type="inkscape:persp3d" />
    <pattern
       inkscape:collect="always"
       patternUnits="userSpaceOnUse"
       width="2"
       height="1"
       patternTransform="matrix(6.4492481,7.6424603,-7.6424603,6.4492481,901.55889,526.59782)"
       id="Strips1_1white"
       inkscape:stockid="Stripes 1:1 white">
      <rect
         style="fill:white;stroke:none"
         x="0"
         y="-0.5"
         width="1"
         height="2"
         id="rect5198" />
    </pattern>
    <linearGradient
       id="linearGradient5949">
      <stop
         id="stop5951"
         offset="0"
         style="stop-color:#ffffff;stop-opacity:1" />
      <stop
         id="stop5953"
         offset="1"
         style="stop-color:#ffffff;stop-opacity:0;" />
    </linearGradient>
    <filter
       inkscape:collect="always"
       id="filter4479"
       x="-0.3448578"
       width="1.6897156"
       y="-0.38740009"
       height="1.7748002">
      <feGaussianBlur
         inkscape:collect="always"
         stdDeviation="173.56068"
         id="feGaussianBlur4481" />
    </filter>
    <filter
       inkscape:collect="always"
       id="filter4501"
       x="-0.065044101"
       width="1.1300882"
       y="-0.16116651"
       height="1.322333">
      <feGaussianBlur
         inkscape:collect="always"
         stdDeviation="20.752287"
         id="feGaussianBlur4503" />
    </filter>
    <linearGradient
       inkscape:collect="always"
       xlink:href="#linearGradient5949"
       id="linearGradient3695"
       gradientUnits="userSpaceOnUse"
       gradientTransform="translate(622.85937,104.88081)"
       x1="357.14285"
       y1="180.50848"
       x2="357.14285"
       y2="414.92892" />
    <filter
       inkscape:collect="always"
       id="filter3747"
       x="-0.0060415859"
       width="1.0120832"
       y="-0.8716786"
       height="2.7433572">
      <feGaussianBlur
         inkscape:collect="always"
         stdDeviation="1.4463"
         id="feGaussianBlur3749" />
    </filter>
    <radialGradient
       inkscape:collect="always"
       xlink:href="#linearGradient3755"
       id="radialGradient3761"
       cx="1030.6163"
       cy="632.72101"
       fx="1030.6163"
       fy="796.24725"
       r="172.22664"
       gradientTransform="matrix(1.0254235,-8.8481041e-7,1.6365006e-7,0.18965715,-26.201917,536.06447)"
       gradientUnits="userSpaceOnUse" />
    <linearGradient
       inkscape:collect="always"
       xlink:href="#linearGradient4444"
       id="linearGradient3780"
       gradientUnits="userSpaceOnUse"
       x1="960"
       y1="420"
       x2="960"
       y2="940.76807" />
    <inkscape:perspective
       id="perspective4571"
       inkscape:persp3d-origin="457.14285 : 143.80952 : 1"
       inkscape:vp_z="914.28571 : 215.71428 : 1"
       inkscape:vp_y="0 : 1000 : 0"
       inkscape:vp_x="0 : 215.71428 : 1"
       sodipodi:type="inkscape:persp3d" />
    <filter
       inkscape:collect="always"
       id="filter4589"
       x="-0.066907248"
       width="1.1338145"
       y="-0.43330408"
       height="1.8666082">
      <feGaussianBlur
         inkscape:collect="always"
         stdDeviation="9.045115"
         id="feGaussianBlur4591" />
    </filter>
    <linearGradient
       inkscape:collect="always"
       xlink:href="#linearGradient4444"
       id="linearGradient4634"
       gradientUnits="userSpaceOnUse"
       x1="960"
       y1="420"
       x2="960"
       y2="940.76807"
       gradientTransform="translate(0,-1409.9861)" />
    <linearGradient
       inkscape:collect="always"
       xlink:href="#linearGradient3644"
       id="linearGradient3650"
       x1="63.913519"
       y1="689.46322"
       x2="1868.492"
       y2="689.46322"
       gradientUnits="userSpaceOnUse"
       gradientTransform="matrix(1.0525977,0,0,1,-50.820012,0)" />
    <radialGradient
       inkscape:collect="always"
       xlink:href="#linearGradient3689"
       id="radialGradient3695"
       cx="933.59528"
       cy="-291.02692"
       fx="933.59528"
       fy="-291.02692"
       r="853.14926"
       gradientTransform="matrix(-0.00337903,0.33158675,-1.0883906,-0.01105198,619.99893,326.11555)"
       gradientUnits="userSpaceOnUse" />
    <filter
       inkscape:collect="always"
       id="filter3717"
       x="-0.037490085"
       width="1.0749802"
       y="-0.18485606"
       height="1.3697121">
      <feGaussianBlur
         inkscape:collect="always"
         stdDeviation="26.610183"
         id="feGaussianBlur3719" />
    </filter>
    <linearGradient
       inkscape:collect="always"
       xlink:href="#linearGradient3723"
       id="linearGradient3737"
       gradientUnits="userSpaceOnUse"
       x1="573.14282"
       y1="539.99303"
       x2="1346.8571"
       y2="539.99303"
       gradientTransform="matrix(0.99967301,0,0,1.0639225,0.31390961,-34.517705)" />
    <radialGradient
       inkscape:collect="always"
       xlink:href="#linearGradient3741"
       id="radialGradient4012"
       gradientUnits="userSpaceOnUse"
       gradientTransform="matrix(0.51355139,0.04652297,-0.00877203,0.09683138,471.72742,443.0427)"
       cx="959.99994"
       cy="539.99304"
       fx="959.99994"
       fy="539.99304"
       r="388.38223" />
    <radialGradient
       inkscape:collect="always"
       xlink:href="#linearGradient3741"
       id="radialGradient4020"
       gradientUnits="userSpaceOnUse"
       gradientTransform="matrix(0.51355139,0.04652297,-0.00877203,0.09683138,471.72742,443.0427)"
       cx="959.99994"
       cy="539.99304"
       fx="959.99994"
       fy="539.99304"
       r="388.38223" />
    <radialGradient
       inkscape:collect="always"
       xlink:href="#linearGradient3741"
       id="radialGradient4033"
       gradientUnits="userSpaceOnUse"
       gradientTransform="matrix(0.51355139,0.04652297,-0.00877203,0.09683138,471.72742,443.0427)"
       cx="959.99994"
       cy="539.99304"
       fx="959.99994"
       fy="539.99304"
       r="388.38223" />
    <radialGradient
       inkscape:collect="always"
       xlink:href="#linearGradient3741"
       id="radialGradient4038"
       gradientUnits="userSpaceOnUse"
       gradientTransform="matrix(0.51355139,0.04652297,-0.00877203,0.09683138,471.72742,443.0427)"
       cx="959.99994"
       cy="539.99304"
       fx="959.99994"
       fy="539.99304"
       r="388.38223" />
    <radialGradient
       inkscape:collect="always"
       xlink:href="#linearGradient4041"
       id="radialGradient4047"
       cx="1306.9667"
       cy="385.38663"
       fx="1306.9667"
       fy="385.38663"
       r="28.6406"
       gradientTransform="matrix(1.4551482,1.105911,-0.56712125,0.74621298,-376.30266,-1346.4895)"
       gradientUnits="userSpaceOnUse" />
    <linearGradient
       inkscape:collect="always"
       xlink:href="#linearGradient3741"
       id="linearGradient4049"
       x1="575.13202"
       y1="418.15384"
       x2="616.80829"
       y2="381.47876"
       gradientUnits="userSpaceOnUse" />
    <linearGradient
       inkscape:collect="always"
       xlink:href="#linearGradient4057"
       id="linearGradient4055"
       x1="1184.5756"
       y1="701.75446"
       x2="1348.6429"
       y2="654.87488"
       gradientUnits="userSpaceOnUse" />
    <linearGradient
       inkscape:collect="always"
       xlink:href="#linearGradient3741"
       id="linearGradient4067"
       gradientUnits="userSpaceOnUse"
       x1="575.13202"
       y1="418.15384"
       x2="616.80829"
       y2="381.47876"
       gradientTransform="matrix(-1,0,0,1,1918.5,0)" />
    <filter
       inkscape:collect="always"
       id="filter4099">
      <feGaussianBlur
         inkscape:collect="always"
         stdDeviation="1.0468359"
         id="feGaussianBlur4101" />
    </filter>
    <filter
       inkscape:collect="always"
       id="filter4108">
      <feGaussianBlur
         inkscape:collect="always"
         stdDeviation="2.6868702"
         id="feGaussianBlur4110" />
    </filter>
    <filter
       inkscape:collect="always"
       id="filter4143">
      <feGaussianBlur
         inkscape:collect="always"
         stdDeviation="10.24492"
         id="feGaussianBlur4145" />
    </filter>
    <filter
       inkscape:collect="always"
       id="filter4161">
      <feGaussianBlur
         inkscape:collect="always"
         stdDeviation="6.1637743"
         id="feGaussianBlur4163" />
    </filter>
    <filter
       inkscape:collect="always"
       id="filter4173"
       x="-0.22950079"
       width="1.4590016"
       y="-0.27394567"
       height="1.5478913">
      <feGaussianBlur
         inkscape:collect="always"
         stdDeviation="48.924069"
         id="feGaussianBlur4175" />
    </filter>
    <radialGradient
       inkscape:collect="always"
       xlink:href="#linearGradient4191"
       id="radialGradient4197"
       cx="412.70166"
       cy="2713.8064"
       fx="412.70166"
       fy="2713.8064"
       r="1055.9718"
       gradientTransform="matrix(-0.01699451,-0.79031265,1.3661466,-0.02899358,-2722.0547,1039.031)"
       gradientUnits="userSpaceOnUse" />
    <filter
       inkscape:collect="always"
       id="filter4203">
      <feGaussianBlur
         inkscape:collect="always"
         stdDeviation="10.096062"
         id="feGaussianBlur4205" />
    </filter>
    <radialGradient
       inkscape:collect="always"
       xlink:href="#linearGradient4444"
       id="radialGradient3485"
       cx="864.86163"
       cy="287.65009"
       fx="864.86212"
       fy="287.65024"
       r="440.25"
       gradientTransform="matrix(9.4830832e-7,0.857081,-1.3628001,-8.3339197e-6,1372.0087,-206.06476)"
       gradientUnits="userSpaceOnUse" />
    <radialGradient
       inkscape:collect="always"
       xlink:href="#linearGradient4444"
       id="radialGradient3487"
       cx="877.58972"
       cy="1076.985"
       fx="877.59015"
       fy="1076.9845"
       r="392.85715"
       gradientTransform="matrix(9.827811e-7,-0.9604761,0.4289578,-4.2065489e-7,518.01801,1717.7013)"
       gradientUnits="userSpaceOnUse" />
    <radialGradient
       inkscape:collect="always"
       xlink:href="#linearGradient4444"
       id="radialGradient3493"
       gradientUnits="userSpaceOnUse"
       gradientTransform="matrix(9.4830832e-7,0.857081,-1.3628001,-8.3339197e-6,1372.0087,-1616.0509)"
       cx="864.86163"
       cy="287.65009"
       fx="864.86212"
       fy="287.65024"
       r="440.25" />
    <mask
       maskUnits="userSpaceOnUse"
       id="mask3489">
      <rect
         style="fill:url(#radialGradient3493);fill-opacity:1;stroke:#ffffff;stroke-width:0.5;stroke-miterlimit:4;stroke-dasharray:none;stroke-opacity:1"
         id="rect3491"
         width="880"
         height="360"
         x="540"
         y="-709.98608"
         transform="scale(1,-1)" />
    </mask>
    <inkscape:perspective
       id="perspective1405"
       inkscape:persp3d-origin="0.5 : 0.33333333 : 1"
       inkscape:vp_z="1 : 0.5 : 1"
       inkscape:vp_y="0 : 1000 : 0"
       inkscape:vp_x="0 : 0.5 : 1"
       sodipodi:type="inkscape:persp3d" />
  </defs>
  <sodipodi:namedview
     id="base"
     pagecolor="#ffffff"
     bordercolor="#666666"
     borderopacity="1.0"
     inkscape:pageopacity="0.0"
     inkscape:pageshadow="2"
     inkscape:zoom="0.42416667"
     inkscape:cx="518.98868"
     inkscape:cy="286.45499"
     inkscape:document-units="px"
     inkscape:current-layer="layer1"
     showgrid="true"
     inkscape:snap-global="false"
     inkscape:window-width="1280"
     inkscape:window-height="766"
     inkscape:window-x="186"
     inkscape:window-y="125"
     inkscape:window-maximized="0">
    <inkscape:grid
       type="xygrid"
       id="grid3650"
       empspacing="5"
       visible="true"
       enabled="true" />
  </sodipodi:namedview>
  <metadata
     id="metadata7">
    <rdf:RDF>
      <cc:Work
         rdf:about="">
        <dc:format>image/svg+xml</dc:format>
        <dc:type
           rdf:resource="http://purl.org/dc/dcmitype/StillImage" />
        <dc:title></dc:title>
      </cc:Work>
    </rdf:RDF>
  </metadata>
  <g
     inkscape:groupmode="layer"
     id="layer3"
     inkscape:label="bg"
     style="display:inline">
    <rect
       style="fill:#000000;fill-opacity:1;stroke:none"
       id="rect3648"
       width="1948.2908"
       height="1217.6818"
       x="-14.145383"
       y="-8.8408642"
       ry="0" />
    <rect
       style="fill:url(#radialGradient4197);fill-opacity:1;stroke:none;stroke-width:3.22738265999999996;stroke-miterlimit:4;stroke-opacity:1;stroke-dasharray:none;filter:url(#filter4203)"
       id="rect4177"
       width="1996.8292"
       height="695.45398"
       x="-37.707329"
       y="-18.846819"
       ry="0"
       transform="matrix(1.0000142,0,0,0.98211164,-0.01360953,12.551325)" />
    <g
       transform="matrix(1.2500001,0,0,1.2500001,106.4594,543.28715)"
       id="g1363">
      <path
         id="path1226"
         d="m 305.10823,454.69489 c -23.211,0 -29.308,-12.301 -29.308,-27.596 l 0,-46.102 19.895,0 0,45.138 c 0,7.703 2.354,11.874 10.589,11.874 8.022,0 10.59,-3.423 10.59,-12.408 l 0,-44.604 19.682,0 0,43.534 c 0,20.965 -12.087,30.164 -31.448,30.164"
         style="fill:#f5de00;fill-rule:nonzero;stroke:none" />
      <path
         id="path1228"
         d="m 359.58023,454.58888 c -4.92,0 -10.054,-0.427 -14.867,-1.498 l 1.068,-18.184 c 3.958,1.39 9.947,2.567 15.403,2.567 4.814,0 7.915,-2.032 7.915,-5.348 0,-10.483 -26.954,-4.279 -26.954,-28.987 0,-14.334 11.017,-23.533 30.057,-23.533 3.636,0 8.663,0.429 13.156,1.177 l -1.069,17.221 c -4.173,-1.176 -8.451,-1.925 -12.836,-1.925 -5.563,0 -7.914,2.246 -7.914,5.027 0,9.092 26.954,5.563 26.954,28.132 0,14.439 -11.66,25.351 -30.913,25.351"
         style="fill:#f5de00;fill-rule:nonzero;stroke:none" />
      <path
         id="path1230"
         d="m 395.92023,453.19889 0,-72.202 42.25,0 0,16.901 -22.356,0 0,10.161 21.179,0 0,16.258 -21.179,0 0,11.659 22.356,0 0,17.223 -42.25,0"
         style="fill:#f5de00;fill-rule:nonzero;stroke:none" />
      <path
         id="path1232"
         d="m -28.406771,453.05149 0,-91.2886 26.36,0 0,91.2886 -26.36,0"
         style="fill:#ffffff;fill-rule:nonzero;stroke:none" />
      <path
         id="path1234"
         d="m 8.140229,453.05189 0,-71.984 26.359,0 0,71.984 -26.359,0"
         style="fill:#ffffff;fill-rule:nonzero;stroke:none" />
      <path
         id="path1236"
         d="m 86.155229,453.05189 0,-45.48 c 0,-3.621 -1.014,-5.938 -4.057,-5.938 -5.792,0 -11.295,8.4 -11.295,16.367 l 0,35.051 -26.362,0 0,-71.984 24.333,0 c 0,1.882 -0.145,6.372 -0.724,9.559 l 0.146,0 c 4.488,-6.373 12.019,-11.297 23.028,-11.297 15.932001,0 21.290001,10.427 21.290001,22.739 l 0,50.983 -26.359001,0"
         style="fill:#ffffff;fill-rule:nonzero;stroke:none" />
      <path
         id="path1238"
         d="m 164.42223,453.05189 c 0,-1.884 0.145,-6.373 0.724,-9.56 l -0.144,0 c -4.491,6.373 -12.023,11.297 -23.029,11.297 -15.933,0 -21.291,-10.428 -21.291,-22.739 l 0,-50.982 26.361,0 0,45.478 c 0,3.621 1.013,5.938 4.055,5.938 5.792,0 11.297,-8.399 11.297,-16.366 l 0,-35.05 26.36,0 0,71.984 -24.333,0"
         style="fill:#ffffff;fill-rule:nonzero;stroke:none" />
      <path
         id="path1240"
         d="m 239.72523,453.05189 -7.822,-19.263 -7.821,19.263 -31.139,0 22.449,-36.645 -20.857,-35.339 30.996,0 8.401,18.973 8.255,-18.973 28.823,0 -19.12,35.484 20.424,36.5 -32.589,0"
         style="fill:#ffffff;fill-rule:nonzero;stroke:none" />
      <path
         id="path1242"
         d="m 34.132229,365.11528 c 0,-1.9404 -1.587,-3.5264 -3.526,-3.5264 l -19.105,0 c -1.94,0 -3.526,1.586 -3.526,3.5264 l 0,6.3741 c 0,1.94 1.586,3.527 3.526,3.527 l 19.105,0 c 1.939,0 3.526,-1.587 3.526,-3.527 l 0,-6.3741"
         style="fill:#f5de00;fill-rule:nonzero;stroke:none" />
      <path
         id="path1244"
         d="m 300.75023,469.07789 c 0,2.388 -1.256,3.463 -2.986,3.463 -0.357,0 -0.724,-0.031 -0.969,-0.075 l 0,-6.791 c 0.285,-0.031 0.668,-0.045 1.076,-0.045 2.101,0 2.879,1.284 2.879,3.448 z m 1.91,-0.149 c 0,-3.537 -1.814,-4.925 -4.665,-4.925 -1.134,0 -2.252,0.044 -2.974,0.074 l 0,10.045 c 0.778,0.029 1.608,0.074 2.564,0.074 3.001,0 5.075,-1.805 5.075,-5.268 z"
         style="fill:#ffffff;fill-rule:nonzero;stroke:none" />
      <path
         id="path1246"
         d="m 309.64523,471.03289 c 0,0.896 -0.587,1.792 -1.447,1.792 -0.505,0 -0.805,-0.315 -0.805,-0.791 0,-0.598 0.41,-1.179 2.252,-1.179 l 0,0.178 z m 1.787,3.105 c -0.028,-0.613 -0.041,-1.313 -0.041,-1.911 l 0,-3.089 c 0,-1.611 -0.615,-2.584 -2.796,-2.584 -0.873,0 -1.747,0.196 -2.429,0.465 l 0.15,1.597 c 0.574,-0.359 1.392,-0.582 2.006,-0.582 0.984,0 1.323,0.403 1.323,1.178 l 0,0.403 c -2.305,0 -3.916,0.94 -3.916,2.717 0,1.193 0.71,1.955 1.938,1.955 1.009,0 1.842,-0.582 2.169,-1.418 l 0.013,0.015 c -0.055,0.388 -0.069,0.821 -0.069,1.254 l 1.652,0 z"
         style="fill:#ffffff;fill-rule:nonzero;stroke:none" />
      <path
         id="path1248"
         d="m 316.51823,474.28689 c -0.489,0 -0.982,-0.059 -1.417,-0.135 l 0.041,-1.566 c 0.424,0.119 0.941,0.222 1.46,0.222 0.668,0 1.105,-0.298 1.105,-0.79 0,-1.313 -2.742,-0.567 -2.742,-3.089 0,-1.3 0.968,-2.375 2.877,-2.375 0.397,0 0.834,0.061 1.243,0.136 l -0.055,1.507 c -0.381,-0.119 -0.832,-0.193 -1.255,-0.193 -0.682,0 -1.009,0.297 -1.009,0.761 0,1.208 2.784,0.672 2.784,3.074 0,1.463 -1.175,2.448 -3.032,2.448"
         style="fill:#ffffff;fill-rule:nonzero;stroke:none" />
      <path
         id="path1250"
         d="m 336.88923,474.13788 -0.656,-4.806 c -0.137,-0.955 -0.219,-1.703 -0.288,-2.403 l -0.026,0 c -0.122,0.641 -0.274,1.358 -0.506,2.149 l -1.459,5.06 -1.76,0 -1.404,-4.672 c -0.246,-0.82 -0.479,-1.732 -0.587,-2.537 l -0.027,0 c -0.055,0.895 -0.151,1.687 -0.259,2.568 l -0.52,4.641 -1.799,0 1.418,-10.075 2.073,0 1.542,5.179 c 0.218,0.717 0.383,1.403 0.505,2.12 l 0.028,0 c 0.135,-0.776 0.286,-1.343 0.517,-2.09 l 1.583,-5.209 2.06,0 1.434,10.075 -1.869,0"
         style="fill:#ffffff;fill-rule:nonzero;stroke:none" />
      <path
         id="path1252"
         d="m 345.79623,474.13789 c 0,-0.433 0.013,-0.866 0.067,-1.254 l -0.014,-0.015 c -0.327,0.836 -1.159,1.418 -2.168,1.418 -1.228,0 -1.936,-0.762 -1.936,-1.955 0,-1.777 1.607,-2.717 3.913,-2.717 l 0,-0.403 c 0,-0.775 -0.341,-1.178 -1.323,-1.178 -0.613,0 -1.433,0.223 -2.005,0.582 l -0.149,-1.597 c 0.681,-0.269 1.555,-0.465 2.427,-0.465 2.183,0 2.797,0.973 2.797,2.584 l 0,3.089 c 0,0.598 0.015,1.298 0.041,1.911 l -1.65,0 z m -0.138,-3.283 c -1.84,0 -2.249,0.581 -2.249,1.179 0,0.476 0.301,0.791 0.804,0.791 0.86,0 1.445,-0.896 1.445,-1.792 l 0,-0.178 z"
         style="fill:#ffffff;fill-rule:nonzero;stroke:none" />
      <path
         id="path1254"
         d="m 355.37223,469.30189 c 0,0.821 -0.519,1.313 -1.31,1.313 -0.845,0 -1.337,-0.508 -1.337,-1.328 0,-0.791 0.504,-1.344 1.337,-1.344 0.819,0 1.31,0.508 1.31,1.359 z m 2.155,5.672 c 0,-1.433 -0.845,-2.179 -2.319,-2.179 l -1.05,0 c -0.791,0 -1.051,-0.12 -1.051,-0.463 0,-0.179 0.11,-0.373 0.328,-0.479 0.176,0.045 0.436,0.062 0.668,0.062 1.883,0 2.933,-1.076 2.933,-2.718 0,-0.417 -0.137,-0.776 -0.341,-0.985 l 0.914,0 0,-1.493 -2.292,0 c -0.383,-0.089 -0.736,-0.165 -1.186,-0.165 -1.992,0 -3.07,1.315 -3.07,2.883 0,0.91 0.341,1.701 1.01,2.074 -0.478,0.194 -0.807,0.746 -0.807,1.284 0,0.521 0.26,0.91 0.67,1.133 -0.559,0.314 -1.037,1.015 -1.037,1.792 0,1.448 1.106,2.194 2.907,2.194 2.263,0 3.723,-1.328 3.723,-2.94 z m -1.719,0.252 c 0,0.703 -0.6,1.225 -1.746,1.225 -0.874,0 -1.446,-0.403 -1.446,-1.089 0,-0.419 0.219,-0.821 0.613,-1.06 0.082,0 0.219,0 0.315,0 l 1.186,0 c 0.751,0 1.078,0.388 1.078,0.924 z"
         style="fill:#ffffff;fill-rule:nonzero;stroke:none" />
      <path
         id="path1256"
         d="m 364.41423,471.03289 c 0,0.896 -0.586,1.792 -1.446,1.792 -0.503,0 -0.804,-0.315 -0.804,-0.791 0,-0.598 0.409,-1.179 2.25,-1.179 l 0,0.178 z m 1.787,3.105 c -0.027,-0.613 -0.041,-1.313 -0.041,-1.911 l 0,-3.089 c 0,-1.611 -0.613,-2.584 -2.795,-2.584 -0.874,0 -1.747,0.196 -2.429,0.465 l 0.15,1.597 c 0.572,-0.359 1.392,-0.582 2.005,-0.582 0.982,0 1.323,0.403 1.323,1.178 l 0,0.403 c -2.306,0 -3.914,0.94 -3.914,2.717 0,1.193 0.708,1.955 1.936,1.955 1.009,0 1.841,-0.582 2.169,-1.418 l 0.013,0.015 c -0.053,0.388 -0.067,0.821 -0.067,1.254 l 1.65,0 z"
         style="fill:#ffffff;fill-rule:nonzero;stroke:none" />
      <path
         id="path1258"
         d="m 369.78923,474.13788 0,-1.358 2.728,-4.389 c -0.259,0.015 -0.791,0.03 -1.446,0.03 l -1.2,0 0,-1.702 4.748,0 0,1.359 -2.675,4.328 c 0.286,-0.014 1.037,-0.014 1.542,-0.014 l 1.188,0 0,1.746 -4.885,0"
         style="fill:#ffffff;fill-rule:nonzero;stroke:none" />
      <path
         id="path1260"
         d="m 379.17523,465.76289 c -0.601,0 -1.077,-0.521 -1.077,-1.162 0,-0.627 0.476,-1.15 1.077,-1.15 0.599,0 1.092,0.508 1.092,1.15 0,0.641 -0.493,1.162 -1.092,1.162 z m -0.872,8.375 0,-7.419 1.746,0 0,7.419 -1.746,0 z"
         style="fill:#ffffff;fill-rule:nonzero;stroke:none" />
      <path
         id="path1262"
         d="m 388.13723,474.13789 0,-4.746 c 0,-0.776 -0.191,-1.239 -0.831,-1.239 -0.887,0 -1.584,1.103 -1.584,2.402 l 0,3.583 -1.746,0 0,-7.419 1.651,0 c 0,0.343 -0.027,0.926 -0.096,1.315 l 0.016,0.014 c 0.408,-0.88 1.199,-1.494 2.304,-1.494 1.527,0 2.02,1.075 2.02,2.375 l 0,5.209 -1.734,0"
         style="fill:#ffffff;fill-rule:nonzero;stroke:none" />
      <path
         id="path1264"
         d="m 402.87123,464.80788 c -0.273,-0.103 -0.587,-0.133 -0.847,-0.133 -0.762,0 -1.104,0.434 -1.104,1.418 l 0,0.626 1.583,0 0,1.478 -1.583,0 0,5.941 -1.732,0 0,-5.941 -1.188,0 0,-1.478 1.188,0 0,-0.596 c 0,-2.015 0.845,-3 2.701,-3 0.369,0 0.75,0.03 1.104,0.12 l -0.122,1.565"
         style="fill:#ffffff;fill-rule:nonzero;stroke:none" />
      <path
         id="path1266"
         d="m 410.89123,464.46589 c 0,-0.582 -0.422,-1.03 -0.94,-1.03 -0.519,0 -0.942,0.448 -0.942,1.03 0,0.567 0.423,1.031 0.942,1.031 0.518,0 0.94,-0.464 0.94,-1.031 z m -2.754,0 c 0,-0.582 -0.424,-1.03 -0.942,-1.03 -0.518,0 -0.941,0.448 -0.941,1.03 0,0.567 0.423,1.031 0.941,1.031 0.518,0 0.942,-0.464 0.942,-1.031 z m 3.465,9.672 0,-7.419 -1.746,0 0,3.583 c 0,1.299 -0.682,2.403 -1.57,2.403 -0.654,0 -0.845,-0.463 -0.845,-1.239 l 0,-4.747 -1.733,0 0,5.21 c 0,1.299 0.491,2.373 2.018,2.373 1.12,0 1.898,-0.612 2.305,-1.494 l 0.015,0.017 c -0.068,0.387 -0.081,0.97 -0.081,1.313 l 1.637,0 z"
         style="fill:#ffffff;fill-rule:nonzero;stroke:none" />
      <path
         id="path1268"
         d="m 419.15923,468.43688 c -1.255,-0.284 -1.883,0.611 -1.883,2.67 l 0,3.031 -1.746,0 0,-7.419 1.651,0 c 0,0.374 -0.041,0.972 -0.123,1.493 l 0.027,0 c 0.328,-0.94 0.982,-1.76 2.156,-1.658 l -0.082,1.883"
         style="fill:#ffffff;fill-rule:nonzero;stroke:none" />
      <path
         id="path1270"
         d="m 431.42323,470.28688 c 0,1.268 -0.546,2.433 -1.459,2.433 -0.792,0 -1.16,-0.716 -1.16,-2.105 0,-1.835 0.71,-2.522 1.706,-2.522 0.299,0 0.599,0.045 0.913,0.119 l 0,2.075 z m 1.733,3.851 0,-10.895 -1.733,0 0,3.402 c -0.301,-0.045 -0.573,-0.059 -0.861,-0.059 -2.249,0 -3.588,1.731 -3.588,4.238 0,2.121 0.82,3.478 2.471,3.478 1.036,0 1.786,-0.582 2.141,-1.404 l 0.029,0 c -0.057,0.404 -0.083,0.882 -0.083,1.24 l 1.624,0 z"
         style="fill:#ffffff;fill-rule:nonzero;stroke:none" />
      <path
         id="path1272"
         d="m 439.06123,464.60089 c 0,-0.642 -0.49,-1.15 -1.089,-1.15 -0.601,0 -1.079,0.523 -1.079,1.15 0,0.641 0.478,1.162 1.079,1.162 0.599,0 1.089,-0.521 1.089,-1.162 z m -0.218,9.537 0,-7.419 -1.745,0 0,7.419 1.745,0 z"
         style="fill:#ffffff;fill-rule:nonzero;stroke:none" />
      <path
         id="path1274"
         d="m 446.59423,469.43689 -2.498,0 c 0.095,-0.896 0.6,-1.478 1.323,-1.478 0.737,0 1.201,0.551 1.175,1.478 z m 1.731,0.432 c 0,-1.835 -0.873,-3.315 -2.851,-3.315 -2.033,0 -3.177,1.673 -3.177,3.942 0,2.613 1.198,3.791 3.354,3.791 0.846,0 1.705,-0.164 2.428,-0.478 l -0.163,-1.477 c -0.586,0.298 -1.309,0.463 -1.978,0.463 -1.255,0 -1.882,-0.672 -1.869,-2.06 l 4.202,0 c 0.041,-0.314 0.054,-0.612 0.054,-0.866 z"
         style="fill:#ffffff;fill-rule:nonzero;stroke:none" />
      <path
         id="path1276"
         d="m 460.99823,467.24289 c 0,1.089 -0.75,1.746 -1.841,1.761 -0.164,0 -0.342,-0.015 -0.518,-0.045 l 0,-3.36 c 0.204,-0.013 0.408,-0.013 0.627,-0.013 1.201,0 1.732,0.642 1.732,1.657 z m 1.843,-0.119 c 0,-1.971 -1.243,-3.12 -3.507,-3.12 -0.9,0 -1.719,0.014 -2.469,0.059 l 0,10.075 1.774,0 0,-3.552 c 0.218,0.029 0.435,0.029 0.6,0.029 2.236,0 3.602,-1.537 3.602,-3.491 z"
         style="fill:#ffffff;fill-rule:nonzero;stroke:none" />
      <path
         id="path1278"
         d="m 469.77023,468.43688 c -1.256,-0.284 -1.881,0.611 -1.881,2.67 l 0,3.031 -1.747,0 0,-7.419 1.65,0 c 0,0.374 -0.042,0.972 -0.123,1.493 l 0.027,0 c 0.328,-0.94 0.983,-1.76 2.155,-1.658 l -0.081,1.883"
         style="fill:#ffffff;fill-rule:nonzero;stroke:none" />
      <path
         id="path1280"
         d="m 476.41223,474.13789 c 0,-0.433 0.016,-0.866 0.069,-1.254 l -0.013,-0.015 c -0.328,0.836 -1.16,1.418 -2.169,1.418 -1.23,0 -1.939,-0.762 -1.939,-1.955 0,-1.777 1.611,-2.717 3.915,-2.717 l 0,-0.403 c 0,-0.775 -0.341,-1.178 -1.323,-1.178 -0.612,0 -1.432,0.223 -2.005,0.582 l -0.149,-1.597 c 0.682,-0.269 1.554,-0.465 2.428,-0.465 2.182,0 2.795,0.973 2.795,2.584 l 0,3.089 c 0,0.598 0.014,1.298 0.041,1.911 l -1.65,0 z m -0.137,-3.283 c -1.841,0 -2.25,0.581 -2.25,1.179 0,0.476 0.3,0.791 0.805,0.791 0.859,0 1.445,-0.896 1.445,-1.792 l 0,-0.178 z"
         style="fill:#ffffff;fill-rule:nonzero;stroke:none" />
      <path
         id="path1282"
         d="m 485.89423,474.13788 -1.309,-2.492 -1.311,2.492 -2.087,0 2.333,-3.747 -2.197,-3.672 2.088,0 1.311,2.449 1.322,-2.449 1.923,0 -2.115,3.658 2.239,3.761 -2.197,0"
         style="fill:#ffffff;fill-rule:nonzero;stroke:none" />
      <path
         id="path1284"
         d="m 492.10123,465.76289 c -0.6,0 -1.078,-0.521 -1.078,-1.162 0,-0.627 0.478,-1.15 1.078,-1.15 0.601,0 1.091,0.508 1.091,1.15 0,0.641 -0.49,1.162 -1.091,1.162 z m -0.874,8.375 0,-7.419 1.747,0 0,7.419 -1.747,0 z"
         style="fill:#ffffff;fill-rule:nonzero;stroke:none" />
      <path
         id="path1286"
         d="m 498.07623,474.28689 c -0.492,0 -0.981,-0.059 -1.418,-0.135 l 0.04,-1.566 c 0.423,0.119 0.942,0.222 1.46,0.222 0.668,0 1.106,-0.298 1.106,-0.79 0,-1.313 -2.744,-0.567 -2.744,-3.089 0,-1.3 0.969,-2.375 2.88,-2.375 0.394,0 0.83,0.061 1.241,0.136 l -0.055,1.507 c -0.382,-0.119 -0.832,-0.193 -1.255,-0.193 -0.682,0 -1.009,0.297 -1.009,0.761 0,1.208 2.782,0.672 2.782,3.074 0,1.463 -1.173,2.448 -3.028,2.448"
         style="fill:#ffffff;fill-rule:nonzero;stroke:none" />
      <path
         id="path1288"
         d="m 477.10923,404.31289 c 0,5.348 -3.744,8.236 -9.199,8.236 -1.069,0 -2.567,-0.107 -3.315,-0.213 l 0,-15.512 c 0.641,-0.106 2.459,-0.213 3.743,-0.213 6.525,0 8.771,3.423 8.771,7.702 z m 25.992,48.669 -12.942,-22.035 c -1.603,-2.781 -3.316,-5.456 -5.242,-8.343 8.343,-2.996 13.158,-11.232 13.158,-19.788 0,-16.046 -10.269,-22.57 -28.668,-22.57 -9.092,0 -17.969,0.107 -24.709,0.534 l 0,72.202 19.897,0 0,-26.314 0.748,0 13.585,26.314 24.173,0 z"
         style="fill:#f5de00;fill-rule:nonzero;stroke:none" />
    </g>
  </g>
  <g
     inkscape:groupmode="layer"
     id="layer2"
     inkscape:label="white shadow"
     style="display:inline">
    <path
       id="path4147"
       d="m 16.981508,689.46322 1898.442492,0"
       style="stroke:url(#linearGradient3650);stroke-width:3.07788539000000005;stroke-miterlimit:4;stroke-dasharray:none;display:inline;filter:url(#filter4161)" />
    <path
       sodipodi:type="star"
       style="opacity:0.59090905;fill:#ffffff;fill-opacity:1;stroke:none;filter:url(#filter4479)"
       id="path4473"
       sodipodi:sides="17"
       sodipodi:cx="140"
       sodipodi:cy="420"
       sodipodi:r1="488.26221"
       sodipodi:r2="283.50995"
       sodipodi:arg1="0.61072596"
       sodipodi:arg2="0.79552553"
       inkscape:flatsided="false"
       inkscape:rounded="0"
       inkscape:randomized="0.427"
       d="M 647.60813,908.06899 315.31579,657.16959 363.0564,889.17907 215.22649,713.74238 359.32978,802.22608 158.74118,574.59454 241.372,834.06346 110.11989,545.38822 -168.20235,930.14161 -21.926293,447.73143 -215.72967,526.17638 -13.985198,672.39032 -495.82397,662.28121 -10.326295,404.387 -335.64095,538.98863 -119.88718,487.39109 -99.521147,335.44096 -263.081,183.2714 -219.56062,88.077519 91.211729,362.32414 -86.974235,129.69514 114.63953,-47.160802 209.1375,-99.085514 79.078177,158.99233 377.32452,-145.09208 201.99294,75.871238 662.36113,-51.623702 455.85081,423.96117 364.53148,210.34988 528.37204,427.49107 673.28138,199.54774 467.26016,594.56932 712.05252,562.66383 575.07218,481.49378 647.60813,908.06899 z"
       transform="matrix(1,0,0,0.31541598,761.25882,458.7637)" />
    <path
       sodipodi:type="star"
       style="opacity:0.52479337999999998;fill:none;stroke:#ffffff;stroke-width:3;stroke-miterlimit:4;stroke-opacity:1;stroke-dasharray:none;filter:url(#filter4173)"
       id="path4505"
       sodipodi:sides="17"
       sodipodi:cx="380"
       sodipodi:cy="560"
       sodipodi:r1="200.99751"
       sodipodi:r2="116.70941"
       sodipodi:arg1="-0.099668652"
       sodipodi:arg2="0.085130915"
       inkscape:flatsided="false"
       inkscape:rounded="0"
       inkscape:randomized="0.427"
       d="m 633.74965,487.96052 -55.75467,17.03772 -79.14737,153.01539 22.05714,-62.00379 -34.70147,92.85618 37.46301,-21.37484 -100.52409,-22.20254 25.51079,62.48828 -78.44627,14.94463 -30.67036,-54.06467 13.32938,23.23325 -23.2029,-12.89174 31.47036,7.51643 -73.26447,-52.73187 -37.78739,21.14946 -24.32932,-84.44297 -89.94801,-39.61127 86.16331,101.22929 -99.84016,-139.64751 170.88778,26.22865 -89.04729,-100.74833 136.97818,94.14297 -47.74018,-38.5045 -21.13687,46.8576 56.52928,-226.33177 42.60618,187.98682 -2.16632,-127.49415 75.94904,89.04362 -29.62083,-9.72786 43.16188,7.19419 107.07198,-66.27483 -178.3531,68.37534 215.52955,60.86342 -111.24531,-28.11363 142.21852,12.00303 z"
       transform="matrix(3.4358787,0,0,0.19299643,-297.48695,583.23887)" />
    <path
       style="opacity:0.50220265;fill:url(#radialGradient3695);fill-opacity:1;stroke:none;filter:url(#filter3717)"
       d="M 342.10816,704.64822 74.311714,772.12634 707.45672,743.28087 130.84498,872.15467 578.50746,864.74516 373.13701,957.38242 787.60691,802.3726 725.27298,1050.1302 877.05653,879.60103 918.25952,1021.8561 967.24275,799.29452 1253.1778,1049.4851 1112.0287,786.50299 1517.5215,934.54563 1239.827,779.75702 l 537.9868,43.81193 -411.9838,-83.91911 366.6375,-35.00162 -1390.35934,0 z"
       id="path3662" />
    <path
       style="stroke:url(#linearGradient3650);stroke-width:3.07788539;stroke-miterlimit:4;stroke-dasharray:none;display:inline"
       d="m 16.981508,689.46322 1898.442492,0"
       id="path2870" />
    <path
       id="path4113"
       d="M 342.10816,704.64822 74.311714,772.12634 707.45672,743.28087 130.84498,872.15467 578.50746,864.74516 373.13701,957.38242 787.60691,802.3726 725.27298,1050.1302 877.05653,879.60103 918.25952,1021.8561 967.24275,799.29452 1253.1778,1049.4851 1112.0287,786.50299 1517.5215,934.54563 1239.827,779.75702 l 537.9868,43.81193 -411.9838,-83.91911 366.6375,-35.00162 -1390.35934,0 z"
       style="opacity:0.0969163;fill:url(#radialGradient3695);fill-opacity:1;stroke:none;filter:url(#filter4143)" />
  </g>
  <g
     inkscape:label="Layer 1"
     inkscape:groupmode="layer"
     id="layer1"
     style="display:inline">
    <use
       x="0"
       y="0"
       xlink:href="#g4615"
       id="use4628"
       transform="matrix(1,0,0,-1,0,1409.9861)"
       width="1920"
       height="1200"
       mask="url(#mask3489)"
       style="fill-opacity:1;fill:url(#radialGradient3487)" />
    <g
       id="g4615">
      <rect
         ry="54.285713"
         y="385.47614"
         x="577.14282"
         height="309.03378"
         width="765.71429"
         id="rect2854"
         style="fill:#ad1318;fill-opacity:1;stroke:#7d1117;stroke-width:20;stroke-miterlimit:4;stroke-opacity:1;stroke-dasharray:none" />
      <rect
         style="fill:none;fill-opacity:1;stroke:#2b0000;stroke-width:3.20000000000000018;stroke-miterlimit:4;stroke-opacity:1;stroke-dasharray:none;filter:url(#filter4108)"
         id="rect4103"
         width="765.71429"
         height="309.03378"
         x="577.14282"
         y="385.47614"
         ry="54.285713" />
      <rect
         style="opacity:0.37885467;fill:none;stroke:url(#linearGradient3737);stroke-width:8.25038052;stroke-miterlimit:4;stroke-opacity:1;stroke-dasharray:none"
         id="rect3721"
         width="765.46393"
         height="328.78799"
         x="577.26801"
         y="375.59903"
         ry="57.755791" />
      <rect
         ry="54.285713"
         y="385.4888"
         x="577.14508"
         height="309.03378"
         width="765.71429"
         id="rect2794"
         style="fill:#ad1318;fill-opacity:1;stroke:none" />
      <path
         transform="matrix(1.7352941,0,0,1.4761905,-813.93993,-331.95115)"
         d="m 1188.0716,662.02783 c 0,13.83457 -72.6313,25.0497 -162.2266,25.0497 -89.59533,0 -162.22667,-11.21513 -162.22667,-25.0497 0,-13.83457 72.63134,-25.0497 162.22667,-25.0497 89.5953,0 162.2266,11.21513 162.2266,25.0497 z"
         sodipodi:ry="25.049702"
         sodipodi:rx="162.22664"
         sodipodi:cy="662.02783"
         sodipodi:cx="1025.845"
         id="path3751"
         style="opacity:0.32158592;fill:url(#radialGradient3761);fill-opacity:1;stroke:none;display:inline;filter:url(#filter4589)"
         sodipodi:type="arc" />
      <path
         id="rect5914"
         d="m 631.42187,385.4774 c -30.07429,0 -54.28125,24.23821 -54.28125,54.3125 l 0,200.4375 c 0,30.07429 24.20696,54.28125 54.28125,54.28125 l 657.15623,0 c 30.0743,0 54.2813,-24.20696 54.2813,-54.28125 l 0,-200.4375 c 0,-30.07429 -24.207,-54.3125 -54.2813,-54.3125 l -657.15623,0 z"
         style="opacity:0.08264465;fill:url(#pattern3658);fill-opacity:1;stroke:none" />
      <g
         clip-path="url(#clipPath5939)"
         style="opacity:0.28193838"
         id="layer4"
         inkscape:label="scorpie"
         transform="matrix(1.123494,0,0,1.123494,-1238.652,-821.43471)">
        <path
           style="font-size:medium;font-style:normal;font-variant:normal;font-weight:normal;font-stretch:normal;text-indent:0;text-align:start;text-decoration:none;line-height:normal;letter-spacing:normal;word-spacing:normal;text-transform:none;direction:ltr;block-progression:tb;writing-mode:lr-tb;text-anchor:start;color:#000000;fill:#000000;fill-opacity:1;stroke:none;stroke-width:7;marker:none;visibility:visible;display:inline;overflow:visible;enable-background:accumulate;font-family:Bitstream Vera Sans;-inkscape-font-specification:Bitstream Vera Sans"
           d="m 1729.9175,947.43687 c -23.1071,0.41293 -44.469,28.01542 -44.469,28.01542 -35.2178,-29.06487 -34.997,38.99921 -34.997,38.99921 -32.7625,15.1205 -24.2801,68.749 -24.2801,68.749 l 10.2279,2.2679 c -8.2115,16.0853 -12.8515,34.2425 -12.8515,53.4517 0,5.6711 0.4208,11.2143 1.2006,16.6758 -17.3286,2.9355 -50.6767,10.6293 -44.9135,25.6141 l -3.0684,6.1812 c 0,0 -15.4551,6.1829 -12.3623,16.2311 1.8547,6.0256 16.7266,18.1062 28.3711,26.8593 -4.2465,1.6764 -17.6821,7.7452 -14.3635,16.8536 3.9252,10.7669 53.9409,39.7553 53.9409,39.7553 l -24.5024,-37.265 c 0,0 43.943,-5.1771 59.4105,-19.255 1.9576,1.6087 3.9445,3.1824 6.0033,4.6692 -8.5135,4.0483 -14.1199,9.3937 -11.4731,16.2756 l -3.1127,6.1812 c 0,0 -15.4551,6.183 -12.3625,16.2312 3.0929,10.0481 42.5126,37.0871 42.5123,37.0871 l -19.3439,-34.7748 c 0,0 21.8533,-3.0249 36.9536,-10.8504 -1.586,21.6171 15.9068,48.0953 44.9138,64.7913 28.1019,16.1751 58.6545,18.2875 76.7977,7.2929 -9.0188,-1.3622 -18.9105,-4.7757 -28.46,-10.2724 -25.4662,-14.6578 -39.2446,-38.5103 -30.7726,-53.2293 8.4437,-14.6698 35.8388,-14.7335 61.2338,-0.2223 -7.6649,-9.9201 -18.2269,-19.1732 -31.0394,-26.548 -0.5047,-0.2905 -1.0056,-0.5633 -1.5118,-0.8449 7.2379,-3.4681 14.0606,-7.6469 20.4111,-12.4068 1.5357,7.053 4.216,14.3646 8.1378,21.4785 5.1798,9.3958 11.7593,17.1626 18.8548,22.8571 -10.1898,-18.6212 -9.8238,-38.4939 0.9338,-44.4245 10.7938,-5.9505 27.9483,4.4046 38.2433,23.0793 3.8608,7.003 6.203,14.2046 7.0706,20.7671 5.6643,-8.9696 6.8438,-22.3043 3.3352,-36.4646 5.9444,-3.7607 36.0464,-23.1469 39.1326,-32.24 3.4106,-10.0481 -13.652,-16.2311 -13.652,-16.2311 l -3.3797,-6.1812 c 3.218,-7.5857 -4.6474,-13.3026 -15.653,-17.4763 5.9453,-4.5431 11.0294,-9.0799 11.9623,-11.8287 2.4806,-7.3147 -9.9611,-11.7842 -9.9611,-11.7842 l -2.4458,-4.4914 c 4.5996,-10.8418 -21.8269,-16.4256 -35.7975,-18.588 -8.1828,-58.103 -58.9333,-102.9011 -120.0215,-102.9011 -29.3304,0 -56.2812,10.3108 -77.2872,27.4818 3.9236,-11.1513 6.6705,-20.2334 6.6705,-20.2334 14.5227,3.1966 29.0381,-35.21935 29.0381,-35.21935 12.5869,2.77043 61.5007,-12.85153 61.5007,-12.85153 0,0 16.1466,16.71332 23.9686,4.22456 7.8236,-12.48592 23.9687,0.22234 23.9687,0.22234 -37.3062,-51.85628 -47.5372,-14.54134 -47.5372,-14.54134 l -10.3611,-8.36015 c -7.8736,-9.55212 -16.4561,-12.95641 -24.8138,-12.80706 z m 0.3556,5.51415 c 16.0532,-0.503 21.9233,14.71956 21.9233,14.71922 -7.3656,4.71007 -56.1641,3.46857 -56.1641,3.46857 14.6398,-13.37026 25.8323,-17.9243 34.2408,-18.18779 z m -54.919,22.50127 c 3.513,-0.10943 6.0032,1.20066 6.0032,1.20066 l -17.7876,26.94815 c -4.2942,4.6596 -1.8412,9.9431 0.8895,13.5186 2.134,1.7016 3.8233,3.2856 3.9132,4.1356 0,0 -2.0172,-1.6535 -3.9132,-4.1356 -3.9682,-3.1644 -9.5162,-6.7148 -9.5162,-6.7148 3.3509,-29.38129 13.7045,-34.74367 20.4111,-34.95261 z m -24.2356,45.18041 c -7.8661,6.9739 -2.4013,46.9142 -2.4013,46.9147 l -17.6096,8.0044 c -2.5021,-35.3669 20.0109,-54.9191 20.0109,-54.9191 z m 93.6517,15.1195 c 58.1154,0 104.9464,46.2007 104.9467,103.1679 0,0.8226 -0.026,1.6277 -0.044,2.4457 -28.5236,42.1709 -104.4361,15.777 -148.5263,-15.2083 -41.8396,-29.4039 -57.5055,2.42 -61.3671,12.9849 -1e-4,-0.075 0,-0.1476 0,-0.2223 0,-56.9672 46.8756,-103.1679 104.9913,-103.1679 z m -12.7183,66.6144 56.8758,43.4017 c 12.6774,-21.5129 -56.8758,-43.4017 -56.8758,-43.4017 z m 95.4749,3.513 c -9.859,-0.3155 -13.6521,40.7336 -13.6521,40.7336 l 16.8983,-39.1772 c -1.1523,-1.0083 -2.2263,-1.5237 -3.2462,-1.5564 z m 37.2649,19.433 c 19.9301,-0.08 32.6847,14.0077 32.6847,14.0077 l -0.3113,7.0261 c -6.5125,0 -37.843,-12.9405 -37.843,-12.9405 l -0.9339,-7.6042 c 2.2096,-0.3428 4.3417,-0.4809 6.4035,-0.4891 z m -179.2987,22.2344 c 7.4974,-0.1862 18.0989,7.115 18.0989,7.115 93.1551,37.1508 142.4783,1.2896 142.4783,1.2896 -13.6995,34.5866 -147.9535,28.1858 -156.1749,26.9037 -8.2212,-1.2821 -15.0476,-19.2428 -10.9391,-30.7725 1.156,-3.2427 3.6031,-4.4629 6.5368,-4.5358 z m 216.6081,1.3341 c 0,0 14.2893,3.6518 6.2256,6.1812 l -6.2256,-6.1812 z m -36.8203,2.4902 c 12.0913,5.4956 29.0828,7.6042 29.0828,7.6042 l -4.1357,6.7593 c -9.764,-2.607 -19.561,-4.2212 -26.2366,-5.1584 0.5651,-3.0254 0.9617,-6.1049 1.2895,-9.2051 z m -240.8436,8.2713 c 2.569,0.012 5.2067,0.2405 7.96,0.7115 l -1.1563,10.4057 c 0,0 -39.0225,17.7876 -47.137,17.7876 l -0.4004,-9.6498 c 0,0 15.9006,-19.3646 40.7337,-19.255 z m 243.0672,5.3807 c 27.3901,-0.1096 44.9135,19.255 44.9135,19.255 l -0.4446,9.6498 c -8.9516,0 -51.9843,-17.7431 -51.9843,-17.7431 l -1.2896,-10.4502 c 3.0367,-0.471 5.9714,-0.7002 8.805,-0.7115 z m -26.1478,10.9838 c -15.318,19.7068 -111.9273,49.8467 -114.2852,51.0059 -2.3579,1.1592 -17.6541,-5.8042 -17.6541,-13.9188 0,-8.1146 8.2267,-13.9188 8.2267,-13.9188 20.0292,10.433 123.7126,-23.1683 123.7126,-23.1683 z m -207.0473,12.0956 c 1.6406,3.5581 3.4951,6.9992 5.4697,10.3612 -21.8324,4.2379 -47.5947,12.0471 -41.7563,24.8582 l -0.4003,0.667 -10.0499,-18.0544 c 0,0 34.4649,-4.7729 46.7368,-17.832 z m 219.7653,2.3568 c 0.098,0.1453 0.1637,0.3011 0.267,0.4447 -0.1366,-0.053 -0.2637,-0.1263 -0.4003,-0.1779 0.044,-0.089 0.089,-0.1774 0.1338,-0.2668 z m -276.1518,1.5564 -7.7377,8.4936 c -10.0482,-3.4777 7.7377,-8.4936 7.7377,-8.4936 z m 340.8986,5.4252 c 0,0 19.5758,5.0159 8.4937,8.4936 l -8.4937,-8.4936 z m -264.2341,2.7571 c 3.2606,0.013 6.644,0.2513 10.1388,0.756 l -1.4675,11.2061 c 0,0 -49.5096,19.0327 -59.8109,19.0327 l -0.489,-10.3612 c 0,0 20.1075,-20.7514 51.6286,-20.6336 z m 172.4059,0.044 c -6.7556,17.772 10.0499,65.4582 10.0499,65.4582 0,0 -8.7354,-12.4241 -15.2083,-34.0631 -6.473,-21.6391 5.1584,-31.3951 5.1584,-31.3951 z m 45.0914,2.2679 c 16.1383,6.3378 36.0642,8.8049 36.0642,8.8049 l -14.0965,27.9265 c -1.5985,-5.7569 -3.9037,-11.5989 -7.0707,-17.3429 -4.1922,-7.605 -9.3329,-14.1464 -14.897,-19.3885 z m -165.7356,27.4373 c 2.5689,0.012 5.2067,0.2406 7.9599,0.7115 l -1.1563,10.4502 c 0,0 -39.0224,17.7432 -47.1369,17.7432 l -0.3559,-9.6498 c 0,0 15.8558,-19.3646 40.6892,-19.2551 z m 172.8061,1.3786 c 0.3687,-0.019 0.728,-0.01 1.1117,0 1.4171,0.026 2.916,0.2529 4.4915,0.756 6.3504,14.3056 4.2245,27.793 4.2245,27.793 0,0 -2.806,-11.9558 -8.1378,-18.0099 -5.332,-6.0538 -10.3167,-7.6931 -10.3167,-7.6931 -0.6653,0.5059 3.0967,-2.5555 8.6268,-2.846 z m -283.5782,3.602 -9.7831,9.0716 c -12.7539,-3.728 9.7831,-9.0716 9.7831,-9.0716 z m 182.3225,16.8982 c 0.5259,-0.014 1.0688,-0.021 1.6453,0 18.4599,0.6836 23.2573,9.6053 23.2573,9.6053 0,0 -15.0526,-3.4463 -23.2573,-0.7116 -8.2042,2.7349 -10.9391,7.5153 -10.9391,7.5153 0.6621,1.3247 -7.0081,-15.9492 9.2938,-16.409 z m -66.0362,3.4241 c 9.7179,38.1966 90.2273,86.1807 90.2273,86.1807 0,0 -27.7269,-5.6924 -62.4343,-29.2605 -34.7073,-23.5681 -27.793,-56.9202 -27.793,-56.9202 z m -52.0288,7.115 -7.7375,8.4936 c -10.0483,-3.4777 7.7375,-8.4936 7.7375,-8.4936 z"
           id="ellipse3329" />
      </g>
      <text
         sodipodi:linespacing="125%"
         id="text3595"
         y="620.29053"
         x="763.20148"
         style="font-size:265.02047729px;font-style:normal;font-variant:normal;font-weight:normal;font-stretch:normal;text-align:start;line-height:125%;writing-mode:lr-tb;text-anchor:start;fill:#ffffff;fill-opacity:1;stroke:#ffffff;stroke-width:2.5;stroke-miterlimit:4;stroke-opacity:1;stroke-dasharray:none;font-family:Dustismo;-inkscape-font-specification:Dustismo"
         xml:space="preserve"><tspan
           dx="0 -8.5714283 5.7142859 -11.428571 -11.428571"
           y="620.29053"
           x="763.20148"
           id="tspan3597"
           sodipodi:role="line">sidux</tspan></text>
      <path
         sodipodi:nodetypes="cccccccczc"
         style="opacity:0.7892562;fill:url(#linearGradient3695);fill-opacity:1;stroke:none"
         d="m 631.42187,413.91205 c -30.07429,0 -54.28125,24.23821 -54.28125,54.3125 l 0,180.4375 c 0,30.07429 24.20696,54.28125 54.28125,54.28125 l 657.15623,0 c 30.0743,0 54.2813,-24.20696 54.2813,-54.28125 l 0,-180.4375 c 0,-30.07429 -24.207,-54.3125 -54.2813,-54.3125 0,0 -218.8494,-20 -328.57811,-20 -109.72875,0 -328.57812,20 -328.57812,20 z"
         id="path5947" />
      <path
         id="path4483"
         d="m 631.42187,385.4774 c -30.07429,0 -54.28125,24.23821 -54.28125,54.3125 l 0,200.4375 c 0,30.07429 24.20696,54.28125 54.28125,54.28125 l 657.15623,0 c 30.0743,0 54.2813,-24.20696 54.2813,-54.28125 l 0,-200.4375 c 0,-30.07429 -24.207,-54.3125 -54.2813,-54.3125 l -657.15623,0 z"
         style="fill:none;stroke:#ffffff;stroke-width:3;stroke-miterlimit:4;stroke-opacity:1;stroke-dasharray:none;filter:url(#filter4501)" />
      <path
         sodipodi:nodetypes="ccccc"
         id="path3697"
         d="m 857.79473,381.63489 -142.54473,1 538.1562,2.98211 36.3817,-3.98211 -431.99317,0 z"
         style="font-size:medium;font-style:normal;font-variant:normal;font-weight:normal;font-stretch:normal;text-indent:0;text-align:start;text-decoration:none;line-height:normal;letter-spacing:normal;word-spacing:normal;text-transform:none;direction:ltr;block-progression:tb;writing-mode:lr-tb;text-anchor:start;color:#000000;fill:#ffffff;fill-opacity:1;fill-rule:nonzero;stroke:none;stroke-width:1px;marker:none;visibility:visible;display:inline;overflow:visible;filter:url(#filter3747);enable-background:accumulate;font-family:Bitstream Vera Sans;-inkscape-font-specification:Bitstream Vera Sans" />
    </g>
    <path
       style="font-size:medium;font-style:normal;font-variant:normal;font-weight:normal;font-stretch:normal;text-indent:0;text-align:start;text-decoration:none;line-height:normal;letter-spacing:normal;word-spacing:normal;text-transform:none;direction:ltr;block-progression:tb;writing-mode:lr-tb;text-anchor:start;color:#000000;fill:url(#linearGradient4049);fill-opacity:1;stroke:none;stroke-width:3;marker:none;visibility:visible;display:inline;overflow:visible;enable-background:accumulate;font-family:Bitstream Vera Sans;-inkscape-font-specification:Bitstream Vera Sans;opacity:0.45374449"
       d="M 626.71875 377.4375 C 596.72075 378.95024 572.85693 403.06656 571.6875 433.15625 L 574.6875 433.15625 C 575.85202 404.65396 598.39074 381.89737 626.8125 380.4375 L 626.8125 377.4375 C 626.78149 377.43901 626.74975 377.43594 626.71875 377.4375 z "
       id="rect3739" />
    <path
       style="font-size:medium;font-style:normal;font-variant:normal;font-weight:normal;font-stretch:normal;text-indent:0;text-align:start;text-decoration:none;line-height:normal;letter-spacing:normal;word-spacing:normal;text-transform:none;direction:ltr;block-progression:tb;writing-mode:lr-tb;text-anchor:start;color:#000000;fill:url(#linearGradient4055);fill-opacity:1;stroke:none;stroke-width:3;marker:none;visibility:visible;display:inline;overflow:visible;enable-background:accumulate;font-family:Bitstream Vera Sans;-inkscape-font-specification:Bitstream Vera Sans"
       d="m 1345.375,643.21875 0,1.28125 c 0,30.5542 -24.5394,55.125 -55.0938,55.125 l -161.6562,0 0,3 161.6562,0 c 32.1645,0 58.0938,-25.96069 58.0938,-58.125 l 0,-1.28125 -3,0 z"
       id="path4026"
       sodipodi:nodetypes="ccccccccc" />
    <path
       id="path4065"
       d="m 1291.7813,377.4375 c 29.998,1.51274 53.8618,25.62906 55.0312,55.71875 l -3,0 c -1.1645,-28.50229 -23.7032,-51.25888 -52.125,-52.71875 l 0,-3 c 0.031,0.002 0.063,-0.002 0.094,0 z"
       style="font-size:medium;font-style:normal;font-variant:normal;font-weight:normal;font-stretch:normal;text-indent:0;text-align:start;text-decoration:none;line-height:normal;letter-spacing:normal;word-spacing:normal;text-transform:none;direction:ltr;block-progression:tb;writing-mode:lr-tb;text-anchor:start;color:#000000;fill:url(#linearGradient4067);fill-opacity:1;stroke:none;stroke-width:3;marker:none;visibility:visible;display:inline;overflow:visible;enable-background:accumulate;font-family:Bitstream Vera Sans;-inkscape-font-specification:Bitstream Vera Sans;opacity:0.40528634" />
    <path
       sodipodi:nodetypes="ccccccccc"
       id="path4069"
       d="m 1345.375,643.21875 0,1.28125 c 0,30.5542 -24.5394,55.125 -55.0938,55.125 l -161.6562,0 0,3 161.6562,0 c 32.1645,0 58.0938,-25.96069 58.0938,-58.125 l 0,-1.28125 -3,0 z"
       style="font-size:medium;font-style:normal;font-variant:normal;font-weight:normal;font-stretch:normal;text-indent:0;text-align:start;text-decoration:none;line-height:normal;letter-spacing:normal;word-spacing:normal;text-transform:none;direction:ltr;block-progression:tb;writing-mode:lr-tb;text-anchor:start;color:#000000;fill:url(#linearGradient4055);fill-opacity:1;stroke:none;stroke-width:3;marker:none;visibility:visible;display:inline;overflow:visible;enable-background:accumulate;font-family:Bitstream Vera Sans;-inkscape-font-specification:Bitstream Vera Sans;filter:url(#filter4099)" />
  </g>
</svg>
