<?xml version="1.0" encoding="UTF-8" standalone="no"?>
<!-- Created with Inkscape (http://www.inkscape.org/) -->

<svg
   xmlns:dc="http://purl.org/dc/elements/1.1/"
   xmlns:cc="http://creativecommons.org/ns#"
   xmlns:rdf="http://www.w3.org/1999/02/22-rdf-syntax-ns#"
   xmlns:svg="http://www.w3.org/2000/svg"
   xmlns="http://www.w3.org/2000/svg"
   xmlns:sodipodi="http://sodipodi.sourceforge.net/DTD/sodipodi-0.dtd"
   xmlns:inkscape="http://www.inkscape.org/namespaces/inkscape"
   width="764.65302"
   height="118.068"
   id="svg360"
   version="1.1"
   inkscape:version="0.49+devel r"
   sodipodi:docname="name_symbol.svg">
  <defs
     id="defs362">
    <clipPath
       clipPathUnits="userSpaceOnUse"
       id="clipPath256">
      <rect
         style="fill:#535d6c;fill-opacity:1;stroke:none"
         id="rect258"
         width="274.76425"
         height="73.552277"
         x="1375.762"
         y="963.98022" />
    </clipPath>
    <filter
       id="filter8554-99"
       inkscape:label="Drop shadow"
       width="1.5"
       height="1.5"
       x="-0.25"
       y="-0.25"
       style="color-interpolation-filters:sRGB">
      <feGaussianBlur
         id="feGaussianBlur8556-3"
         in="SourceAlpha"
         stdDeviation="1"
         result="blur" />
      <feColorMatrix
         id="feColorMatrix8558-6"
         result="bluralpha"
         type="matrix"
         values="-1 0 0 0 1 0 -1 0 0 1 0 0 -1 0 1 0 0 0 0.5 0 " />
      <feOffset
         id="feOffset8560-0"
         in="bluralpha"
         dx="1"
         dy="-1"
         result="offsetBlur" />
      <feMerge
         id="feMerge8562-5">
        <feMergeNode
           id="feMergeNode8564-0"
           in="offsetBlur" />
        <feMergeNode
           id="feMergeNode8566-2"
           in="SourceGraphic" />
      </feMerge>
    </filter>
    <linearGradient
       id="linearGradient6147-1-1-4-4">
      <stop
         style="stop-color:#5f8dd3;stop-opacity:1;"
         offset="0"
         id="stop6149-6-3-9-3" />
      <stop
         style="stop-color:#162d50;stop-opacity:1;"
         offset="1"
         id="stop6151-5-0-9-5" />
    </linearGradient>
    <linearGradient
       id="linearGradient6147-1-1-5-94-7">
      <stop
         style="stop-color:#5f8dd3;stop-opacity:1;"
         offset="0"
         id="stop6149-6-3-5-2-4" />
      <stop
         style="stop-color:#162d50;stop-opacity:1;"
         offset="1"
         id="stop6151-5-0-3-06-3" />
    </linearGradient>
    <linearGradient
       id="linearGradient6147-1-1-0-9-4">
      <stop
         style="stop-color:#5f8dd3;stop-opacity:1;"
         offset="0"
         id="stop6149-6-3-3-5-6" />
      <stop
         style="stop-color:#162d50;stop-opacity:1;"
         offset="1"
         id="stop6151-5-0-36-6-9" />
    </linearGradient>
    <linearGradient
       id="linearGradient6147-1-1-5-3-14-2">
      <stop
         style="stop-color:#5f8dd3;stop-opacity:1;"
         offset="0"
         id="stop6149-6-3-5-0-3-2" />
      <stop
         style="stop-color:#162d50;stop-opacity:1;"
         offset="1"
         id="stop6151-5-0-3-0-7-6" />
    </linearGradient>
    <linearGradient
       id="linearGradient6147-1-1-0-5-7-1">
      <stop
         style="stop-color:#5f8dd3;stop-opacity:1;"
         offset="0"
         id="stop6149-6-3-3-1-3-2" />
      <stop
         style="stop-color:#162d50;stop-opacity:1;"
         offset="1"
         id="stop6151-5-0-36-1-39-8" />
    </linearGradient>
    <linearGradient
       id="linearGradient6147-1-1-0-2-4-9">
      <stop
         style="stop-color:#5f8dd3;stop-opacity:1;"
         offset="0"
         id="stop6149-6-3-3-4-4-28" />
      <stop
         style="stop-color:#162d50;stop-opacity:1;"
         offset="1"
         id="stop6151-5-0-36-9-49-8" />
    </linearGradient>
    <linearGradient
       id="linearGradient6147-1-1-5-3-1-3-6">
      <stop
         style="stop-color:#5f8dd3;stop-opacity:1;"
         offset="0"
         id="stop6149-6-3-5-0-7-8-8" />
      <stop
         style="stop-color:#162d50;stop-opacity:1;"
         offset="1"
         id="stop6151-5-0-3-0-2-32-3" />
    </linearGradient>
    <linearGradient
       id="linearGradient6147-1-1-0-5-6-5-3">
      <stop
         style="stop-color:#5f8dd3;stop-opacity:1;"
         offset="0"
         id="stop6149-6-3-3-1-1-4-3" />
      <stop
         style="stop-color:#162d50;stop-opacity:1;"
         offset="1"
         id="stop6151-5-0-36-1-5-3-3" />
    </linearGradient>
    <linearGradient
       id="linearGradient6147-1-1-5-3-1-8-4-0">
      <stop
         style="stop-color:#5f8dd3;stop-opacity:1;"
         offset="0"
         id="stop6149-6-3-5-0-7-1-9-4" />
      <stop
         style="stop-color:#162d50;stop-opacity:1;"
         offset="1"
         id="stop6151-5-0-3-0-2-3-5-7" />
    </linearGradient>
  </defs>
  <sodipodi:namedview
     id="base"
     pagecolor="#ffffff"
     bordercolor="#666666"
     borderopacity="1.0"
     inkscape:pageopacity="0.0"
     inkscape:pageshadow="2"
     inkscape:zoom="0.35"
     inkscape:cx="300"
     inkscape:cy="290.95309"
     inkscape:document-units="px"
     inkscape:current-layer="layer1"
     showgrid="false"
     width="0px"
     height="0px"
     fit-margin-top="0"
     fit-margin-left="0"
     fit-margin-right="0"
     fit-margin-bottom="0"
     inkscape:window-width="1024"
     inkscape:window-height="728"
     inkscape:window-x="-1"
     inkscape:window-y="18"
     inkscape:window-maximized="1" />
  <metadata
     id="metadata365">
    <rdf:RDF>
      <cc:Work
         rdf:about="">
        <dc:format>image/svg+xml</dc:format>
        <dc:type
           rdf:resource="http://purl.org/dc/dcmitype/StillImage" />
        <dc:title></dc:title>
      </cc:Work>
    </rdf:RDF>
  </metadata>
  <g
     inkscape:label="Ebene 1"
     inkscape:groupmode="layer"
     id="layer1"
     transform="translate(0,-934.29418)">
    <g
       id="g602"
       transform="matrix(0.92053598,0,0,0.92053598,521.59752,402.64382)"
       style="fill:#002255;fill-opacity:1"
       inkscape:export-filename="/home/hhl/bastelecke/siduction-bastel/artwork-siduction/siduction-merch/name_symbol.png"
       inkscape:export-xdpi="90"
       inkscape:export-ydpi="90">
      <path
         transform="matrix(1.711798,0,0,1.5696134,-767.90769,307.24375)"
         inkscape:export-ydpi="150"
         inkscape:export-xdpi="150"
         inkscape:export-filename="/home/xweber/daten/siduction/text_plus_symbol_as_bit1.png"
         d="m 180.33853,201.32472 q 10.66976,0 15.41187,2.37107 4.7421,2.37104 4.7421,7.62125 0,1.94764 -1.60893,2.79444 -1.52424,0.76213 -3.64127,0.76213 -2.20168,0 -3.81061,-0.9315 -1.60894,-0.93147 -1.60894,-2.62507 0,-0.76214 -1.86297,-1.60894 -1.86297,-0.8468 -6.68978,-0.8468 -3.21784,0 -5.16551,0.25403 -1.94763,0.25404 -3.0485,0.67744 -1.10084,0.33873 -1.43957,0.9315 -0.3387,0.50807 -0.3387,1.01617 0,0.67743 0.3387,1.2702 0.33873,0.59277 1.3549,1.01617 1.01617,0.33873 2.79444,0.59277 1.7783,0.16936 4.65744,0.16936 5.67361,0 9.56892,0.67744 3.89531,0.59277 6.26634,1.94764 2.37107,1.3549 3.38724,3.5566 1.01617,2.11701 1.01617,5.16551 0,2.28637 -1.43957,4.23404 -1.43957,1.86297 -4.14937,3.30254 -2.62507,1.35487 -6.35101,2.11701 -3.72598,0.76213 -8.21402,0.76213 -4.23404,0 -7.95998,-0.59277 -3.64127,-0.59276 -6.35105,-1.7783 -2.70977,-1.18553 -4.3187,-2.96381 -1.60894,-1.86297 -1.60894,-4.4034 0,-2.11701 1.60894,-3.21784 1.6936,-1.18554 3.97997,-1.18554 2.03234,0 3.55657,1.10084 1.52427,1.01617 1.52427,3.0485 0,0.67744 2.03234,1.35491 2.03234,0.67743 7.11315,0.67743 5.58894,0 7.79061,-0.8468 2.2864,-0.8468 2.2864,-2.28637 0,-0.76214 -0.42343,-1.3549 -0.4234,-0.59277 -1.52423,-1.01617 -1.10084,-0.4234 -2.96381,-0.59277 -1.86297,-0.25403 -4.74211,-0.25403 -4.40341,0 -8.04468,-0.59277 -3.55657,-0.67744 -6.18168,-1.94764 -2.5404,-1.3549 -3.97997,-3.30257 -1.3549,-2.03231 -1.3549,-4.82678 0,-2.28637 0.8468,-4.14934 0.8468,-1.86297 3.0485,-3.21787 2.20171,-1.3549 5.92765,-2.11701 3.72594,-0.76213 9.56891,-0.76213 z"
         style="font-size:268.14126587px;font-style:normal;font-variant:normal;font-weight:normal;font-stretch:normal;line-height:125%;letter-spacing:0px;word-spacing:0px;fill:#002255;fill-opacity:1;stroke:none;filter:url(#filter8554-99);font-family:Axaxax;-inkscape-font-specification:Axaxax"
         id="path3617-6-5-3-1-8-1-3-1-36-1-6-8-3-7-1-8-2-7-12-8-7-5-6-8"
         inkscape:connector-curvature="0" />
      <path
         transform="matrix(1.711798,0,0,1.5696134,-767.90769,307.24375)"
         inkscape:export-ydpi="150"
         inkscape:export-xdpi="150"
         inkscape:export-filename="/home/xweber/daten/siduction/text_plus_symbol_as_bit1.png"
         d="m 211.34486,190.23157 q 2.20167,0 3.72594,1.18553 1.60893,1.10084 1.60893,3.04851 l 0,1.86297 q 0,2.117 -1.60893,3.21784 -1.52427,1.10087 -3.72594,1.10087 -2.28641,0 -3.81064,-1.18554 -1.52424,-1.18553 -1.52424,-3.13317 l 0,-1.86297 q 0,-1.77831 1.43957,-2.96384 1.43957,-1.2702 3.89531,-1.2702 z m 0,13.29485 q 2.20167,0 3.72594,1.10084 1.60893,1.10084 1.60893,3.21787 l 0,23.79525 q 0,2.03233 -1.60893,3.21784 -1.52427,1.10086 -3.72594,1.10086 -2.45574,0 -3.89531,-1.2702 -1.43957,-1.27023 -1.43957,-3.0485 l 0,-23.79525 q 0,-1.94767 1.52424,-3.13317 1.52423,-1.18554 3.81064,-1.18554 z"
         style="font-size:268.14126587px;font-style:normal;font-variant:normal;font-weight:normal;font-stretch:normal;line-height:125%;letter-spacing:0px;word-spacing:0px;fill:#002255;fill-opacity:1;stroke:none;filter:url(#filter8554-99);font-family:Axaxax;-inkscape-font-specification:Axaxax"
         id="path3619-5-0-8-8-4-4-7-6-0-7-2-3-9-7-5-4-6-4-8-1-2-9-4-7"
         inkscape:connector-curvature="0" />
      <path
         transform="matrix(1.711798,0,0,1.5696134,-767.90769,307.24375)"
         inkscape:export-ydpi="150"
         inkscape:export-xdpi="150"
         inkscape:export-filename="/home/xweber/daten/siduction/text_plus_symbol_as_bit1.png"
         d="m 256.46897,190.23157 q 2.45574,0 3.89531,1.2702 1.43957,1.18553 1.43957,2.96384 l 0,37.25943 q 0,4.23404 -5.25021,4.23404 l -14.98846,0 q -10.16166,0 -14.98846,-2.70977 -4.82678,-2.7098 -4.82678,-8.21401 l 0,-12.44806 q 0,-10.66975 18.46037,-10.66975 l 3.3872,0 q 2.54041,0 3.89531,1.2702 1.43957,1.18554 1.43957,2.96384 0,1.94764 -1.52424,3.13317 -1.52427,1.18554 -3.81064,1.18554 l -3.3872,0 q -7.79062,0 -7.79062,3.64124 l 0,8.97615 q 0,2.2017 2.20167,3.30254 2.20171,1.01617 7.02852,1.01617 l 9.48421,0 0,-32.94073 q 0,-1.94767 1.60894,-3.04851 1.6089,-1.18553 3.72594,-1.18553 z"
         style="font-size:268.14126587px;font-style:normal;font-variant:normal;font-weight:normal;font-stretch:normal;line-height:125%;letter-spacing:0px;word-spacing:0px;fill:#002255;fill-opacity:1;stroke:none;filter:url(#filter8554-99);font-family:Axaxax;-inkscape-font-specification:Axaxax"
         id="path3621-0-7-7-0-0-3-6-4-4-7-9-2-0-0-8-3-0-7-9-2-4-7-7-9"
         inkscape:connector-curvature="0" />
      <path
         transform="matrix(1.711798,0,0,1.5696134,-767.90769,307.24375)"
         inkscape:export-ydpi="150"
         inkscape:export-xdpi="150"
         inkscape:export-filename="/home/xweber/daten/siduction/text_plus_symbol_as_bit1.png"
         d="m 287.11275,235.95908 q -20.23867,0 -20.23867,-11.68592 l 0,-17.9523 q 0,-2.117 1.52427,-3.21784 1.6089,-1.18553 3.8106,-1.18553 2.11701,0 3.72595,1.18553 1.60893,1.10084 1.60893,3.21784 l 0,16.85143 q 0,4.23405 9.56892,4.23405 l 8.12931,0 0,-21.08548 q 0,-2.117 1.52427,-3.21784 1.60894,-1.18553 3.81061,-1.18553 2.11704,0 3.72597,1.18553 1.60891,1.10084 1.60891,3.21784 l 0,25.48888 q 0,4.14934 -5.33488,4.14934 l -13.46419,0 z"
         style="font-size:268.14126587px;font-style:normal;font-variant:normal;font-weight:normal;font-stretch:normal;line-height:125%;letter-spacing:0px;word-spacing:0px;fill:#002255;fill-opacity:1;stroke:none;filter:url(#filter8554-99);font-family:Axaxax;-inkscape-font-specification:Axaxax"
         id="path3623-8-3-3-1-8-6-9-9-4-8-7-3-4-7-0-1-6-5-3-2-1-0-9-0"
         inkscape:connector-curvature="0" />
      <path
         transform="matrix(1.711798,0,0,1.5696134,-767.90769,307.24375)"
         inkscape:export-ydpi="150"
         inkscape:export-xdpi="150"
         inkscape:export-filename="/home/xweber/daten/siduction/text_plus_symbol_as_bit1.png"
         d="m 330.96667,201.32472 q 20.40804,0 20.40804,10.83912 0,4.74211 -5.50425,4.74211 -5.08084,0 -5.08084,-3.81064 0,-3.30254 -9.06082,-3.30254 -10.07698,0 -10.07698,3.72594 l 0,11.77062 q 0,3.47191 8.72211,3.47191 10.41569,0 10.41569,-3.47191 0,-4.23404 5.08084,-4.23404 5.58891,0 5.58891,4.23404 0,11.26252 -20.32333,11.26252 -20.15398,0 -20.15398,-9.82295 l 0,-14.39569 q 0,-11.00849 19.98461,-11.00849 z"
         style="font-size:268.14126587px;font-style:normal;font-variant:normal;font-weight:normal;font-stretch:normal;line-height:125%;letter-spacing:0px;word-spacing:0px;fill:#002255;fill-opacity:1;stroke:none;filter:url(#filter8554-99);font-family:Axaxax;-inkscape-font-specification:Axaxax"
         id="path3625-1-8-1-7-4-7-7-5-96-0-0-6-3-4-0-1-9-6-6-69-6-6-7-3"
         inkscape:connector-curvature="0" />
      <path
         transform="matrix(1.711798,0,0,1.5696134,-767.90769,307.24375)"
         inkscape:export-ydpi="150"
         inkscape:export-xdpi="150"
         inkscape:export-filename="/home/xweber/daten/siduction/text_plus_symbol_as_bit1.png"
         sodipodi:nodetypes="csssssccssssscsccc"
         d="m 367.19575,201.32654 0.96223,-0.002 c 1.69361,-0.003 3.02028,0.4234 3.97998,1.2702 0.9597,0.8468 1.43957,1.86297 1.43957,3.04851 0,1.12907 -0.47987,2.117 -1.43957,2.9638 -0.9597,0.84684 -2.28668,1.30283 -3.97998,1.27024 l -0.96223,-0.0185 0.004,15.68442 c 0,1.3549 1.41134,2.03233 4.23404,2.03233 3.78238,0 5.67358,1.3549 5.67358,4.06468 0,2.87913 -1.7783,4.3187 -5.33487,4.3187 -10.16166,0 -15.2425,-2.738 -15.2425,-8.21401 l 0,-33.2539 c 0,-1.41133 0.5363,-2.48397 1.60894,-3.21787 1.07263,-0.7339 2.3146,-1.10083 3.72594,-1.10083 1.4678,0 2.70977,0.36693 3.72594,1.10083 1.07263,0.7339 1.60893,1.80654 1.60893,3.21787 z"
         style="font-size:268.14126587px;font-style:normal;font-variant:normal;font-weight:normal;font-stretch:normal;line-height:125%;letter-spacing:0px;word-spacing:0px;fill:#002255;fill-opacity:1;stroke:none;filter:url(#filter8554-99);font-family:Axaxax;-inkscape-font-specification:Axaxax"
         id="path3627-2-2-0-9-2-6-2-3-6-8-3-2-3-5-0-1-6-5-80-1-5-2-2-3"
         inkscape:connector-curvature="0" />
      <path
         transform="matrix(1.711798,0,0,1.5696134,-767.90769,307.24375)"
         inkscape:export-ydpi="150"
         inkscape:export-xdpi="150"
         inkscape:export-filename="/home/xweber/daten/siduction/text_plus_symbol_as_bit1.png"
         d="m 387.51199,190.23157 q 2.20171,0 3.72594,1.18553 1.60894,1.10084 1.60894,3.04851 l 0,1.86297 q 0,2.117 -1.60894,3.21784 -1.52423,1.10087 -3.72594,1.10087 -2.28637,0 -3.81064,-1.18554 -1.52423,-1.18553 -1.52423,-3.13317 l 0,-1.86297 q 0,-1.77831 1.43957,-2.96384 1.43957,-1.2702 3.8953,-1.2702 z m 0,13.29485 q 2.20171,0 3.72594,1.10084 1.60894,1.10084 1.60894,3.21787 l 0,23.79525 q 0,2.03233 -1.60894,3.21784 -1.52423,1.10086 -3.72594,1.10086 -2.45573,0 -3.8953,-1.2702 -1.43957,-1.27023 -1.43957,-3.0485 l 0,-23.79525 q 0,-1.94767 1.52423,-3.13317 1.52427,-1.18554 3.81064,-1.18554 z"
         style="font-size:268.14126587px;font-style:normal;font-variant:normal;font-weight:normal;font-stretch:normal;line-height:125%;letter-spacing:0px;word-spacing:0px;fill:#002255;fill-opacity:1;stroke:none;filter:url(#filter8554-99);font-family:Axaxax;-inkscape-font-specification:Axaxax"
         id="path3629-26-3-0-1-5-9-6-5-4-9-7-2-4-3-4-9-8-7-2-0-7-8-2-3"
         inkscape:connector-curvature="0" />
      <path
         transform="matrix(1.711798,0,0,1.5696134,-767.90769,307.24375)"
         inkscape:export-ydpi="150"
         inkscape:export-xdpi="150"
         inkscape:export-filename="/home/xweber/daten/siduction/text_plus_symbol_as_bit1.png"
         d="m 418.32506,201.32472 q 20.15397,0 20.15397,11.60125 l 0,12.02463 q 0,11.60125 -20.15397,11.60125 -20.40801,0 -20.40801,-11.60125 l 0,-12.02463 q 0,-11.60125 20.40801,-11.60125 z m 0,8.46805 q -9.65359,0 -9.65359,3.1332 l 0,12.02463 q 0,3.13317 9.65359,3.13317 9.48421,0 9.48421,-3.13317 l 0,-12.02463 q 0,-3.1332 -9.48421,-3.1332 z"
         style="font-size:268.14126587px;font-style:normal;font-variant:normal;font-weight:normal;font-stretch:normal;line-height:125%;letter-spacing:0px;word-spacing:0px;fill:#002255;fill-opacity:1;stroke:none;filter:url(#filter8554-99);font-family:Axaxax;-inkscape-font-specification:Axaxax"
         id="path3631-9-0-5-0-4-7-4-1-1-7-2-4-2-0-7-0-0-69-10-42-8-9-1-7"
         inkscape:connector-curvature="0" />
      <path
         transform="matrix(1.711798,0,0,1.5696134,-767.90769,307.24375)"
         inkscape:export-ydpi="150"
         inkscape:export-xdpi="150"
         inkscape:export-filename="/home/xweber/daten/siduction/text_plus_symbol_as_bit1.png"
         d="m 463.7879,201.91749 q 20.23867,0 20.23867,11.68592 l 0,17.95227 q 0,2.11703 -1.60894,3.30254 -1.52424,1.10086 -3.72594,1.10086 -2.117,0 -3.72594,-1.10086 -1.60894,-1.18551 -1.60894,-3.30254 l 0,-16.85143 q 0,-4.23401 -9.56891,-4.23401 l -9.56889,0 0,21.08544 q 0,2.11703 -1.60894,3.30254 -1.52426,1.10086 -3.72594,1.10086 -2.11703,0 -3.72597,-1.10086 -1.6089,-1.18551 -1.6089,-3.30254 l 0,-25.48885 q 0,-4.14934 5.33487,-4.14934 l 14.90377,0 z"
         style="font-size:268.14126587px;font-style:normal;font-variant:normal;font-weight:normal;font-stretch:normal;line-height:125%;letter-spacing:0px;word-spacing:0px;fill:#002255;fill-opacity:1;stroke:none;filter:url(#filter8554-99);font-family:Axaxax;-inkscape-font-specification:Axaxax"
         id="path3633-1-7-0-3-2-6-0-1-9-8-3-7-4-7-5-0-8-7-5-74-5-5-6-3"
         inkscape:connector-curvature="0" />
      <path
         transform="matrix(0.97201104,0,0,0.89127432,-395.34917,550.89545)"
         sodipodi:nodetypes="scsscscsscs"
         inkscape:export-ydpi="90"
         inkscape:export-xdpi="90"
         inkscape:export-filename="/home/xweber/src/siduction/artwork-newsid/candidates/document/ec-dots.png"
         d="m -11.288664,60.996951 c 2.6887001,0 4.9636501,0.7238 6.8250401,2.1715 1.96481,1.3444 2.94726,3.2058 2.94726,5.5842 l 0,3.4125 c 0,2.5853 -0.98245,4.5501 -2.94726,5.8944 -1.86139,1.3443 -4.13634,2.0165 -6.8250401,2.0165 -2.79202,0 -5.11876,-0.7239 -6.98015,-2.1716 -1.86138,-1.4478 -2.79204,-3.3608 -2.79204,-5.7393 l 0,-3.4125 c 0,-2.1717 0.87893,-3.9813 2.63691,-5.4291 1.75796,-1.5511 4.13643,-2.3266 7.13528,-2.3266 z"
         style="font-size:268.14126587px;font-style:normal;font-variant:normal;font-weight:normal;font-stretch:normal;line-height:125%;letter-spacing:0px;word-spacing:0px;fill:#002255;fill-opacity:1;stroke:none;filter:url(#filter8554-99);font-family:Axaxax;-inkscape-font-specification:Axaxax"
         id="path3629-26-8-31-2-11-0-9-0-3-2"
         inkscape:connector-curvature="0" />
      <path
         inkscape:connector-curvature="0"
         id="path4680-7-52"
         d="m 208.25837,641.81944 c 0,-7.83567 -6.92725,-14.18752 -15.47271,-14.18752 -8.54562,1.6e-4 -15.47286,6.35202 -15.47288,14.18767 0,7.83565 6.92726,14.18751 15.47272,14.18752 8.54545,-10e-6 15.47291,-6.35206 15.47287,-14.18767 z"
         style="fill:#002255;fill-opacity:1;fill-rule:nonzero;stroke:none;display:inline" />
      <path
         id="path4680-8-3-6"
         d="m 182.23014,664.26698 c 0,-7.05211 -6.23453,-12.76877 -13.92544,-12.76877 -7.69106,1.3e-4 -13.92558,5.71681 -13.92558,12.7689 1e-5,7.05209 6.23452,12.76876 13.92544,12.76877 7.69091,-10e-6 13.92562,-5.71685 13.92558,-12.7689 z"
         style="fill:#002255;fill-opacity:1;fill-rule:nonzero;stroke:none;display:inline"
         inkscape:connector-curvature="0" />
      <path
         id="path4680-87-9-5"
         d="m 182.78105,619.87708 c 2e-5,-7.05209 -6.23451,-12.76876 -13.92542,-12.76876 -7.69106,1.3e-4 -13.92559,5.71681 -13.92559,12.7689 1e-5,7.05209 6.23453,12.76877 13.92544,12.76877 7.69088,-3e-5 13.92559,-5.71688 13.92557,-12.76891 z"
         style="fill:#002255;fill-opacity:1;fill-rule:nonzero;stroke:none;display:inline"
         inkscape:connector-curvature="0" />
      <path
         id="path4680-8-4-0-87"
         d="m 156.90755,642.32461 c 0,-6.34689 -5.61107,-11.49189 -12.53289,-11.49189 -6.92195,1.2e-4 -12.53302,5.14513 -12.53302,11.49201 0,6.34689 5.61106,11.49189 12.53289,11.49189 6.92181,-10e-6 12.53305,-5.14517 12.53302,-11.49201 z"
         style="fill:#002255;fill-opacity:1;fill-rule:nonzero;stroke:none;display:inline"
         inkscape:connector-curvature="0" />
      <path
         id="path4680-87-5-7-9"
         d="m 157.83174,598.27699 c 0,-6.34689 -5.61106,-11.49189 -12.53289,-11.49189 -6.92195,1.2e-4 -12.53302,5.14512 -12.53302,11.49201 0,6.34688 5.61107,11.49189 12.53289,11.49189 6.92181,-10e-6 12.53305,-5.14517 12.53302,-11.49201 z"
         style="fill:#002255;fill-opacity:1;fill-rule:nonzero;stroke:none;display:inline"
         inkscape:connector-curvature="0" />
      <path
         id="path4680-87-6-2-6"
         d="m 158.1483,685.07167 c -1e-5,-6.34689 -5.61107,-11.49189 -12.5329,-11.49189 -6.92195,1.2e-4 -12.53302,5.14513 -12.53302,11.49201 1e-5,6.34688 5.61107,11.49188 12.5329,11.49189 6.92181,-10e-6 12.53304,-5.14517 12.53302,-11.49201 z"
         style="fill:#002255;fill-opacity:1;fill-rule:nonzero;stroke:none;display:inline"
         inkscape:connector-curvature="0" />
      <path
         id="path4680-8-4-2-7-0"
         d="m 132.96496,663.1293 c 0,-5.7122 -5.04996,-10.3427 -11.2796,-10.3427 -6.22976,1.1e-4 -11.27972,4.63061 -11.27972,10.34281 0,5.71219 5.04996,10.3427 11.2796,10.3427 6.22963,-1e-5 11.27974,-4.63065 11.27972,-10.34281 z"
         style="fill:#002255;fill-opacity:1;fill-rule:nonzero;stroke:none;display:inline"
         inkscape:connector-curvature="0" />
      <path
         id="path4680-87-5-9-2-4"
         d="m 132.0975,620.72452 c -1e-5,-5.7122 -5.04997,-10.3427 -11.27961,-10.3427 -6.22975,1.1e-4 -11.27972,4.63061 -11.27972,10.34281 0,5.71219 5.04997,10.34269 11.27961,10.3427 6.22963,-10e-6 11.27974,-4.63066 11.27972,-10.34281 z"
         style="fill:#002255;fill-opacity:1;fill-rule:nonzero;stroke:none;display:inline"
         inkscape:connector-curvature="0" />
      <path
         id="path4680-8-4-2-6-9-1"
         d="m 108.28024,641.52921 c 0,-5.14098 -4.54497,-9.30843 -10.15165,-9.30843 -5.60678,9e-5 -10.151746,4.16755 -10.151746,9.30853 4e-6,5.14097 4.544966,9.30843 10.151646,9.30843 5.60667,-1e-5 10.15177,-4.16759 10.15175,-9.30853 z"
         style="fill:#002255;fill-opacity:1;fill-rule:nonzero;stroke:none;display:inline"
         inkscape:connector-curvature="0" />
    </g>
  </g>
</svg>
