<?xml version="1.0" encoding="UTF-8" standalone="no"?>
<!-- Created with Inkscape (http://www.inkscape.org/) -->

<svg
   xmlns:dc="http://purl.org/dc/elements/1.1/"
   xmlns:cc="http://creativecommons.org/ns#"
   xmlns:rdf="http://www.w3.org/1999/02/22-rdf-syntax-ns#"
   xmlns:svg="http://www.w3.org/2000/svg"
   xmlns="http://www.w3.org/2000/svg"
   xmlns:xlink="http://www.w3.org/1999/xlink"
   xmlns:sodipodi="http://sodipodi.sourceforge.net/DTD/sodipodi-0.dtd"
   xmlns:inkscape="http://www.inkscape.org/namespaces/inkscape"
   width="210mm"
   height="297mm"
   id="svg6218"
   version="1.1"
   inkscape:version="0.49+devel r"
   sodipodi:docname="Neues Dokument 14">
  <defs
     id="defs6220">
    <radialGradient
       inkscape:collect="always"
       xlink:href="#linearGradient4196-3-3"
       id="radialGradient5948-9"
       gradientUnits="userSpaceOnUse"
       gradientTransform="matrix(1,0,0,0.97618867,465.92158,902.7574)"
       cx="-355.45026"
       cy="-1225.1194"
       fx="-355.45026"
       fy="-1225.1194"
       r="9.7722397" />
    <linearGradient
       id="linearGradient4196-3-3">
      <stop
         style="stop-color:#63278e;stop-opacity:1;"
         offset="0"
         id="stop4198-7-0" />
      <stop
         style="stop-color:#6b006b;stop-opacity:1;"
         offset="1"
         id="stop4200-8-2" />
    </linearGradient>
    <filter
       id="filter5379-6"
       inkscape:label="Inner Shadow"
       inkscape:menu="Shadows and Glows"
       inkscape:menu-tooltip="Adds a colorizable drop shadow inside"
       color-interpolation-filters="sRGB">
      <feGaussianBlur
         id="feGaussianBlur5381-4"
         stdDeviation="4"
         result="result8" />
      <feOffset
         id="feOffset5383-3"
         dx="4"
         dy="4"
         result="result11" />
      <feComposite
         id="feComposite5385-8"
         in2="result11"
         result="result6"
         in="SourceGraphic"
         operator="in" />
      <feFlood
         id="feFlood5387-6"
         result="result10"
         in="result6"
         flood-opacity="1"
         flood-color="rgb(0,0,0)" />
      <feBlend
         id="feBlend5389-7"
         in2="result10"
         mode="normal"
         in="result6"
         result="result12" />
      <feComposite
         id="feComposite5391-0"
         in2="SourceGraphic"
         result="result2"
         operator="in" />
    </filter>
    <filter
       id="filter6176"
       inkscape:label="Inner Shadow"
       inkscape:menu="Shadows and Glows"
       inkscape:menu-tooltip="Adds a colorizable drop shadow inside"
       color-interpolation-filters="sRGB">
      <feGaussianBlur
         id="feGaussianBlur6178"
         stdDeviation="4"
         result="result8" />
      <feOffset
         id="feOffset6180"
         dx="4"
         dy="4"
         result="result11" />
      <feComposite
         id="feComposite6182"
         in2="result11"
         result="result6"
         in="SourceGraphic"
         operator="in" />
      <feFlood
         id="feFlood6184"
         result="result10"
         in="result6"
         flood-opacity="1"
         flood-color="rgb(0,0,0)" />
      <feBlend
         id="feBlend6186"
         in2="result10"
         mode="normal"
         in="result6"
         result="result12" />
      <feComposite
         id="feComposite6188"
         in2="SourceGraphic"
         result="result2"
         operator="in" />
    </filter>
    <linearGradient
       gradientTransform="matrix(0.74785327,0,0,0.74785327,96.64493,932.12274)"
       inkscape:collect="always"
       xlink:href="#linearGradient6147"
       id="linearGradient6153"
       x1="600.32098"
       y1="-1084.8961"
       x2="718.448"
       y2="-1084.8961"
       gradientUnits="userSpaceOnUse" />
    <linearGradient
       id="linearGradient6147">
      <stop
         style="stop-color:#808f99;stop-opacity:1;"
         offset="0"
         id="stop6149" />
      <stop
         style="stop-color:#162f51;stop-opacity:1;"
         offset="1"
         id="stop6151" />
    </linearGradient>
    <filter
       color-interpolation-filters="sRGB"
       inkscape:collect="always"
       id="filter5998-8">
      <feGaussianBlur
         inkscape:collect="always"
         stdDeviation="2.1663938"
         id="feGaussianBlur6000-1" />
    </filter>
    <linearGradient
       y2="-813.93616"
       x2="761.32593"
       y1="-813.93616"
       x1="-26.519337"
       gradientTransform="matrix(1.1991585,0,0,1,-72.61324,-283.97789)"
       gradientUnits="userSpaceOnUse"
       id="linearGradient6058"
       xlink:href="#linearGradient5901-8"
       inkscape:collect="always" />
    <linearGradient
       inkscape:collect="always"
       id="linearGradient5901-8">
      <stop
         style="stop-color:#cccccc;stop-opacity:1;"
         offset="0"
         id="stop5903-1" />
      <stop
         style="stop-color:#cccccc;stop-opacity:0;"
         offset="1"
         id="stop5905-6" />
    </linearGradient>
    <linearGradient
       y2="-813.93616"
       x2="761.32593"
       y1="-813.93616"
       x1="-26.519337"
       gradientTransform="matrix(0.89679463,0,0,0.74785327,42.340879,719.74896)"
       gradientUnits="userSpaceOnUse"
       id="linearGradient6216"
       xlink:href="#linearGradient5901-8"
       inkscape:collect="always" />
  </defs>
  <sodipodi:namedview
     id="base"
     pagecolor="#ffffff"
     bordercolor="#666666"
     borderopacity="1.0"
     inkscape:pageopacity="0.0"
     inkscape:pageshadow="2"
     inkscape:zoom="0.49497475"
     inkscape:cx="413.48408"
     inkscape:cy="976.87113"
     inkscape:document-units="px"
     inkscape:current-layer="layer1"
     showgrid="false"
     inkscape:window-width="574"
     inkscape:window-height="453"
     inkscape:window-x="546"
     inkscape:window-y="209"
     inkscape:window-maximized="0" />
  <metadata
     id="metadata6223">
    <rdf:RDF>
      <cc:Work
         rdf:about="">
        <dc:format>image/svg+xml</dc:format>
        <dc:type
           rdf:resource="http://purl.org/dc/dcmitype/StillImage" />
        <dc:title></dc:title>
      </cc:Work>
    </rdf:RDF>
  </metadata>
  <g
     inkscape:label="Ebene 1"
     inkscape:groupmode="layer"
     id="layer1">
    <rect
       style="fill:url(#linearGradient6216);fill-opacity:1;fill-rule:nonzero;stroke:none"
       id="rect5299-4"
       width="706.5354"
       height="166.92416"
       x="18.55847"
       y="27.582062"
       inkscape:export-filename="/home/xweber/daten/siduction/dots-blue2.png"
       inkscape:export-xdpi="150"
       inkscape:export-ydpi="150" />
    <g
       id="g6321">
      <path
         transform="matrix(0.74785327,0,0,0.74785327,84.756721,309.13308)"
         inkscape:export-ydpi="150"
         inkscape:export-xdpi="150"
         inkscape:export-filename="/home/xweber/daten/siduction/dots-blue2.png"
         inkscape:connector-curvature="0"
         id="path46997-15-5-0-5-2-3-0-6-0-77-0-2-3-8"
         d="m 733.74938,-260.3904 c -5.5335,-5.5335 -14.505,-5.5335 -20.0385,0 -5.5334,5.5335 -5.5334,14.5049 0,20.0384 5.5335,5.5335 14.505,5.5335 20.0385,0 5.5333,-5.5333 5.5333,-14.505 0,-20.0384 z m -26.2191,-22.21131 c -4.4267,-4.4268 -11.604,-4.4268 -16.0307,0 -4.4268,4.4268 -4.4268,11.60391 0,16.03071 4.4267,4.4267 11.604,4.4267 16.0307,0 4.4268,-4.4268 4.4268,-11.60391 0,-16.03071 z m -25.2234,-23.2196 c -3.8733,-3.8733 -10.1534,-3.8733 -14.0268,0 -3.8734,3.8736 -3.8734,10.1535 0,14.027 3.8734,3.8734 10.1535,3.8734 14.0268,0 3.8735,-3.8733 3.8736,-10.1534 0,-14.027 z m 25.2234,71.64991 c -4.4267,-4.4267 -11.604,-4.4267 -16.0307,0 -4.4268,4.4267 -4.4268,11.604 0,16.0307 4.4267,4.4268 11.604,4.4268 16.0307,0 4.4268,-4.4267 4.4268,-11.604 0,-16.0307 z m -25.217,-23.2132 c -3.8734,-3.8733 -10.1535,-3.8733 -14.027,0 -3.8734,3.8734 -3.8734,10.1535 0,14.0268 3.8735,3.8735 10.1536,3.8735 14.027,0 3.8733,-3.8733 3.8733,-10.1534 0,-14.0268 z m -25.2234,-23.21951 c -3.32,-3.3201 -8.7029,-3.3201 -12.0231,0 -3.3199,3.3201 -3.3199,8.70291 0,12.02311 3.3202,3.32 8.7031,3.32 12.0231,0 3.32,-3.3202 3.32,-8.70301 0,-12.02311 z m 25.217,71.65601 c -3.8733,-3.8733 -10.1534,-3.8733 -14.0268,0 -3.8734,3.8734 -3.8734,10.1535 0,14.0269 3.8734,3.8733 10.1535,3.8733 14.0268,0 3.8736,-3.8734 3.8735,-10.1535 0,-14.0269 z m -25.217,-23.2132 c -3.32,-3.32 -8.7029,-3.32 -12.0231,0 -3.3199,3.3201 -3.3199,8.703 0,12.0231 3.3202,3.32 8.7031,3.32 12.0231,0 3.32,-3.3201 3.32,-8.703 0,-12.0231 z m -25.2232,-23.2194 c -2.7668,-2.7668 -7.2527,-2.7668 -10.0193,0 -2.7667,2.7667 -2.7667,7.2523 0,10.019 2.7666,2.7668 7.2525,2.7668 10.0193,0 2.7666,-2.7667 2.7666,-7.2523 0,-10.019 z"
         style="fill:#666666;fill-opacity:1;fill-rule:nonzero;stroke:none;filter:url(#filter5998-8)" />
      <path
         inkscape:export-ydpi="150"
         inkscape:export-xdpi="150"
         inkscape:export-filename="/home/xweber/daten/siduction/dots-blue2.png"
         d="m 544.84375,72.625 c -1.96449,0 -3.9385,0.751005 -5.4375,2.25 -2.99867,2.998756 -2.99867,7.907494 0,10.90625 2.99871,2.998708 7.90761,2.998722 10.90625,0 2.99878,-2.998631 2.99885,-7.907487 0,-10.90625 -1.50352,-1.503564 -3.50426,-2.25 -5.46875,-2.25 z M 561.625,88.40625 c -2.21428,0 -4.46175,0.836714 -6.15625,2.53125 -3.38094,3.380933 -3.38094,8.900316 0,12.28125 3.38087,3.38088 8.90032,3.38087 12.28125,0 3.38086,-3.380938 3.38086,-8.900313 0,-12.28125 -1.69054,-1.690542 -3.91072,-2.53125 -6.125,-2.53125 z m -33.53125,1.9375 c -1.72656,0 -3.44781,0.697848 -4.75,2 -2.61399,2.614154 -2.61398,6.88578 0,9.5 2.61422,2.61406 6.88591,2.61409 9.5,0 2.61407,-2.614215 2.61408,-6.885852 0,-9.5 -1.30214,-1.302184 -3.02344,-2 -4.75,-2 z M 578.375,103.1875 c -2.7215,0 -5.45765,1.05139 -7.53125,3.125 -4.14743,4.14751 -4.14745,10.91511 0,15.0625 4.14746,4.14744 10.91511,4.14745 15.0625,0 4.14739,-4.14733 4.14738,-10.91505 0,-15.0625 -2.07357,-2.07362 -4.80975,-3.125 -7.53125,-3.125 z m -33.53125,2.96875 c -1.96451,0 -3.93848,0.75107 -5.4375,2.25 -2.9987,2.99871 -2.99871,7.9076 0,10.90625 2.99876,2.99876 7.9075,2.99876 10.90625,0 2.99865,-2.99865 2.99864,-7.90754 0,-10.90625 -1.50356,-1.50349 -3.50424,-2.25 -5.46875,-2.25 z m -33.53125,1.9375 c -1.46636,0 -2.94658,0.5715 -4.0625,1.6875 -2.23213,2.23213 -2.23213,5.89287 0,8.125 2.23207,2.23223 5.89286,2.23222 8.125,0 2.23214,-2.23213 2.23214,-5.89287 0,-8.125 -1.11594,-1.11598 -2.59614,-1.6875 -4.0625,-1.6875 z m 50.3125,13.84375 c -2.21429,0 -4.46176,0.83676 -6.15625,2.53125 -3.38096,3.38087 -3.38095,8.90031 0,12.28125 3.38087,3.38088 8.90032,3.38087 12.28125,0 3.38086,-3.38094 3.38088,-8.90037 0,-12.28125 -1.69053,-1.6905 -3.91071,-2.53125 -6.125,-2.53125 z m -33.53125,1.9375 c -1.72656,0 -3.44781,0.69784 -4.75,2 -2.61402,2.61409 -2.61399,6.88577 0,9.5 2.61422,2.614 6.88591,2.61403 9.5,0 2.61407,-2.61422 2.6141,-6.88591 0,-9.5 -1.30215,-1.30219 -3.02344,-2 -4.75,-2 z m 16.75,15.78125 c -1.97432,0 -3.94306,0.78686 -5.4375,2.28125 -2.99868,2.99876 -2.99869,7.90756 0,10.90625 2.99871,2.9987 7.90761,2.99871 10.90625,0 2.99886,-2.99869 2.99875,-7.9075 0,-10.90625 -1.49896,-1.49896 -3.49443,-2.28125 -5.46875,-2.28125 z"
         inkscape:href="#path46997-15-5-0-5-2-3-0-6-0-77-0-2-5"
         id="path6145"
         style="fill:#ececec;fill-opacity:1;fill-rule:nonzero;stroke:none"
         xlink:href="#path46997-15-5-0-5-2-3-0-6-0-77-0-2-5"
         inkscape:original="M 587.125 77.125 C 585.22668 77.125 583.32337 77.864132 581.875 79.3125 C 578.97827 82.209308 578.97827 86.915691 581.875 89.8125 C 584.77174 92.709237 589.47834 92.709237 592.375 89.8125 C 595.2718 86.915835 595.27189 82.209308 592.375 79.3125 C 590.92667 77.864132 589.02332 77.125 587.125 77.125 z M 605.21875 94.1875 C 603.04924 94.1875 600.90526 95.0322 599.25 96.6875 C 595.93939 99.998099 595.93939 105.34565 599.25 108.65625 C 602.56051 111.96678 607.90816 111.96678 611.21875 108.65625 C 614.52928 105.34565 614.52928 99.998099 611.21875 96.6875 C 609.56345 95.0322 607.38826 94.1875 605.21875 94.1875 z M 569 96.3125 C 567.37286 96.3125 565.74151 96.914777 564.5 98.15625 C 562.0172 100.63919 562.0172 104.67323 564.5 107.15625 C 566.98302 109.63912 571.01713 109.63912 573.5 107.15625 C 575.98288 104.67323 575.98288 100.63919 573.5 98.15625 C 572.25856 96.914777 570.62714 96.3125 569 96.3125 z M 623.34375 110.1875 C 620.63186 110.1875 617.91287 111.21212 615.84375 113.28125 C 611.70551 117.41957 611.70551 124.14308 615.84375 128.28125 C 619.982 132.4195 626.70558 132.4195 630.84375 128.28125 C 634.98192 124.14315 634.98192 117.4195 630.84375 113.28125 C 628.77467 111.21212 626.05564 110.1875 623.34375 110.1875 z M 587.125 113.375 C 585.22667 113.375 583.3234 114.08292 581.875 115.53125 C 578.97827 118.42799 578.97827 123.13459 581.875 126.03125 C 584.77181 128.92807 589.4782 128.92807 592.375 126.03125 C 595.27167 123.13459 595.27167 118.42799 592.375 115.53125 C 590.9266 114.08292 589.02333 113.375 587.125 113.375 z M 550.90625 115.46875 C 549.55029 115.46875 548.19076 115.99667 547.15625 117.03125 C 545.08718 119.10033 545.08718 122.46217 547.15625 124.53125 C 549.22527 126.60041 552.58716 126.60041 554.65625 124.53125 C 556.72534 122.46217 556.72534 119.10033 554.65625 117.03125 C 553.62171 115.99667 552.26221 115.46875 550.90625 115.46875 z M 605.21875 130.40625 C 603.04924 130.40625 600.90526 131.25099 599.25 132.90625 C 595.93939 136.21678 595.93939 141.5644 599.25 144.875 C 602.56051 148.18553 607.90816 148.18553 611.21875 144.875 C 614.52928 141.5644 614.52928 136.21678 611.21875 132.90625 C 609.56345 131.25099 607.38826 130.40625 605.21875 130.40625 z M 569 132.53125 C 567.37286 132.53125 565.74151 133.16477 564.5 134.40625 C 562.0172 136.88912 562.0172 140.89198 564.5 143.375 C 566.98302 145.85781 571.01713 145.85781 573.5 143.375 C 575.98288 140.89198 575.98288 136.88912 573.5 134.40625 C 572.25856 133.16477 570.62714 132.53125 569 132.53125 z M 587.125 149.59375 C 585.22668 149.59375 583.32337 150.30167 581.875 151.75 C 578.97827 154.64681 578.97827 159.35327 581.875 162.25 C 584.77174 165.14672 589.47834 165.14672 592.375 162.25 C 595.27189 159.35327 595.2718 154.64681 592.375 151.75 C 590.92667 150.30167 589.02332 149.59375 587.125 149.59375 z "
         inkscape:radius="0.82872927"
         sodipodi:type="inkscape:offset"
         transform="translate(5.5286457e-6,-3.1828489e-5)" />
      <path
         inkscape:export-ydpi="150"
         inkscape:export-xdpi="150"
         inkscape:export-filename="/home/xweber/daten/siduction/dots-blue2.png"
         inkscape:connector-curvature="0"
         id="path46997-15-5-0-5-2-3-0-6-0-77-0-2-5"
         d="m 630.83498,113.28677 c -4.13817,-4.13826 -10.84754,-4.13826 -14.98579,0 -4.13824,4.13832 -4.13824,10.84761 0,14.98578 4.13825,4.13825 10.84762,4.13825 14.98579,0 4.13817,-4.1381 4.13817,-10.84753 0,-14.98578 z M 611.22701,96.67596 c -3.31059,-3.3106 -8.67809,-3.3106 -11.9886,0 -3.31061,3.310599 -3.31061,8.67802 0,11.98862 3.31051,3.31053 8.67801,3.31053 11.9886,0 3.31053,-3.3106 3.31053,-8.678021 0,-11.98862 z m -18.8634,-17.364773 c -2.89666,-2.896736 -7.59325,-2.896736 -10.48999,0 -2.89673,2.896808 -2.89673,7.593252 0,10.490061 2.89674,2.896737 7.59333,2.896737 10.48999,0 2.8968,-2.896665 2.89689,-7.593253 0,-10.490061 z m 18.8634,53.583543 c -3.31059,-3.31052 -8.67809,-3.31052 -11.9886,0 -3.31061,3.31053 -3.31061,8.67809 0,11.98869 3.31051,3.31053 8.67801,3.31053 11.9886,0 3.31053,-3.3106 3.31053,-8.67816 0,-11.98869 z m -18.85862,-17.36006 c -2.8968,-2.89666 -7.59332,-2.89666 -10.49013,0 -2.89673,2.89674 -2.89673,7.59332 0,10.48998 2.89681,2.89682 7.59333,2.89682 10.49013,0 2.89667,-2.89666 2.89667,-7.59324 0,-10.48998 z m -18.8634,-17.364794 c -2.48287,-2.482947 -6.50849,-2.482947 -8.99151,0 -2.4828,2.482944 -2.4828,6.508504 0,8.991524 2.48302,2.48287 6.50864,2.48287 8.99151,0 2.48288,-2.48302 2.48288,-6.50858 0,-8.991524 z m 18.85862,53.588184 c -2.89666,-2.89666 -7.59325,-2.89666 -10.48999,0 -2.89673,2.89681 -2.89673,7.59334 0,10.49007 2.89674,2.89672 7.59333,2.89672 10.48999,0 2.89689,-2.89673 2.8968,-7.59326 0,-10.49007 z m -18.85862,-17.35999 c -2.48287,-2.48296 -6.50849,-2.48296 -8.99151,0 -2.4828,2.48287 -2.4828,6.50849 0,8.99151 2.48302,2.48281 6.50864,2.48281 8.99151,0 2.48288,-2.48302 2.48288,-6.50864 0,-8.99151 z m -18.86332,-17.36478 c -2.06909,-2.06916 -5.42388,-2.06916 -7.4929,0 -2.06907,2.06908 -2.06907,5.42366 0,7.49274 2.06902,2.06916 5.42381,2.06916 7.4929,0 2.06909,-2.06908 2.06909,-5.42366 0,-7.49274 z"
         style="fill:url(#linearGradient6153);fill-opacity:1;fill-rule:nonzero;stroke:none" />
      <path
         inkscape:export-ydpi="150"
         inkscape:export-xdpi="150"
         inkscape:export-filename="/home/xweber/daten/siduction/dots-blue2.png"
         transform="matrix(0.34236216,0,0,0.34236216,82.099005,719.94863)"
         d="m 1612.1888,-1750.5126 a 30.957836,30.957836 0 1 1 -61.9157,0 30.957836,30.957836 0 1 1 61.9157,0 z"
         sodipodi:ry="30.957836"
         sodipodi:rx="30.957836"
         sodipodi:cy="-1750.5126"
         sodipodi:cx="1581.231"
         id="path46997-1-3-3-8-5-3-5-6-2-0"
         style="fill:#162f51;fill-opacity:1;fill-rule:nonzero;stroke:none"
         sodipodi:type="arc" />
      <g
         style="fill:#244d86;fill-opacity:1;filter:url(#filter5379-6)"
         inkscape:export-ydpi="150"
         inkscape:export-xdpi="150"
         inkscape:export-filename="/home/xweber/daten/siduction/dots-blue2.png"
         id="g5199-50-5-8-3-5-9-5-7-6-0-6-6-3-4-0-2-3-24-8-0-1-1"
         transform="matrix(1.3170362,0,0,1.3170362,-110.82676,-167.32521)">
        <path
           inkscape:connector-curvature="0"
           id="path3617-6-5-3-1-8-1-3-1-36-1-6-8-3-7-1-8-2-7-12-8-7-5"
           style="font-size:268.14126587px;font-style:normal;font-variant:normal;font-weight:normal;font-stretch:normal;line-height:125%;letter-spacing:0px;word-spacing:0px;fill:#244d86;fill-opacity:1;stroke:none;font-family:Axaxax;-inkscape-font-specification:Axaxax"
           d="m 180.33853,201.32472 q 10.66976,0 15.41187,2.37107 4.7421,2.37104 4.7421,7.62125 0,1.94764 -1.60893,2.79444 -1.52424,0.76213 -3.64127,0.76213 -2.20168,0 -3.81061,-0.9315 -1.60894,-0.93147 -1.60894,-2.62507 0,-0.76214 -1.86297,-1.60894 -1.86297,-0.8468 -6.68978,-0.8468 -3.21784,0 -5.16551,0.25403 -1.94763,0.25404 -3.0485,0.67744 -1.10084,0.33873 -1.43957,0.9315 -0.3387,0.50807 -0.3387,1.01617 0,0.67743 0.3387,1.2702 0.33873,0.59277 1.3549,1.01617 1.01617,0.33873 2.79444,0.59277 1.7783,0.16936 4.65744,0.16936 5.67361,0 9.56892,0.67744 3.89531,0.59277 6.26634,1.94764 2.37107,1.3549 3.38724,3.5566 1.01617,2.11701 1.01617,5.16551 0,2.28637 -1.43957,4.23404 -1.43957,1.86297 -4.14937,3.30254 -2.62507,1.35487 -6.35101,2.11701 -3.72598,0.76213 -8.21402,0.76213 -4.23404,0 -7.95998,-0.59277 -3.64127,-0.59276 -6.35105,-1.7783 -2.70977,-1.18553 -4.3187,-2.96381 -1.60894,-1.86297 -1.60894,-4.4034 0,-2.11701 1.60894,-3.21784 1.6936,-1.18554 3.97997,-1.18554 2.03234,0 3.55657,1.10084 1.52427,1.01617 1.52427,3.0485 0,0.67744 2.03234,1.35491 2.03234,0.67743 7.11315,0.67743 5.58894,0 7.79061,-0.8468 2.2864,-0.8468 2.2864,-2.28637 0,-0.76214 -0.42343,-1.3549 -0.4234,-0.59277 -1.52423,-1.01617 -1.10084,-0.4234 -2.96381,-0.59277 -1.86297,-0.25403 -4.74211,-0.25403 -4.40341,0 -8.04468,-0.59277 -3.55657,-0.67744 -6.18168,-1.94764 -2.5404,-1.3549 -3.97997,-3.30257 -1.3549,-2.03231 -1.3549,-4.82678 0,-2.28637 0.8468,-4.14934 0.8468,-1.86297 3.0485,-3.21787 2.20171,-1.3549 5.92765,-2.11701 3.72594,-0.76213 9.56891,-0.76213 z"
           inkscape:export-filename="/home/xweber/daten/siduction/text_plus_symbol_as_bit1.png"
           inkscape:export-xdpi="150"
           inkscape:export-ydpi="150" />
        <path
           inkscape:connector-curvature="0"
           id="path3619-5-0-8-8-4-4-7-6-0-7-2-3-9-7-5-4-6-4-8-1-2-9"
           style="font-size:268.14126587px;font-style:normal;font-variant:normal;font-weight:normal;font-stretch:normal;line-height:125%;letter-spacing:0px;word-spacing:0px;fill:#244d86;fill-opacity:1;stroke:none;font-family:Axaxax;-inkscape-font-specification:Axaxax"
           d="m 211.34486,190.23157 q 2.20167,0 3.72594,1.18553 1.60893,1.10084 1.60893,3.04851 l 0,1.86297 q 0,2.117 -1.60893,3.21784 -1.52427,1.10087 -3.72594,1.10087 -2.28641,0 -3.81064,-1.18554 -1.52424,-1.18553 -1.52424,-3.13317 l 0,-1.86297 q 0,-1.77831 1.43957,-2.96384 1.43957,-1.2702 3.89531,-1.2702 z m 0,13.29485 q 2.20167,0 3.72594,1.10084 1.60893,1.10084 1.60893,3.21787 l 0,23.79525 q 0,2.03233 -1.60893,3.21784 -1.52427,1.10086 -3.72594,1.10086 -2.45574,0 -3.89531,-1.2702 -1.43957,-1.27023 -1.43957,-3.0485 l 0,-23.79525 q 0,-1.94767 1.52424,-3.13317 1.52423,-1.18554 3.81064,-1.18554 z"
           inkscape:export-filename="/home/xweber/daten/siduction/text_plus_symbol_as_bit1.png"
           inkscape:export-xdpi="150"
           inkscape:export-ydpi="150" />
        <path
           inkscape:connector-curvature="0"
           id="path3621-0-7-7-0-0-3-6-4-4-7-9-2-0-0-8-3-0-7-9-2-4-7"
           style="font-size:268.14126587px;font-style:normal;font-variant:normal;font-weight:normal;font-stretch:normal;line-height:125%;letter-spacing:0px;word-spacing:0px;fill:#244d86;fill-opacity:1;stroke:none;font-family:Axaxax;-inkscape-font-specification:Axaxax"
           d="m 256.46897,190.23157 q 2.45574,0 3.89531,1.2702 1.43957,1.18553 1.43957,2.96384 l 0,37.25943 q 0,4.23404 -5.25021,4.23404 l -14.98846,0 q -10.16166,0 -14.98846,-2.70977 -4.82678,-2.7098 -4.82678,-8.21401 l 0,-12.44806 q 0,-10.66975 18.46037,-10.66975 l 3.3872,0 q 2.54041,0 3.89531,1.2702 1.43957,1.18554 1.43957,2.96384 0,1.94764 -1.52424,3.13317 -1.52427,1.18554 -3.81064,1.18554 l -3.3872,0 q -7.79062,0 -7.79062,3.64124 l 0,8.97615 q 0,2.2017 2.20167,3.30254 2.20171,1.01617 7.02852,1.01617 l 9.48421,0 0,-32.94073 q 0,-1.94767 1.60894,-3.04851 1.6089,-1.18553 3.72594,-1.18553 z"
           inkscape:export-filename="/home/xweber/daten/siduction/text_plus_symbol_as_bit1.png"
           inkscape:export-xdpi="150"
           inkscape:export-ydpi="150" />
        <path
           inkscape:connector-curvature="0"
           id="path3623-8-3-3-1-8-6-9-9-4-8-7-3-4-7-0-1-6-5-3-2-1-0"
           style="font-size:268.14126587px;font-style:normal;font-variant:normal;font-weight:normal;font-stretch:normal;line-height:125%;letter-spacing:0px;word-spacing:0px;fill:#244d86;fill-opacity:1;stroke:none;font-family:Axaxax;-inkscape-font-specification:Axaxax"
           d="m 287.11275,235.95908 q -20.23867,0 -20.23867,-11.68592 l 0,-17.9523 q 0,-2.117 1.52427,-3.21784 1.6089,-1.18553 3.8106,-1.18553 2.11701,0 3.72595,1.18553 1.60893,1.10084 1.60893,3.21784 l 0,16.85143 q 0,4.23405 9.56892,4.23405 l 8.12931,0 0,-21.08548 q 0,-2.117 1.52427,-3.21784 1.60894,-1.18553 3.81061,-1.18553 2.11704,0 3.72597,1.18553 1.60891,1.10084 1.60891,3.21784 l 0,25.48888 q 0,4.14934 -5.33488,4.14934 l -13.46419,0 z"
           inkscape:export-filename="/home/xweber/daten/siduction/text_plus_symbol_as_bit1.png"
           inkscape:export-xdpi="150"
           inkscape:export-ydpi="150" />
        <path
           inkscape:connector-curvature="0"
           id="path3625-1-8-1-7-4-7-7-5-96-0-0-6-3-4-0-1-9-6-6-69-6-6"
           style="font-size:268.14126587px;font-style:normal;font-variant:normal;font-weight:normal;font-stretch:normal;line-height:125%;letter-spacing:0px;word-spacing:0px;fill:#244d86;fill-opacity:1;stroke:none;font-family:Axaxax;-inkscape-font-specification:Axaxax"
           d="m 330.96667,201.32472 q 20.40804,0 20.40804,10.83912 0,4.74211 -5.50425,4.74211 -5.08084,0 -5.08084,-3.81064 0,-3.30254 -9.06082,-3.30254 -10.07698,0 -10.07698,3.72594 l 0,11.77062 q 0,3.47191 8.72211,3.47191 10.41569,0 10.41569,-3.47191 0,-4.23404 5.08084,-4.23404 5.58891,0 5.58891,4.23404 0,11.26252 -20.32333,11.26252 -20.15398,0 -20.15398,-9.82295 l 0,-14.39569 q 0,-11.00849 19.98461,-11.00849 z"
           inkscape:export-filename="/home/xweber/daten/siduction/text_plus_symbol_as_bit1.png"
           inkscape:export-xdpi="150"
           inkscape:export-ydpi="150" />
        <path
           inkscape:connector-curvature="0"
           id="path3627-2-2-0-9-2-6-2-3-6-8-3-2-3-5-0-1-6-5-80-1-5-2"
           style="font-size:268.14126587px;font-style:normal;font-variant:normal;font-weight:normal;font-stretch:normal;line-height:125%;letter-spacing:0px;word-spacing:0px;fill:#244d86;fill-opacity:1;stroke:none;font-family:Axaxax;-inkscape-font-specification:Axaxax"
           d="m 367.19575,201.32654 0.96223,-0.002 c 1.69361,-0.003 3.02028,0.4234 3.97998,1.2702 0.9597,0.8468 1.43957,1.86297 1.43957,3.04851 0,1.12907 -0.47987,2.117 -1.43957,2.9638 -0.9597,0.84684 -2.28668,1.30283 -3.97998,1.27024 l -0.96223,-0.0185 0.004,15.68442 c 0,1.3549 1.41134,2.03233 4.23404,2.03233 3.78238,0 5.67358,1.3549 5.67358,4.06468 0,2.87913 -1.7783,4.3187 -5.33487,4.3187 -10.16166,0 -15.2425,-2.738 -15.2425,-8.21401 l 0,-33.2539 c 0,-1.41133 0.5363,-2.48397 1.60894,-3.21787 1.07263,-0.7339 2.3146,-1.10083 3.72594,-1.10083 1.4678,0 2.70977,0.36693 3.72594,1.10083 1.07263,0.7339 1.60893,1.80654 1.60893,3.21787 z"
           sodipodi:nodetypes="csssssccssssscsccc"
           inkscape:export-filename="/home/xweber/daten/siduction/text_plus_symbol_as_bit1.png"
           inkscape:export-xdpi="150"
           inkscape:export-ydpi="150" />
        <path
           inkscape:connector-curvature="0"
           id="path3629-26-3-0-1-5-9-6-5-4-9-7-2-4-3-4-9-8-7-2-0-7-8"
           style="font-size:268.14126587px;font-style:normal;font-variant:normal;font-weight:normal;font-stretch:normal;line-height:125%;letter-spacing:0px;word-spacing:0px;fill:#244d86;fill-opacity:1;stroke:none;font-family:Axaxax;-inkscape-font-specification:Axaxax"
           d="m 387.51199,190.23157 q 2.20171,0 3.72594,1.18553 1.60894,1.10084 1.60894,3.04851 l 0,1.86297 q 0,2.117 -1.60894,3.21784 -1.52423,1.10087 -3.72594,1.10087 -2.28637,0 -3.81064,-1.18554 -1.52423,-1.18553 -1.52423,-3.13317 l 0,-1.86297 q 0,-1.77831 1.43957,-2.96384 1.43957,-1.2702 3.8953,-1.2702 z m 0,13.29485 q 2.20171,0 3.72594,1.10084 1.60894,1.10084 1.60894,3.21787 l 0,23.79525 q 0,2.03233 -1.60894,3.21784 -1.52423,1.10086 -3.72594,1.10086 -2.45573,0 -3.8953,-1.2702 -1.43957,-1.27023 -1.43957,-3.0485 l 0,-23.79525 q 0,-1.94767 1.52423,-3.13317 1.52427,-1.18554 3.81064,-1.18554 z"
           inkscape:export-filename="/home/xweber/daten/siduction/text_plus_symbol_as_bit1.png"
           inkscape:export-xdpi="150"
           inkscape:export-ydpi="150" />
        <path
           inkscape:connector-curvature="0"
           id="path3631-9-0-5-0-4-7-4-1-1-7-2-4-2-0-7-0-0-69-10-42-8-9"
           style="font-size:268.14126587px;font-style:normal;font-variant:normal;font-weight:normal;font-stretch:normal;line-height:125%;letter-spacing:0px;word-spacing:0px;fill:#244d86;fill-opacity:1;stroke:none;font-family:Axaxax;-inkscape-font-specification:Axaxax"
           d="m 418.32506,201.32472 q 20.15397,0 20.15397,11.60125 l 0,12.02463 q 0,11.60125 -20.15397,11.60125 -20.40801,0 -20.40801,-11.60125 l 0,-12.02463 q 0,-11.60125 20.40801,-11.60125 z m 0,8.46805 q -9.65359,0 -9.65359,3.1332 l 0,12.02463 q 0,3.13317 9.65359,3.13317 9.48421,0 9.48421,-3.13317 l 0,-12.02463 q 0,-3.1332 -9.48421,-3.1332 z"
           inkscape:export-filename="/home/xweber/daten/siduction/text_plus_symbol_as_bit1.png"
           inkscape:export-xdpi="150"
           inkscape:export-ydpi="150" />
        <path
           inkscape:connector-curvature="0"
           id="path3633-1-7-0-3-2-6-0-1-9-8-3-7-4-7-5-0-8-7-5-74-5-5"
           style="font-size:268.14126587px;font-style:normal;font-variant:normal;font-weight:normal;font-stretch:normal;line-height:125%;letter-spacing:0px;word-spacing:0px;fill:#244d86;fill-opacity:1;stroke:none;font-family:Axaxax;-inkscape-font-specification:Axaxax"
           d="m 463.7879,201.91749 q 20.23867,0 20.23867,11.68592 l 0,17.95227 q 0,2.11703 -1.60894,3.30254 -1.52424,1.10086 -3.72594,1.10086 -2.117,0 -3.72594,-1.10086 -1.60894,-1.18551 -1.60894,-3.30254 l 0,-16.85143 q 0,-4.23401 -9.56891,-4.23401 l -9.56889,0 0,21.08544 q 0,2.11703 -1.60894,3.30254 -1.52426,1.10086 -3.72594,1.10086 -2.11703,0 -3.72597,-1.10086 -1.6089,-1.18551 -1.6089,-3.30254 l 0,-25.48885 q 0,-4.14934 5.33487,-4.14934 l 14.90377,0 z"
           inkscape:export-filename="/home/xweber/daten/siduction/text_plus_symbol_as_bit1.png"
           inkscape:export-xdpi="150"
           inkscape:export-ydpi="150" />
      </g>
      <path
         transform="matrix(0.74785327,0,0,0.74785327,84.756721,309.13308)"
         sodipodi:nodetypes="scsscscsscs"
         inkscape:export-ydpi="150"
         inkscape:export-xdpi="150"
         inkscape:export-filename="/home/xweber/daten/siduction/dots-blue2.png"
         d="m 110.47125,-302.72981 c 2.6887,0 4.96365,0.7238 6.82504,2.1715 1.96481,1.3444 2.94726,3.2058 2.94726,5.5842 l 0,3.4125 c 0,2.5853 -0.98245,4.5501 -2.94726,5.8944 -1.86139,1.3443 -4.13634,2.0165 -6.82504,2.0165 -2.79202,0 -5.11876,-0.7239 -6.98015,-2.1716 -1.86138,-1.4478 -2.79204,-3.3608 -2.79204,-5.7393 l 0,-3.4125 c 0,-2.1717 0.87893,-3.9813 2.63691,-5.4291 1.75796,-1.5511 4.13643,-2.3266 7.13528,-2.3266 z"
         style="font-size:268.14126587px;font-style:normal;font-variant:normal;font-weight:normal;font-stretch:normal;line-height:125%;letter-spacing:0px;word-spacing:0px;fill:#162f51;fill-opacity:1;stroke:url(#radialGradient5948-9);filter:url(#filter5379-6);font-family:Axaxax;-inkscape-font-specification:Axaxax"
         id="path3629-26-8-31-2-11-0-9-0"
         inkscape:connector-curvature="0" />
    </g>
  </g>
</svg>
