<?xml version="1.0" encoding="UTF-8" standalone="no"?>
<svg
   xmlns:dc="http://purl.org/dc/elements/1.1/"
   xmlns:cc="http://creativecommons.org/ns#"
   xmlns:rdf="http://www.w3.org/1999/02/22-rdf-syntax-ns#"
   xmlns:svg="http://www.w3.org/2000/svg"
   xmlns="http://www.w3.org/2000/svg"
   xmlns:xlink="http://www.w3.org/1999/xlink"
   xmlns:sodipodi="http://sodipodi.sourceforge.net/DTD/sodipodi-0.dtd"
   xmlns:inkscape="http://www.inkscape.org/namespaces/inkscape"
   version="1.1"
   width="1220"
   height="1220"
   id="svg2"
   inkscape:version="0.48.1 r9760"
   sodipodi:docname="hotunsiducspirale40.svg">
  <metadata
     id="metadata14">
    <rdf:RDF>
      <cc:Work
         rdf:about="">
        <dc:format>image/svg+xml</dc:format>
        <dc:type
           rdf:resource="http://purl.org/dc/dcmitype/StillImage" />
        <dc:title></dc:title>
      </cc:Work>
    </rdf:RDF>
  </metadata>
  <defs
     id="defs12">
    <linearGradient
       inkscape:collect="always"
       id="linearGradient3191">
      <stop
         style="stop-color:#4c4c4c;stop-opacity:1;"
         offset="0"
         id="stop3193" />
      <stop
         style="stop-color:#b3b3b3;stop-opacity:1"
         offset="1"
         id="stop3195" />
    </linearGradient>
    <linearGradient
       inkscape:collect="always"
       id="linearGradient3137">
      <stop
         style="stop-color:#ffffff;stop-opacity:1;"
         offset="0"
         id="stop3139" />
      <stop
         style="stop-color:#999999;stop-opacity:1"
         offset="1"
         id="stop3141" />
    </linearGradient>
    <linearGradient
       inkscape:collect="always"
       id="linearGradient2999">
      <stop
         style="stop-color:#000000;stop-opacity:1;"
         offset="0"
         id="stop3001" />
      <stop
         style="stop-color:#000000;stop-opacity:0;"
         offset="1"
         id="stop3003" />
    </linearGradient>
    <radialGradient
       inkscape:collect="always"
       xlink:href="#linearGradient2999"
       id="radialGradient3005"
       cx="600"
       cy="600"
       fx="600"
       fy="600"
       r="605"
       gradientUnits="userSpaceOnUse"
       gradientTransform="matrix(-0.18028746,1.6088226,-2.0648853,-0.23144207,1947.1038,-226.42836)" />
    <radialGradient
       inkscape:collect="always"
       xlink:href="#linearGradient3137"
       id="radialGradient3143"
       cx="1071.0797"
       cy="655.42804"
       fx="1071.0797"
       fy="655.42804"
       r="600"
       gradientUnits="userSpaceOnUse"
       gradientTransform="matrix(-0.02625651,0.97146469,-1.0097814,-0.02729129,1281.988,-414.65475)" />
    <radialGradient
       inkscape:collect="always"
       xlink:href="#linearGradient3191"
       id="radialGradient3201"
       cx="628.69153"
       cy="561.06989"
       fx="628.69153"
       fy="561.06989"
       r="141.32648"
       gradientTransform="matrix(-0.90224004,0.9488133,-0.91877035,-0.87367124,1688.738,507.66671)"
       gradientUnits="userSpaceOnUse" />
  </defs>
  <sodipodi:namedview
     pagecolor="#ffffff"
     bordercolor="#666666"
     borderopacity="1"
     objecttolerance="10"
     gridtolerance="10"
     guidetolerance="10"
     inkscape:pageopacity="0"
     inkscape:pageshadow="2"
     inkscape:window-width="1024"
     inkscape:window-height="718"
     id="namedview10"
     showgrid="false"
     inkscape:zoom="0.25081967"
     inkscape:cx="233.2353"
     inkscape:cy="610.00001"
     inkscape:window-x="-2"
     inkscape:window-y="13"
     inkscape:window-maximized="1"
     inkscape:current-layer="svg2" />
  <g
     transform="translate(10,10)"
     id="g4">
    <path
       d="m 0,600 a 600,600 0 1 1 1200,0 600,600 0 1 1 -1200,0 z m 450,0 a 150,150 0 1 0 300,0 150,150 0 1 0 -300,0 z"
       id="path6"
       style="fill:url(#radialGradient3143);fill-opacity:1"
       inkscape:connector-curvature="0" />
    <path
       d="m -5,600 a 605,605 0 1 0 1210,0 605,605 0 1 0 -1210,0 z m 10,0 a 375,375 0 1 0 750,0 155,155 0 1 0 -310,0 375,375 0 1 1 750,0 595,595 0 1 1 -1190,0 z m 450,0 a 145,145 0 1 1 290,0 145,145 0 1 1 -290,0 z"
       id="path8"
       style="fill:url(#radialGradient3005);fill-opacity:1"
       inkscape:connector-curvature="0" />
  </g>
  <flowRoot
     xml:space="preserve"
     id="flowRoot3127"
     style="font-size:48px;font-style:normal;font-variant:normal;font-weight:bold;font-stretch:normal;line-height:125%;letter-spacing:0px;word-spacing:0px;fill:#000000;fill-opacity:1;stroke:none;font-family:Dustismo;-inkscape-font-specification:Sans Bold"><flowRegion
       id="flowRegion3129"><rect
         id="rect3131"
         width="1160.196"
         height="123.59477"
         x="243.20262"
         y="1012.6797" /></flowRegion><flowPara
       id="flowPara3133" /></flowRoot>  <path
     style="fill:url(#radialGradient3201);fill-opacity:1"
     d="m 573.71895,747.14177 c -26.57883,-8.42784 -46.9631,-20.60995 -64.96888,-38.82691 -48.84402,-49.41687 -54.09907,-125.16047 -12.65309,-182.37499 48.60927,-67.10314 146.77017,-76.75244 208.34108,-20.48009 30.53888,27.91081 44.33997,57.31537 46.08845,98.19591 1.15459,26.99482 -0.1994,36.24583 -8.20627,56.06886 -12.13375,30.04014 -27.62582,49.64081 -53.2668,67.39349 -33.67589,23.31572 -79.73434,31.31213 -115.33449,20.02373 z"
     id="path3189"
     inkscape:connector-curvature="0" />
  <flowRoot
     xml:space="preserve"
     id="flowRoot3154"
     style="font-size:55.2868576px;font-style:normal;font-variant:normal;font-weight:bold;font-stretch:normal;line-height:125%;letter-spacing:0px;word-spacing:0px;fill:#000000;fill-opacity:1;stroke:none;font-family:Dustismo;-inkscape-font-specification:Sans Bold"
     transform="matrix(1.1097261,0,0,1.5282886,-41.349353,-1066.7909)"
     inkscape:transform-center-y="-28.467309"><flowRegion
       id="flowRegion3156"><rect
         id="rect3158"
         width="837.25488"
         height="119.60784"
         x="478.43137"
         y="1060.5228"
         style="font-size:55.2868576px" /></flowRegion><flowPara
       id="flowPara3160">siduction</flowPara></flowRoot>  <path
     sodipodi:type="spiral"
     style="fill:none;stroke:#000000;stroke-width:1px;stroke-linecap:butt;stroke-linejoin:miter;stroke-opacity:1"
     id="path3219"
     sodipodi:cx="610"
     sodipodi:cy="621.96075"
     sodipodi:expansion="1"
     sodipodi:revolution="70"
     sodipodi:radius="610.83331"
     sodipodi:argument="-251.27518"
     sodipodi:t0="0"
     d="m 610,621.96075 c 1.31076,0.0685 0.55431,1.8007 -0.1139,2.17858 -1.8108,1.02403 -3.79422,-0.69038 -4.24324,-2.40638 -0.80321,-3.06952 1.78791,-5.84749 4.69885,-6.30791 4.27192,-0.67569 7.93807,2.89182 8.37258,6.99132 0.57913,5.46399 -3.99688,10.04314 -9.2838,10.43725 -6.65305,0.49596 -12.15541,-5.10221 -12.50192,-11.57627 -0.41968,-7.84095 6.20765,-14.27179 13.86874,-14.56659 9.02834,-0.34741 16.39076,7.31314 16.63127,16.16122 0.27767,10.21546 -8.41866,18.51144 -18.4537,18.69593 -11.40244,0.20963 -20.63333,-9.52421 -20.7606,-20.74617 -0.14278,-12.58933 10.62979,-22.75609 23.03864,-22.82527 13.77618,-0.0768 24.87952,11.73538 24.88994,25.33112 0.0115,14.96299 -12.84099,27.00345 -27.62359,26.95461 -16.14977,-0.0534 -29.12777,-13.94661 -29.01928,-29.91606 0.11778,-17.33655 15.05225,-31.25243 32.20854,-31.08396 18.52331,0.1819 33.37733,16.15789 33.14862,34.50102 -0.24575,19.71006 -17.26354,35.50244 -36.79348,35.21329 -20.89681,-0.30939 -37.62775,-18.3692 -37.27797,-39.08596 0.37286,-22.08355 19.47487,-39.75319 41.37844,-39.34263 23.27029,0.43617 41.87876,20.58054 41.4073,43.6709 -0.49936,24.45704 -21.68622,44.00444 -45.96338,43.47198 -25.64377,-0.56244 -46.13022,-22.7919 -45.53664,-48.25586 0.62542,-26.83051 23.89758,-48.25607 50.54832,-47.60131 28.01725,0.68833 50.38201,25.00327 49.66599,52.8408 -0.75117,29.20398 -26.10896,52.508 -55.13328,51.73065 -30.39072,-0.81393 -54.63404,-27.21465 -53.79532,-57.42575 0.87665,-31.57745 28.32035,-56.76014 59.71822,-55.85999 32.76419,0.93932 58.88628,29.42605 57.92467,62.0107 -1.00194,33.95092 -30.53176,61.01246 -64.30318,59.98933 -35.13765,-1.06452 -63.13867,-31.63746 -62.054,-66.59564 1.12706,-36.32439 32.74317,-65.26493 68.88812,-64.11868 37.51112,1.18958 67.39121,33.84887 66.18334,71.1806 -1.25206,38.69786 -34.95458,69.51751 -73.47306,68.24801 -39.8846,-1.31452 -71.64384,-36.06029 -70.31269,-75.76554 1.37696,-41.07133 37.166,-73.77019 78.05802,-72.37736 42.25806,1.43937 75.89656,38.27172 74.44202,80.35049 -1.50175,43.4448 -39.37743,78.02296 -82.64296,76.5067 -44.63153,-1.56413 -80.14936,-40.48315 -78.57137,-84.93544 1.62649,-45.81827 41.58886,-82.27578 87.22792,-80.63603 47.005,1.68882 84.40222,42.69457 82.7007,89.52038 -1.75115,48.19174 -43.80029,86.52867 -91.81286,84.76538 -49.37847,-1.81346 -88.65513,-44.90602 -86.83004,-94.10534 1.87575,-50.5652 46.01173,-90.78161 96.3978,-88.89471 51.75195,1.93804 92.9081,47.11745 90.95939,98.69028 -2.00032,52.93868 -48.22317,95.03459 -100.98276,93.02406 -54.12541,-2.06259 -97.1611,-49.3289 -95.08872,-103.27524 2.12484,-55.31214 50.43461,-99.28761 105.5677,-97.15339 56.49889,2.18709 101.41414,51.54033 99.21807,107.86018 C 712.32213,685.11367 661.9254,730.96872 604.4188,728.71078 545.54645,726.39922 498.7516,674.959 501.0714,616.26566 c 2.37378,-60.0591 54.8575,-107.79376 114.7376,-105.41208 61.24583,2.436 109.92031,55.96323 107.47675,117.03008 -2.49822,62.43256 -57.06896,112.04686 -119.32255,109.54141 -63.6193,-2.56041 -114.17343,-58.17468 -111.60609,-121.61502 2.62261,-64.80604 59.2804,-116.3 123.9075,-113.67076 65.99277,2.68481 118.42657,60.38613 115.73542,126.19997 -2.74699,67.17951 -61.49185,120.55316 -128.49244,117.8001 -68.36625,-2.80918 -122.67974,-62.59758 -119.86477,-130.78492 2.87136,-69.55298 63.70331,-124.80633 133.07739,-121.92943 70.73973,2.93352 126.93293,64.80903 123.99411,135.36986 -2.99569,71.92646 -65.91476,129.05952 -137.66234,126.05878 -73.11319,-3.05786 -131.18612,-67.02049 -128.12345,-139.95482 3.12003,-74.29993 68.12622,-133.31272 142.24729,-130.18811 75.48667,3.18218 135.43934,69.23194 132.25279,144.53976 -3.24433,76.6734 -70.33767,137.56595 -146.83224,134.31746 -77.86014,-3.30649 -139.69256,-71.4434 -136.38212,-149.12471 3.36863,-79.04688 72.54912,-141.81918 151.41718,-138.4468 80.23362,3.43077 143.9458,73.65485 140.51147,153.70966 -3.49292,81.42035 -74.76058,146.07242 -156.00213,142.57613 -82.60709,-3.55505 -148.19906,-75.8663 -144.64081,-158.2946 3.61719,-83.79383 76.97204,-150.32568 160.58708,-146.70548 84.98056,3.67933 152.45231,78.07777 148.77015,162.87955 -3.74146,86.16731 -79.1835,154.57895 -165.17203,150.83482 -87.35404,-3.80358 -156.70558,-80.28922 -152.89949,-167.4645 3.86571,-88.54078 81.39495,-158.83222 169.75698,-154.96416 89.72751,3.92784 160.95885,82.50069 157.02882,172.04945 -3.98995,90.91425 -83.60641,163.0855 -174.34192,159.0935 -92.10099,-4.05208 -165.21214,-84.71214 -161.15817,-176.6344 4.1142,-93.28772 85.81788,-167.33879 178.92687,-163.22284 94.47447,4.17632 169.46544,86.92361 165.28751,181.21935 -4.23843,95.6612 -88.02933,171.59209 -183.51182,167.35218 -96.84794,-4.30054 -173.71874,-89.13507 -169.41685,-185.8043 4.36266,-98.03467 90.2408,-175.84539 188.09677,-171.48151 99.22141,4.42476 177.97205,91.34652 173.54619,190.38924 -4.48687,100.40815 -92.45226,180.0987 -192.68172,175.61086 -101.59488,-4.54898 -182.22535,-93.55799 -177.67552,-194.97419 4.61108,-102.78163 94.66371,-184.35202 197.26666,-179.7402 103.96836,4.67319 186.47867,95.76945 181.80487,199.55914 -4.73529,105.1551 -96.87518,188.60533 -201.85161,183.86953 C 493.52089,811.05627 409.13073,717.87275 413.92852,611.70958 418.78801,504.181 513.01516,418.85092 620.36508,423.7107 729.08039,428.63229 815.3504,523.90307 810.42863,632.43973 805.44493,742.34179 709.13052,829.55172 599.40712,824.56795 488.31833,819.52216 400.16846,722.16412 405.21423,611.25397 410.32211,498.97844 508.7238,409.88865 620.82068,414.99641 c 113.46227,5.16998 203.492,104.6153 198.32223,217.89893 C 813.91084,747.54435 713.42188,838.514 598.95151,833.28224 483.11577,827.98808 391.20618,726.45548 396.49994,610.79836 401.8562,493.77588 504.43244,400.92636 621.27629,406.28212 739.48551,411.70047 833.27497,515.32035 827.8572,633.35095 822.37676,752.7469 717.71324,847.4763 598.4959,841.99653 477.91321,836.454 382.24388,730.74684 387.78565,610.34276 393.39027,488.57332 500.14108,391.96406 621.7319,397.56784 744.68807,403.23454 842.23727,511.02899 836.57149,633.80656 830.8427,757.94946 722.0046,856.43861 598.0403,850.71082 472.71065,844.91994 373.28157,735.0382 379.07137,609.88715 384.92433,483.37076 495.84972,383.00174 622.18751,388.85355 749.89063,394.76859 851.19959,506.73763 845.28578,634.26216 839.30865,763.15202 726.29596,865.40093 597.58469,859.4251 467.50809,853.38589 364.31925,739.32956 370.35708,609.43154 376.45837,478.1682 491.55836,374.03942 622.64312,380.13926 755.09319,386.30264 860.16192,502.44627 854.00007,634.71777 847.77461,768.35458 730.58732,874.36326 597.12908,868.13939 462.30553,861.85186 355.35691,743.62092 361.64279,608.97593 367.99241,472.96564 487.267,365.07708 623.09872,371.42497 760.29575,377.83667 869.12426,498.15491 862.71435,635.17338 856.24058,773.55715 734.87868,883.3256 596.67347,876.85368 457.10297,870.31783 346.39457,747.91227 352.9285,608.52032 359.52643,467.76308 482.97564,356.11474 623.55433,362.71068 765.49831,369.37069 878.08661,493.86356 871.42864,635.62899 864.70656,778.75971 739.17004,892.28795 596.21786,885.56797 451.90041,878.78381 337.43222,752.20363 344.21421,608.06472 351.06045,462.56052 478.68429,347.15238 624.00994,353.9964 770.70087,360.90471 887.04896,489.5722 880.14293,636.0846 873.17254,783.96227 743.46139,901.25031 595.76226,894.28226 446.69785,887.2498 328.46986,756.49499 335.49993,607.60911 342.59446,457.35796 474.39293,338.19002 624.46555,345.28211 775.90343,352.43872 896.01133,485.28084 888.85722,636.5402 881.63854,789.16483 747.75275,910.21267 595.30665,902.99654 441.49529,895.71579 319.50749,760.78634 326.78564,607.1535 334.12846,452.1554 470.10157,329.22765 624.92115,336.56782 781.10599,343.97272 904.9737,480.98949 897.57151,636.99581 890.10454,794.36739 752.0441,919.17504 594.85104,911.71083 436.29273,904.18179 310.54512,765.0777 318.07135,606.69789 325.66246,446.95284 465.81022,320.26528 625.37676,327.85353 c 160.9318,7.65318 288.55931,148.8446 280.90903,309.59789 -7.71524,162.11853 -149.95033,290.686 -311.89036,282.9737 C 431.09016,912.6478 301.58274,769.36905 309.35706,606.24229 317.19645,441.75028 461.51886,311.3029 625.83237,319.13924 791.51112,327.0407 922.89845,472.40678 915.00008,637.90703 907.03656,804.77251 760.62681,937.0998 593.93983,929.13941 425.8876,921.11382 292.62036,773.66041 300.64277,605.78668 308.73043,436.54772 457.22751,302.34051 626.28798,310.42496 796.71368,318.57468 931.86084,468.11543 923.71437,638.36263 915.50258,809.97507 764.91817,946.06219 593.48422,937.8537 420.68504,929.57984 283.65797,777.95176 291.92849,605.33107 300.26441,431.34516 452.93616,293.37812 626.74359,301.71067 801.91624,310.10866 940.82323,463.82407 932.42866,638.81824 923.9686,815.17763 769.20952,955.02458 593.02861,946.56799 415.48248,938.04586 274.69557,782.24311 283.2142,604.87546 291.79839,426.14259 448.6448,284.41573 627.19919,292.99638 807.1188,301.64264 949.78562,459.53272 941.14295,639.27385 932.43462,820.3802 773.50087,963.98698 592.573,955.28227 410.27992,946.51189 265.73318,786.53447 274.49991,604.41985 283.33236,420.94003 444.35345,275.45333 627.6548,284.28209 812.32136,293.17661 958.74802,455.24136 949.85724,639.72946 940.90065,825.58276 777.79223,972.94938 592.11739,963.99656 405.07736,954.97792 256.77078,790.82582 265.78562,603.96425 274.86633,415.73747 440.0621,266.49093 628.11041,275.5678 817.52392,284.71057 967.71043,450.95001 958.57152,640.18507 949.36669,830.78532 782.08358,981.91178 591.66179,972.71085 399.87479,963.44395 247.80837,795.11717 257.07133,603.50864 266.40029,410.53491 435.77074,257.52852 628.56602,266.85352 822.72649,276.24454 976.67283,446.65866 967.28581,640.64067 957.83273,835.98788 786.37493,990.87419 591.20618,981.42514 394.67223,971.90999 238.84596,799.40853 248.35704,603.05303 257.93425,405.33235 431.47939,248.56611 629.02162,258.13923 827.92905,267.7785 985.63524,442.36731 976.0001,641.09628 966.29877,841.19044 790.66629,999.8366 590.75057,990.13943 389.46967,980.37603 229.88355,803.69988 239.64276,602.59742 249.46821,400.12979 427.18804,239.6037 629.47723,249.42494 833.13161,259.31246 994.59765,438.07595 984.71439,641.55189 974.76481,846.393 794.95764,1008.799 590.29496,998.85371 384.26711,988.84208 220.92114,807.99123 230.92847,602.14182 241.00217,394.92722 422.89669,230.64129 629.93284,240.71065 838.33417,250.84641 1003.5601,433.7846 993.42868,642.0075 983.23086,851.59557 799.24899,1017.7614 589.83936,1007.568 379.06455,997.30812 211.95872,812.28258 222.21418,601.68621 232.53612,389.72466 418.60533,221.67887 630.38845,231.99636 843.53673,242.38036 1012.5225,429.49325 1002.143,642.4631 991.69691,856.79813 803.54034,1026.7238 589.38375,1016.2823 373.86199,1005.7742 202.9963,816.57394 213.49989,601.2306 224.07007,384.5221 414.31398,212.71645 630.84406,223.28207 848.7393,233.91431 1021.4849,425.2019 1010.8573,642.91871 1000.163,862.00069 807.83169,1035.6863 588.92814,1024.9966 368.65942,1014.2402 194.03388,820.86529 204.7856,600.77499 215.60402,379.31954 410.02263,203.75403 631.29966,214.56779 853.94186,225.44826 1030.4473,420.91055 1019.5715,643.37432 1008.629,867.20325 812.12305,1044.6487 588.47253,1033.7109 363.45686,1022.7063 185.07146,825.15664 196.07132,600.31938 207.13796,374.11697 405.73128,194.79161 631.75527,205.8535 859.14442,216.9822 1039.4098,416.61919 1028.2858,643.82993 1017.0951,872.40582 816.4144,1053.6111 588.01692,1042.4252 358.2543,1031.1723 176.10903,829.44799 187.35703,599.86378 198.67191,368.91441 401.43993,185.82918 632.21088,197.13921 864.34698,208.51615 1048.3722,412.32784 1037.0001,644.28554 1025.5611,877.60838 820.70575,1062.5735 587.56132,1051.1394 353.05174,1039.6384 167.14661,833.73934 178.64274,599.40817 190.20585,363.71185 397.14858,176.86675 632.66649,188.42492 869.54955,200.05009 1057.3346,408.03649 1045.7144,644.74114 1034.0272,882.81094 824.9971,1071.536 587.10571,1059.8537 347.84917,1048.1045 158.18418,838.03069 169.92845,598.95256 181.73979,358.50929 392.85722,167.90432 633.12209,179.71063 874.75211,191.58403 1066.297,403.74514 1054.4287,645.19675 1042.4932,888.0135 829.28845,1080.4984 586.6501,1068.568 342.64661,1056.5705 149.22175,842.32204 161.21416,598.49695 173.27373,353.30673 388.56587,158.94189 633.5777,170.99635 879.95467,183.11796 1075.2595,399.45379 1063.143,645.65236 1050.9593,893.21606 833.5798,1089.4608 586.19449,1077.2823 337.44405,1065.0366 140.25931,846.61339 152.49988,598.04135 164.80766,348.10416 384.27452,149.97946 634.03331,162.28206 885.15723,174.6519 1084.2219,395.16244 1071.8573,646.10797 1059.4254,898.41863 837.87115,1098.4233 585.73889,1085.9966 332.24149,1073.5026 131.29688,850.90474 143.78559,597.58574 156.3416,342.9016 379.98317,141.01703 634.48892,153.56777 890.35979,166.18583 1093.1843,390.87109 1080.5716,646.56357 1067.8914,903.62119 842.1625,1107.3857 585.28328,1094.7109 327.03892,1081.9687 122.33444,855.1961 135.0713,597.13013 147.87553,337.69904 375.69182,132.05459 634.94453,144.85348 895.56236,157.71977 1102.1468,386.57974 1089.2858,647.01918 1076.3575,908.82375 846.45385,1116.3481 584.82767,1103.4252 321.83636,1090.4348 113.37201,859.48745 126.35701,596.67452 139.40946,332.49648 371.40047,123.09215 635.40013,136.13919 900.76492,149.2537 1111.1092,382.28839 1098.0001,647.47479 1084.8236,914.02631 850.7452,1125.3106 584.37206,1112.1395 316.6338,1098.9008 104.40957,863.7788 117.64272,596.21891 130.94339,327.29391 367.10912,114.12972 635.85574,127.42491 905.96748,140.78763 1120.0716,377.99704 1106.7144,647.9304 1093.2896,919.22888 855.03655,1134.273 583.91645,1120.8537 311.43124,1107.3669 95.447131,868.07015 108.92844,595.76331 122.47732,322.09135 362.81777,105.16728 636.31135,118.71062 911.17004,132.32156 1129.0341,373.70569 1115.4287,648.38601 1101.7557,924.43144 859.3279,1143.2355 583.46085,1129.568 306.22867,1115.833 86.484691,872.3615 100.21415,595.3077 114.01125,316.88879 358.52642,96.204835 636.76696,109.99633 916.37261,123.85549 1137.9965,369.41434 1124.143,648.84161 1110.2218,929.634 863.61926,1152.1979 583.00524,1138.2823 301.02611,1124.2991 77.52225,876.65285 91.499859,594.85209 105.54518,311.68623 354.23507,87.242394 637.22256,101.28204 921.57517,115.38942 1146.959,365.12299 1132.8573,649.29722 1118.6879,934.83657 867.91061,1161.1603 582.54963,1146.9966 295.82355,1132.7651 68.559808,880.9442 82.785571,594.39648 97.079106,306.48366 349.94372,78.279951 637.67817,92.567754 926.77773,106.92334 1155.9214,360.83164 1141.5716,649.75283 1127.1539,940.03913 872.20196,1170.1228 582.09402,1155.7109 290.62099,1141.2312 59.597364,885.23555 74.071283,593.94088 88.613032,301.2811 345.65237,69.317508 638.13378,83.853466 931.9803,98.457267 1164.8839,356.54029 1150.2859,650.20844 1135.62,945.24169 876.49331,1179.0852 581.63842,1164.4252 285.41842,1149.6973 50.63492,889.5269 65.356995,593.48527 80.146956,296.07854 341.36102,60.355063 638.58939,75.139177 937.18286,89.991192 1173.8463,352.24894 1159.0001,650.66404 1144.0861,950.44425 880.78466,1188.0477 581.18281,1173.1395 280.21586,1158.1634 41.672475,893.81825 56.642707,593.02966 71.68088,290.87597 337.06967,51.392618 639.045,66.424889 942.38542,81.525115 1182.8087,347.95759 1167.7144,651.11965 1152.5522,955.64682 885.07601,1197.0101 580.7272,1181.8538 275.0133,1166.6294 32.710029,898.1096 47.928419,592.57405 63.214803,285.67341 332.77832,42.430172 639.5006,57.710601 947.58798,73.059038 1191.7712,343.66624 1176.4287,651.57526 1161.0182,960.84938 889.36736,1205.9726 580.27159,1190.5681 269.81074,1175.0955 23.747582,902.40095 39.214131,592.11844 54.748725,280.47085 328.48697,33.467725 639.95621,48.996313 952.79055,64.592959 1200.7336,339.37489 1185.143,652.03087 1169.4843,966.05194 893.6587,1214.935 579.81598,1199.2823 264.60817,1183.5616 14.785135,906.6923 30.499843,591.66284 46.282646,275.26829 324.19562,24.505277 640.41182,40.282025 957.99311,56.126881 1209.6961,335.08354 1193.8573,652.48648 1177.9504,971.2545 897.95005,1223.8975 579.36038,1207.9966 259.40561,1192.0277 5.8226867,910.98365 21.785555,591.20723 37.816566,270.06572 319.90427,15.542829 640.86743,31.567737 963.19567,47.660801 1218.6585,330.79219 1202.5716,652.94208 1186.4165,976.45707 902.2414,1232.8599 578.90477,1216.7109 254.20305,1200.4937 -3.1397623,915.275 13.071267,590.75162 29.350486,264.86316 315.61292,6.5803798 641.32303,22.853449 968.39823,39.19472 1227.621,326.50084 1211.2859,653.39769 1194.8826,981.65963 906.53275,1241.8224 578.44916,1225.4252 249.00048,1208.9598 -12.102212,919.56635 4.3569786,590.29601 20.884405,259.6606 311.32157,-2.38207 641.77864,14.139161 973.6008,30.728639 1236.5834,322.20949 1220.0002,653.8533"
     transform="translate(-3.8175527,-8.1432021)" />
</svg>
