<?xml version="1.0" encoding="UTF-8" standalone="no"?>
<svg
   xmlns:i="http://ns.adobe.com/AdobeIllustrator/10.0/"
   xmlns:dc="http://purl.org/dc/elements/1.1/"
   xmlns:cc="http://creativecommons.org/ns#"
   xmlns:rdf="http://www.w3.org/1999/02/22-rdf-syntax-ns#"
   xmlns:svg="http://www.w3.org/2000/svg"
   xmlns="http://www.w3.org/2000/svg"
   xmlns:xlink="http://www.w3.org/1999/xlink"
   xmlns:sodipodi="http://sodipodi.sourceforge.net/DTD/sodipodi-0.dtd"
   xmlns:inkscape="http://www.inkscape.org/namespaces/inkscape"
   version="1.1"
   width="1220"
   height="1220"
   id="svg2"
   inkscape:version="0.48.1 r9760"
   sodipodi:docname="hotun1.svg">
  <metadata
     id="metadata14">
    <rdf:RDF>
      <cc:Work
         rdf:about="">
        <dc:format>image/svg+xml</dc:format>
        <dc:type
           rdf:resource="http://purl.org/dc/dcmitype/StillImage" />
        <dc:title></dc:title>
      </cc:Work>
    </rdf:RDF>
  </metadata>
  <defs
     id="defs12">
    <linearGradient
       inkscape:collect="always"
       id="linearGradient3191">
      <stop
         style="stop-color:#4c4c4c;stop-opacity:1;"
         offset="0"
         id="stop3193" />
      <stop
         style="stop-color:#b3b3b3;stop-opacity:1"
         offset="1"
         id="stop3195" />
    </linearGradient>
    <linearGradient
       inkscape:collect="always"
       id="linearGradient3137">
      <stop
         style="stop-color:#ffffff;stop-opacity:1;"
         offset="0"
         id="stop3139" />
      <stop
         style="stop-color:#999999;stop-opacity:1"
         offset="1"
         id="stop3141" />
    </linearGradient>
    <linearGradient
       inkscape:collect="always"
       id="linearGradient2999">
      <stop
         style="stop-color:#000000;stop-opacity:1;"
         offset="0"
         id="stop3001" />
      <stop
         style="stop-color:#000000;stop-opacity:0;"
         offset="1"
         id="stop3003" />
    </linearGradient>
    <radialGradient
       inkscape:collect="always"
       xlink:href="#linearGradient2999"
       id="radialGradient3005"
       cx="600"
       cy="600"
       fx="600"
       fy="600"
       r="605"
       gradientUnits="userSpaceOnUse"
       gradientTransform="matrix(-0.18028746,1.6088226,-2.0648853,-0.23144207,1947.1038,-226.42836)" />
    <radialGradient
       inkscape:collect="always"
       xlink:href="#linearGradient3137"
       id="radialGradient3143"
       cx="1071.0797"
       cy="655.42804"
       fx="1071.0797"
       fy="655.42804"
       r="600"
       gradientUnits="userSpaceOnUse"
       gradientTransform="matrix(-0.02625651,0.97146469,-1.0097814,-0.02729129,1281.988,-414.65475)" />
    <radialGradient
       inkscape:collect="always"
       xlink:href="#linearGradient3191"
       id="radialGradient3201"
       cx="628.69153"
       cy="561.06989"
       fx="628.69153"
       fy="561.06989"
       r="141.32648"
       gradientTransform="matrix(-0.90224004,0.9488133,-0.91877035,-0.87367124,1688.738,507.66671)"
       gradientUnits="userSpaceOnUse" />
  </defs>
  <sodipodi:namedview
     pagecolor="#ffffff"
     bordercolor="#666666"
     borderopacity="1"
     objecttolerance="10"
     gridtolerance="10"
     guidetolerance="10"
     inkscape:pageopacity="0"
     inkscape:pageshadow="2"
     inkscape:window-width="1024"
     inkscape:window-height="718"
     id="namedview10"
     showgrid="false"
     inkscape:zoom="0.25081967"
     inkscape:cx="303.00654"
     inkscape:cy="610.00001"
     inkscape:window-x="-2"
     inkscape:window-y="13"
     inkscape:window-maximized="1"
     inkscape:current-layer="svg2" />
  <g
     transform="translate(10,10)"
     id="g4">
    <path
       d="m 0,600 a 600,600 0 1 1 1200,0 600,600 0 1 1 -1200,0 z m 450,0 a 150,150 0 1 0 300,0 150,150 0 1 0 -300,0 z"
       id="path6"
       style="fill:url(#radialGradient3143);fill-opacity:1"
       inkscape:connector-curvature="0" />
    <path
       d="m -5,600 a 605,605 0 1 0 1210,0 605,605 0 1 0 -1210,0 z m 10,0 a 375,375 0 1 0 750,0 155,155 0 1 0 -310,0 375,375 0 1 1 750,0 595,595 0 1 1 -1190,0 z m 450,0 a 145,145 0 1 1 290,0 145,145 0 1 1 -290,0 z"
       id="path8"
       style="fill:url(#radialGradient3005);fill-opacity:1"
       inkscape:connector-curvature="0" />
  </g>
  <flowRoot
     xml:space="preserve"
     id="flowRoot3127"
     style="font-size:48px;font-style:normal;font-variant:normal;font-weight:bold;font-stretch:normal;line-height:125%;letter-spacing:0px;word-spacing:0px;fill:#000000;fill-opacity:1;stroke:none;font-family:Dustismo;-inkscape-font-specification:Sans Bold"><flowRegion
       id="flowRegion3129"><rect
         id="rect3131"
         width="1160.196"
         height="123.59477"
         x="243.20262"
         y="1012.6797" /></flowRegion><flowPara
       id="flowPara3133" /></flowRoot>  <path
     style="fill:url(#radialGradient3201);fill-opacity:1"
     d="m 573.71895,747.14177 c -26.57883,-8.42784 -46.9631,-20.60995 -64.96888,-38.82691 -48.84402,-49.41687 -54.09907,-125.16047 -12.65309,-182.37499 48.60927,-67.10314 146.77017,-76.75244 208.34108,-20.48009 30.53888,27.91081 44.33997,57.31537 46.08845,98.19591 1.15459,26.99482 -0.1994,36.24583 -8.20627,56.06886 -12.13375,30.04014 -27.62582,49.64081 -53.2668,67.39349 -33.67589,23.31572 -79.73434,31.31213 -115.33449,20.02373 z"
     id="path3189"
     inkscape:connector-curvature="0" />
  <g
     i:rgbTrio="#4F008000FFFF"
     i:dimmedPercent="50"
     i:layer="yes"
     id="Layer_1"
     transform="matrix(1.5948924,0,0,1.4779211,540.65337,529.86047)">
		<g
   id="g3006">
			<path
   id="path3008"
   d="m 51.986,57.297 c -1.797,0.025 0.34,0.926 2.686,1.287 0.648,-0.506 1.236,-1.018 1.76,-1.516 -1.461,0.358 -2.948,0.366 -4.446,0.229"
   i:knockout="Off"
   inkscape:connector-curvature="0"
   style="fill:#d70751" />

			<path
   id="path3010"
   d="m 61.631,54.893 c 1.07,-1.477 1.85,-3.094 2.125,-4.766 -0.24,1.192 -0.887,2.221 -1.496,3.307 -3.359,2.115 -0.316,-1.256 -0.002,-2.537 -3.612,4.546 -0.496,2.726 -0.627,3.996"
   i:knockout="Off"
   inkscape:connector-curvature="0"
   style="fill:#d70751" />

			<path
   id="path3012"
   d="m 65.191,45.629 c 0.217,-3.236 -0.637,-2.213 -0.924,-0.978 0.335,0.174 0.6,2.281 0.924,0.978"
   i:knockout="Off"
   inkscape:connector-curvature="0"
   style="fill:#d70751" />

			<path
   id="path3014"
   d="m 45.172,1.399 c 0.959,0.172 2.072,0.304 1.916,0.533 1.049,-0.23 1.287,-0.442 -1.916,-0.533"
   i:knockout="Off"
   inkscape:connector-curvature="0"
   style="fill:#d70751" />

			<path
   id="path3016"
   d="M 47.088,1.932 46.41,2.072 47.041,2.016 47.088,1.932"
   i:knockout="Off"
   inkscape:connector-curvature="0"
   style="fill:#d70751" />

			<path
   id="path3018"
   d="m 76.992,46.856 c 0.107,2.906 -0.85,4.316 -1.713,6.812 l -1.553,0.776 c -1.271,2.468 0.123,1.567 -0.787,3.53 -1.984,1.764 -6.021,5.52 -7.313,5.863 -0.943,-0.021 0.639,-1.113 0.846,-1.541 -2.656,1.824 -2.131,2.738 -6.193,3.846 L 60.16,65.878 C 50.142,70.591 36.226,61.251 36.409,48.507 c -0.107,0.809 -0.304,0.607 -0.526,0.934 -0.517,-6.557 3.028,-13.143 9.007,-15.832 5.848,-2.895 12.704,-1.707 16.893,2.197 -2.301,-3.014 -6.881,-6.209 -12.309,-5.91 -5.317,0.084 -10.291,3.463 -11.951,7.131 -2.724,1.715 -3.04,6.611 -4.227,7.507 -1.597,11.737 3.004,16.808 10.787,22.773 1.225,0.826 0.345,0.951 0.511,1.58 -2.586,-1.211 -4.954,-3.039 -6.901,-5.277 1.033,1.512 2.148,2.982 3.589,4.137 -2.438,-0.826 -5.695,-5.908 -6.646,-6.115 4.203,7.525 17.052,13.197 23.78,10.383 -3.113,0.115 -7.068,0.064 -10.566,-1.229 -1.469,-0.756 -3.467,-2.322 -3.11,-2.615 9.182,3.43 18.667,2.598 26.612,-3.771 2.021,-1.574 4.229,-4.252 4.867,-4.289 -0.961,1.445 0.164,0.695 -0.574,1.971 2.014,-3.248 -0.875,-1.322 2.082,-5.609 l 1.092,1.504 c -0.406,-2.696 3.348,-5.97 2.967,-10.234 0.861,-1.304 0.961,1.403 0.047,4.403 1.268,-3.328 0.334,-3.863 0.66,-6.609 0.352,0.923 0.814,1.904 1.051,2.878 -0.826,-3.216 0.848,-5.416 1.262,-7.285 -0.408,-0.181 -1.275,1.422 -1.473,-2.377 0.029,-1.65 0.459,-0.865 0.625,-1.271 -0.324,-0.186 -1.174,-1.451 -1.691,-3.877 0.375,-0.57 1.002,1.478 1.512,1.562 -0.328,-1.929 -0.893,-3.4 -0.916,-4.88 -1.49,-3.114 -0.527,0.415 -1.736,-1.337 -1.586,-4.947 1.316,-1.148 1.512,-3.396 2.404,3.483 3.775,8.881 4.404,11.117 -0.48,-2.726 -1.256,-5.367 -2.203,-7.922 0.73,0.307 -1.176,-5.609 0.949,-1.691 C 83.519,18.706 76.074,10.902 69.225,7.24 70.063,8.007 71.121,8.97 70.741,9.121 67.335,7.093 67.934,6.935 67.446,6.078 64.671,4.949 64.489,6.169 62.651,6.08 57.421,3.306 56.413,3.601 51.6,1.863 l 0.219,1.023 c -3.465,-1.154 -4.037,0.438 -7.782,0.004 -0.228,-0.178 1.2,-0.644 2.375,-0.815 -3.35,0.442 -3.193,-0.66 -6.471,0.122 0.808,-0.567 1.662,-0.942 2.524,-1.424 -2.732,0.166 -6.522,1.59 -5.352,0.295 -4.456,1.988 -12.37,4.779 -16.811,8.943 l -0.14,-0.933 c -2.035,2.443 -8.874,7.296 -9.419,10.46 l -0.544,0.127 c -1.059,1.793 -1.744,3.825 -2.584,5.67 -1.385,2.36 -2.03,0.908 -1.833,1.278 -2.724,5.523 -4.077,10.164 -5.246,13.97 0.833,1.245 0.02,7.495 0.335,12.497 -1.368,24.704 17.338,48.69 37.785,54.228 2.997,1.072 7.454,1.031 11.245,1.141 -4.473,-1.279 -5.051,-0.678 -9.408,-2.197 -3.143,-1.48 -3.832,-3.17 -6.058,-5.102 l 0.881,1.557 c -4.366,-1.545 -2.539,-1.912 -6.091,-3.037 l 0.941,-1.229 C 28.751,98.334 26.418,96.056 25.78,94.795 l -1.548,0.061 c -1.86,-2.295 -2.851,-3.949 -2.779,-5.23 l -0.5,0.891 c -0.567,-0.973 -6.843,-8.607 -3.587,-6.83 -0.605,-0.553 -1.409,-0.9 -2.281,-2.484 l 0.663,-0.758 c -1.567,-2.016 -2.884,-4.6 -2.784,-5.461 0.836,1.129 1.416,1.34 1.99,1.533 -3.957,-9.818 -4.179,-0.541 -7.176,-9.994 L 8.412,66.472 C 7.926,65.74 7.631,64.945 7.24,64.165 l 0.276,-2.75 C 4.667,58.121 6.719,47.409 7.13,41.534 7.415,39.145 9.508,36.602 11.1,32.614 l -0.97,-0.167 c 1.854,-3.234 10.586,-12.988 14.63,-12.486 1.959,-2.461 -0.389,-0.009 -0.772,-0.629 4.303,-4.453 5.656,-3.146 8.56,-3.947 3.132,-1.859 -2.688,0.725 -1.203,-0.709 5.414,-1.383 3.837,-3.144 10.9,-3.846 0.745,0.424 -1.729,0.655 -2.35,1.205 4.511,-2.207 14.275,-1.705 20.617,1.225 7.359,3.439 15.627,13.605 15.953,23.17 l 0.371,0.1 c -0.188,3.802 0.582,8.199 -0.752,12.238 l 0.908,-1.912"
   i:knockout="Off"
   inkscape:connector-curvature="0"
   style="fill:#d70751" />

			<path
   id="path3020"
   d="m 32.372,59.764 -0.252,1.26 c 1.181,1.604 2.118,3.342 3.626,4.596 -1.085,-2.118 -1.891,-2.993 -3.374,-5.856"
   i:knockout="Off"
   inkscape:connector-curvature="0"
   style="fill:#d70751" />

			<path
   id="path3022"
   d="m 35.164,59.654 c -0.625,-0.691 -0.995,-1.523 -1.409,-2.352 0.396,1.457 1.207,2.709 1.962,3.982 l -0.553,-1.63"
   i:knockout="Off"
   inkscape:connector-curvature="0"
   style="fill:#d70751" />

			<path
   id="path3024"
   d="m 84.568,48.916 -0.264,0.662 c -0.484,3.438 -1.529,6.84 -3.131,9.994 1.77,-3.328 2.915,-6.968 3.395,-10.656"
   i:knockout="Off"
   inkscape:connector-curvature="0"
   style="fill:#d70751" />

			<path
   id="path3026"
   d="M 45.527,0.537 C 46.742,0.092 48.514,0.293 49.803,0 48.123,0.141 46.451,0.225 44.8,0.438 l 0.727,0.099"
   i:knockout="Off"
   inkscape:connector-curvature="0"
   style="fill:#d70751" />

			<path
   id="path3028"
   d="m 2.872,23.219 c 0.28,2.592 -1.95,3.598 0.494,1.889 1.31,-2.951 -0.512,-0.815 -0.494,-1.889"
   i:knockout="Off"
   inkscape:connector-curvature="0"
   style="fill:#d70751" />

			<path
   id="path3030"
   d="M 0,35.215 C 0.563,33.487 0.665,32.449 0.88,31.449 -0.676,33.438 0.164,33.862 0,35.215"
   i:knockout="Off"
   inkscape:connector-curvature="0"
   style="fill:#d70751" />

		</g>

	</g>
</svg>
