<?xml version="1.0" encoding="UTF-8" standalone="no"?>
<svg
   xmlns:dc="http://purl.org/dc/elements/1.1/"
   xmlns:cc="http://creativecommons.org/ns#"
   xmlns:rdf="http://www.w3.org/1999/02/22-rdf-syntax-ns#"
   xmlns:svg="http://www.w3.org/2000/svg"
   xmlns="http://www.w3.org/2000/svg"
   xmlns:xlink="http://www.w3.org/1999/xlink"
   xmlns:sodipodi="http://sodipodi.sourceforge.net/DTD/sodipodi-0.dtd"
   xmlns:inkscape="http://www.inkscape.org/namespaces/inkscape"
   version="1.1"
   width="1220"
   height="1220"
   id="svg2"
   inkscape:version="0.48.1 r9760"
   sodipodi:docname="hotunsiduc.svg">
  <metadata
     id="metadata14">
    <rdf:RDF>
      <cc:Work
         rdf:about="">
        <dc:format>image/svg+xml</dc:format>
        <dc:type
           rdf:resource="http://purl.org/dc/dcmitype/StillImage" />
        <dc:title></dc:title>
      </cc:Work>
    </rdf:RDF>
  </metadata>
  <defs
     id="defs12">
    <linearGradient
       inkscape:collect="always"
       id="linearGradient3191">
      <stop
         style="stop-color:#4c4c4c;stop-opacity:1;"
         offset="0"
         id="stop3193" />
      <stop
         style="stop-color:#b3b3b3;stop-opacity:1"
         offset="1"
         id="stop3195" />
    </linearGradient>
    <linearGradient
       inkscape:collect="always"
       id="linearGradient3137">
      <stop
         style="stop-color:#ffffff;stop-opacity:1;"
         offset="0"
         id="stop3139" />
      <stop
         style="stop-color:#999999;stop-opacity:1"
         offset="1"
         id="stop3141" />
    </linearGradient>
    <linearGradient
       inkscape:collect="always"
       id="linearGradient2999">
      <stop
         style="stop-color:#000000;stop-opacity:1;"
         offset="0"
         id="stop3001" />
      <stop
         style="stop-color:#000000;stop-opacity:0;"
         offset="1"
         id="stop3003" />
    </linearGradient>
    <radialGradient
       inkscape:collect="always"
       xlink:href="#linearGradient2999"
       id="radialGradient3005"
       cx="600"
       cy="600"
       fx="600"
       fy="600"
       r="605"
       gradientUnits="userSpaceOnUse"
       gradientTransform="matrix(-0.18028746,1.6088226,-2.0648853,-0.23144207,1947.1038,-226.42836)" />
    <radialGradient
       inkscape:collect="always"
       xlink:href="#linearGradient3137"
       id="radialGradient3143"
       cx="1071.0797"
       cy="655.42804"
       fx="1071.0797"
       fy="655.42804"
       r="600"
       gradientUnits="userSpaceOnUse"
       gradientTransform="matrix(-0.02625651,0.97146469,-1.0097814,-0.02729129,1281.988,-414.65475)" />
    <radialGradient
       inkscape:collect="always"
       xlink:href="#linearGradient3191"
       id="radialGradient3201"
       cx="628.69153"
       cy="561.06989"
       fx="628.69153"
       fy="561.06989"
       r="141.32648"
       gradientTransform="matrix(-0.90224004,0.9488133,-0.91877035,-0.87367124,1688.738,507.66671)"
       gradientUnits="userSpaceOnUse" />
  </defs>
  <sodipodi:namedview
     pagecolor="#ffffff"
     bordercolor="#666666"
     borderopacity="1"
     objecttolerance="10"
     gridtolerance="10"
     guidetolerance="10"
     inkscape:pageopacity="0"
     inkscape:pageshadow="2"
     inkscape:window-width="1024"
     inkscape:window-height="718"
     id="namedview10"
     showgrid="false"
     inkscape:zoom="0.25081967"
     inkscape:cx="233.2353"
     inkscape:cy="610.00001"
     inkscape:window-x="-2"
     inkscape:window-y="13"
     inkscape:window-maximized="1"
     inkscape:current-layer="svg2" />
  <g
     transform="translate(10,10)"
     id="g4">
    <path
       d="m 0,600 a 600,600 0 1 1 1200,0 600,600 0 1 1 -1200,0 z m 450,0 a 150,150 0 1 0 300,0 150,150 0 1 0 -300,0 z"
       id="path6"
       style="fill:url(#radialGradient3143);fill-opacity:1"
       inkscape:connector-curvature="0" />
    <path
       d="m -5,600 a 605,605 0 1 0 1210,0 605,605 0 1 0 -1210,0 z m 10,0 a 375,375 0 1 0 750,0 155,155 0 1 0 -310,0 375,375 0 1 1 750,0 595,595 0 1 1 -1190,0 z m 450,0 a 145,145 0 1 1 290,0 145,145 0 1 1 -290,0 z"
       id="path8"
       style="fill:url(#radialGradient3005);fill-opacity:1"
       inkscape:connector-curvature="0" />
  </g>
  <flowRoot
     xml:space="preserve"
     id="flowRoot3127"
     style="font-size:48px;font-style:normal;font-variant:normal;font-weight:bold;font-stretch:normal;line-height:125%;letter-spacing:0px;word-spacing:0px;fill:#000000;fill-opacity:1;stroke:none;font-family:Dustismo;-inkscape-font-specification:Sans Bold"><flowRegion
       id="flowRegion3129"><rect
         id="rect3131"
         width="1160.196"
         height="123.59477"
         x="243.20262"
         y="1012.6797" /></flowRegion><flowPara
       id="flowPara3133" /></flowRoot>  <path
     style="fill:url(#radialGradient3201);fill-opacity:1"
     d="m 573.71895,747.14177 c -26.57883,-8.42784 -46.9631,-20.60995 -64.96888,-38.82691 -48.84402,-49.41687 -54.09907,-125.16047 -12.65309,-182.37499 48.60927,-67.10314 146.77017,-76.75244 208.34108,-20.48009 30.53888,27.91081 44.33997,57.31537 46.08845,98.19591 1.15459,26.99482 -0.1994,36.24583 -8.20627,56.06886 -12.13375,30.04014 -27.62582,49.64081 -53.2668,67.39349 -33.67589,23.31572 -79.73434,31.31213 -115.33449,20.02373 z"
     id="path3189"
     inkscape:connector-curvature="0" />
  <flowRoot
     xml:space="preserve"
     id="flowRoot3154"
     style="font-size:55.2868576px;font-style:normal;font-variant:normal;font-weight:bold;font-stretch:normal;line-height:125%;letter-spacing:0px;word-spacing:0px;fill:#000000;fill-opacity:1;stroke:none;font-family:Dustismo;-inkscape-font-specification:Sans Bold"
     transform="matrix(1.1097261,0,0,1.5282886,-41.349353,-1066.7909)"
     inkscape:transform-center-y="-28.467309"><flowRegion
       id="flowRegion3156"><rect
         id="rect3158"
         width="837.25488"
         height="119.60784"
         x="478.43137"
         y="1060.5228"
         style="font-size:55.2868576px" /></flowRegion><flowPara
       id="flowPara3160">siduction</flowPara></flowRoot>  <path
     sodipodi:type="spiral"
     style="fill:none;stroke:#000000;stroke-width:1px;stroke-linecap:butt;stroke-linejoin:miter;stroke-opacity:1"
     id="path3219"
     sodipodi:cx="610"
     sodipodi:cy="621.96075"
     sodipodi:expansion="1"
     sodipodi:revolution="40"
     sodipodi:radius="610.83331"
     sodipodi:argument="-251.27518"
     sodipodi:t0="0"
     d="m 610,621.96075 c 2.29383,0.11993 0.97004,3.15121 -0.19933,3.81251 -3.1689,1.79206 -6.63987,-1.20817 -7.42567,-4.21116 -1.40561,-5.37166 3.12884,-10.23311 8.22299,-11.03885 7.47586,-1.18245 13.89163,5.06069 14.65201,12.23482 1.01348,9.56198 -6.99453,17.57549 -16.24664,18.26519 -11.64283,0.86791 -21.27197,-8.92887 -21.87837,-20.25848 -0.73443,-13.72166 10.86339,-24.97564 24.27031,-25.49153 15.79959,-0.60797 28.68383,12.79798 29.10471,28.28213 0.48592,17.87706 -14.73266,32.39502 -32.29397,32.71788 -19.95427,0.36686 -36.10832,-16.66737 -36.33105,-36.30579 -0.24987,-22.03134 18.60213,-39.82317 40.31762,-39.94423 24.10832,-0.1344 43.53916,20.53692 43.5574,44.32946 0.0201,26.18523 -22.47173,47.25603 -48.34128,47.17057 -28.26211,-0.0934 -50.97361,-24.40657 -50.78374,-52.35311 0.20611,-30.33896 26.34143,-54.69174 56.36494,-54.39692 32.41578,0.31831 58.41032,28.27631 58.01009,60.37677 -0.43006,34.49261 -30.2112,62.12928 -64.3886,61.62326 -36.56942,-0.54143 -65.84855,-32.1461 -65.23644,-68.40043 0.6525,-38.64622 34.08102,-69.56807 72.41226,-68.84961 40.72302,0.76331 73.28783,36.01595 72.46278,76.42409 -0.87388,42.79981 -37.95088,77.00777 -80.43592,76.07596 -44.8766,-0.98428 -80.72788,-39.88582 -79.68912,-84.44775 1.0945,-46.95339 41.82077,-84.44813 88.45957,-83.3023 49.03018,1.20458 88.16851,43.75572 86.91547,92.47141 -1.31454,51.10696 -45.69068,91.88899 -96.48323,90.52864 -53.18375,-1.42439 -95.60957,-47.62565 -94.14182,-100.49506 1.53414,-55.26054 49.56062,-99.33025 104.5069,-97.75499 57.33732,1.6438 103.05099,51.49559 101.36816,108.51872 -1.75339,59.41411 -53.43057,106.77181 -112.53055,104.98133 -61.4909,-1.8629 -110.49269,-55.36555 -108.59451,-116.54238 1.97236,-63.56768 57.30054,-114.21362 120.55421,-112.20768 65.64447,2.08176 117.93461,59.23553 115.82085,124.56604 -2.19111,67.72126 -61.17052,121.65565 -128.57787,119.43403 -69.79804,-2.30041 -125.37672,-63.10551 -123.0472,-132.5897 2.40967,-71.87482 65.04051,-129.09783 136.60153,-126.66037 73.95161,2.51889 132.81899,66.9755 130.27355,140.61336 -2.62808,76.02839 -68.9105,136.54016 -144.62519,133.88671 -78.10518,-2.73722 -140.26138,-70.8455 -137.49989,-148.63701 2.84635,-80.18197 72.78051,-143.98262 152.64885,-141.11307 82.25875,2.95545 147.70388,74.71551 144.72623,156.66068 -3.06451,84.33554 -76.65051,151.42517 -160.6725,148.33941 -86.41233,-3.17356 -155.14649,-78.58553 -151.95258,-164.68434 3.28257,-88.48911 80.52053,-158.86782 168.69616,-155.56575 90.5659,3.39158 162.58917,82.45554 159.17893,172.70799 -3.50057,92.64269 -84.39055,166.31054 -176.71983,162.7921 -94.71947,-3.60953 -170.03192,-86.32556 -166.40527,-180.73165 3.71848,-96.79626 88.26058,-173.75333 184.74348,-170.01844 98.87305,3.8274 177.47475,90.19558 173.63162,188.75531 -3.93633,100.94983 -92.1306,181.19617 -192.76714,177.24479 -103.02663,-4.04524 -184.91762,-94.06562 -180.85796,-196.77898 4.15412,-105.10341 96.00063,-188.63907 200.7908,-184.47113 107.1802,4.263 192.36054,97.93565 188.0843,204.80263 -4.37186,109.25699 -99.87066,196.08202 -208.81446,191.69748 -111.33377,-4.48073 -199.8035,-101.80568 -195.31065,-212.82629 4.58958,-113.41057 103.74071,-203.525 216.83812,-198.92382 115.48736,4.69841 207.24651,105.67572 202.537,220.84994 C 818.69282,750.68729 715.88932,844.09117 598.63828,839.27331 478.99735,834.35726 383.94873,729.72755 388.87494,610.39971 393.89981,488.68199 500.35572,391.98863 621.76038,397.02319 745.55489,402.15686 843.89299,510.439 838.75006,633.92046 833.5076,759.79176 723.39924,859.77462 597.84097,854.52332 469.89288,849.17206 368.26525,737.23747 373.62494,609.60239 379.08497,479.57751 492.84581,376.30512 622.55769,381.77319 754.65936,387.342 859.57653,502.92908 854.00007,634.71777 848.32249,768.89623 730.90915,875.45818 597.04365,869.77332 460.78841,863.98698 352.58167,744.74738 358.37493,608.80508 364.27003,470.47304 485.3359,360.62151 623.355,366.52319 763.76383,372.52704 875.26016,495.41917 869.25007,635.51509 863.13747,778.0007 738.41906,891.14183 596.24634,885.02333 451.68393,878.80198 336.898,752.25729 343.12493,608.00777 349.45501,461.36857 477.82599,344.93783 624.15232,351.27318 772.8683,357.712 890.94386,487.90927 884.50007,636.3124 877.95253,787.10518 745.92896,906.82555 595.44903,900.27333 442.57946,893.61706 321.21426,759.76719 327.87492,607.21045 c 6.765,-154.94636 142.44117,-277.95638 297.07471,-271.18727 157.02315,6.87371 281.678,144.37619 274.80045,301.08653 C 892.76765,796.20965 753.43886,922.50934 594.65171,915.52333 433.47498,908.4322 305.53046,767.27708 312.62492,606.41314 319.82476,443.15962 462.8062,313.57026 625.74694,320.77317 791.07725,328.08172 922.31146,472.88948 915.00008,637.90703 907.58283,805.31413 760.94875,938.19318 593.8544,930.77334 424.37051,923.24739 289.84661,774.78698 297.37492,605.61583 305.00956,434.05514 455.2963,297.88639 626.54426,305.52317 800.18173,313.2665 937.99533,465.37959 930.25009,638.70434 922.39806,814.4186 768.45864,953.87706 593.05709,946.02334 415.26603,938.06263 274.16271,782.29687 282.12491,604.81851 290.19431,424.95067 447.78642,282.20249 627.34157,290.27316 809.28621,298.45124 953.67925,457.8697 945.50009,639.50165 937.21333,823.52308 775.96853,969.56099 592.25977,961.27335 406.16155,952.87791 258.47878,789.80675 266.87491,604.0212 275.37902,415.84619 440.27653,266.51854 628.13888,275.02316 818.39069,283.63595 969.3632,450.35981 960.7501,640.29897 952.02864,832.62756 783.47841,985.24495 591.46246,976.52335 397.05707,967.69322 242.79481,797.31664 251.6249,603.22388 260.5637,406.74171 432.76664,250.83457 628.9362,259.77316 827.49516,268.82062 985.04718,442.84993 976.0001,641.09628 966.84397,841.73204 790.9883,1000.9289 590.66514,991.77335 387.9526,982.50857 227.11081,804.82652 236.3749,602.42657 245.74835,397.63723 425.25676,235.15057 629.73351,244.52315 836.59964,254.00526 1000.7312,435.34005 991.2501,641.89359 981.65934,850.83652 798.49818,1016.613 589.86783,1007.0234 378.84812,997.32394 211.42679,812.3364 221.12489,601.62926 230.93297,388.53275 417.74688,219.46654 630.53083,229.27315 845.70412,239.18988 1016.4152,427.83017 1006.5001,642.69091 996.47473,859.941 806.00806,1032.297 589.07052,1022.2734 369.74364,1012.1393 195.74275,819.84628 205.87489,600.83194 216.11757,379.42827 410.237,203.78249 631.32814,214.02314 854.8086,224.37447 1032.0993,420.32029 1021.7501,643.48822 1011.2901,869.04548 813.51794,1047.9811 588.2732,1037.5234 360.63916,1026.9547 180.05868,827.35616 190.62489,600.03463 201.30215,370.32379 402.72713,188.09841 632.12545,198.77314 863.91308,209.55905 1047.7834,412.81041 1037.0001,644.28554 1026.1056,878.14996 821.02781,1063.6651 587.47589,1052.7734 351.53468,1041.7702 164.3746,834.86604 175.37488,599.23732 186.48671,361.21931 395.21725,172.41433 632.92277,183.52314 873.01756,194.7436 1063.4675,405.30053 1052.2501,645.08285 1040.921,887.25444 828.53769,1079.3492 586.67858,1068.0234 342.4302,1056.5856 148.69049,842.37591 160.12488,598.44 171.67126,352.11483 387.70737,156.73022 633.72008,168.27313 882.12204,179.92815 1079.1516,397.79066 1067.5001,645.88016 1055.7365,896.35892 836.04756,1095.0333 585.88126,1083.2734 333.32571,1071.4011 133.00638,849.88579 144.87487,597.64269 156.85579,343.01035 380.1975,141.0461 634.51739,153.02313 891.22653,165.11267 1094.8357,390.28079 1082.7501,646.67748 1070.552,905.4634 843.55744,1110.7175 585.08395,1098.5234 324.22123,1086.2166 117.32225,857.39566 129.62487,596.84538 142.0403,333.90587 372.68763,125.36197 635.31471,137.77312 900.33101,150.29719 1110.5198,382.77091 1098.0001,647.47479 1085.3674,914.56788 851.06731,1126.4016 584.28664,1113.7734 315.11675,1101.0321 101.63811,864.90553 114.37487,596.04806 127.22481,324.80139 365.17775,109.67783 636.11202,122.52312 909.43549,135.48169 1126.204,375.26104 1113.2501,648.2721 1100.1829,923.67236 858.57718,1142.0858 583.48932,1129.0234 306.01227,1115.8476 85.953956,872.4154 99.124861,595.25075 112.4093,315.6969 357.66788,93.993671 636.90933,107.27311 918.53997,120.66618 1141.8881,367.75117 1128.5001,649.06942 1114.9985,932.77685 866.08705,1157.7699 582.69201,1144.2734 296.90779,1130.6631 70.269793,879.92527 83.874857,594.45343 97.593785,306.59242 350.15801,78.309506 637.70665,92.023111 927.64445,105.85066 1157.5723,360.2413 1143.7501,649.86673 1129.814,941.88133 873.59692,1173.4541 581.8947,1159.5234 287.80331,1145.4786 54.585622,887.43515 68.624853,593.65612 82.778259,297.48794 342.64814,62.625332 638.50396,76.773107 936.74894,91.03513 1173.2565,352.73143 1159.0001,650.66404 1144.6295,950.98581 881.10679,1189.1383 581.09738,1174.7734 278.69882,1160.2941 38.901442,894.94501 53.374849,592.85881 67.962724,288.38346 335.13827,46.94115 639.30128,61.523102 945.85342,76.219593 1188.9407,345.22156 1174.2502,651.46136 1159.445,960.09029 888.61666,1204.8225 580.30007,1190.0234 269.59434,1175.1097 23.217254,902.45488 38.124845,592.06149 53.147181,279.27897 327.6284,31.25696 640.09859,46.273098 954.9579,61.404049 1204.6248,337.71169 1189.5002,652.25867 1174.2606,969.19478 896.12653,1220.5066 579.50275,1205.2734 260.48986,1189.9252 7.5330584,909.96475 22.874841,591.26418 38.331632,270.17449 320.11853,15.572763 640.8959,31.023094 964.06238,46.588498 1220.309,330.20182 1204.7502,653.05599 1189.0761,978.29926 903.6364,1236.1908 578.70544,1220.5234 251.38537,1204.7408 -8.1511435,917.47462 7.6248366,590.46687 23.516075,261.07001 312.60867,-0.11144056 641.69322,15.77309 973.16687,31.77294 1235.9932,322.69195 1220.0002,653.8533"
     transform="translate(-3.8175527,-8.1432021)" />
</svg>
