<?xml version="1.0" encoding="UTF-8" standalone="no"?>
<!-- Created with Inkscape (http://www.inkscape.org/) -->

<svg
   xmlns:dc="http://purl.org/dc/elements/1.1/"
   xmlns:cc="http://creativecommons.org/ns#"
   xmlns:rdf="http://www.w3.org/1999/02/22-rdf-syntax-ns#"
   xmlns:svg="http://www.w3.org/2000/svg"
   xmlns="http://www.w3.org/2000/svg"
   xmlns:xlink="http://www.w3.org/1999/xlink"
   xmlns:sodipodi="http://sodipodi.sourceforge.net/DTD/sodipodi-0.dtd"
   xmlns:inkscape="http://www.inkscape.org/namespaces/inkscape"
   width="1052.3622"
   height="744.09448"
   id="svg2"
   version="1.1"
   inkscape:version="0.48.1 r9760"
   sodipodi:docname="kuchenfreund_in__siduction-rolling-dot__candidate_logo.svg"
   inkscape:export-filename="/home/atomie/Downloads/siductionzeugs/kuchenfreund_in__siduction_rolling-dot_with-fastforward_shiny-reflection_PNG.png"
   inkscape:export-xdpi="75"
   inkscape:export-ydpi="75">
  <defs
     id="defs4">
    <inkscape:path-effect
       effect="spiro"
       id="path-effect3350"
       is_visible="true" />
    <inkscape:path-effect
       effect="spiro"
       id="path-effect3346"
       is_visible="true" />
    <linearGradient
       inkscape:collect="always"
       id="linearGradient4527">
      <stop
         style="stop-color:#000000;stop-opacity:1;"
         offset="0"
         id="stop4529" />
      <stop
         style="stop-color:#000000;stop-opacity:0;"
         offset="1"
         id="stop4531" />
    </linearGradient>
    <linearGradient
       inkscape:collect="always"
       id="linearGradient4310">
      <stop
         style="stop-color:#ffffff;stop-opacity:1;"
         offset="0"
         id="stop4312" />
      <stop
         style="stop-color:#ffffff;stop-opacity:0;"
         offset="1"
         id="stop4314" />
    </linearGradient>
    <linearGradient
       inkscape:collect="always"
       id="linearGradient4050">
      <stop
         style="stop-color:#000000;stop-opacity:1;"
         offset="0"
         id="stop4052" />
      <stop
         style="stop-color:#000000;stop-opacity:0;"
         offset="1"
         id="stop4054" />
    </linearGradient>
    <linearGradient
       inkscape:collect="always"
       id="linearGradient4042">
      <stop
         style="stop-color:#ffffff;stop-opacity:1;"
         offset="0"
         id="stop4044" />
      <stop
         style="stop-color:#ffffff;stop-opacity:0;"
         offset="1"
         id="stop4046" />
    </linearGradient>
    <inkscape:path-effect
       effect="spiro"
       id="path-effect3970"
       is_visible="true" />
    <inkscape:path-effect
       effect="spiro"
       id="path-effect3966"
       is_visible="true" />
    <inkscape:path-effect
       effect="spiro"
       id="path-effect3958"
       is_visible="true" />
    <inkscape:path-effect
       effect="spiro"
       id="path-effect3934"
       is_visible="true" />
    <filter
       id="filter4018"
       x="-0.25"
       width="1.5"
       y="-0.25"
       height="1.5"
       inkscape:menu="Non realistic 3D shaders"
       inkscape:menu-tooltip="Non realistic chrome shader with strong speculars"
       inkscape:label="Chrome"
       color-interpolation-filters="sRGB">
      <feGaussianBlur
         id="feGaussianBlur4020"
         result="result8"
         stdDeviation="4" />
      <feComposite
         id="feComposite4022"
         in2="result8"
         in="result8"
         operator="xor"
         result="result6" />
      <feDisplacementMap
         id="feDisplacementMap4024"
         in2="result6"
         result="result4"
         scale="80"
         yChannelSelector="A"
         xChannelSelector="A"
         in="result6" />
      <feComposite
         id="feComposite4026"
         in2="result4"
         k1="3"
         in="result8"
         operator="arithmetic"
         result="result2" />
      <feComposite
         id="feComposite4028"
         in2="result2"
         operator="in"
         in="result2"
         result="fbSourceGraphic" />
    </filter>
    <linearGradient
       inkscape:collect="always"
       xlink:href="#linearGradient4050"
       id="linearGradient4056"
       x1="892.91827"
       y1="151.60677"
       x2="1428.5709"
       y2="631.67151"
       gradientUnits="userSpaceOnUse" />
    <linearGradient
       inkscape:collect="always"
       xlink:href="#linearGradient4527"
       id="linearGradient4533"
       x1="513.15747"
       y1="882.65656"
       x2="494.97476"
       y2="632.13867"
       gradientUnits="userSpaceOnUse" />
    <linearGradient
       inkscape:collect="always"
       xlink:href="#linearGradient4527"
       id="linearGradient4553"
       gradientUnits="userSpaceOnUse"
       x1="513.15747"
       y1="882.65656"
       x2="494.97476"
       y2="632.13867" />
    <linearGradient
       inkscape:collect="always"
       xlink:href="#linearGradient4093"
       id="linearGradient4101"
       x1="163.64285"
       y1="275.93915"
       x2="914.92859"
       y2="275.93915"
       gradientUnits="userSpaceOnUse"
       gradientTransform="translate(-8,308.2677)" />
    <linearGradient
       id="linearGradient4093">
      <stop
         style="stop-color:#751783;stop-opacity:1;"
         offset="0"
         id="stop4095" />
      <stop
         id="stop4105"
         offset="0.25"
         style="stop-color:#751783;stop-opacity:0;" />
      <stop
         id="stop4103"
         offset="0.5"
         style="stop-color:#751783;stop-opacity:0;" />
      <stop
         style="stop-color:#751783;stop-opacity:0.36000001;"
         offset="0.75"
         id="stop4107" />
      <stop
         style="stop-color:#751783;stop-opacity:1;"
         offset="1"
         id="stop4097" />
    </linearGradient>
    <inkscape:path-effect
       is_visible="true"
       id="path-effect4389"
       effect="spiro" />
    <linearGradient
       id="linearGradient4093-4">
      <stop
         style="stop-color:#751783;stop-opacity:1;"
         offset="0"
         id="stop4095-9" />
      <stop
         id="stop4105-0"
         offset="0.25"
         style="stop-color:#751783;stop-opacity:0;" />
      <stop
         id="stop4103-9"
         offset="0.5"
         style="stop-color:#751783;stop-opacity:0;" />
      <stop
         style="stop-color:#751783;stop-opacity:0.36000001;"
         offset="0.75"
         id="stop4107-1" />
      <stop
         style="stop-color:#751783;stop-opacity:1;"
         offset="1"
         id="stop4097-7" />
    </linearGradient>
    <inkscape:path-effect
       is_visible="true"
       id="path-effect4389-7"
       effect="spiro" />
    <linearGradient
       inkscape:collect="always"
       id="linearGradient4023">
      <stop
         style="stop-color:#000000;stop-opacity:1;"
         offset="0"
         id="stop4025" />
      <stop
         style="stop-color:#000000;stop-opacity:0;"
         offset="1"
         id="stop4027" />
    </linearGradient>
    <inkscape:path-effect
       effect="spiro"
       id="path-effect3970-1"
       is_visible="true" />
    <linearGradient
       inkscape:collect="always"
       xlink:href="#linearGradient4310"
       id="linearGradient3242"
       gradientUnits="userSpaceOnUse"
       x1="1017.7955"
       y1="181.45439"
       x2="965.50543"
       y2="248.96132" />
    <linearGradient
       inkscape:collect="always"
       xlink:href="#linearGradient4042"
       id="linearGradient3244"
       gradientUnits="userSpaceOnUse"
       x1="1061.2664"
       y1="306.08307"
       x2="938.83148"
       y2="180.12549" />
    <linearGradient
       inkscape:collect="always"
       xlink:href="#linearGradient4023"
       id="linearGradient3258"
       gradientUnits="userSpaceOnUse"
       gradientTransform="matrix(1,0,0,0.82003473,0,-21.460583)"
       x1="-1277.9619"
       y1="295.27139"
       x2="-1335.1511"
       y2="-473.60593" />
    <linearGradient
       inkscape:collect="always"
       xlink:href="#linearGradient4093-4"
       id="linearGradient3270"
       gradientUnits="userSpaceOnUse"
       gradientTransform="translate(-0.8475,317.70701)"
       x1="163.64285"
       y1="275.93915"
       x2="914.92859"
       y2="275.93915" />
    <clipPath
       clipPathUnits="userSpaceOnUse"
       id="clipPath3644">
      <rect
         clip-path="url(#clipPath4221)"
         inkscape:export-ydpi="90"
         inkscape:export-xdpi="90"
         inkscape:export-filename="/home/se7en/Dropbox/Photos/siduction/siduction7StartButton.png"
         y="341.22308"
         x="100.67"
         height="666"
         width="666"
         id="rect3646"
         style="fill:#55d400;fill-opacity:1;stroke:none"
         transform="matrix(0.24935744,0,0,0.24935744,333.10137,483.17772)" />
    </clipPath>
    <filter
       color-interpolation-filters="sRGB"
       id="filter4402"
       inkscape:label="Drop shadow"
       width="1.5"
       height="1.5"
       x="-0.25"
       y="-0.25">
      <feGaussianBlur
         id="feGaussianBlur4404"
         in="SourceAlpha"
         stdDeviation="2"
         result="blur" />
      <feColorMatrix
         id="feColorMatrix4406"
         result="bluralpha"
         type="matrix"
         values="1 0 0 0 0 0 1 0 0 0 0 0 1 0 0 0 0 0 0.5 0 " />
      <feOffset
         id="feOffset4408"
         in="bluralpha"
         dx="4"
         dy="4"
         result="offsetBlur" />
      <feMerge
         id="feMerge4410">
        <feMergeNode
           id="feMergeNode4412"
           in="offsetBlur" />
        <feMergeNode
           id="feMergeNode4414"
           in="SourceGraphic" />
      </feMerge>
    </filter>
    <radialGradient
       inkscape:collect="always"
       xlink:href="#linearGradient5080"
       id="radialGradient3559"
       gradientUnits="userSpaceOnUse"
       cx="101.29065"
       cy="489.55539"
       fx="101.29065"
       fy="489.55539"
       r="3.6435485" />
    <linearGradient
       id="linearGradient5080">
      <stop
         style="stop-color:#5e126a;stop-opacity:1;"
         offset="0"
         id="stop5082" />
      <stop
         style="stop-color:#090505;stop-opacity:1;"
         offset="1"
         id="stop5084" />
    </linearGradient>
    <radialGradient
       inkscape:collect="always"
       xlink:href="#linearGradient5080"
       id="radialGradient3561"
       gradientUnits="userSpaceOnUse"
       gradientTransform="matrix(1,0,0,2.0000014,-225.56016,-641.10638)"
       cx="650.96149"
       cy="646.20288"
       fx="650.96149"
       fy="646.20288"
       r="35.569271" />
    <linearGradient
       id="linearGradient3577">
      <stop
         style="stop-color:#a32222;stop-opacity:1;"
         offset="0"
         id="stop3579" />
      <stop
         style="stop-color:#090505;stop-opacity:1;"
         offset="1"
         id="stop3581" />
    </linearGradient>
    <radialGradient
       inkscape:collect="always"
       xlink:href="#linearGradient5080"
       id="radialGradient3563"
       gradientUnits="userSpaceOnUse"
       gradientTransform="matrix(1,0,0,2.0000014,-225.56016,-641.10638)"
       cx="706.15985"
       cy="646.20288"
       fx="706.15985"
       fy="646.20288"
       r="35.569271" />
    <linearGradient
       id="linearGradient3584">
      <stop
         style="stop-color:#a32222;stop-opacity:1;"
         offset="0"
         id="stop3586" />
      <stop
         style="stop-color:#090505;stop-opacity:1;"
         offset="1"
         id="stop3588" />
    </linearGradient>
    <radialGradient
       r="35.569271"
       fy="646.20288"
       fx="706.15985"
       cy="646.20288"
       cx="706.15985"
       gradientTransform="matrix(1,0,0,2.0000014,-225.56016,-641.10638)"
       gradientUnits="userSpaceOnUse"
       id="radialGradient3594"
       xlink:href="#linearGradient5080"
       inkscape:collect="always" />
    <linearGradient
       inkscape:collect="always"
       xlink:href="#linearGradient4093-4"
       id="linearGradient3089"
       gradientUnits="userSpaceOnUse"
       gradientTransform="translate(-0.8475,9.43931)"
       x1="163.64285"
       y1="275.93915"
       x2="914.92859"
       y2="275.93915" />
    <linearGradient
       id="linearGradient12274">
      <stop
         id="stop12276"
         offset="0"
         style="stop-color:#800000;stop-opacity:0;" />
      <stop
         id="stop12278"
         offset="1"
         style="stop-color:#5f126a;stop-opacity:1;" />
    </linearGradient>
    <linearGradient
       id="linearGradient12284"
       inkscape:collect="always">
      <stop
         id="stop12286"
         offset="0"
         style="stop-color:#ffffff;stop-opacity:1;" />
      <stop
         id="stop12288"
         offset="1"
         style="stop-color:#ffffff;stop-opacity:0;" />
    </linearGradient>
    <linearGradient
       inkscape:collect="always"
       xlink:href="#linearGradient4052"
       id="linearGradient4003"
       gradientUnits="userSpaceOnUse"
       x1="1102.2063"
       y1="514.42395"
       x2="1284.957"
       y2="514.42395" />
    <linearGradient
       id="linearGradient4052"
       inkscape:collect="always">
      <stop
         id="stop4054-8"
         offset="0"
         style="stop-color:#000000;stop-opacity:1;" />
      <stop
         id="stop4056"
         offset="1"
         style="stop-color:#000000;stop-opacity:0;" />
    </linearGradient>
    <linearGradient
       inkscape:collect="always"
       xlink:href="#linearGradient4044"
       id="linearGradient4005"
       gradientUnits="userSpaceOnUse"
       x1="1104.7928"
       y1="514.42395"
       x2="1284.7219"
       y2="514.42395" />
    <linearGradient
       id="linearGradient4044"
       inkscape:collect="always">
      <stop
         id="stop4046-8"
         offset="0"
         style="stop-color:#000000;stop-opacity:1;" />
      <stop
         id="stop4048"
         offset="1"
         style="stop-color:#000000;stop-opacity:0;" />
    </linearGradient>
    <filter
       inkscape:label="Drop Shadow"
       id="filter4028"
       color-interpolation-filters="sRGB">
      <feFlood
         result="flood"
         flood-color="rgb(0,0,0)"
         flood-opacity="0.498039"
         id="feFlood4030" />
      <feComposite
         result="composite1"
         operator="in"
         in="flood"
         in2="SourceGraphic"
         id="feComposite4032" />
      <feGaussianBlur
         result="blur"
         stdDeviation="3"
         in="composite1"
         id="feGaussianBlur4034" />
      <feOffset
         result="offset"
         dy="6"
         dx="6"
         id="feOffset4036" />
      <feComposite
         result="composite2"
         operator="over"
         in="SourceGraphic"
         in2="offset"
         id="feComposite4038" />
    </filter>
    <linearGradient
       inkscape:collect="always"
       xlink:href="#linearGradient4052"
       id="linearGradient3991"
       gradientUnits="userSpaceOnUse"
       x1="1102.2063"
       y1="514.42395"
       x2="1284.957"
       y2="514.42395" />
    <linearGradient
       inkscape:collect="always"
       xlink:href="#linearGradient4044"
       id="linearGradient3993"
       gradientUnits="userSpaceOnUse"
       x1="1104.7928"
       y1="514.42395"
       x2="1284.7219"
       y2="514.42395" />
    <clipPath
       id="clipPath3632-1"
       clipPathUnits="userSpaceOnUse">
      <rect
         style="fill:#ffffff;stroke:#ffffff;stroke-width:0;stroke-miterlimit:4;stroke-dasharray:none"
         id="rect3634-9"
         width="228.48639"
         height="107.98151"
         x="-96.833015"
         y="454.03104"
         inkscape:export-filename="/home/se7en/siduction.png"
         inkscape:export-xdpi="100"
         inkscape:export-ydpi="100" />
    </clipPath>
    <linearGradient
       inkscape:collect="always"
       xlink:href="#linearGradient4052"
       id="linearGradient3995"
       gradientUnits="userSpaceOnUse"
       x1="1102.2063"
       y1="514.42395"
       x2="1284.957"
       y2="514.42395" />
    <linearGradient
       inkscape:collect="always"
       xlink:href="#linearGradient4044"
       id="linearGradient3997"
       gradientUnits="userSpaceOnUse"
       x1="1104.7928"
       y1="514.42395"
       x2="1284.7219"
       y2="514.42395" />
    <clipPath
       id="clipPath3628-47"
       clipPathUnits="userSpaceOnUse">
      <rect
         style="fill:#ffffff;stroke:#ffffff;stroke-width:0;stroke-miterlimit:4;stroke-dasharray:none"
         id="rect3630-8"
         width="1094.5142"
         height="496.77719"
         x="-339.74292"
         y="482.71722"
         inkscape:export-filename="/home/se7en/siduction.png"
         inkscape:export-xdpi="100"
         inkscape:export-ydpi="100" />
    </clipPath>
    <linearGradient
       inkscape:collect="always"
       xlink:href="#linearGradient4052"
       id="linearGradient3999"
       gradientUnits="userSpaceOnUse"
       x1="1102.2063"
       y1="514.42395"
       x2="1284.957"
       y2="514.42395" />
    <linearGradient
       inkscape:collect="always"
       xlink:href="#linearGradient4044"
       id="linearGradient4001"
       gradientUnits="userSpaceOnUse"
       x1="1104.7928"
       y1="514.42395"
       x2="1284.7219"
       y2="514.42395" />
    <clipPath
       id="clipPath3624-45"
       clipPathUnits="userSpaceOnUse">
      <rect
         style="fill:#ffffff;stroke:#ffffff;stroke-width:0;stroke-miterlimit:4;stroke-dasharray:none"
         id="rect3626-0"
         width="1094.5142"
         height="496.77719"
         x="-339.74292"
         y="482.71722"
         inkscape:export-filename="/home/se7en/siduction.png"
         inkscape:export-xdpi="100"
         inkscape:export-ydpi="100" />
    </clipPath>
    <linearGradient
       y2="514.42395"
       x2="1284.957"
       y1="514.42395"
       x1="1102.2063"
       gradientUnits="userSpaceOnUse"
       id="linearGradient3311"
       xlink:href="#linearGradient4052"
       inkscape:collect="always" />
    <linearGradient
       y2="514.42395"
       x2="1284.7219"
       y1="514.42395"
       x1="1104.7928"
       gradientUnits="userSpaceOnUse"
       id="linearGradient3313"
       xlink:href="#linearGradient4044"
       inkscape:collect="always" />
    <radialGradient
       inkscape:collect="always"
       xlink:href="#linearGradient12274"
       id="radialGradient4002"
       gradientUnits="userSpaceOnUse"
       cx="337.09164"
       cy="520.64783"
       fx="337.09164"
       fy="520.64783"
       r="103.03556" />
    <linearGradient
       inkscape:collect="always"
       xlink:href="#linearGradient12284"
       id="linearGradient4004"
       gradientUnits="userSpaceOnUse"
       x1="215.74779"
       y1="321.91321"
       x2="290.50943"
       y2="319.33218" />
    <linearGradient
       inkscape:collect="always"
       xlink:href="#linearGradient4052"
       id="linearGradient4006"
       gradientUnits="userSpaceOnUse"
       x1="1102.2063"
       y1="514.42395"
       x2="1284.957"
       y2="514.42395" />
    <linearGradient
       inkscape:collect="always"
       xlink:href="#linearGradient4044"
       id="linearGradient4008"
       gradientUnits="userSpaceOnUse"
       x1="1104.7928"
       y1="514.42395"
       x2="1284.7219"
       y2="514.42395" />
    <linearGradient
       inkscape:collect="always"
       xlink:href="#linearGradient4052"
       id="linearGradient4010"
       gradientUnits="userSpaceOnUse"
       x1="1102.2063"
       y1="514.42395"
       x2="1284.957"
       y2="514.42395" />
    <linearGradient
       inkscape:collect="always"
       xlink:href="#linearGradient4044"
       id="linearGradient4012"
       gradientUnits="userSpaceOnUse"
       x1="1104.7928"
       y1="514.42395"
       x2="1284.7219"
       y2="514.42395" />
    <linearGradient
       inkscape:collect="always"
       xlink:href="#linearGradient4052"
       id="linearGradient4014"
       gradientUnits="userSpaceOnUse"
       x1="1102.2063"
       y1="514.42395"
       x2="1284.957"
       y2="514.42395" />
    <linearGradient
       inkscape:collect="always"
       xlink:href="#linearGradient4044"
       id="linearGradient4016"
       gradientUnits="userSpaceOnUse"
       x1="1104.7928"
       y1="514.42395"
       x2="1284.7219"
       y2="514.42395" />
    <linearGradient
       inkscape:collect="always"
       xlink:href="#linearGradient4052"
       id="linearGradient4018"
       gradientUnits="userSpaceOnUse"
       x1="1102.2063"
       y1="514.42395"
       x2="1284.957"
       y2="514.42395" />
    <linearGradient
       inkscape:collect="always"
       xlink:href="#linearGradient4044"
       id="linearGradient4020"
       gradientUnits="userSpaceOnUse"
       x1="1104.7928"
       y1="514.42395"
       x2="1284.7219"
       y2="514.42395" />
    <linearGradient
       id="linearGradient6147-1-0-6-3">
      <stop
         style="stop-color:#808f99;stop-opacity:1;"
         offset="0"
         id="stop6149-6-2-0-5" />
      <stop
         style="stop-color:#162f51;stop-opacity:1;"
         offset="1"
         id="stop6151-5-5-6-8" />
    </linearGradient>
    <linearGradient
       inkscape:collect="always"
       xlink:href="#linearGradient12274"
       id="linearGradient4049"
       gradientUnits="userSpaceOnUse"
       gradientTransform="matrix(0.77604485,0,0,0.77604485,459.55254,1096.9493)"
       x1="600.32098"
       y1="-1084.8961"
       x2="718.448"
       y2="-1084.8961" />
  </defs>
  <sodipodi:namedview
     id="base"
     pagecolor="#ffffff"
     bordercolor="#666666"
     borderopacity="1.0"
     inkscape:pageopacity="0.0"
     inkscape:pageshadow="2"
     inkscape:zoom="0.49497475"
     inkscape:cx="529.01531"
     inkscape:cy="336.59497"
     inkscape:document-units="px"
     inkscape:current-layer="layer1"
     showgrid="false"
     showguides="true"
     inkscape:guide-bbox="true"
     inkscape:window-width="1024"
     inkscape:window-height="713"
     inkscape:window-x="-3"
     inkscape:window-y="32"
     inkscape:window-maximized="1" />
  <metadata
     id="metadata7">
    <rdf:RDF>
      <cc:Work
         rdf:about="">
        <dc:format>image/svg+xml</dc:format>
        <dc:type
           rdf:resource="http://purl.org/dc/dcmitype/StillImage" />
        <dc:title />
      </cc:Work>
    </rdf:RDF>
  </metadata>
  <g
     inkscape:groupmode="layer"
     id="layer3"
     inkscape:label="bg-white"
     style="display:inline">
    <rect
       style="fill:#ffffff;fill-rule:evenodd;stroke:none;display:inline"
       id="rect4593-5"
       width="1051.4286"
       height="735.71429"
       x="1.5650059"
       y="5.79422" />
  </g>
  <g
     inkscape:groupmode="layer"
     id="layer4"
     inkscape:label="Ebene0_doteffekte"
     style="display:inline" />
  <g
     inkscape:groupmode="layer"
     id="layer2"
     inkscape:label="Ebene1-schrift"
     style="display:inline">
    <g
       id="g3804"
       transform="matrix(0.98407349,0,0,1,3.9292027,-294.2677)"
       style="fill:#000000;fill-opacity:1;stroke:#000000;stroke-opacity:1" />
    <g
       transform="translate(-2.6332,-294.84085)"
       style="font-size:200px;font-style:normal;font-variant:normal;font-weight:normal;font-stretch:normal;line-height:125%;letter-spacing:0px;word-spacing:0px;fill:#000000;fill-opacity:1;stroke:none;display:inline;font-family:Comfortaa;-inkscape-font-specification:Comfortaa"
       id="text2985-9">
      <path
         d="m 157.70541,626.48053 c -1e-5,-2.38465 0.83104,-4.40809 2.49317,-6.07031 1.73435,-1.73426 3.79392,-2.60144 6.17871,-2.60157 2.38474,1.3e-4 4.40817,0.86731 6.07031,2.60157 1.73434,1.66222 2.60153,3.68566 2.60156,6.07031 l 0,104.0625 c -3e-5,2.38477 -0.86722,4.44434 -2.60156,6.17871 -1.66214,1.66211 -3.68557,2.49316 -6.07031,2.49316 -2.38479,0 -4.44436,-0.83105 -6.17871,-2.49316 -1.66213,-1.73437 -2.49318,-3.79394 -2.49317,-6.17871 l 0,-104.0625"
         style="font-size:222px"
         id="path3771-4"
         inkscape:connector-curvature="0"
         sodipodi:nodetypes="cccccccscsc" />
      <path
         style="font-size:222px"
         d="m 310.92924,537.36145 c -4.79804,0 -8.65625,3.85821 -8.65625,8.65625 l 0,28.21875 0,33.75 0,28.03125 c -0.14464,-0.14443 -0.26183,-0.29287 -0.40625,-0.4375 -11.85167,-11.85145 -26.17196,-17.78112 -42.9375,-17.78125 -16.76567,1.3e-4 -31.08597,5.9298 -42.9375,17.78125 -11.85157,11.85165 -17.78126,26.17195 -17.78125,42.9375 -1e-5,16.76567 5.92968,31.05472 17.78125,42.90625 11.85153,11.85157 26.17183,17.78125 42.9375,17.78125 16.76554,0 31.08583,-5.92968 42.9375,-17.78125 11.85143,-11.85153 17.74987,-26.14058 17.75,-42.90625 l 0,-70.53125 0,-33.75 0,-28.21875 c 0,-4.79804 -3.88946,-8.65625 -8.6875,-8.65625 z m -52,97.78125 c 11.99602,1.1e-4 22.23233,4.23252 30.6875,12.6875 8.45497,8.45516 12.65614,18.69148 12.65625,30.6875 -1.1e-4,11.99614 -4.20128,22.20121 -12.65625,30.65625 -8.45517,8.4551 -18.69148,12.68752 -30.6875,12.6875 -11.99615,2e-5 -22.23247,-4.2324 -30.6875,-12.6875 -8.45511,-8.45504 -12.68753,-18.66011 -12.6875,-30.65625 -3e-5,-11.99602 4.23239,-22.23234 12.6875,-30.6875 8.45503,-8.45498 18.69135,-12.68739 30.6875,-12.6875 z"
         id="path3773-9"
         inkscape:connector-curvature="0" />
      <path
         d="m 455.51246,730.54303 c -1.2e-4,2.38477 -0.8673,4.44434 -2.60156,6.17871 -1.66222,1.66211 -3.68566,2.49316 -6.07031,2.49316 -2.38488,0 -4.44444,-0.83105 -6.17871,-2.49316 -1.66222,-1.73437 -2.49327,-3.79394 -2.49317,-6.17871 l 0,-7.0459 c -10.83993,10.47852 -23.84773,15.71777 -39.02343,15.71777 -15.53716,0 -28.83402,-5.49218 -39.89063,-16.47656 -10.98439,-11.05661 -16.47657,-24.35347 -16.47656,-39.89062 l 0,-56.36719 c -1e-5,-2.38465 0.83105,-4.40809 2.49316,-6.07031 1.73437,-1.73426 3.79393,-2.60144 6.17871,-2.60157 2.38475,1.3e-4 4.40819,0.86731 6.07032,2.60157 1.73435,1.66222 2.60153,3.68566 2.60156,6.07031 l 0,56.36719 c -3e-5,10.76762 3.79392,19.98148 11.38184,27.6416 7.66011,7.58791 16.87397,11.38185 27.6416,11.38183 10.7675,2e-5 19.94523,-3.79392 27.5332,-11.38183 7.66006,-7.66012 11.49013,-16.87398 11.49023,-27.6416 l 0,-56.36719 c -10e-5,-2.38465 0.83095,-4.40809 2.49317,-6.07031 1.73427,-1.73426 3.79383,-2.60144 6.17871,-2.60157 2.38465,1.3e-4 4.40809,0.86731 6.07031,2.60157 1.73426,1.66222 2.60144,3.68566 2.60156,6.07031 l 0,104.0625"
         style="font-size:222px"
         id="path3775-0"
         inkscape:connector-curvature="0" />
      <path
         d="m 567.6689,711.24811 c 1.51748,-1.15622 3.28799,-1.73435 5.31153,-1.73438 2.38466,3e-5 4.40809,0.86722 6.07031,2.60157 1.73426,1.66213 2.60145,3.68557 2.60156,6.07031 -1.1e-4,2.38478 -0.90343,4.51662 -2.70996,6.39551 -11.20127,9.75586 -24.38973,14.63378 -39.56543,14.63378 -16.76568,0 -31.07426,-5.92577 -42.92578,-17.77734 -11.85158,-11.85153 -17.77735,-26.16011 -17.77735,-42.92578 0,-16.76555 5.92577,-31.07413 17.77735,-42.92578 11.85152,-11.85145 26.1601,-17.77722 42.92578,-17.77735 15.1757,1.3e-4 28.36416,4.87805 39.56543,14.63379 2.02333,1.80675 3.03504,4.04698 3.03516,6.72071 -1.2e-4,2.38486 -0.8673,4.44443 -2.60157,6.17871 -1.66221,1.6622 -3.68565,2.49325 -6.07031,2.49316 -2.0958,9e-5 -3.93858,-0.6503 -5.52832,-1.95117 -8.09384,-7.1542 -17.56063,-10.73134 -28.40039,-10.73145 -11.99615,1.1e-4 -22.22173,4.22764 -30.67676,12.68262 -8.45511,8.45516 -12.68264,18.68074 -12.68262,30.67676 -2e-5,11.99614 4.22751,22.22172 12.68262,30.67676 8.45503,8.4551 18.68061,12.68263 30.67676,12.68261 10.83976,2e-5 20.27042,-3.54099 28.29199,-10.62304"
         style="font-size:222px"
         id="path3777-9"
         inkscape:connector-curvature="0" />
      <path
         style="font-size:222px"
         d="m 613.79506,537.36145 c -4.79804,0 -8.65625,3.85821 -8.65625,8.65625 l 0,28.4375 0,33.53125 0,9.8125 0,17.34375 0,60.71875 c 0,7.22656 0.91212,13.54883 2.71875,18.96875 1.80664,5.41992 4.51172,9.91797 8.125,13.53125 3.61328,3.61328 6.68037,7.65437 12.03125,9.65625 5.77315,2.15986 13.70541,2.67496 18.95982,-0.84821 8.04756,-5.39602 25.03879,-20.96842 12.22768,-26.37054 -8.21724,-2.33877 -11.73622,14.10472 -22.27678,12.79018 -12.42563,-3.0938 -14.37133,-14.10645 -14.44197,-27.72768 l 0,-60.71875 0,-17.34375 0,-43.34375 c 0,-0.29807 -0.004,-0.58821 -0.0312,-0.875 l 0,-27.5625 c 0,-4.79804 -3.85821,-8.65625 -8.65625,-8.65625 z"
         id="path3779-1"
         inkscape:connector-curvature="0"
         sodipodi:nodetypes="ssccccssssacccccscsss" />
      <path
         d="m 686.55135,626.48053 c -2e-5,-2.38465 0.83104,-4.40809 2.49316,-6.07031 1.73436,-1.73426 3.79393,-2.60144 6.17871,-2.60157 2.38474,1.3e-4 4.40818,0.86731 6.07032,2.60157 1.73434,1.66222 2.60153,3.68566 2.60156,6.07031 l 0,104.0625 c -3e-5,2.38477 -0.86722,4.44434 -2.60156,6.17871 -1.66214,1.66211 -3.68558,2.49316 -6.07032,2.49316 -2.38478,0 -4.44435,-0.83105 -6.17871,-2.49316 -1.66212,-1.73437 -2.49318,-3.79394 -2.49316,-6.17871 l 0,-104.0625"
         style="font-size:222px"
         id="path3781-7"
         inkscape:connector-curvature="0"
         sodipodi:nodetypes="cccccccscsc" />
      <path
         d="m 787.75954,617.80865 c 16.76554,1.3e-4 31.07412,5.9259 42.92578,17.77735 11.85144,11.85165 17.77721,26.16023 17.77734,42.92578 -1.3e-4,16.76567 -5.9259,31.07425 -17.77734,42.92578 -11.85166,11.85157 -26.16024,17.77734 -42.92578,17.77734 -16.76568,0 -31.07426,-5.92577 -42.92578,-17.77734 -11.85158,-11.85153 -17.77735,-26.16011 -17.77735,-42.92578 0,-16.76555 5.92577,-31.07413 17.77735,-42.92578 11.85152,-11.85145 26.1601,-17.77722 42.92578,-17.77735 m 0,17.34375 c -11.99615,1.1e-4 -22.22173,4.22764 -30.67676,12.68262 -8.45511,8.45516 -12.68264,18.68074 -12.68262,30.67676 -2e-5,11.99614 4.22751,22.22172 12.68262,30.67676 8.45503,8.4551 18.68061,12.68263 30.67676,12.68261 11.99601,2e-5 22.22159,-4.22751 30.67676,-12.68261 8.45497,-8.45504 12.6825,-18.68062 12.68261,-30.67676 -1.1e-4,-11.99602 -4.22764,-22.2216 -12.68261,-30.67676 -8.45517,-8.45498 -18.68075,-12.68251 -30.67676,-12.68262"
         style="font-size:222px"
         id="path3783-7"
         inkscape:connector-curvature="0" />
      <path
         d="m 871.62398,626.48053 c 0,-2.38465 0.83105,-4.40809 2.49317,-6.07031 1.73436,-1.73426 3.79393,-2.60144 6.17871,-2.60157 2.38475,1.3e-4 4.40818,0.86731 6.07031,2.60157 1.73435,1.66222 2.60154,3.68566 2.60156,6.07031 l 0,7.0459 c 10.83981,-10.4784 23.84761,-15.71765 39.02344,-15.71778 15.53703,1.3e-4 28.79776,5.52844 39.78223,16.58497 11.05652,10.98446 16.58484,24.24519 16.58496,39.78222 l 0,56.36719 c -1.2e-4,2.38477 -0.86731,4.44434 -2.60156,6.17871 -1.66223,1.66211 -3.68566,2.49316 -6.07032,2.49316 -2.38487,0 -4.44444,-0.83105 -6.17871,-2.49316 -1.66221,-1.73437 -2.49326,-3.79394 -2.49316,-6.17871 l 0,-56.36719 c -10e-5,-10.7675 -3.83018,-19.94523 -11.49023,-27.5332 -7.58798,-7.66006 -16.76571,-11.49013 -27.53321,-11.49024 -10.76763,1.1e-4 -19.98149,3.83018 -27.6416,11.49024 -7.58792,7.58797 -11.38186,16.7657 -11.38184,27.5332 l 0,56.36719 c -2e-5,2.38477 -0.86721,4.44434 -2.60156,6.17871 -1.66213,1.66211 -3.68556,2.49316 -6.07031,2.49316 -2.38478,0 -4.44435,-0.83105 -6.17871,-2.49316 -1.66212,-1.73437 -2.49317,-3.79394 -2.49317,-6.17871 l 0,-104.0625"
         style="font-size:222px"
         id="path3785-1"
         inkscape:connector-curvature="0" />
    </g>
    <path
       d="m 71.839008,388.54718 c -0.502885,0.63092 -19.597985,-2.65495 -24.733226,-5.63203 -1.426883,-0.82722 -2.520216,-1.58342 -3.433594,-2.43664 -0.930134,-0.86886 -1.839792,-1.54143 -2.491824,-2.21158 -5.143761,-5.07124 -7.073276,-13.44121 -7.073276,-20.61357 0,-7.17218 2.680553,-13.43887 8.041658,-18.80007 10.432377,-10.64963 24.052454,-15.9745 40.86026,-15.97462 18.184204,1.2e-4 33.760344,7.28106 46.728484,21.84285 1.15908,1.3766 1.70241,3.07911 1.63008,5.10754 -1e-4,2.39085 -0.86948,4.45559 -2.6081,6.19424 -1.66639,1.66637 -3.69491,2.49952 -6.08556,2.49943 -2.39088,9e-5 -4.31073,-0.76061 -5.75958,-2.28209 -1.44905,-1.5213 -2.49952,-2.60801 -3.15146,-3.26013 -8.47641,-8.47623 -18.727685,-12.71439 -30.753864,-12.7145 -12.026306,1.1e-4 -21.625553,3.76736 -28.797804,11.30178 -1.670107,2.08473 -5.500777,8.27887 -3.25046,12.63698 2.670092,6.47104 7.5926,8.6289 10.142416,8.88195 26.516043,3.55102 33.499756,-2.02734 52.823772,9.36299 6.59262,2.46327 9.26601,6.96215 11.8742,9.64265 5.14367,5.07135 6.1097,10.55081 6.1098,17.72305 -1e-4,7.1723 -2.68065,13.43899 -8.04166,18.80007 -10.43251,10.64975 -24.052584,15.97462 -40.860264,15.97462 -18.256755,0 -33.832894,-7.28094 -46.728512,-21.84285 -1.086719,-1.52137 -1.630047,-3.22388 -1.630047,-5.10754 0,-2.39073 0.833131,-4.41925 2.499423,-6.08557 1.738719,-1.7387 3.803485,-2.60807 6.194236,-2.6081 2.39075,3e-5 4.310599,0.76073 5.75958,2.28209 1.448916,1.52142 2.49939,2.60813 3.151453,3.26013 8.476283,8.47635 18.727561,12.71451 30.753867,12.71449 12.026179,2e-5 21.625424,-3.76723 28.797804,-11.30177 1.73862,-2.10094 2.608,-4.60037 2.6081,-7.4983 -0.93341,-15.35455 -17.091065,-19.13634 -26.663923,-18.85732 -5.237999,-0.0852 -1.93174,0.0626 -17.032177,-0.99346"
       style="font-size:700px;font-style:normal;font-variant:normal;font-weight:normal;font-stretch:normal;line-height:125%;letter-spacing:0px;word-spacing:0px;fill:#000000;fill-opacity:1;stroke:none;display:inline;font-family:Comfortaa;-inkscape-font-specification:Comfortaa"
       id="path3921"
       inkscape:connector-curvature="0"
       sodipodi:nodetypes="csscsccccscccccccccccscsscccscccc" />
    <path
       style="fill:none;stroke:#000000;stroke-width:17;stroke-linecap:round;stroke-linejoin:miter;stroke-miterlimit:4;stroke-opacity:1;stroke-dasharray:none;display:inline"
       d="m 171.5097,301.80705 c 33.75038,-12.27797 69.18753,-19.90946 105,-22.61204 98.66444,-7.44568 196.12517,22.29947 294.8318,29.16317 23.82755,1.65688 47.73704,1.97739 71.6154,1.41062 17.94282,-0.42589 35.87522,-1.35252 53.7584,-2.87509 71.33195,-6.07317 141.8464,-21.67825 209.0801,-46.27013"
       id="path3968-9"
       inkscape:path-effect="#path-effect3970-1"
       inkscape:original-d="m 171.5097,301.80705 c 0,0 42.1428,-36.89775 105,-22.61204 62.8571,14.28572 204.8318,16.30603 294.8318,29.16317 45,6.42857 49.022,3.56245 71.6154,1.41062 22.5935,-2.15183 31.6155,2.12491 53.7584,-2.87509 44.2857,-10.00001 193.3658,-33.41299 209.0801,-46.27013"
       inkscape:connector-curvature="0"
       sodipodi:nodetypes="cssssc" />
  </g>
  <g
     inkscape:label="Ebene2-dot"
     inkscape:groupmode="layer"
     id="layer1"
     transform="translate(0,-308.2677)"
     style="display:inline">
    <g
       transform="matrix(0.31794008,0,0,0.31794008,947.1442,790.77167)"
       style="font-size:700px;font-style:normal;font-weight:normal;line-height:125%;letter-spacing:0px;word-spacing:0px;fill:#000000;fill-opacity:1;stroke:none;display:inline;font-family:Sans"
       id="flowRoot3887" />
    <g
       style="display:inline"
       id="g3246"
       transform="translate(-105.05547,817.46539)">
      <path
         transform="matrix(0.6600422,0,0,0.85009711,426.84964,-462.4476)"
         d="m 1042.4774,222.85577 a 60.609154,46.467018 0 1 1 -121.21827,0 60.609154,46.467018 0 1 1 121.21827,0 z"
         sodipodi:ry="46.467018"
         sodipodi:rx="60.609154"
         sodipodi:cy="222.85577"
         sodipodi:cx="981.86829"
         id="path4012"
         style="fill:#ffffff;fill-opacity:1;fill-rule:nonzero;stroke:#000000;stroke-width:17;stroke-linecap:round;stroke-linejoin:miter;stroke-miterlimit:4;stroke-opacity:0;stroke-dasharray:none"
         sodipodi:type="arc" />
      <path
         sodipodi:type="arc"
         style="fill:url(#linearGradient3244);fill-opacity:1;fill-rule:nonzero;stroke:#000000;stroke-width:17;stroke-linecap:round;stroke-linejoin:miter;stroke-miterlimit:4;stroke-opacity:0;stroke-dasharray:none"
         id="path4040"
         sodipodi:cx="981.86829"
         sodipodi:cy="222.85577"
         sodipodi:rx="60.609154"
         sodipodi:ry="46.467018"
         d="m 1042.4774,222.85577 a 60.609154,46.467018 0 1 1 -121.21827,0 60.609154,46.467018 0 1 1 121.21827,0 z"
         transform="matrix(0.6600422,0,0,0.85009711,426.84964,-462.4476)" />
      <path
         transform="translate(100.0051,-524.09799)"
         d="m 997.02059,252.65527 a 33.840111,33.840111 0 1 1 -67.68022,0 33.840111,33.840111 0 1 1 67.68022,0 z"
         sodipodi:ry="33.840111"
         sodipodi:rx="33.840111"
         sodipodi:cy="252.65527"
         sodipodi:cx="963.18048"
         id="path4306"
         style="fill:#672178;fill-opacity:1;fill-rule:nonzero;stroke:#000000;stroke-width:17;stroke-linecap:round;stroke-linejoin:miter;stroke-miterlimit:4;stroke-opacity:0;stroke-dasharray:none"
         sodipodi:type="arc" />
      <path
         sodipodi:type="arc"
         style="fill:url(#linearGradient3242);fill-opacity:1;fill-rule:nonzero;stroke:#000000;stroke-width:17;stroke-linecap:round;stroke-linejoin:miter;stroke-miterlimit:4;stroke-opacity:0;stroke-dasharray:none"
         id="path4308"
         sodipodi:cx="963.18048"
         sodipodi:cy="252.65527"
         sodipodi:rx="33.840111"
         sodipodi:ry="33.840111"
         d="m 997.02059,252.65527 a 33.840111,33.840111 0 1 1 -67.68022,0 33.840111,33.840111 0 1 1 67.68022,0 z"
         transform="translate(97.984796,-525.61323)" />
    </g>
  </g>
  <g
     inkscape:groupmode="layer"
     id="layer5"
     inkscape:label="Ebene3_schriftreflection"
     style="display:inline">
    <g
       id="g3986"
       style="font-size:700px;font-style:normal;font-weight:normal;line-height:125%;letter-spacing:0px;word-spacing:0px;fill:#000000;fill-opacity:1;stroke:none;display:inline;font-family:Sans"
       transform="matrix(0.31794008,0,0,-0.31794008,947.1442,412.95313)">
      <path
         id="path3988"
         style="font-variant:normal;font-stretch:normal;fill:url(#linearGradient3258);fill-opacity:1;stroke:none;font-family:Comfortaa;-inkscape-font-specification:Comfortaa"
         d="m -2753.0508,-263.79503 c -1.5817,1.62727 -61.6405,-6.84768 -77.7921,-14.5262 -4.4879,-2.13357 -7.9267,-4.08397 -10.7995,-6.28459 -2.9255,-2.24097 -5.7866,-3.97568 -7.8374,-5.70415 -16.1784,-13.07979 -22.2472,-34.66771 -22.2472,-53.16675 0,-18.49858 8.431,-34.66169 25.293,-48.48936 32.8124,-27.46765 75.6509,-41.20162 128.5156,-41.20194 57.1938,3.2e-4 106.1846,18.77941 146.9726,56.33736 3.6456,3.55053 5.3545,7.94166 5.127,13.1734 -3e-4,6.16652 -2.7347,11.49193 -8.2031,15.97627 -5.2412,4.29793 -11.6214,6.44678 -19.1406,6.44656 -7.5199,2.2e-4 -13.5583,-1.96178 -18.1153,-5.886 -4.5576,-3.92376 -7.8616,-6.7266 -9.9121,-8.40855 -26.6604,-21.862 -58.9032,-32.79312 -96.7285,-32.79339 -37.8257,2.7e-4 -68.0177,9.71682 -90.5762,29.14968 -5.2529,5.37695 -17.3013,21.35295 -10.2235,32.59344 8.3981,16.6902 23.8806,22.25575 31.9004,22.90843 83.3995,9.15884 105.365,-5.22893 166.1438,24.14914 20.7354,6.35328 29.1439,17.95686 37.3473,24.87042 16.1781,13.0801 19.2165,27.21277 19.2168,45.71149 -3e-4,18.4989 -8.4313,34.66201 -25.293,48.48936 -32.8128,27.46797 -75.6513,41.20194 -128.5156,41.20194 -57.422,0 -106.4128,-18.77909 -146.9727,-56.33735 -3.418,-3.92393 -5.1269,-8.31506 -5.1269,-13.1734 0,-6.1662 2.6204,-11.39819 7.8613,-15.69598 5.4687,-4.48448 11.9629,-6.72676 19.4824,-6.72685 7.5195,9e-5 13.5579,1.96209 18.1153,5.88599 4.5572,3.92408 7.8612,6.72693 9.9121,8.40856 26.66,21.86231 58.9028,32.79343 96.7285,32.79338 37.8253,5e-5 68.0173,-9.7165 90.5762,-29.14967 5.4684,-5.41877 8.2028,-11.86533 8.2031,-19.33969 -2.9358,-39.60264 -53.7556,-49.35668 -83.8646,-48.63701 -16.4748,-0.21981 -6.0758,0.1615 -53.5704,-2.56235 m 2510.76244,-146.78867 c 0,-6.15051 2.61385,-11.36939 7.84163,-15.65661 5.45499,-4.47302 11.93285,-6.70966 19.43357,-6.71 7.50063,3.4e-4 13.86481,2.23698 19.09262,6.71 5.45496,4.28722 8.18249,9.5061 8.18255,15.65661 l 0,18.17287 c 34.09388,-27.02601 75.00662,-40.53914 122.738347,-40.53948 48.867793,3.4e-4 90.576061,14.25902 125.124929,42.77614 34.775484,28.33125 52.163414,62.53348 52.163794,102.60677 l 0,145.38291 c -3.8e-4,6.15082 -2.72791,11.46289 -8.18255,15.9362 -5.228124,4.28694 -11.592311,6.43038 -19.092655,6.43038 -7.501004,0 -13.97886,-2.14344 -19.433567,-6.43038 -5.228061,-4.47331 -7.841918,-9.78538 -7.841604,-15.9362 l 0,-145.38291 c -3.14e-4,-27.77166 -12.046861,-51.44297 -36.139608,-71.01395 -23.8660694,-19.75691 -52.732295,-29.63547 -86.598739,-29.63576 -33.866857,2.9e-4 -62.846717,9.87885 -86.939657,29.63576 -23.86588,19.57098 -35.79875,43.24229 -35.79869,71.01395 l 0,145.38291 c -6e-5,6.15082 -2.72759,11.46289 -8.18255,15.9362 -5.22781,4.28694 -11.59199,6.43038 -19.09262,6.43038 -7.50072,0 -13.97858,-2.14344 -19.43357,-6.43038 -5.22778,-4.47331 -7.84163,-9.78538 -7.84163,-15.9362 l 0,-268.39921 m -263.77436,-22.36661 c 52.73176,3.4e-4 97.73577,15.28415 135.01217,45.85154 37.2757,30.56792 55.91371,67.47277 55.91412,110.71467 -4.1e-4,43.24222 -18.63842,80.14707 -55.91412,110.71467 -37.2764,30.56771 -82.28041,45.85152 -135.01217,45.85152 -52.7322,0 -97.73622,-15.28381 -135.01217,-45.85152 -37.27614,-30.5676 -55.91415,-67.47245 -55.91415,-110.71467 0,-43.2419 18.63801,-80.14675 55.91415,-110.71467 37.27595,-30.56739 82.27997,-45.8512 135.01217,-45.85154 m 0,44.7332 c -37.73085,2.9e-4 -69.89282,10.90398 -96.48598,32.71116 -26.59341,21.80765 -39.89003,48.18158 -39.88997,79.12185 -6e-5,30.94059 13.29656,57.31453 39.88997,79.12186 26.59316,21.80749 58.75513,32.71118 96.48598,32.71114 37.73041,4e-5 69.89238,-10.90365 96.48598,-32.71114 26.59297,-21.80733 39.88959,-48.18127 39.88994,-79.12186 -3.5e-4,-30.94027 -13.29697,-57.3142 -39.88994,-79.12185 -26.5936,-21.80718 -58.75557,-32.71087 -96.48598,-32.71116 m -318.32473,-22.36659 c -6e-5,-6.15051 2.61383,-11.36939 7.8416,-15.65661 5.45499,-4.47302 11.93285,-6.70966 19.43357,-6.71 7.5006,3.4e-4 13.86481,2.23698 19.09266,6.71 5.45492,4.28722 8.18245,9.5061 8.18254,15.65661 l 0,268.39921 c -9e-5,6.15082 -2.72762,11.46289 -8.18254,15.9362 -5.22785,4.28694 -11.59206,6.43038 -19.09266,6.43038 -7.50072,0 -13.97858,-2.14344 -19.43357,-6.43038 -5.22777,-4.47331 -7.84166,-9.78538 -7.8416,-15.9362 l 0,-268.39921 m -228.83645,-229.85696 c -15.0911,0 -27.2261,9.95114 -27.2261,22.3263 l 0,73.34633 0,86.48419 0,25.30851 0,44.73321 0,156.6065 c 0,18.63882 2.8689,34.9453 8.5512,48.92442 5.6823,13.97912 14.1904,25.58054 25.5551,34.89996 11.3647,9.3194 21.0114,19.74223 37.8412,24.9055 18.15802,5.57074 43.10694,6.89929 59.63336,-2.18771 25.31156,-13.91748 78.75317,-54.08199 38.45907,-68.0152 -25.84525,-6.03218 -36.91331,36.37905 -70.06597,32.98858 -39.08166,-7.97956 -45.20136,-36.38352 -45.42356,-71.51555 l 0,-156.6065 0,-44.73321 0,-111.7927 c 0,-0.76879 -0.013,-1.51712 -0.098,-2.25681 l 0,-71.08952 c 0,-12.37516 -12.1351,-22.3263 -27.2261,-22.3263 z m -145.0782,448.49049 c 4.7729,-2.98214 10.3416,-4.47326 16.7061,-4.47333 7.5003,7e-5 13.8645,2.23674 19.0926,6.70999 5.4547,4.28699 8.1822,9.50587 8.1826,15.65662 -4e-4,6.15085 -2.8416,11.64932 -8.5235,16.49537 -35.2308,25.16243 -76.7118,37.74361 -124.4431,37.74361 -52.7322,0 -97.7362,-15.28381 -135.0121,-45.85152 -37.2762,-30.5676 -55.9142,-67.47245 -55.9142,-110.71467 0,-43.2419 18.638,-80.14675 55.9142,-110.71467 37.2759,-30.56739 82.2799,-45.8512 135.0121,-45.85154 47.7313,3.4e-4 89.2123,12.58152 124.4431,37.74364 6.3638,4.66 9.5459,10.43802 9.5463,17.33413 -4e-4,6.15107 -2.7279,11.46313 -8.1826,15.9362 -5.2281,4.28717 -11.5923,6.43063 -19.0926,6.43039 -6.5918,2.4e-4 -12.3878,-1.67726 -17.3879,-5.03248 -25.4572,-18.45219 -55.2326,-27.67839 -89.3263,-27.67868 -37.7308,2.9e-4 -69.8928,10.90398 -96.486,32.71116 -26.5934,21.80765 -39.89,48.18158 -39.8899,79.12185 -10e-5,30.94059 13.2965,57.31453 39.8899,79.12186 26.5932,21.80749 58.7552,32.71118 96.486,32.71114 34.0937,4e-5 63.7555,-9.13297 88.9853,-27.39907 m -352.7597,49.76568 c -3e-4,6.15082 -2.7278,11.46289 -8.1825,15.9362 -5.2281,4.28694 -11.5923,6.43038 -19.0926,6.43038 -7.5011,0 -13.9789,-2.14344 -19.4336,-6.43038 -5.2281,-4.47331 -7.842,-9.78538 -7.8416,-15.9362 l 0,-18.17287 c -34.0943,27.02632 -75.007,40.53945 -122.7384,40.53945 -48.8682,0 -90.6901,-14.16549 -125.4658,-42.49653 -34.5486,-28.51733 -51.8229,-62.81275 -51.8229,-102.88635 l 0,-145.38291 c 0,-6.15051 2.6139,-11.36939 7.8416,-15.65661 5.4551,-4.47302 11.9329,-6.70966 19.4336,-6.71 7.5006,3.4e-4 13.8648,2.23698 19.0927,6.71 5.4549,4.28722 8.1824,9.5061 8.1825,15.65661 l 0,145.38291 c -10e-5,27.77198 11.9328,51.53647 35.7987,71.29354 24.0929,19.57083 53.0728,29.35619 86.9396,29.35615 33.8665,4e-5 62.7327,-9.78532 86.5988,-29.35615 24.0927,-19.75707 36.1392,-43.52156 36.1396,-71.29354 l 0,-145.38291 c -4e-4,-6.15051 2.6135,-11.36939 7.8416,-15.65661 5.4547,-4.47302 11.9325,-6.70966 19.4336,-6.71 7.5003,3.4e-4 13.8645,2.23698 19.0926,6.71 5.4547,4.28722 8.1822,9.5061 8.1825,15.65661 l 0,268.39921 m -454.7499,-498.25617 c -15.091,0 -27.226,9.95114 -27.226,22.3263 l 0,72.78213 0,87.04839 0,72.29853 c -0.4549,-0.37252 -0.8235,-0.75538 -1.2778,-1.12841 -37.2764,-30.5674 -82.3172,-45.86127 -135.049,-45.86161 -52.7322,3.4e-4 -97.773,15.29421 -135.049,45.86161 -37.2761,30.56791 -55.9265,67.50299 -55.9264,110.74489 -1e-4,43.24221 18.6503,80.0967 55.9264,110.66431 37.276,30.5677 82.3168,45.86159 135.049,45.86159 52.7318,0 97.7726,-15.29389 135.049,-45.86159 37.2757,-30.56761 55.8278,-67.4221 55.8282,-110.66431 l 0,-181.91501 0,-87.04839 0,-72.78213 c 0,-12.37516 -12.2333,-22.3263 -27.3244,-22.3263 z m -163.5528,252.19854 c 37.7304,2.8e-4 69.9262,10.91656 96.5198,32.72374 26.5929,21.80765 39.8066,48.20928 39.807,79.14955 -4e-4,30.94059 -13.2141,57.26163 -39.807,79.06896 -26.5936,21.80749 -58.7894,32.7238 -96.5198,32.72375 -37.7308,5e-5 -69.9266,-10.91626 -96.5198,-32.72375 -26.5934,-21.80733 -39.9054,-48.12837 -39.9053,-79.06896 -1e-4,-30.94027 13.3119,-57.3419 39.9053,-79.14955 26.5932,-21.80718 58.789,-32.72346 96.5198,-32.72374 z m -318.3739,-22.34158 c 0,-6.15051 2.6138,-11.36939 7.8416,-15.65661 5.455,-4.47302 11.9328,-6.70966 19.4336,-6.71 7.5006,3.4e-4 13.8648,2.23698 19.0926,6.71 5.4549,4.28722 8.1825,9.5061 8.1826,15.65661 l 0,268.39921 c -1e-4,6.15082 -2.7277,11.46289 -8.1826,15.9362 -5.2278,4.28694 -11.592,6.43038 -19.0926,6.43038 -7.5008,0 -13.9786,-2.14344 -19.4336,-6.43038 -5.2278,-4.47331 -7.8416,-9.78538 -7.8416,-15.9362 l 0,-268.39921"
         inkscape:connector-curvature="0" />
    </g>
  </g>
  <g
     inkscape:groupmode="layer"
     id="layer6"
     inkscape:label="Ebene4_farbiger-swing"
     style="display:inline">
    <path
       sodipodi:nodetypes="cssssc"
       inkscape:connector-curvature="0"
       inkscape:original-d="m 171.2954,301.86013 c 0,0 42.1428,-36.89776 105,-22.61205 62.8571,14.28573 204.8318,16.30604 294.8318,29.16318 45,6.42857 49.022,3.56245 71.6154,1.41062 22.5935,-2.15183 31.6155,2.12491 53.7584,-2.87509 44.2857,-10.00001 193.3658,-33.413 209.0801,-46.27014"
       inkscape:path-effect="#path-effect4389-7"
       id="path3891-7"
       d="m 171.2954,301.86013 c 33.75038,-12.27798 69.18753,-19.90947 105,-22.61205 98.66444,-7.44568 196.12517,22.29948 294.8318,29.16318 23.82755,1.65688 47.73704,1.97739 71.6154,1.41062 17.94282,-0.42589 35.87522,-1.35252 53.7584,-2.87509 71.33195,-6.07317 141.84641,-21.67826 209.0801,-46.27014"
       style="opacity:0.8307087;fill:none;stroke:url(#linearGradient3089);stroke-width:17;stroke-linecap:round;stroke-linejoin:miter;stroke-miterlimit:4;stroke-opacity:1;stroke-dasharray:none;marker-start:none;display:inline" />
  </g>
  <g
     inkscape:groupmode="layer"
     id="layer7"
     inkscape:label="Ebene5_ffse7en"
     style="display:none">
    <g
       id="g3601"
       transform="matrix(0.6186579,0,0,0.65193523,698.91967,-172.19133)"
       style="filter:url(#filter4402)"
       clip-path="url(#clipPath3644)">
      <g
         id="g4182">
        <path
           sodipodi:type="arc"
           style="fill:url(#radialGradient3559);fill-opacity:1;stroke:none"
           id="path5022"
           sodipodi:cx="101.29065"
           sodipodi:cy="489.55539"
           sodipodi:rx="3.6435485"
           sodipodi:ry="3.6435485"
           d="m 104.9342,489.55539 a 3.6435485,3.6435485 0 1 1 -7.287099,0 3.6435485,3.6435485 0 1 1 7.287099,0 z"
           transform="matrix(4.7902816,0,0,4.6005764,-101.44567,-1600.9898)"
           inkscape:export-filename="/home/se7en/siduction.png"
           inkscape:export-xdpi="100"
           inkscape:export-ydpi="100" />
        <path
           style="fill:url(#radialGradient3561);fill-opacity:1;stroke:#ffffff;stroke-width:0;stroke-miterlimit:4"
           d="m 389.83206,580.16168 71.13854,71.13864 -71.13854,71.13854 c 0,0 26.74313,-45.80547 26.74313,-71.13854 0,-25.33309 -26.74313,-71.13864 -26.74313,-71.13864 z"
           id="rect5222"
           inkscape:connector-curvature="0"
           sodipodi:nodetypes="cccsc"
           inkscape:export-filename="/home/se7en/siduction.png"
           inkscape:export-xdpi="100"
           inkscape:export-ydpi="100" />
        <path
           sodipodi:nodetypes="cccsc"
           inkscape:connector-curvature="0"
           id="path5225"
           d="m 445.03045,580.16168 71.13854,71.13864 -71.13854,71.13854 c 0,0 26.74311,-45.80547 26.74311,-71.13854 0,-25.33309 -26.74311,-71.13864 -26.74311,-71.13864 z"
           style="fill:url(#radialGradient3594);fill-opacity:1;stroke:#ffffff;stroke-width:0;stroke-miterlimit:4"
           inkscape:export-filename="/home/se7en/siduction.png"
           inkscape:export-xdpi="100"
           inkscape:export-ydpi="100" />
      </g>
    </g>
  </g>
  <g
     inkscape:groupmode="layer"
     id="layer8"
     inkscape:label="Ebene6_ffcircle"
     style="display:none">
    <g
       id="g3993"
       transform="translate(0,12)">
      <path
         sodipodi:type="arc"
         style="fill:#ec00ff;fill-opacity:1;stroke:none"
         id="path5327"
         sodipodi:cx="337.09164"
         sodipodi:cy="520.64783"
         sodipodi:rx="103.03556"
         sodipodi:ry="103.03556"
         d="m 440.1272,520.64783 a 103.03556,103.03556 0 1 1 -206.07112,0 103.03556,103.03556 0 1 1 206.07112,0 z"
         transform="matrix(0.31186728,0,0,0.330235,852.23606,66.020903)" />
      <path
         d="m 440.1272,520.64783 a 103.03556,103.03556 0 1 1 -206.07112,0 103.03556,103.03556 0 1 1 206.07112,0 z"
         sodipodi:ry="103.03556"
         sodipodi:rx="103.03556"
         sodipodi:cy="520.64783"
         sodipodi:cx="337.09164"
         id="path5329"
         style="fill:url(#radialGradient4002);fill-opacity:1;stroke:none"
         sodipodi:type="arc"
         transform="matrix(0.31186728,0,0,0.330235,852.23606,66.020903)" />
      <path
         sodipodi:type="arc"
         style="fill:url(#linearGradient4004);fill-opacity:1;stroke:none"
         id="path5331"
         sodipodi:cx="273.48944"
         sodipodi:cy="338.74554"
         sodipodi:rx="59.786064"
         sodipodi:ry="59.786064"
         d="m 333.27551,338.74554 a 59.786064,59.786064 0 1 1 -119.57213,0 59.786064,59.786064 0 1 1 119.57213,0 z"
         transform="matrix(0.07538322,0.41162522,-0.42465864,0.07306957,1080.574,91.506321)" />
      <g
         style="fill:url(#linearGradient4018);fill-opacity:1;stroke:url(#linearGradient4020);filter:url(#filter4028)"
         transform="matrix(0.38016281,0,0,0.40255281,505.71554,30.364191)"
         id="g5333">
        <path
           clip-path="url(#clipPath3632-1)"
           inkscape:export-ydpi="100"
           inkscape:export-xdpi="100"
           inkscape:export-filename="/home/se7en/siduction.png"
           transform="matrix(4.7902816,0,0,4.6005764,652.02975,-1737.8664)"
           d="m 104.9342,489.55539 a 3.6435485,3.6435485 0 1 1 -7.287099,0 3.6435485,3.6435485 0 1 1 7.287099,0 z"
           sodipodi:ry="3.6435485"
           sodipodi:rx="3.6435485"
           sodipodi:cy="489.55539"
           sodipodi:cx="101.29065"
           id="path5335"
           style="fill:url(#linearGradient4006);fill-opacity:1;stroke:url(#linearGradient4008)"
           sodipodi:type="arc" />
        <path
           clip-path="url(#clipPath3628-47)"
           inkscape:export-ydpi="100"
           inkscape:export-xdpi="100"
           inkscape:export-filename="/home/se7en/siduction.png"
           sodipodi:nodetypes="cccsc"
           inkscape:connector-curvature="0"
           id="path5337"
           d="m 615.39222,575.06428 71.13854,71.13864 -71.13854,71.13854 c 0,0 26.74313,-45.80547 26.74313,-71.13854 0,-25.33309 -26.74313,-71.13864 -26.74313,-71.13864 z"
           style="fill:url(#linearGradient4010);fill-opacity:1;stroke:url(#linearGradient4012);stroke-width:0;stroke-miterlimit:4"
           transform="translate(527.91526,-131.77917)" />
        <path
           clip-path="url(#clipPath3624-45)"
           inkscape:export-ydpi="100"
           inkscape:export-xdpi="100"
           inkscape:export-filename="/home/se7en/siduction.png"
           style="fill:url(#linearGradient4014);fill-opacity:1;stroke:url(#linearGradient4016);stroke-width:0;stroke-miterlimit:4"
           d="m 670.59061,575.06428 71.13854,71.13864 -71.13854,71.13854 c 0,0 26.74311,-45.80547 26.74311,-71.13854 0,-25.33309 -26.74311,-71.13864 -26.74311,-71.13864 z"
           id="path5339"
           inkscape:connector-curvature="0"
           sodipodi:nodetypes="cccsc"
           transform="translate(527.91526,-131.77917)" />
      </g>
    </g>
  </g>
  <g
     inkscape:groupmode="layer"
     id="layer9"
     inkscape:label="Ebene7_the-dots"
     style="display:none">
    <path
       style="fill:url(#linearGradient4049);fill-opacity:1;fill-rule:nonzero;stroke:none"
       d="m 1013.8798,247.24594 c -4.2942,-4.29425 -11.2565,-4.29425 -15.55071,0 -4.29422,4.29433 -4.29422,11.25653 0,15.55069 4.29421,4.29425 11.25651,4.29425 15.55071,0 4.2942,-4.29408 4.2942,-11.25645 0,-15.55069 z m -20.34712,-17.23698 c -3.43539,-3.43537 -9.00523,-3.43537 -12.44055,0 -3.43539,3.4354 -3.43539,9.00515 0,12.44057 3.43532,3.43531 9.00516,3.43531 12.44055,0 3.43532,-3.43542 3.43532,-9.00517 0,-12.44057 z m -19.57451,-18.01937 c -3.00584,-3.00592 -7.87949,-3.00592 -10.88541,0 -3.00594,3.00601 -3.00594,7.8795 0,10.88551 3.00592,3.00594 7.87957,3.00594 10.88541,0 3.00602,-3.00585 3.0061,-7.8795 0,-10.88551 z m 19.57451,55.60347 c -3.43539,-3.43532 -9.00523,-3.43532 -12.44055,0 -3.43539,3.43532 -3.43539,9.00523 0,12.44061 3.43532,3.43532 9.00516,3.43532 12.44055,0 3.43532,-3.43538 3.43532,-9.00529 0,-12.44061 z m -19.56952,-18.01449 c -3.00602,-3.00584 -7.87958,-3.00584 -10.8856,0 -3.00592,3.00594 -3.00592,7.87957 0,10.88543 3.00602,3.00602 7.87958,3.00602 10.8856,0 3.00587,-3.00586 3.00587,-7.87949 0,-10.88543 z m -19.57449,-18.01938 c -2.57647,-2.57653 -6.75386,-2.57653 -9.33048,0 -2.57637,2.57655 -2.57637,6.75383 0,9.33047 2.57662,2.57648 6.75401,2.57648 9.33048,0 2.57647,-2.57664 2.57647,-6.75392 0,-9.33047 z m 19.5695,55.60827 c -3.00584,-3.00584 -7.87949,-3.00584 -10.88541,0 -3.00594,3.00602 -3.00594,7.87959 0,10.88553 3.00592,3.00591 7.87957,3.00591 10.88541,0 3.0061,-3.00594 3.00602,-7.87951 0,-10.88553 z m -19.5695,-18.0144 c -2.57647,-2.57655 -6.75386,-2.57655 -9.33048,0 -2.57637,2.57648 -2.57637,6.75383 0,9.33046 2.57662,2.57641 6.75401,2.57641 9.33048,0 2.57647,-2.57663 2.57647,-6.75398 0,-9.33046 z M 934.81424,251.1337 c -2.14706,-2.14717 -5.62834,-2.14717 -7.77534,0 -2.14708,2.14708 -2.14708,5.6281 0,7.77517 2.147,2.14716 5.62828,2.14716 7.77534,0 2.1471,-2.14707 2.1471,-5.62809 0,-7.77517 z"
       id="path46997-15-5-0-5-2-3-0-6-0-77-0-2-5-2-6-40-0"
       inkscape:connector-curvature="0"
       inkscape:export-filename="/home/xweber/src/siduction/artwork-newsid/candidates/document/ec-dots.png"
       inkscape:export-xdpi="90"
       inkscape:export-ydpi="90" />
    <path
       sodipodi:type="arc"
       style="fill:#100000;fill-opacity:0;fill-rule:nonzero;stroke:none"
       id="path46997-1-3-3-8-5-3-5-6-2-0-7-0-9-9"
       sodipodi:cx="1581.231"
       sodipodi:cy="-1750.5126"
       sodipodi:rx="30.957836"
       sodipodi:ry="30.957836"
       d="m 1612.1888,-1750.5126 a 30.957836,30.957836 0 1 1 -61.9157,0 30.957836,30.957836 0 1 1 61.9157,0 z"
       transform="matrix(0.35526808,0,0,0.35526808,444.45829,876.77695)"
       inkscape:export-filename="/home/xweber/src/siduction/artwork-newsid/candidates/document/ec-dots.png"
       inkscape:export-xdpi="90"
       inkscape:export-ydpi="90" />
  </g>
  <g
     inkscape:groupmode="layer"
     id="layer10"
     inkscape:label="Ebene8_barracuda"
     style="display:none">
    <path
       style="fill:#51105b;fill-opacity:1"
       d="m 835.91346,291.16791 c -7.77583,1.71301 -9.1607,1.6354 -9.65061,-0.53928 -0.48778,-2.16401 1.43192,-3.23273 17.87851,-9.95461 25.31219,-10.34531 40.19705,-19.70603 44.73422,-28.13225 1.85075,-3.43763 2.00479,-6.59745 0.50055,-10.28082 -0.58512,-1.43207 -0.94207,-2.64376 -0.7936,-2.69227 0.83389,-0.27248 14.69855,7.4382 17.6814,9.83323 6.75006,5.42 8.64398,9.75117 6.15723,14.0816 -1.17976,2.05446 -2.78433,3.05299 -9.48132,5.90081 -9.6927,4.12227 -57.74431,19.73889 -67.02477,21.78911 z m 4.97891,-16.21982 c -1.45643,-1.01573 -0.59027,-1.64007 6.38638,-4.60331 11.86864,-5.0418 21.38994,-11.50804 24.27479,-16.48784 5.80371,-10.01832 -1.97918,-17.48767 -19.69495,-18.90166 -5.7313,-0.4574 -22.09774,-0.239 -42.73083,0.57032 -14.8015,0.58055 -29.50527,1.01872 -46.10368,1.37361 -4.21591,0.0897 -11.04829,0.26494 -15.18334,0.38854 -13.18421,0.39404 -9.42225,-0.58414 17.4459,-4.53684 58.03966,-8.53799 101.62255,-7.33132 114.54034,3.17133 1.52275,1.23797 3.39672,3.27957 4.16442,4.5369 1.26046,2.06491 1.36909,2.51686 1.11766,4.67262 -0.3914,3.35783 -2.89578,7.26875 -6.85781,10.7096 -3.40473,2.95691 -17.91946,11.01515 -27.36941,15.19491 -2.78188,1.23045 -5.97675,2.74728 -7.09969,3.3705 -1.12303,0.62309 -2.42184,0.87123 -2.88958,0.54133 z m 16.15566,-21.24872 c -3.60981,0.18455 -6.96573,-4.04241 -6.14616,-7.74151 0.3982,-1.79619 7.28992,-3.09042 10.8954,-2.04621 3.41287,0.98846 4.72476,2.21842 4.57766,4.29129 -0.16082,2.26021 -5.30273,5.29095 -9.32674,5.49689 z"
       id="path19730-9-0-8-8-1-8-3-3"
       inkscape:connector-curvature="0"
       sodipodi:nodetypes="ssssssssssssssssssssssssssssss"
       inkscape:export-filename="/media/disk1part6/siductionArt/artwork-siduction/candidates/32px favicon/barracuda.png"
       inkscape:export-xdpi="90"
       inkscape:export-ydpi="90" />
  </g>
  <g
     inkscape:groupmode="layer"
     id="layer11"
     inkscape:label="Ebene9_bits-n-bytes"
     style="display:none">
    <path
       inkscape:connector-curvature="0"
       style="fill:#490e52;fill-opacity:1;stroke:none"
       d="m 956.27495,228.79685 c -6.58094,-1.2e-4 -11.9179,5.33696 -11.9179,11.91778 0,6.58087 5.33696,11.91783 11.9179,11.91783 6.58075,9e-5 11.91785,-5.33696 11.91785,-11.91783 0,-6.58082 -5.3371,-11.91778 -11.91785,-11.91778 z m 23.5502,0 0,23.83561 9.32493,0 0,-23.83561 -9.32493,0 z m -54.85547,27.80826 0,23.83575 9.32493,0 0,-23.83575 -9.32493,0 z m 26.64277,0 0,23.83575 9.32493,0 0,-23.83575 -9.32493,0 z m 32.87511,0 c -6.58085,0 -11.91783,5.33695 -11.91783,11.91782 0,6.58095 5.33698,11.91793 11.91783,11.91793 6.58094,0 11.9179,-5.33698 11.9179,-11.91793 0,-6.58087 -5.33696,-11.91782 -11.9179,-11.91782 z m -54.85535,27.8083 c -6.58097,1.3e-4 -11.91793,5.33711 -11.91793,11.91793 0,6.58084 5.33696,11.91792 11.91793,11.91792 6.58084,-9e-5 11.91782,-5.33708 11.91782,-11.91792 0,-6.58082 -5.33698,-11.91793 -11.91782,-11.91793 z m 21.98024,0 0,23.83585 9.32493,0 0,-23.83585 -9.32493,0 z m 28.2127,0 0,23.83585 9.32493,0 0,-23.83585 -9.32493,0 z"
       id="rect4348-6-43-3-5-6-2-0-5-45-70-0-9-47-8-6-7-53-7"
       inkscape:export-filename="/media/disk1part6/siductionArt/artwork-siduction/candidates/32px favicon/binary.png"
       inkscape:export-xdpi="90"
       inkscape:export-ydpi="90" />
  </g>
  <g
     inkscape:groupmode="layer"
     id="layer12"
     inkscape:label="Ebene10_ff-variation"
     style="display:none">
    <path
       style="font-size:40px;font-style:normal;font-variant:normal;font-weight:normal;font-stretch:normal;line-height:125%;letter-spacing:0px;word-spacing:0px;fill:#51105b;fill-opacity:1;stroke:none;font-family:Zone99;-inkscape-font-specification:Zone99"
       d="m 942.05435,220.15102 c 7.33713,10.7432 18.77778,22.19854 18.77778,33.42736 0,11.07474 -11.44065,22.4669 -18.77778,33.46072 l 7.32864,0 42.44119,-33.46072 -42.44119,-33.42736 z m 41.26398,0 c 7.33709,10.7432 18.71877,22.19854 18.71877,33.42736 0,11.07474 -11.38223,22.4669 -18.71877,33.46072 l 7.35801,0 42.35286,-33.46072 -42.35286,-33.42736 z m -52.44823,25.94365 c -6.17706,0 -7.65232,3.32975 -7.65232,7.48371 0,4.15403 1.47526,7.51699 7.65232,7.51699 6.17734,0 7.68179,-3.36296 7.68179,-7.51699 0,-4.15396 -1.50445,-7.48371 -7.68179,-7.48371 z"
       id="path3101-5-32-07-0-5-67-2-8-0-3-9-5"
       inkscape:connector-curvature="0"
       inkscape:export-filename="/home/xweber/src/siduction/artwork-newsid/logo/xweber_se7en_FF-variations.png"
       inkscape:export-xdpi="90"
       inkscape:export-ydpi="90"
       sodipodi:nodetypes="csccccccscccccsssss" />
  </g>
</svg>
