<?xml version="1.0" encoding="UTF-8" standalone="no"?>
<!-- Created with Inkscape (http://www.inkscape.org/) -->

<svg
   xmlns:dc="http://purl.org/dc/elements/1.1/"
   xmlns:cc="http://creativecommons.org/ns#"
   xmlns:rdf="http://www.w3.org/1999/02/22-rdf-syntax-ns#"
   xmlns:svg="http://www.w3.org/2000/svg"
   xmlns="http://www.w3.org/2000/svg"
   xmlns:xlink="http://www.w3.org/1999/xlink"
   xmlns:sodipodi="http://sodipodi.sourceforge.net/DTD/sodipodi-0.dtd"
   xmlns:inkscape="http://www.inkscape.org/namespaces/inkscape"
   width="1052.3622"
   height="744.09448"
   id="svg2"
   version="1.1"
   inkscape:version="0.48.1 r9760"
   sodipodi:docname="kuchenfreund_in__siduction_with-flying-swift_shiny-reflection__logo.svg"
   inkscape:export-filename="/home/atomie/Downloads/siductionzeugs/siduction_with-rolling-dot_shiny-reflection_PNG.png"
   inkscape:export-xdpi="51"
   inkscape:export-ydpi="51">
  <defs
     id="defs4">
    <linearGradient
       inkscape:collect="always"
       id="linearGradient4527">
      <stop
         style="stop-color:#000000;stop-opacity:1;"
         offset="0"
         id="stop4529" />
      <stop
         style="stop-color:#000000;stop-opacity:0;"
         offset="1"
         id="stop4531" />
    </linearGradient>
    <linearGradient
       inkscape:collect="always"
       id="linearGradient4310">
      <stop
         style="stop-color:#ffffff;stop-opacity:1;"
         offset="0"
         id="stop4312" />
      <stop
         style="stop-color:#ffffff;stop-opacity:0;"
         offset="1"
         id="stop4314" />
    </linearGradient>
    <linearGradient
       inkscape:collect="always"
       id="linearGradient4050">
      <stop
         style="stop-color:#000000;stop-opacity:1;"
         offset="0"
         id="stop4052" />
      <stop
         style="stop-color:#000000;stop-opacity:0;"
         offset="1"
         id="stop4054" />
    </linearGradient>
    <linearGradient
       inkscape:collect="always"
       id="linearGradient3988">
      <stop
         style="stop-color:#ffffff;stop-opacity:1;"
         offset="0"
         id="stop3990" />
      <stop
         style="stop-color:#ffffff;stop-opacity:0;"
         offset="1"
         id="stop3992" />
    </linearGradient>
    <inkscape:path-effect
       effect="spiro"
       id="path-effect3970"
       is_visible="true" />
    <inkscape:path-effect
       effect="spiro"
       id="path-effect3966"
       is_visible="true" />
    <inkscape:path-effect
       effect="spiro"
       id="path-effect3958"
       is_visible="true" />
    <inkscape:path-effect
       effect="spiro"
       id="path-effect3934"
       is_visible="true" />
    <linearGradient
       inkscape:collect="always"
       xlink:href="#linearGradient3988"
       id="linearGradient3994"
       x1="207.02719"
       y1="484.67938"
       x2="190.32399"
       y2="516.78082"
       gradientUnits="userSpaceOnUse" />
    <filter
       inkscape:collect="always"
       id="filter3996">
      <feGaussianBlur
         inkscape:collect="always"
         stdDeviation="71.581789473684211"
         id="feGaussianBlur3998" />
    </filter>
    <filter
       id="filter4018"
       x="-0.25"
       width="1.5"
       y="-0.25"
       height="1.5"
       inkscape:menu="Non realistic 3D shaders"
       inkscape:menu-tooltip="Non realistic chrome shader with strong speculars"
       inkscape:label="Chrome"
       color-interpolation-filters="sRGB">
      <feGaussianBlur
         id="feGaussianBlur4020"
         result="result8"
         stdDeviation="4" />
      <feComposite
         id="feComposite4022"
         in2="result8"
         in="result8"
         operator="xor"
         result="result6" />
      <feDisplacementMap
         id="feDisplacementMap4024"
         in2="result6"
         result="result4"
         scale="80"
         yChannelSelector="A"
         xChannelSelector="A"
         in="result6" />
      <feComposite
         id="feComposite4026"
         in2="result4"
         k1="3"
         in="result8"
         operator="arithmetic"
         result="result2" />
      <feComposite
         id="feComposite4028"
         in2="result2"
         operator="in"
         in="result2"
         result="fbSourceGraphic" />
    </filter>
    <linearGradient
       inkscape:collect="always"
       xlink:href="#linearGradient4050"
       id="linearGradient4056"
       x1="892.91827"
       y1="151.60677"
       x2="1428.5709"
       y2="631.67151"
       gradientUnits="userSpaceOnUse" />
    <linearGradient
       inkscape:collect="always"
       xlink:href="#linearGradient4310"
       id="linearGradient4348"
       gradientUnits="userSpaceOnUse"
       x1="1017.7955"
       y1="181.45439"
       x2="965.50543"
       y2="248.96132" />
    <linearGradient
       inkscape:collect="always"
       xlink:href="#linearGradient4527"
       id="linearGradient4533"
       x1="513.15747"
       y1="882.65656"
       x2="494.97476"
       y2="632.13867"
       gradientUnits="userSpaceOnUse" />
    <linearGradient
       inkscape:collect="always"
       xlink:href="#linearGradient4527"
       id="linearGradient4535"
       gradientUnits="userSpaceOnUse"
       x1="513.15747"
       y1="882.65656"
       x2="494.97476"
       y2="632.13867" />
    <linearGradient
       inkscape:collect="always"
       xlink:href="#linearGradient4527"
       id="linearGradient4537"
       gradientUnits="userSpaceOnUse"
       x1="513.15747"
       y1="882.65656"
       x2="494.97476"
       y2="632.13867" />
    <linearGradient
       inkscape:collect="always"
       xlink:href="#linearGradient4527"
       id="linearGradient4539"
       gradientUnits="userSpaceOnUse"
       x1="513.15747"
       y1="882.65656"
       x2="494.97476"
       y2="632.13867" />
    <linearGradient
       inkscape:collect="always"
       xlink:href="#linearGradient4527"
       id="linearGradient4541"
       gradientUnits="userSpaceOnUse"
       x1="513.15747"
       y1="882.65656"
       x2="494.97476"
       y2="632.13867" />
    <linearGradient
       inkscape:collect="always"
       xlink:href="#linearGradient4527"
       id="linearGradient4543"
       gradientUnits="userSpaceOnUse"
       x1="513.15747"
       y1="882.65656"
       x2="494.97476"
       y2="632.13867" />
    <linearGradient
       inkscape:collect="always"
       xlink:href="#linearGradient4527"
       id="linearGradient4545"
       gradientUnits="userSpaceOnUse"
       x1="513.15747"
       y1="882.65656"
       x2="494.97476"
       y2="632.13867" />
    <linearGradient
       inkscape:collect="always"
       xlink:href="#linearGradient4527"
       id="linearGradient4547"
       gradientUnits="userSpaceOnUse"
       x1="513.15747"
       y1="882.65656"
       x2="494.97476"
       y2="632.13867" />
    <linearGradient
       inkscape:collect="always"
       xlink:href="#linearGradient4527"
       id="linearGradient4549"
       gradientUnits="userSpaceOnUse"
       x1="513.15747"
       y1="882.65656"
       x2="494.97476"
       y2="632.13867" />
    <linearGradient
       inkscape:collect="always"
       xlink:href="#linearGradient4527"
       id="linearGradient4551"
       gradientUnits="userSpaceOnUse"
       x1="513.15747"
       y1="882.65656"
       x2="494.97476"
       y2="632.13867" />
    <linearGradient
       inkscape:collect="always"
       xlink:href="#linearGradient4527"
       id="linearGradient4553"
       gradientUnits="userSpaceOnUse"
       x1="513.15747"
       y1="882.65656"
       x2="494.97476"
       y2="632.13867" />
    <linearGradient
       inkscape:collect="always"
       xlink:href="#linearGradient4435"
       id="linearGradient3828"
       gradientUnits="userSpaceOnUse"
       gradientTransform="matrix(0.71505953,0,0,0.71505953,179.09902,437.05308)"
       x1="520"
       y1="52.362183"
       x2="-97.14286"
       y2="518.07648" />
    <linearGradient
       inkscape:collect="always"
       id="linearGradient4435">
      <stop
         style="stop-color:#808080;stop-opacity:1;"
         offset="0"
         id="stop4437" />
      <stop
         style="stop-color:#808080;stop-opacity:0;"
         offset="1"
         id="stop4439" />
    </linearGradient>
    <linearGradient
       inkscape:collect="always"
       xlink:href="#linearGradient4497"
       id="linearGradient3803"
       gradientUnits="userSpaceOnUse"
       gradientTransform="matrix(0.71505953,0,0,0.71505953,179.09902,57.053081)"
       x1="288.27057"
       y1="96.91629"
       x2="-101.04768"
       y2="628.33844" />
    <linearGradient
       inkscape:collect="always"
       id="linearGradient4497">
      <stop
         style="stop-color:#000000;stop-opacity:1;"
         offset="0"
         id="stop4499" />
      <stop
         style="stop-color:#000000;stop-opacity:0;"
         offset="1"
         id="stop4501" />
    </linearGradient>
    <linearGradient
       inkscape:collect="always"
       xlink:href="#linearGradient4435"
       id="linearGradient3125"
       gradientUnits="userSpaceOnUse"
       gradientTransform="matrix(0.71505953,0,0,0.71505953,402.77378,390.97856)"
       x1="520"
       y1="52.362183"
       x2="-97.14286"
       y2="518.07648" />
  </defs>
  <sodipodi:namedview
     id="base"
     pagecolor="#ffffff"
     bordercolor="#666666"
     borderopacity="1.0"
     inkscape:pageopacity="0.0"
     inkscape:pageshadow="2"
     inkscape:zoom="0.7"
     inkscape:cx="604.47982"
     inkscape:cy="301.83433"
     inkscape:document-units="px"
     inkscape:current-layer="layer1"
     showgrid="false"
     showguides="true"
     inkscape:guide-bbox="true"
     inkscape:window-width="1024"
     inkscape:window-height="713"
     inkscape:window-x="-3"
     inkscape:window-y="32"
     inkscape:window-maximized="1" />
  <metadata
     id="metadata7">
    <rdf:RDF>
      <cc:Work
         rdf:about="">
        <dc:format>image/svg+xml</dc:format>
        <dc:type
           rdf:resource="http://purl.org/dc/dcmitype/StillImage" />
        <dc:title />
      </cc:Work>
    </rdf:RDF>
  </metadata>
  <g
     inkscape:label="Ebene 1"
     inkscape:groupmode="layer"
     id="layer1"
     transform="translate(0,-308.2677)">
    <rect
       style="fill:#ffffff;fill-rule:evenodd;stroke:none;stroke-width:1px;stroke-linecap:butt;stroke-linejoin:miter;stroke-opacity:1"
       id="rect4593"
       width="1051.4286"
       height="735.71429"
       x="-1.4285715"
       y="5.5230536"
       transform="translate(0,308.2677)" />
    <g
       style="font-size:200px;font-style:normal;font-variant:normal;font-weight:normal;font-stretch:normal;line-height:125%;letter-spacing:0px;word-spacing:0px;fill:#000000;fill-opacity:1;stroke:none;font-family:Comfortaa;-inkscape-font-specification:Comfortaa"
       id="text2985">
      <path
         d="m 58.419037,678.51178 c -6.576196,-2.45697 -11.165058,-5.0224 -13.766602,-7.69629 -5.13087,-5.05852 -7.696297,-11.16496 -7.696289,-18.31934 -8e-6,-7.1542 2.673817,-13.40517 8.021485,-18.75292 10.406223,-10.62294 23.992146,-15.93445 40.757812,-15.93458 18.138597,1.3e-4 33.675687,7.26281 46.611327,21.78809 1.15615,1.37315 1.69814,3.07139 1.62598,5.09473 -1.1e-4,2.38486 -0.86729,4.44442 -2.60156,6.17871 -1.66222,1.66219 -3.68565,2.49325 -6.07032,2.49316 -2.38486,9e-5 -4.29989,-0.7587 -5.74511,-2.27636 -1.44541,-1.51749 -2.49326,-2.60148 -3.14356,-3.25196 -8.45516,-8.45498 -18.680733,-12.68251 -30.676757,-12.68262 -11.996139,1.1e-4 -21.571325,3.75792 -28.725586,11.27344 -1.734402,2.0958 -2.601588,4.58896 -2.601562,7.47949 0.21677,3.39657 1.987276,5.70907 5.311523,6.9375 l 53.332032,17.66895 c 6.57608,2.45709 11.16494,5.02252 13.7666,7.69629 5.13076,5.05864 7.69618,11.16508 7.69629,18.31933 -1.1e-4,7.15433 -2.67393,13.4053 -8.02148,18.75293 -10.40634,10.62306 -23.99227,15.93457 -40.757817,15.93457 -18.210977,0 -33.74807,-7.26268 -46.611328,-21.78808 -1.083994,-1.51756 -1.625986,-3.2158 -1.625977,-5.09473 -9e-6,-2.38473 0.831045,-4.40817 2.493164,-6.07031 1.734362,-1.73434 3.79393,-2.60153 6.178711,-2.60156 2.384746,3e-5 4.299783,0.75882 5.745118,2.27636 1.445287,1.51761 2.493138,2.6016 3.143554,3.25196 8.455043,8.4551 18.680619,12.68263 30.676758,12.68261 11.996024,2e-5 21.571207,-3.75779 28.725587,-11.27343 1.73429,-2.09568 2.60147,-4.58884 2.60156,-7.47949 -0.21688,-3.39645 -1.98739,-5.70895 -5.31152,-6.9375 L 58.419037,678.51178"
         style="font-size:222px"
         id="path3769" />
      <path
         d="m 169.20224,580.95319 c 2.96286,1.5e-4 5.49216,1.08414 7.58789,3.25195 2.16793,2.09586 3.25192,4.62515 3.25195,7.58789 -3e-5,2.96303 -1.08402,5.52846 -3.25195,7.69629 -2.09573,2.09584 -4.62503,3.14369 -7.58789,3.14355 -2.96291,1.4e-4 -5.52834,-1.04771 -7.69629,-3.14355 -2.09572,-2.16783 -3.14357,-4.73326 -3.14355,-7.69629 -2e-5,-2.96274 1.04783,-5.49203 3.14355,-7.58789 2.16795,-2.16781 4.73338,-3.2518 7.69629,-3.25195 m -8.67188,45.52734 c -1e-5,-2.38465 0.83104,-4.40809 2.49317,-6.07031 1.73435,-1.73426 3.79392,-2.60144 6.17871,-2.60157 2.38474,1.3e-4 4.40817,0.86731 6.07031,2.60157 1.73434,1.66222 2.60153,3.68566 2.60156,6.07031 l 0,104.0625 c -3e-5,2.38477 -0.86722,4.44434 -2.60156,6.17871 -1.66214,1.66211 -3.68557,2.49316 -6.07031,2.49316 -2.38479,0 -4.44436,-0.83105 -6.17871,-2.49316 -1.66213,-1.73437 -2.49318,-3.79394 -2.49317,-6.17871 l 0,-104.0625"
         style="font-size:222px"
         id="path3771" />
      <path
         d="m 264.59286,721.87115 c 11.99602,2e-5 22.22159,-4.22751 30.67676,-12.68261 8.45497,-8.45504 12.68251,-18.68062 12.68262,-30.67676 -1.1e-4,-11.99602 -4.22765,-22.2216 -12.68262,-30.67676 -8.45517,-8.45498 -18.68074,-12.68251 -30.67676,-12.68262 -11.99615,1.1e-4 -22.22172,4.22764 -30.67675,12.68262 -8.45511,8.45516 -12.68265,18.68074 -12.68262,30.67676 -3e-5,11.99614 4.22751,22.22172 12.68262,30.67676 8.45503,8.4551 18.6806,12.68263 30.67675,12.68261 m 43.35938,-147.63867 c -1.1e-4,-2.3846 0.83094,-4.40803 2.49316,-6.07031 1.73426,-1.7342 3.79383,-2.60139 6.17871,-2.60156 2.38465,1.7e-4 4.40808,0.86736 6.07032,2.60156 1.73424,1.66228 2.60143,3.68571 2.60156,6.07031 l 0,104.2793 c -1.3e-4,16.76567 -5.92591,31.07425 -17.77734,42.92578 -11.85167,11.85157 -26.16025,17.77734 -42.92579,17.77734 -16.76567,0 -31.07425,-5.92577 -42.92578,-17.77734 -11.85157,-11.85153 -17.77735,-26.16011 -17.77734,-42.92578 -1e-5,-16.76555 5.92577,-31.07413 17.77734,-42.92578 11.85153,-11.85145 26.16011,-17.77722 42.92578,-17.77735 16.76554,1.3e-4 31.07412,5.9259 42.92579,17.77735 0.14442,0.14463 0.28895,0.28916 0.43359,0.43359 l 0,-61.78711"
         style="font-size:222px"
         id="path3773" />
      <path
         d="m 455.37411,730.54303 c -1.2e-4,2.38477 -0.8673,4.44434 -2.60156,6.17871 -1.66222,1.66211 -3.68566,2.49316 -6.07031,2.49316 -2.38488,0 -4.44444,-0.83105 -6.17871,-2.49316 -1.66222,-1.73437 -2.49327,-3.79394 -2.49317,-6.17871 l 0,-7.0459 c -10.83993,10.47852 -23.84773,15.71777 -39.02343,15.71777 -15.53716,0 -28.83402,-5.49218 -39.89063,-16.47656 -10.98439,-11.05661 -16.47657,-24.35347 -16.47656,-39.89062 l 0,-56.36719 c -1e-5,-2.38465 0.83105,-4.40809 2.49316,-6.07031 1.73437,-1.73426 3.79393,-2.60144 6.17871,-2.60157 2.38475,1.3e-4 4.40819,0.86731 6.07032,2.60157 1.73435,1.66222 2.60153,3.68566 2.60156,6.07031 l 0,56.36719 c -3e-5,10.76762 3.79392,19.98148 11.38184,27.6416 7.66011,7.58791 16.87397,11.38185 27.6416,11.38183 10.7675,2e-5 19.94523,-3.79392 27.5332,-11.38183 7.66006,-7.66012 11.49013,-16.87398 11.49023,-27.6416 l 0,-56.36719 c -10e-5,-2.38465 0.83095,-4.40809 2.49317,-6.07031 1.73427,-1.73426 3.79383,-2.60144 6.17871,-2.60157 2.38465,1.3e-4 4.40809,0.86731 6.07031,2.60157 1.73426,1.66222 2.60144,3.68566 2.60156,6.07031 l 0,104.0625"
         style="font-size:222px"
         id="path3775" />
      <path
         d="m 561.71298,711.24811 c 1.51748,-1.15622 3.28799,-1.73435 5.31153,-1.73438 2.38466,3e-5 4.40809,0.86722 6.07031,2.60157 1.73426,1.66213 2.60145,3.68557 2.60156,6.07031 -1.1e-4,2.38478 -0.90343,4.51662 -2.70996,6.39551 -11.20127,9.75586 -24.38973,14.63378 -39.56543,14.63378 -16.76568,0 -31.07426,-5.92577 -42.92578,-17.77734 -11.85158,-11.85153 -17.77735,-26.16011 -17.77735,-42.92578 0,-16.76555 5.92577,-31.07413 17.77735,-42.92578 11.85152,-11.85145 26.1601,-17.77722 42.92578,-17.77735 15.1757,1.3e-4 28.36416,4.87805 39.56543,14.63379 2.02333,1.80675 3.03504,4.04698 3.03516,6.72071 -1.2e-4,2.38486 -0.8673,4.44443 -2.60157,6.17871 -1.66221,1.6622 -3.68565,2.49325 -6.07031,2.49316 -2.0958,9e-5 -3.93858,-0.6503 -5.52832,-1.95117 -8.09384,-7.1542 -17.56063,-10.73134 -28.40039,-10.73145 -11.99615,1.1e-4 -22.22173,4.22764 -30.67676,12.68262 -8.45511,8.45516 -12.68264,18.68074 -12.68262,30.67676 -2e-5,11.99614 4.22751,22.22172 12.68262,30.67676 8.45503,8.4551 18.68061,12.68263 30.67676,12.68261 10.83976,2e-5 20.27042,-3.54099 28.29199,-10.62304"
         style="font-size:222px"
         id="path3777" />
      <path
         d="m 652.26859,719.97077 c 6.0538,-1.46176 7.47232,-11.47009 13.24924,-9.18421 12.81111,5.40212 -7.23348,26.61166 -13.63181,28.16048 -4.84621,0.74385 -11.77066,1.23299 -17.54381,-0.92687 -5.35088,-2.00188 -8.4213,-6.03183 -12.03458,-9.64511 -3.61328,-3.61328 -6.32323,-8.12988 -8.12987,-13.5498 -1.80663,-5.41992 -2.70995,-11.74317 -2.70995,-18.96973 l 0,-60.70313 -8.67187,0 c -2.38478,1.1e-4 -4.44435,-0.83095 -6.17871,-2.49316 -1.66212,-1.73427 -2.49317,-3.79383 -2.49317,-6.17871 0,-2.38465 0.83105,-4.40809 2.49317,-6.07031 1.73436,-1.73426 3.79393,-2.60144 6.17871,-2.60157 l 8.67187,0 0,-43.35937 c -2e-5,-2.3846 0.83103,-4.40803 2.49317,-6.07031 1.73434,-1.73421 3.79391,-2.60139 6.17871,-2.60157 2.38473,1.8e-4 4.40816,0.86736 6.07031,2.60157 1.73433,1.66228 2.60152,3.68571 2.60156,6.07031 l 0,43.35937 17.45215,0 c 2.38471,1.3e-4 4.40814,0.86731 6.07032,2.60157 1.7343,1.66222 2.60149,3.68566 2.60156,6.07031 -7e-5,2.38488 -0.86726,4.44444 -2.60156,6.17871 -1.66218,1.66221 -3.68561,2.49327 -6.07032,2.49316 l -17.45215,0 0,60.70313 c 0,4.33594 0.57355,8.06676 1.70488,11.22401 1.13133,3.15726 2.82043,5.74095 5.05153,7.78265 2.23111,2.0417 5.09595,4.15825 8.3928,5.15568"
         style="font-size:222px"
         id="path3779"
         inkscape:connector-curvature="0"
         sodipodi:nodetypes="cccsssscccscccscccccccccccsssc" />
      <path
         d="m 698.18661,580.95319 c 2.96287,1.5e-4 5.49216,1.08414 7.5879,3.25195 2.16793,2.09586 3.25191,4.62515 3.25195,7.58789 -4e-5,2.96303 -1.08402,5.52846 -3.25195,7.69629 -2.09574,2.09584 -4.62503,3.14369 -7.5879,3.14355 -2.96291,1.4e-4 -5.52834,-1.04771 -7.69628,-3.14355 -2.09572,-2.16783 -3.14357,-4.73326 -3.14356,-7.69629 -10e-6,-2.96274 1.04784,-5.49203 3.14356,-7.58789 2.16794,-2.16781 4.73337,-3.2518 7.69628,-3.25195 m -8.67187,45.52734 c -2e-5,-2.38465 0.83104,-4.40809 2.49316,-6.07031 1.73436,-1.73426 3.79393,-2.60144 6.17871,-2.60157 2.38474,1.3e-4 4.40818,0.86731 6.07032,2.60157 1.73434,1.66222 2.60153,3.68566 2.60156,6.07031 l 0,104.0625 c -3e-5,2.38477 -0.86722,4.44434 -2.60156,6.17871 -1.66214,1.66211 -3.68558,2.49316 -6.07032,2.49316 -2.38478,0 -4.44435,-0.83105 -6.17871,-2.49316 -1.66212,-1.73437 -2.49318,-3.79394 -2.49316,-6.17871 l 0,-104.0625"
         style="font-size:222px"
         id="path3781" />
      <path
         d="m 793.57724,617.80865 c 16.76554,1.3e-4 31.07412,5.9259 42.92578,17.77735 11.85144,11.85165 17.77721,26.16023 17.77734,42.92578 -1.3e-4,16.76567 -5.9259,31.07425 -17.77734,42.92578 -11.85166,11.85157 -26.16024,17.77734 -42.92578,17.77734 -16.76568,0 -31.07426,-5.92577 -42.92578,-17.77734 -11.85158,-11.85153 -17.77735,-26.16011 -17.77735,-42.92578 0,-16.76555 5.92577,-31.07413 17.77735,-42.92578 11.85152,-11.85145 26.1601,-17.77722 42.92578,-17.77735 m 0,17.34375 c -11.99615,1.1e-4 -22.22173,4.22764 -30.67676,12.68262 -8.45511,8.45516 -12.68264,18.68074 -12.68262,30.67676 -2e-5,11.99614 4.22751,22.22172 12.68262,30.67676 8.45503,8.4551 18.68061,12.68263 30.67676,12.68261 11.99601,2e-5 22.22159,-4.22751 30.67676,-12.68261 8.45497,-8.45504 12.6825,-18.68062 12.68261,-30.67676 -1.1e-4,-11.99602 -4.22764,-22.2216 -12.68261,-30.67676 -8.45517,-8.45498 -18.68075,-12.68251 -30.67676,-12.68262"
         style="font-size:222px"
         id="path3783" />
      <path
         d="m 871.62411,626.48053 c 0,-2.38465 0.83105,-4.40809 2.49317,-6.07031 1.73436,-1.73426 3.79393,-2.60144 6.17871,-2.60157 2.38475,1.3e-4 4.40818,0.86731 6.07031,2.60157 1.73435,1.66222 2.60154,3.68566 2.60156,6.07031 l 0,7.0459 c 10.83981,-10.4784 23.84761,-15.71765 39.02344,-15.71778 15.53703,1.3e-4 28.79776,5.52844 39.78223,16.58497 11.05652,10.98446 16.58484,24.24519 16.58496,39.78222 l 0,56.36719 c -1.2e-4,2.38477 -0.86731,4.44434 -2.60156,6.17871 -1.66223,1.66211 -3.68566,2.49316 -6.07032,2.49316 -2.38487,0 -4.44444,-0.83105 -6.17871,-2.49316 -1.66221,-1.73437 -2.49326,-3.79394 -2.49316,-6.17871 l 0,-56.36719 c -10e-5,-10.7675 -3.83018,-19.94523 -11.49023,-27.5332 -7.58798,-7.66006 -16.76571,-11.49013 -27.53321,-11.49024 -10.76763,1.1e-4 -19.98149,3.83018 -27.6416,11.49024 -7.58792,7.58797 -11.38186,16.7657 -11.38184,27.5332 l 0,56.36719 c -2e-5,2.38477 -0.86721,4.44434 -2.60156,6.17871 -1.66213,1.66211 -3.68556,2.49316 -6.07031,2.49316 -2.38478,0 -4.44435,-0.83105 -6.17871,-2.49316 -1.66212,-1.73437 -2.49317,-3.79394 -2.49317,-6.17871 l 0,-104.0625"
         style="font-size:222px"
         id="path3785" />
    </g>
    <g
       id="g3804"
       transform="matrix(0.98407349,0,0,1,3.9292027,14)"
       style="fill:#000000;fill-opacity:1;stroke:#000000;stroke-opacity:1" />
    <path
       transform="matrix(1.9352518,0,0,1.9352518,299.74821,-350.78973)"
       d="m 207.14285,494.09448 c 0,0.78898 -0.63959,1.42857 -1.42857,1.42857 -0.78898,0 -1.42857,-0.63959 -1.42857,-1.42857 0,-0.78898 0.63959,-1.42857 1.42857,-1.42857 0.78898,0 1.42857,0.63959 1.42857,1.42857 z"
       sodipodi:ry="1.4285715"
       sodipodi:rx="1.4285715"
       sodipodi:cy="494.09448"
       sodipodi:cx="205.71428"
       id="path3986"
       style="fill:url(#linearGradient3994);fill-opacity:1;stroke:#000000;stroke-width:17;stroke-linecap:round;stroke-linejoin:miter;stroke-miterlimit:4;stroke-opacity:0;stroke-dasharray:none;filter:url(#filter3996)"
       sodipodi:type="arc"
       inkscape:transform-center-y="3.5355339" />
    <g
       id="g4557"
       transform="matrix(1,0,0,0.86697991,0,98.330432)">
      <rect
         transform="translate(0,308.2677)"
         y="430.9472"
         x="22.223356"
         height="204.05081"
         width="1000.051"
         id="rect4555"
         style="fill:#ffffff;fill-rule:evenodd;stroke:none" />
      <g
         transform="matrix(0.9999919,-0.00402448,0.00402448,0.9999919,-3.3274297,2.0618329)"
         style="fill:url(#linearGradient4533);fill-opacity:1"
         id="g4515">
        <g
           id="g4318"
           style="font-size:200px;font-style:normal;font-variant:normal;font-weight:normal;font-stretch:normal;line-height:125%;letter-spacing:0px;word-spacing:0px;fill:url(#linearGradient4553);fill-opacity:1;stroke:none;font-family:Comfortaa;-inkscape-font-specification:Comfortaa"
           transform="matrix(1,0,0,-1,0,1480.3952)">
          <path
             id="path4320"
             style="font-size:222px;fill:url(#linearGradient4535);fill-opacity:1"
             d="m 58.419037,678.51178 c -6.576196,-2.45697 -11.165058,-5.0224 -13.766602,-7.69629 -5.13087,-5.05852 -7.696297,-11.16496 -7.696289,-18.31934 -8e-6,-7.1542 2.673817,-13.40517 8.021485,-18.75292 10.406223,-10.62294 23.992146,-15.93445 40.757812,-15.93458 18.138597,1.3e-4 33.675687,7.26281 46.611327,21.78809 1.15615,1.37315 1.69814,3.07139 1.62598,5.09473 -1.1e-4,2.38486 -0.86729,4.44442 -2.60156,6.17871 -1.66222,1.66219 -3.68565,2.49325 -6.07032,2.49316 -2.38486,9e-5 -4.29989,-0.7587 -5.74511,-2.27636 -1.44541,-1.51749 -2.49326,-2.60148 -3.14356,-3.25196 -8.45516,-8.45498 -18.680733,-12.68251 -30.676757,-12.68262 -11.996139,1.1e-4 -21.571325,3.75792 -28.725586,11.27344 -1.734402,2.0958 -2.601588,4.58896 -2.601562,7.47949 0.21677,3.39657 1.987276,5.70907 5.311523,6.9375 l 53.332032,17.66895 c 6.57608,2.45709 11.16494,5.02252 13.7666,7.69629 5.13076,5.05864 7.69618,11.16508 7.69629,18.31933 -1.1e-4,7.15433 -2.67393,13.4053 -8.02148,18.75293 -10.40634,10.62306 -23.99227,15.93457 -40.757817,15.93457 -18.210977,0 -33.74807,-7.26268 -46.611328,-21.78808 -1.083994,-1.51756 -1.625986,-3.2158 -1.625977,-5.09473 -9e-6,-2.38473 0.831045,-4.40817 2.493164,-6.07031 1.734362,-1.73434 3.79393,-2.60153 6.178711,-2.60156 2.384746,3e-5 4.299783,0.75882 5.745118,2.27636 1.445287,1.51761 2.493138,2.6016 3.143554,3.25196 8.455043,8.4551 18.680619,12.68263 30.676758,12.68261 11.996024,2e-5 21.571207,-3.75779 28.725587,-11.27343 1.73429,-2.09568 2.60147,-4.58884 2.60156,-7.47949 -0.21688,-3.39645 -1.98739,-5.70895 -5.31152,-6.9375 L 58.419037,678.51178"
             inkscape:connector-curvature="0" />
          <path
             id="path4322"
             style="font-size:222px;fill:url(#linearGradient4537);fill-opacity:1"
             d="m 169.20224,580.95319 c 2.96286,1.5e-4 5.49216,1.08414 7.58789,3.25195 2.16793,2.09586 3.25192,4.62515 3.25195,7.58789 -3e-5,2.96303 -1.08402,5.52846 -3.25195,7.69629 -2.09573,2.09584 -4.62503,3.14369 -7.58789,3.14355 -2.96291,1.4e-4 -5.52834,-1.04771 -7.69629,-3.14355 -2.09572,-2.16783 -3.14357,-4.73326 -3.14355,-7.69629 -2e-5,-2.96274 1.04783,-5.49203 3.14355,-7.58789 2.16795,-2.16781 4.73338,-3.2518 7.69629,-3.25195 m -8.67188,45.52734 c -1e-5,-2.38465 0.83104,-4.40809 2.49317,-6.07031 1.73435,-1.73426 3.79392,-2.60144 6.17871,-2.60157 2.38474,1.3e-4 4.40817,0.86731 6.07031,2.60157 1.73434,1.66222 2.60153,3.68566 2.60156,6.07031 l 0,104.0625 c -3e-5,2.38477 -0.86722,4.44434 -2.60156,6.17871 -1.66214,1.66211 -3.68557,2.49316 -6.07031,2.49316 -2.38479,0 -4.44436,-0.83105 -6.17871,-2.49316 -1.66213,-1.73437 -2.49318,-3.79394 -2.49317,-6.17871 l 0,-104.0625"
             inkscape:connector-curvature="0" />
          <path
             id="path4324"
             style="font-size:222px;fill:url(#linearGradient4539);fill-opacity:1"
             d="m 264.59286,721.87115 c 11.99602,2e-5 22.22159,-4.22751 30.67676,-12.68261 8.45497,-8.45504 12.68251,-18.68062 12.68262,-30.67676 -1.1e-4,-11.99602 -4.22765,-22.2216 -12.68262,-30.67676 -8.45517,-8.45498 -18.68074,-12.68251 -30.67676,-12.68262 -11.99615,1.1e-4 -22.22172,4.22764 -30.67675,12.68262 -8.45511,8.45516 -12.68265,18.68074 -12.68262,30.67676 -3e-5,11.99614 4.22751,22.22172 12.68262,30.67676 8.45503,8.4551 18.6806,12.68263 30.67675,12.68261 m 43.35938,-147.63867 c -1.1e-4,-2.3846 0.83094,-4.40803 2.49316,-6.07031 1.73426,-1.7342 3.79383,-2.60139 6.17871,-2.60156 2.38465,1.7e-4 4.40808,0.86736 6.07032,2.60156 1.73424,1.66228 2.60143,3.68571 2.60156,6.07031 l 0,104.2793 c -1.3e-4,16.76567 -5.92591,31.07425 -17.77734,42.92578 -11.85167,11.85157 -26.16025,17.77734 -42.92579,17.77734 -16.76567,0 -31.07425,-5.92577 -42.92578,-17.77734 -11.85157,-11.85153 -17.77735,-26.16011 -17.77734,-42.92578 -1e-5,-16.76555 5.92577,-31.07413 17.77734,-42.92578 11.85153,-11.85145 26.16011,-17.77722 42.92578,-17.77735 16.76554,1.3e-4 31.07412,5.9259 42.92579,17.77735 0.14442,0.14463 0.28895,0.28916 0.43359,0.43359 l 0,-61.78711"
             inkscape:connector-curvature="0" />
          <path
             id="path4326"
             style="font-size:222px;fill:url(#linearGradient4541);fill-opacity:1"
             d="m 455.37411,730.54303 c -1.2e-4,2.38477 -0.8673,4.44434 -2.60156,6.17871 -1.66222,1.66211 -3.68566,2.49316 -6.07031,2.49316 -2.38488,0 -4.44444,-0.83105 -6.17871,-2.49316 -1.66222,-1.73437 -2.49327,-3.79394 -2.49317,-6.17871 l 0,-7.0459 c -10.83993,10.47852 -23.84773,15.71777 -39.02343,15.71777 -15.53716,0 -28.83402,-5.49218 -39.89063,-16.47656 -10.98439,-11.05661 -16.47657,-24.35347 -16.47656,-39.89062 l 0,-56.36719 c -1e-5,-2.38465 0.83105,-4.40809 2.49316,-6.07031 1.73437,-1.73426 3.79393,-2.60144 6.17871,-2.60157 2.38475,1.3e-4 4.40819,0.86731 6.07032,2.60157 1.73435,1.66222 2.60153,3.68566 2.60156,6.07031 l 0,56.36719 c -3e-5,10.76762 3.79392,19.98148 11.38184,27.6416 7.66011,7.58791 16.87397,11.38185 27.6416,11.38183 10.7675,2e-5 19.94523,-3.79392 27.5332,-11.38183 7.66006,-7.66012 11.49013,-16.87398 11.49023,-27.6416 l 0,-56.36719 c -10e-5,-2.38465 0.83095,-4.40809 2.49317,-6.07031 1.73427,-1.73426 3.79383,-2.60144 6.17871,-2.60157 2.38465,1.3e-4 4.40809,0.86731 6.07031,2.60157 1.73426,1.66222 2.60144,3.68566 2.60156,6.07031 l 0,104.0625"
             inkscape:connector-curvature="0" />
          <path
             id="path4328"
             style="font-size:222px;fill:url(#linearGradient4543);fill-opacity:1"
             d="m 561.71298,711.24811 c 1.51748,-1.15622 3.28799,-1.73435 5.31153,-1.73438 2.38466,3e-5 4.40809,0.86722 6.07031,2.60157 1.73426,1.66213 2.60145,3.68557 2.60156,6.07031 -1.1e-4,2.38478 -0.90343,4.51662 -2.70996,6.39551 -11.20127,9.75586 -24.38973,14.63378 -39.56543,14.63378 -16.76568,0 -31.07426,-5.92577 -42.92578,-17.77734 -11.85158,-11.85153 -17.77735,-26.16011 -17.77735,-42.92578 0,-16.76555 5.92577,-31.07413 17.77735,-42.92578 11.85152,-11.85145 26.1601,-17.77722 42.92578,-17.77735 15.1757,1.3e-4 28.36416,4.87805 39.56543,14.63379 2.02333,1.80675 3.03504,4.04698 3.03516,6.72071 -1.2e-4,2.38486 -0.8673,4.44443 -2.60157,6.17871 -1.66221,1.6622 -3.68565,2.49325 -6.07031,2.49316 -2.0958,9e-5 -3.93858,-0.6503 -5.52832,-1.95117 -8.09384,-7.1542 -17.56063,-10.73134 -28.40039,-10.73145 -11.99615,1.1e-4 -22.22173,4.22764 -30.67676,12.68262 -8.45511,8.45516 -12.68264,18.68074 -12.68262,30.67676 -2e-5,11.99614 4.22751,22.22172 12.68262,30.67676 8.45503,8.4551 18.68061,12.68263 30.67676,12.68261 10.83976,2e-5 20.27042,-3.54099 28.29199,-10.62304"
             inkscape:connector-curvature="0" />
          <path
             sodipodi:nodetypes="cccsssscccscccscccccccccccsssc"
             inkscape:connector-curvature="0"
             id="path4330"
             style="font-size:222px;fill:url(#linearGradient4545);fill-opacity:1"
             d="m 652.26859,719.97077 c 6.0538,-1.46176 7.47232,-11.47009 13.24924,-9.18421 12.81111,5.40212 -7.23348,26.61166 -13.63181,28.16048 -4.84621,0.74385 -11.77066,1.23299 -17.54381,-0.92687 -5.35088,-2.00188 -8.4213,-6.03183 -12.03458,-9.64511 -3.61328,-3.61328 -6.32323,-8.12988 -8.12987,-13.5498 -1.80663,-5.41992 -2.70995,-11.74317 -2.70995,-18.96973 l 0,-60.70313 -8.67187,0 c -2.38478,1.1e-4 -4.44435,-0.83095 -6.17871,-2.49316 -1.66212,-1.73427 -2.49317,-3.79383 -2.49317,-6.17871 0,-2.38465 0.83105,-4.40809 2.49317,-6.07031 1.73436,-1.73426 3.79393,-2.60144 6.17871,-2.60157 l 8.67187,0 0,-43.35937 c -2e-5,-2.3846 0.83103,-4.40803 2.49317,-6.07031 1.73434,-1.73421 3.79391,-2.60139 6.17871,-2.60157 2.38473,1.8e-4 4.40816,0.86736 6.07031,2.60157 1.73433,1.66228 2.60152,3.68571 2.60156,6.07031 l 0,43.35937 17.45215,0 c 2.38471,1.3e-4 4.40814,0.86731 6.07032,2.60157 1.7343,1.66222 2.60149,3.68566 2.60156,6.07031 -7e-5,2.38488 -0.86726,4.44444 -2.60156,6.17871 -1.66218,1.66221 -3.68561,2.49327 -6.07032,2.49316 l -17.45215,0 0,60.70313 c 0,4.33594 0.57355,8.06676 1.70488,11.22401 1.13133,3.15726 2.82043,5.74095 5.05153,7.78265 2.23111,2.0417 5.09595,4.15825 8.3928,5.15568" />
          <path
             id="path4332"
             style="font-size:222px;fill:url(#linearGradient4547);fill-opacity:1"
             d="m 698.18661,580.95319 c 2.96287,1.5e-4 5.49216,1.08414 7.5879,3.25195 2.16793,2.09586 3.25191,4.62515 3.25195,7.58789 -4e-5,2.96303 -1.08402,5.52846 -3.25195,7.69629 -2.09574,2.09584 -4.62503,3.14369 -7.5879,3.14355 -2.96291,1.4e-4 -5.52834,-1.04771 -7.69628,-3.14355 -2.09572,-2.16783 -3.14357,-4.73326 -3.14356,-7.69629 -10e-6,-2.96274 1.04784,-5.49203 3.14356,-7.58789 2.16794,-2.16781 4.73337,-3.2518 7.69628,-3.25195 m -8.67187,45.52734 c -2e-5,-2.38465 0.83104,-4.40809 2.49316,-6.07031 1.73436,-1.73426 3.79393,-2.60144 6.17871,-2.60157 2.38474,1.3e-4 4.40818,0.86731 6.07032,2.60157 1.73434,1.66222 2.60153,3.68566 2.60156,6.07031 l 0,104.0625 c -3e-5,2.38477 -0.86722,4.44434 -2.60156,6.17871 -1.66214,1.66211 -3.68558,2.49316 -6.07032,2.49316 -2.38478,0 -4.44435,-0.83105 -6.17871,-2.49316 -1.66212,-1.73437 -2.49318,-3.79394 -2.49316,-6.17871 l 0,-104.0625"
             inkscape:connector-curvature="0" />
          <path
             id="path4334"
             style="font-size:222px;fill:url(#linearGradient4549);fill-opacity:1"
             d="m 793.57724,617.80865 c 16.76554,1.3e-4 31.07412,5.9259 42.92578,17.77735 11.85144,11.85165 17.77721,26.16023 17.77734,42.92578 -1.3e-4,16.76567 -5.9259,31.07425 -17.77734,42.92578 -11.85166,11.85157 -26.16024,17.77734 -42.92578,17.77734 -16.76568,0 -31.07426,-5.92577 -42.92578,-17.77734 -11.85158,-11.85153 -17.77735,-26.16011 -17.77735,-42.92578 0,-16.76555 5.92577,-31.07413 17.77735,-42.92578 11.85152,-11.85145 26.1601,-17.77722 42.92578,-17.77735 m 0,17.34375 c -11.99615,1.1e-4 -22.22173,4.22764 -30.67676,12.68262 -8.45511,8.45516 -12.68264,18.68074 -12.68262,30.67676 -2e-5,11.99614 4.22751,22.22172 12.68262,30.67676 8.45503,8.4551 18.68061,12.68263 30.67676,12.68261 11.99601,2e-5 22.22159,-4.22751 30.67676,-12.68261 8.45497,-8.45504 12.6825,-18.68062 12.68261,-30.67676 -1.1e-4,-11.99602 -4.22764,-22.2216 -12.68261,-30.67676 -8.45517,-8.45498 -18.68075,-12.68251 -30.67676,-12.68262"
             inkscape:connector-curvature="0" />
          <path
             id="path4336"
             style="font-size:222px;fill:url(#linearGradient4551);fill-opacity:1"
             d="m 871.62411,626.48053 c 0,-2.38465 0.83105,-4.40809 2.49317,-6.07031 1.73436,-1.73426 3.79393,-2.60144 6.17871,-2.60157 2.38475,1.3e-4 4.40818,0.86731 6.07031,2.60157 1.73435,1.66222 2.60154,3.68566 2.60156,6.07031 l 0,7.0459 c 10.83981,-10.4784 23.84761,-15.71765 39.02344,-15.71778 15.53703,1.3e-4 28.79776,5.52844 39.78223,16.58497 11.05652,10.98446 16.58484,24.24519 16.58496,39.78222 l 0,56.36719 c -1.2e-4,2.38477 -0.86731,4.44434 -2.60156,6.17871 -1.66223,1.66211 -3.68566,2.49316 -6.07032,2.49316 -2.38487,0 -4.44444,-0.83105 -6.17871,-2.49316 -1.66221,-1.73437 -2.49326,-3.79394 -2.49316,-6.17871 l 0,-56.36719 c -10e-5,-10.7675 -3.83018,-19.94523 -11.49023,-27.5332 -7.58798,-7.66006 -16.76571,-11.49013 -27.53321,-11.49024 -10.76763,1.1e-4 -19.98149,3.83018 -27.6416,11.49024 -7.58792,7.58797 -11.38186,16.7657 -11.38184,27.5332 l 0,56.36719 c -2e-5,2.38477 -0.86721,4.44434 -2.60156,6.17871 -1.66213,1.66211 -3.68556,2.49316 -6.07031,2.49316 -2.38478,0 -4.44435,-0.83105 -6.17871,-2.49316 -1.66212,-1.73437 -2.49317,-3.79394 -2.49317,-6.17871 l 0,-104.0625"
             inkscape:connector-curvature="0" />
        </g>
      </g>
    </g>
    <rect
       y="-864.67151"
       x="628.81995"
       height="22.223356"
       width="32.261745"
       id="rect4338"
       style="fill:#ffffff;fill-opacity:1;fill-rule:evenodd;stroke:none"
       transform="scale(1,-1)" />
    <rect
       style="fill:#ffffff;fill-opacity:1;fill-rule:evenodd;stroke:none"
       id="rect4340"
       width="32.261745"
       height="22.223356"
       x="579.19617"
       y="-864.67151"
       transform="scale(1,-1)" />
    <rect
       style="fill:#ffffff;fill-opacity:1;fill-rule:evenodd;stroke:none"
       id="rect4342"
       width="32.261745"
       height="42.426407"
       x="154.04825"
       y="-919.21979"
       transform="scale(1,-1)" />
    <rect
       y="-902.04718"
       x="684.37836"
       height="34.345188"
       width="32.261745"
       id="rect4344"
       style="fill:#ffffff;fill-opacity:1;fill-rule:evenodd;stroke:none"
       transform="scale(1,-1)" />
    <path
       sodipodi:type="arc"
       style="fill:url(#linearGradient4348);fill-opacity:1;fill-rule:nonzero;stroke:#000000;stroke-width:17;stroke-linecap:round;stroke-linejoin:miter;stroke-miterlimit:4;stroke-opacity:0;stroke-dasharray:none"
       id="path4346"
       sodipodi:cx="963.18048"
       sodipodi:cy="252.65527"
       sodipodi:rx="33.840111"
       sodipodi:ry="33.840111"
       d="m 997.02059,252.65527 c 0,18.68938 -15.15073,33.84011 -33.84011,33.84011 -18.68938,0 -33.84011,-15.15073 -33.84011,-33.84011 0,-18.68937 15.15073,-33.84011 33.84011,-33.84011 18.68938,0 33.84011,15.15074 33.84011,33.84011 z"
       transform="matrix(1,0,0,-1,-5.0507627,1196.3712)" />
    <rect
       style="fill:#000000;fill-opacity:1;fill-rule:evenodd;stroke:none"
       id="rect2989"
       width="17.321428"
       height="79.285713"
       x="307.94641"
       y="537.36218"
       ry="8.6607141" />
    <rect
       ry="8.6607141"
       y="537.36218"
       x="611.46997"
       height="79.285713"
       width="17.321428"
       id="rect3762"
       style="fill:#000000;fill-opacity:1;fill-rule:evenodd;stroke:none" />
    <rect
       style="fill:#ffffff;fill-rule:evenodd;stroke:none;fill-opacity:1"
       id="rect3764"
       width="32.261745"
       height="22.223356"
       x="628.81995"
       y="615.72375" />
    <rect
       y="615.72375"
       x="579.19617"
       height="22.223356"
       width="32.261745"
       id="rect3766"
       style="fill:#ffffff;fill-opacity:1;fill-rule:evenodd;stroke:none" />
    <rect
       y="561.17548"
       x="154.04825"
       height="42.426407"
       width="32.261745"
       id="rect3789"
       style="fill:#ffffff;fill-opacity:1;fill-rule:evenodd;stroke:none" />
    <rect
       style="fill:#ffffff;fill-opacity:1;fill-rule:evenodd;stroke:none"
       id="rect3791"
       width="32.261745"
       height="34.345188"
       x="684.37836"
       y="578.34808" />
    <path
       style="fill:none;stroke:#000000;stroke-width:17;stroke-linecap:round;stroke-linejoin:miter;stroke-miterlimit:4;stroke-opacity:1;stroke-dasharray:none"
       d="m 172.14286,292.42081 c 33.75037,-12.27797 69.18753,-19.90946 104.99999,-22.61204 98.66443,-7.44568 196.12516,22.29947 294.83179,29.16317 23.82758,1.65688 47.73709,1.97739 71.61548,1.41062 17.9428,-0.42589 35.87518,-1.35253 53.75834,-2.87509 71.33195,-6.07317 141.84641,-21.67826 209.08011,-46.27013"
       id="path3968"
       inkscape:path-effect="#path-effect3970"
       inkscape:original-d="m 172.14286,292.42081 c 0,0 42.14285,-36.89775 104.99999,-22.61204 62.85714,14.28572 204.83179,16.30603 294.83179,29.16317 45,6.42857 49.02202,3.56245 71.61548,1.41062 22.59345,-2.15183 31.61548,2.12491 53.75834,-2.87509 44.28572,-10.00001 193.36582,-33.41299 209.08011,-46.27013"
       inkscape:connector-curvature="0"
       sodipodi:nodetypes="cssssc"
       transform="translate(0,308.2677)" />
    <path
       inkscape:connector-curvature="0"
       id="path3925"
       d="m 750.7085,980.77178 c -0.70123,-1.8451 -3.14715,-10.6963 -5.43541,-19.6691 -6.38549,-25.03919 -15.68185,-49.6828 -30.74686,-81.50638 -6.96219,-14.70706 -30.02173,-57.68483 -33.82875,-63.04919 -1.37215,-1.93342 -4.18579,-6.60336 -6.25253,-10.37764 -7.4136,-13.53865 -46.57255,-66.99216 -51.91959,-70.87228 -10.47406,-7.6006 -32.37056,-13.50969 -42.80446,-11.5514 -5.12964,0.96274 -8.87989,4.13754 -38.33339,32.45169 -9.63836,9.2655 -15.35389,18.24568 -22.80616,35.83274 -10.97665,25.90458 -24.01448,52.76727 -30.32535,62.48134 -9.61626,14.80191 -12.01271,13.07396 -5.90071,-4.25466 4.06341,-11.52049 6.59279,-26.6569 5.98377,-35.80827 -0.37595,-5.64927 -1.0579,-7.1558 -3.97842,-8.78894 -6.37408,-3.56435 -10.50133,-1.10377 -27.746,16.54165 -8.89918,9.10596 -16.50679,16.22968 -16.90583,15.83047 -1.89092,-1.89176 17.27666,-38.13991 31.32457,-59.2385 8.91728,-13.39288 16.58527,-28.02449 21.97594,-41.93328 1.90165,-4.90656 8.56233,-21.77071 14.80151,-37.47589 l 11.34392,-28.55485 -2.11765,-10.75374 c -2.36758,-12.02295 -8.65433,-26.10118 -14.43558,-32.32644 -8.21181,-8.84246 -26.32631,-22.54815 -39.4095,-29.81784 -58.54727,-32.53178 -113.62648,-57.22977 -160.50653,-71.97247 -12.84562,-4.03965 -18.35543,-4.96326 -37.03997,-6.20902 -12.07228,-0.80492 -22.24905,-1.73534 -22.61504,-2.06763 -3.12178,-2.83428 22.64983,-12.3063 46.62243,-17.13546 13.82045,-2.78407 19.77298,-3.17829 48.01477,-3.17987 51.63705,-0.003 80.77096,5.86409 134.44137,27.07382 44.3551,17.52847 52.02417,22.21661 79.8811,48.83164 17.299,16.5278 24.18808,20.37551 32.48107,18.14145 5.52761,-1.4891 16.11815,-10.91648 20.40525,-18.16415 2.16417,-3.65867 8.25101,-6.87443 21.27077,-11.23762 10.02384,-3.35922 17.24996,-2.82915 26.14114,1.91758 4.2418,2.26455 9.57602,4.11739 11.85384,4.11739 4.7519,0 4.89419,0.31973 2.06485,4.63978 -1.14213,1.74391 -3.52811,6.87615 -5.30216,11.40497 -2.92149,7.45812 -8.17713,15.82709 -22.12369,35.22939 -4.56441,6.34993 -5.84492,11.63919 -3.98916,16.47743 0.44255,1.15377 5.59256,3.69302 11.44444,5.64275 9.07197,3.02258 11.76486,4.70184 18.27476,11.39598 17.55117,18.04784 29.14098,33.39248 37.02856,49.02497 4.54183,9.00147 37.02002,103.70534 42.88122,125.03827 2.51053,9.13749 6.52586,27.97456 8.92298,41.86016 4.19542,24.30246 4.35442,26.63227 4.25202,62.30308 -0.11142,38.80717 -1.05961,51.55017 -3.90621,52.49607 -0.93851,0.3118 -2.28011,-0.9428 -2.98133,-2.788 z"
       style="fill:url(#linearGradient3125);fill-opacity:1;fill-rule:nonzero;stroke:none;display:inline" />
  </g>
</svg>
