<?xml version="1.0" encoding="UTF-8" standalone="no"?>
<!-- Created with sK1/UniConvertor (http://sk1project.org/) -->

<svg
   xmlns:dc="http://purl.org/dc/elements/1.1/"
   xmlns:cc="http://creativecommons.org/ns#"
   xmlns:rdf="http://www.w3.org/1999/02/22-rdf-syntax-ns#"
   xmlns:svg="http://www.w3.org/2000/svg"
   xmlns="http://www.w3.org/2000/svg"
   xmlns:xlink="http://www.w3.org/1999/xlink"
   xmlns:sodipodi="http://sodipodi.sourceforge.net/DTD/sodipodi-0.dtd"
   xmlns:inkscape="http://www.inkscape.org/namespaces/inkscape"
   width="595.276pt"
   height="841.89pt"
   viewBox="0 0 595.276 841.89"
   fill-rule="evenodd"
   id="svg2"
   version="1.1"
   inkscape:version="0.49+devel r"
   sodipodi:docname="se7en-Spike.svg"
   inkscape:export-filename="/home/se7en/Dropbox/Photos/siduction/se7en-Spike.png"
   inkscape:export-xdpi="90"
   inkscape:export-ydpi="90">
  <metadata
     id="metadata32">
    <rdf:RDF>
      <cc:Work
         rdf:about="">
        <dc:format>image/svg+xml</dc:format>
        <dc:type
           rdf:resource="http://purl.org/dc/dcmitype/StillImage" />
        <dc:title />
        <dc:creator>
          <cc:Agent>
            <dc:title>Sven Strohmeier</dc:title>
          </cc:Agent>
        </dc:creator>
        <cc:license
           rdf:resource="http://creativecommons.org/licenses/by-sa/3.0/" />
      </cc:Work>
      <cc:License
         rdf:about="http://creativecommons.org/licenses/by-sa/3.0/">
        <cc:permits
           rdf:resource="http://creativecommons.org/ns#Reproduction" />
        <cc:permits
           rdf:resource="http://creativecommons.org/ns#Distribution" />
        <cc:requires
           rdf:resource="http://creativecommons.org/ns#Notice" />
        <cc:requires
           rdf:resource="http://creativecommons.org/ns#Attribution" />
        <cc:permits
           rdf:resource="http://creativecommons.org/ns#DerivativeWorks" />
        <cc:requires
           rdf:resource="http://creativecommons.org/ns#ShareAlike" />
      </cc:License>
    </rdf:RDF>
  </metadata>
  <sodipodi:namedview
     pagecolor="#ffffff"
     bordercolor="#666666"
     borderopacity="1"
     objecttolerance="10"
     gridtolerance="10"
     guidetolerance="10"
     inkscape:pageopacity="0"
     inkscape:pageshadow="2"
     inkscape:window-width="1280"
     inkscape:window-height="981"
     id="namedview30"
     showgrid="false"
     inkscape:zoom="0.21348272"
     inkscape:cx="306.55956"
     inkscape:cy="440.96751"
     inkscape:window-x="-3"
     inkscape:window-y="-3"
     inkscape:window-maximized="1"
     inkscape:current-layer="g14" />
  <defs
     id="defs4">
    <marker
       id="ArrowEnd"
       viewBox="0 0 10 10"
       refX="0"
       refY="5"
       markerUnits="strokeWidth"
       markerWidth="4"
       markerHeight="3"
       orient="auto">
      <path
         d="M 0 0 L 10 5 L 0 10 z"
         id="path7" />
    </marker>
    <marker
       id="ArrowStart"
       viewBox="0 0 10 10"
       refX="10"
       refY="5"
       markerUnits="strokeWidth"
       markerWidth="4"
       markerHeight="3"
       orient="auto">
      <path
         d="M 10 0 L 0 5 L 10 10 z"
         id="path10" />
    </marker>
    <linearGradient
       id="linearGradient12274">
      <stop
         style="stop-color:#800000;stop-opacity:0;"
         offset="0"
         id="stop12276" />
      <stop
         style="stop-color:#800000;stop-opacity:1;"
         offset="1"
         id="stop12278" />
    </linearGradient>
    <linearGradient
       inkscape:collect="always"
       xlink:href="#linearGradient12284"
       id="linearGradient12415"
       gradientUnits="userSpaceOnUse"
       x1="215.74779"
       y1="321.91321"
       x2="290.50943"
       y2="319.33218" />
    <linearGradient
       inkscape:collect="always"
       id="linearGradient12284">
      <stop
         style="stop-color:#ffffff;stop-opacity:1;"
         offset="0"
         id="stop12286" />
      <stop
         style="stop-color:#ffffff;stop-opacity:0;"
         offset="1"
         id="stop12288" />
    </linearGradient>
    <filter
       id="filter3991"
       inkscape:label="Drop shadow"
       width="1.5"
       height="1.5"
       x="-.25"
       y="-.25">
      <feGaussianBlur
         id="feGaussianBlur3993"
         in="SourceAlpha"
         stdDeviation="2.5"
         result="blur" />
      <feColorMatrix
         id="feColorMatrix3995"
         result="bluralpha"
         type="matrix"
         values="1 0 0 0 0 0 1 0 0 0 0 0 1 0 0 0 0 0 0.5 0 " />
      <feOffset
         id="feOffset3997"
         in="bluralpha"
         dx="3"
         dy="3"
         result="offsetBlur" />
      <feMerge
         id="feMerge3999">
        <feMergeNode
           id="feMergeNode4001"
           in="offsetBlur" />
        <feMergeNode
           id="feMergeNode4003"
           in="SourceGraphic" />
      </feMerge>
    </filter>
    <filter
       id="filter4005"
       inkscape:label="Drop shadow"
       width="1.5"
       height="1.5"
       x="-.25"
       y="-.25">
      <feGaussianBlur
         id="feGaussianBlur4007"
         in="SourceAlpha"
         stdDeviation="2.5"
         result="blur" />
      <feColorMatrix
         id="feColorMatrix4009"
         result="bluralpha"
         type="matrix"
         values="1 0 0 0 0 0 1 0 0 0 0 0 1 0 0 0 0 0 0.5 0 " />
      <feOffset
         id="feOffset4011"
         in="bluralpha"
         dx="3"
         dy="3"
         result="offsetBlur" />
      <feMerge
         id="feMerge4013">
        <feMergeNode
           id="feMergeNode4015"
           in="offsetBlur" />
        <feMergeNode
           id="feMergeNode4017"
           in="SourceGraphic" />
      </feMerge>
    </filter>
    <filter
       id="filter4019"
       inkscape:label="Drop shadow"
       width="1.5"
       height="1.5"
       x="-.25"
       y="-.25">
      <feGaussianBlur
         id="feGaussianBlur4021"
         in="SourceAlpha"
         stdDeviation="2.5"
         result="blur" />
      <feColorMatrix
         id="feColorMatrix4023"
         result="bluralpha"
         type="matrix"
         values="1 0 0 0 0 0 1 0 0 0 0 0 1 0 0 0 0 0 0.5 0 " />
      <feOffset
         id="feOffset4025"
         in="bluralpha"
         dx="3"
         dy="3"
         result="offsetBlur" />
      <feMerge
         id="feMerge4027">
        <feMergeNode
           id="feMergeNode4029"
           in="offsetBlur" />
        <feMergeNode
           id="feMergeNode4031"
           in="SourceGraphic" />
      </feMerge>
    </filter>
    <filter
       id="filter4033"
       inkscape:label="Drop shadow"
       width="1.5"
       height="1.5"
       x="-.25"
       y="-.25">
      <feGaussianBlur
         id="feGaussianBlur4035"
         in="SourceAlpha"
         stdDeviation="2.5"
         result="blur" />
      <feColorMatrix
         id="feColorMatrix4037"
         result="bluralpha"
         type="matrix"
         values="1 0 0 0 0 0 1 0 0 0 0 0 1 0 0 0 0 0 0.5 0 " />
      <feOffset
         id="feOffset4039"
         in="bluralpha"
         dx="3"
         dy="3"
         result="offsetBlur" />
      <feMerge
         id="feMerge4041">
        <feMergeNode
           id="feMergeNode4043"
           in="offsetBlur" />
        <feMergeNode
           id="feMergeNode4045"
           in="SourceGraphic" />
      </feMerge>
    </filter>
    <radialGradient
       inkscape:collect="always"
       xlink:href="#linearGradient12274"
       id="radialGradient4062"
       gradientUnits="userSpaceOnUse"
       cx="337.09164"
       cy="520.64783"
       fx="337.09164"
       fy="520.64783"
       r="103.03556" />
    <linearGradient
       inkscape:collect="always"
       xlink:href="#linearGradient12284"
       id="linearGradient4064"
       gradientUnits="userSpaceOnUse"
       x1="215.74779"
       y1="321.91321"
       x2="290.50943"
       y2="319.33218" />
    <radialGradient
       inkscape:collect="always"
       xlink:href="#linearGradient12274"
       id="radialGradient4066"
       gradientUnits="userSpaceOnUse"
       cx="337.09164"
       cy="520.64783"
       fx="337.09164"
       fy="520.64783"
       r="103.03556" />
    <linearGradient
       inkscape:collect="always"
       xlink:href="#linearGradient12284"
       id="linearGradient4068"
       gradientUnits="userSpaceOnUse"
       x1="215.74779"
       y1="321.91321"
       x2="290.50943"
       y2="319.33218" />
    <radialGradient
       inkscape:collect="always"
       xlink:href="#linearGradient12274"
       id="radialGradient4070"
       gradientUnits="userSpaceOnUse"
       cx="337.09164"
       cy="520.64783"
       fx="337.09164"
       fy="520.64783"
       r="103.03556" />
    <linearGradient
       inkscape:collect="always"
       xlink:href="#linearGradient12284"
       id="linearGradient4072"
       gradientUnits="userSpaceOnUse"
       x1="215.74779"
       y1="321.91321"
       x2="290.50943"
       y2="319.33218" />
    <filter
       id="filter4112"
       inkscape:label="Drop shadow"
       width="1.5"
       height="1.5"
       x="-.25"
       y="-.25">
      <feGaussianBlur
         id="feGaussianBlur4114"
         in="SourceAlpha"
         stdDeviation="2.5"
         result="blur" />
      <feColorMatrix
         id="feColorMatrix4116"
         result="bluralpha"
         type="matrix"
         values="1 0 0 0 0 0 1 0 0 0 0 0 1 0 0 0 0 0 0.5 0 " />
      <feOffset
         id="feOffset4118"
         in="bluralpha"
         dx="3"
         dy="3"
         result="offsetBlur" />
      <feMerge
         id="feMerge4120">
        <feMergeNode
           id="feMergeNode4122"
           in="offsetBlur" />
        <feMergeNode
           id="feMergeNode4124"
           in="SourceGraphic" />
      </feMerge>
    </filter>
    <clipPath
       clipPathUnits="userSpaceOnUse"
       id="clipPath3158">
      <rect
         style="fill:#000000;fill-opacity:1;stroke:none"
         id="rect3160"
         width="845.78918"
         height="341.41949"
         x="-1209.9484"
         y="136.23889"
         transform="matrix(0,-1,1,0,0,0)" />
    </clipPath>
    <clipPath
       clipPathUnits="userSpaceOnUse"
       id="clipPath3162">
      <rect
         style="fill:#000000;fill-opacity:1;stroke:none"
         id="rect3164"
         width="241.66255"
         height="104.92423"
         x="46.367676"
         y="454.05185"
         transform="matrix(1,0,0.3682265,0.92973612,0,0)" />
    </clipPath>
    <clipPath
       clipPathUnits="userSpaceOnUse"
       id="clipPath3166">
      <rect
         style="fill:#000000;fill-opacity:1;stroke:none"
         id="rect3168"
         width="816.92798"
         height="329.76907"
         x="-191.11618"
         y="306.01526" />
    </clipPath>
  </defs>
  <g
     id="g12">
    <g
       id="g14">
      <path
         style="stroke:none; fill:none"
         d="M 81.2103 224.49L 530.866 224.49L 530.866 636.08L 81.2103 636.08L 81.2103 224.49L 81.2103 224.49z"
         id="path16"
         clip-path="url(#clipPath3166)" />
      <text
         xml:space="preserve"
         style="font-size:51.20000076px;font-style:normal;font-variant:normal;font-weight:normal;font-stretch:normal;line-height:125%;letter-spacing:0px;word-spacing:0px;fill:#550000;fill-opacity:1;stroke:none;filter:url(#filter4112);font-family:Nimbus Roman No9 L;-inkscape-font-specification:Nimbus Roman No9 L"
         x="237.74236"
         y="481.99011"
         id="text3112"
         sodipodi:linespacing="125%"
         transform="matrix(3.3804492,0,-1.3388433,3.3804492,-347.85976,-1121.036)"
         clip-path="url(#clipPath3162)"><tspan
           sodipodi:role="line"
           id="tspan3114"
           x="237.74236"
           y="481.99011">siduction</tspan></text>
      <g
         id="g4047"
         transform="matrix(0,0.96587655,-0.96587655,0,977.5446,174.42531)"
         clip-path="url(#clipPath3158)">
        <g
           style="filter:url(#filter4033)"
           transform="matrix(0.28224308,0.00527138,-0.00526395,0.28184539,212.6264,366.76699)"
           id="g3222">
          <path
             sodipodi:type="arc"
             style="fill:#ff0000;fill-opacity:1;stroke:none"
             id="path12270"
             sodipodi:cx="337.09164"
             sodipodi:cy="520.64783"
             sodipodi:rx="103.03556"
             sodipodi:ry="103.03556"
             d="m 440.1272,520.64783 c 0,56.90497 -46.13059,103.03556 -103.03556,103.03556 -56.90496,0 -103.03556,-46.13059 -103.03556,-103.03556 0,-56.90497 46.1306,-103.03556 103.03556,-103.03556 56.90497,0 103.03556,46.13059 103.03556,103.03556 z"
             transform="translate(6.0816242,-61.190664)" />
          <path
             d="m 440.1272,520.64783 c 0,56.90497 -46.13059,103.03556 -103.03556,103.03556 -56.90496,0 -103.03556,-46.13059 -103.03556,-103.03556 0,-56.90497 46.1306,-103.03556 103.03556,-103.03556 56.90497,0 103.03556,46.13059 103.03556,103.03556 z"
             sodipodi:ry="103.03556"
             sodipodi:rx="103.03556"
             sodipodi:cy="520.64783"
             sodipodi:cx="337.09164"
             id="path12272"
             style="fill:url(#radialGradient4062);fill-opacity:1;stroke:none"
             sodipodi:type="arc"
             transform="translate(6.0816242,-61.190664)" />
          <path
             sodipodi:type="arc"
             style="fill:url(#linearGradient4064);fill-opacity:1;stroke:none"
             id="path12282"
             sodipodi:cx="273.48944"
             sodipodi:cy="338.74554"
             sodipodi:rx="59.786064"
             sodipodi:ry="59.786064"
             d="m 333.27551,338.74554 c 0,33.01894 -26.76714,59.78607 -59.78607,59.78607 -33.01893,0 -59.78606,-26.76713 -59.78606,-59.78607 0,-33.01893 26.76713,-59.78606 59.78606,-59.78606 33.01893,0 59.78607,26.76713 59.78607,59.78606 z"
             transform="matrix(0.2417157,1.2464615,-1.3616646,0.2212654,738.24557,15.982923)" />
        </g>
        <path
           inkscape:connector-curvature="0"
           id="path3151"
           d="m 308.35462,371.34418 -2.81435,23.50155 c 0.72996,-0.22054 1.50266,-0.322 2.30614,-0.30699 1.03595,0.0193 2.02301,0.23234 2.91375,0.62952 l -2.40554,-23.82408 z m 3.71438,36.75077 c -1.27022,0.91799 -2.81463,1.4477 -4.50223,1.41618 -1.33284,-0.0249 -2.58361,-0.38815 -3.65662,-1.01846 l -1.54206,12.94846 -0.0899,0.79846 c 1.54993,-0.67164 3.27055,-1.03911 5.06966,-1.0055 2.28937,0.0428 4.40636,0.73245 6.21623,1.8664 l -0.14649,-1.528 -1.34857,-13.47754 z m 92.50925,11.07941 -40.13819,24.42974 c 3.19,1.5146 5.66528,4.28759 6.75781,7.67753 l 33.38038,-32.10727 z m -192.24662,-3.31549 30.44118,31.54894 c 1.03823,-3.17071 3.27595,-5.78565 6.16307,-7.33619 L 212.33163,415.85887 z M 315.482,442.23964 c -2.23877,2.12502 -5.25889,3.40239 -8.58887,3.3402 -2.67769,-0.05 -5.14749,-0.95619 -7.13033,-2.45858 l -3.37843,28.26685 c 3.45422,-1.38556 7.23489,-2.11527 11.19007,-2.0414 11.87773,0.22184 21.94717,7.64311 26.09267,18.04038 l 20.8533,-20.06409 c -5.01676,-1.83668 -8.5515,-6.69352 -8.44613,-12.33487 0.001,-0.0754 0.002,-0.14991 0.004,-0.22496 l -27.64422,16.83672 -2.95226,-29.36025 z m -47.6504,10.287 c -0.46264,5.39596 -4.24475,9.80601 -9.26177,11.25401 l 22.12545,22.94216 c 2.98388,-6.96809 8.64021,-12.51125 15.66409,-15.33517 l -28.52777,-18.861 z m 66.52397,36.82365 c 0.8878,2.81083 1.36359,5.82035 1.33355,8.92646 l -0.005,0.24996 c -0.0836,4.47767 -1.18058,8.70389 -3.08292,12.4446 l 29.90595,-2.71703 c -1.49095,-2.14706 -2.3616,-4.75621 -2.30906,-7.56943 0.0541,-2.89878 1.08694,-5.52798 2.74334,-7.65011 l -28.58619,-3.68445 z m -54.42298,-0.61637 -30.83826,3.09968 c 1.01652,1.88531 1.57445,4.06057 1.5316,6.35471 -0.059,3.15664 -1.25218,6.01237 -3.17899,8.21707 l 33.8056,4.03197 c -1.89612,-3.92147 -2.94501,-8.32764 -2.8581,-12.98063 0.057,-3.05017 0.60366,-5.98224 1.53815,-8.7228 z m 104.96051,7.11122 c 0.70639,1.63557 1.11127,3.42367 1.07583,5.32101 -0.0336,1.79811 -0.44998,3.51235 -1.14458,5.05451 l 47.08844,-4.29644 -47.01969,-6.07908 z m -159.4724,-1.62819 -43.3641,4.366 44.23418,5.27693 c -0.95727,-1.84344 -1.47687,-3.93004 -1.43535,-6.15288 0.0226,-1.20995 0.23259,-2.38561 0.56527,-3.49005 z"
           style="fill:#333333;fill-opacity:1;stroke:none;filter:url(#filter4019)" />
        <g
           style="filter:url(#filter4005)"
           id="g3953"
           transform="matrix(0.11860781,0.00221521,-0.00221208,0.11844067,268.10991,378.69813)">
          <path
             transform="translate(6.0816242,-61.190664)"
             d="m 440.1272,520.64783 c 0,56.90497 -46.13059,103.03556 -103.03556,103.03556 -56.90496,0 -103.03556,-46.13059 -103.03556,-103.03556 0,-56.90497 46.1306,-103.03556 103.03556,-103.03556 56.90497,0 103.03556,46.13059 103.03556,103.03556 z"
             sodipodi:ry="103.03556"
             sodipodi:rx="103.03556"
             sodipodi:cy="520.64783"
             sodipodi:cx="337.09164"
             id="path3955"
             style="fill:#ff0000;fill-opacity:1;stroke:none"
             sodipodi:type="arc" />
          <path
             transform="translate(6.0816242,-61.190664)"
             sodipodi:type="arc"
             style="fill:url(#radialGradient4066);fill-opacity:1;stroke:none"
             id="path3957"
             sodipodi:cx="337.09164"
             sodipodi:cy="520.64783"
             sodipodi:rx="103.03556"
             sodipodi:ry="103.03556"
             d="m 440.1272,520.64783 c 0,56.90497 -46.13059,103.03556 -103.03556,103.03556 -56.90496,0 -103.03556,-46.13059 -103.03556,-103.03556 0,-56.90497 46.1306,-103.03556 103.03556,-103.03556 56.90497,0 103.03556,46.13059 103.03556,103.03556 z" />
          <path
             transform="matrix(0.2417157,1.2464615,-1.3616646,0.2212654,738.24557,15.982923)"
             d="m 333.27551,338.74554 c 0,33.01894 -26.76714,59.78607 -59.78607,59.78607 -33.01893,0 -59.78606,-26.76713 -59.78606,-59.78607 0,-33.01893 26.76713,-59.78606 59.78606,-59.78606 33.01893,0 59.78607,26.76713 59.78607,59.78606 z"
             sodipodi:ry="59.786064"
             sodipodi:rx="59.786064"
             sodipodi:cy="338.74554"
             sodipodi:cx="273.48944"
             id="path3959"
             style="fill:url(#linearGradient4068);fill-opacity:1;stroke:none"
             sodipodi:type="arc" />
        </g>
        <g
           style="filter:url(#filter3991)"
           transform="matrix(0.07315356,0.00136627,-0.00136434,0.07305048,283.91401,367.99057)"
           id="g3965">
          <path
             sodipodi:type="arc"
             style="fill:#ff0000;fill-opacity:1;stroke:none"
             id="path3967"
             sodipodi:cx="337.09164"
             sodipodi:cy="520.64783"
             sodipodi:rx="103.03556"
             sodipodi:ry="103.03556"
             d="m 440.1272,520.64783 c 0,56.90497 -46.13059,103.03556 -103.03556,103.03556 -56.90496,0 -103.03556,-46.13059 -103.03556,-103.03556 0,-56.90497 46.1306,-103.03556 103.03556,-103.03556 56.90497,0 103.03556,46.13059 103.03556,103.03556 z"
             transform="translate(6.0816242,-61.190664)" />
          <path
             d="m 440.1272,520.64783 c 0,56.90497 -46.13059,103.03556 -103.03556,103.03556 -56.90496,0 -103.03556,-46.13059 -103.03556,-103.03556 0,-56.90497 46.1306,-103.03556 103.03556,-103.03556 56.90497,0 103.03556,46.13059 103.03556,103.03556 z"
             sodipodi:ry="103.03556"
             sodipodi:rx="103.03556"
             sodipodi:cy="520.64783"
             sodipodi:cx="337.09164"
             id="path3969"
             style="fill:url(#radialGradient4070);fill-opacity:1;stroke:none"
             sodipodi:type="arc"
             transform="translate(6.0816242,-61.190664)" />
          <path
             sodipodi:type="arc"
             style="fill:url(#linearGradient4072);fill-opacity:1;stroke:none"
             id="path3971"
             sodipodi:cx="273.48944"
             sodipodi:cy="338.74554"
             sodipodi:rx="59.786064"
             sodipodi:ry="59.786064"
             d="m 333.27551,338.74554 c 0,33.01894 -26.76714,59.78607 -59.78607,59.78607 -33.01893,0 -59.78606,-26.76713 -59.78606,-59.78607 0,-33.01893 26.76713,-59.78606 59.78606,-59.78606 33.01893,0 59.78607,26.76713 59.78607,59.78606 z"
             transform="matrix(0.2417157,1.2464615,-1.3616646,0.2212654,738.24557,15.982923)" />
        </g>
      </g>
    </g>
  </g>
  <g
     id="g28" />
</svg>
