<?xml version="1.0" encoding="UTF-8" standalone="no"?>
<!-- Created with Inkscape (http://www.inkscape.org/) -->

<svg
   xmlns:dc="http://purl.org/dc/elements/1.1/"
   xmlns:cc="http://creativecommons.org/ns#"
   xmlns:rdf="http://www.w3.org/1999/02/22-rdf-syntax-ns#"
   xmlns:svg="http://www.w3.org/2000/svg"
   xmlns="http://www.w3.org/2000/svg"
   xmlns:xlink="http://www.w3.org/1999/xlink"
   xmlns:sodipodi="http://sodipodi.sourceforge.net/DTD/sodipodi-0.dtd"
   xmlns:inkscape="http://www.inkscape.org/namespaces/inkscape"
   id="svg2"
   version="1.1"
   inkscape:version="0.49+devel r"
   width="300.5875"
   height="333.7375"
   xml:space="preserve"
   sodipodi:docname="se7en-Wave.svg"
   inkscape:export-filename="/home/se7en/Dropbox/Photos/siduction/se7en-Wave.png"
   inkscape:export-xdpi="90"
   inkscape:export-ydpi="90"><metadata
     id="metadata8"><rdf:RDF><cc:Work
         rdf:about=""><dc:format>image/svg+xml</dc:format><dc:type
           rdf:resource="http://purl.org/dc/dcmitype/StillImage" /><dc:title></dc:title><dc:creator><cc:Agent><dc:title>Sven Strohmeier</dc:title></cc:Agent></dc:creator><cc:license
           rdf:resource="http://creativecommons.org/licenses/by-sa/3.0/" /></cc:Work><cc:License
         rdf:about="http://creativecommons.org/licenses/by-sa/3.0/"><cc:permits
           rdf:resource="http://creativecommons.org/ns#Reproduction" /><cc:permits
           rdf:resource="http://creativecommons.org/ns#Distribution" /><cc:requires
           rdf:resource="http://creativecommons.org/ns#Notice" /><cc:requires
           rdf:resource="http://creativecommons.org/ns#Attribution" /><cc:permits
           rdf:resource="http://creativecommons.org/ns#DerivativeWorks" /><cc:requires
           rdf:resource="http://creativecommons.org/ns#ShareAlike" /></cc:License></rdf:RDF></metadata><defs
     id="defs6"><linearGradient
       inkscape:collect="always"
       id="linearGradient4030"><stop
         style="stop-color:#550000;stop-opacity:1;"
         offset="0"
         id="stop4032" /><stop
         style="stop-color:#550000;stop-opacity:0;"
         offset="1"
         id="stop4034" /></linearGradient><linearGradient
       id="linearGradient4001"><stop
         style="stop-color:#f68712;stop-opacity:1;"
         offset="0"
         id="stop4003" /><stop
         style="stop-color:#8b0c27;stop-opacity:1;"
         offset="1"
         id="stop4005" /></linearGradient><clipPath
       clipPathUnits="userSpaceOnUse"
       id="clipPath18"><path
         d="M 0,2669.87 0,0 l 2404.69,0 0,2669.87 -2404.69,0 z"
         id="path20" /></clipPath><linearGradient
       inkscape:collect="always"
       xlink:href="#linearGradient4001"
       id="linearGradient4011"
       x1="0"
       y1="143.79688"
       x2="278.23724"
       y2="143.79688"
       gradientUnits="userSpaceOnUse"
       gradientTransform="matrix(0.89643157,-0.5443918,-0.60178214,-0.8109413,160.51968,363.11862)" /><linearGradient
       inkscape:collect="always"
       xlink:href="#linearGradient4030"
       id="linearGradient4038"
       x1="-1.6275282"
       y1="132.30038"
       x2="-2.1486762"
       y2="46.314651"
       gradientUnits="userSpaceOnUse" /><linearGradient
       inkscape:collect="always"
       xlink:href="#linearGradient4030"
       id="linearGradient4040"
       gradientUnits="userSpaceOnUse"
       x1="-1.6275282"
       y1="132.30038"
       x2="-2.1486762"
       y2="46.314651" /><linearGradient
       inkscape:collect="always"
       xlink:href="#linearGradient4030"
       id="linearGradient4042"
       gradientUnits="userSpaceOnUse"
       x1="-1.6275282"
       y1="132.30038"
       x2="-2.1486762"
       y2="46.314651" /></defs><sodipodi:namedview
     pagecolor="#ffffff"
     bordercolor="#666666"
     borderopacity="1"
     objecttolerance="10"
     gridtolerance="10"
     guidetolerance="10"
     inkscape:pageopacity="0"
     inkscape:pageshadow="2"
     inkscape:window-width="1280"
     inkscape:window-height="981"
     id="namedview4"
     showgrid="false"
     inkscape:zoom="0.66057469"
     inkscape:cx="97.180301"
     inkscape:cy="230.96686"
     inkscape:window-x="-3"
     inkscape:window-y="-3"
     inkscape:window-maximized="1"
     inkscape:current-layer="g10" /><g
     id="g10"
     inkscape:groupmode="layer"
     inkscape:label="ink_ext_XXXXXX"
     transform="matrix(1.25,0,0,-1.25,0,333.7375)"><path
       style="fill:url(#linearGradient4011);fill-opacity:1;fill-rule:nonzero;stroke:none"
       d="m 79.763826,217.43575 c 0,0 70.147764,-25.48049 109.474574,-48.07735 55.18877,-31.71101 31.19146,-62.50215 -58.36147,-63.25838 113.39531,-4.89997 160.8347,32.18002 106.36752,58.56739 -54.46719,26.38738 -58.46421,24.55343 -157.480624,52.76834 z m 79.158554,-15.5105 c 0,0 62.74687,-23.73089 90.02568,-36.94053 42.33949,-20.50273 20.09892,-53.44728 -37.21376,-58.36748 72.57124,-3.13449 99.22975,16.82437 81.33503,36.9153 -30.97764,34.77951 -90.12073,42.90307 -134.14695,58.39271 z M 262.94674,173.1722 c 0,0 27.94176,-18.2639 36.77009,-29.76379 9.19886,-11.9825 7.73049,-32.48253 -23.37994,-32.74496 39.39384,-1.70276 47.57568,6.11594 42.19212,20.33022 -9.10164,18.55297 -38.266,33.78108 -55.58227,42.17853 z m 44.13715,-24.03999 c 0,0 34.76211,-33.19379 1.61159,-37.53995 20.98774,-0.90812 24.92888,2.89495 22.06076,10.46871 -4.84906,9.88549 -14.80024,19.98859 -23.67235,27.07124 z m 16.52405,-13.53958 c 0,0 20.59671,-23.78682 0.22389,-23.95799 12.89849,-0.55855 15.60792,2.01047 13.8453,6.66452 -2.979,6.07501 -9.87178,12.48577 -14.06919,17.29347 z"
       id="path22"
       inkscape:connector-curvature="0"
       sodipodi:nodetypes="csczccscsccsccccccccccc" /><text
       xml:space="preserve"
       style="font-size:140.33119202px;font-style:normal;font-variant:normal;font-weight:normal;font-stretch:normal;line-height:125%;letter-spacing:0px;word-spacing:0px;fill:#550000;fill-opacity:1;stroke:none;font-family:Nimbus Roman No9 L;-inkscape-font-specification:Nimbus Roman No9 L"
       x="-343.03882"
       y="-117.228"
       id="text4013"
       sodipodi:linespacing="125%"
       transform="scale(1,-1)"><tspan
         sodipodi:role="line"
         id="tspan4015"
         x="-343.03882"
         y="-117.228">siduction</tspan></text>
<g
       id="g4025"
       style="fill:url(#linearGradient4038);fill-opacity:1"
       transform="matrix(1.6152602,0,0,1.6152602,-0.70112684,-63.888815)"><path
         style="fill:url(#linearGradient4040);fill-opacity:1;fill-rule:nonzero;stroke:none"
         d="m 49.815475,33.513925 c 0,0 43.428155,15.77485 67.775195,29.76446 34.16711,19.63214 19.31049,38.694795 -36.131313,39.162975 70.202503,3.03355 99.572013,-19.922505 65.851633,-36.258805 -33.72038,-16.3363 -36.19492,-15.20091 -97.495515,-32.66863 z m 49.006692,9.60248 c 0,0 38.846293,14.69168 55.734473,22.86971 26.21218,12.69314 12.44315,33.08896 -23.03886,36.135035 44.92851,1.94055 61.43267,-10.415895 50.35413,-22.854095 -19.17811,-21.53183 -55.79332,-26.56109 -83.049743,-36.15065 z m 64.400993,17.80088 c 0,0 17.29861,11.30709 22.76419,18.42662 5.69497,7.41831 4.78591,20.10978 -14.47441,20.27225 24.38854,1.054175 29.45388,-3.78635 26.12094,-12.58634 -5.63478,-11.48606 -23.6903,-20.91371 -34.41072,-26.11253 z m 27.3251,14.88304 c 0,0 21.52106,20.55012 0.99773,23.24081 12.99341,0.56221 15.43335,-1.79225 13.65771,-6.48113 -3.00203,-6.12006 -9.16276,-12.37484 -14.65544,-16.75968 z m 10.22996,8.38229 c 0,0 12.75133,14.72631 0.13861,14.83228 7.9854,0.3458 9.66279,-1.24467 8.57156,-4.12597 -1.84428,-3.76101 -6.11157,-7.72988 -8.71017,-10.70631 z"
         id="path4017"
         inkscape:connector-curvature="0"
         sodipodi:nodetypes="csczccscsccsccccccccccc" /><text
         xml:space="preserve"
         style="font-size:86.87838745px;font-style:normal;font-variant:normal;font-weight:normal;font-stretch:normal;line-height:125%;letter-spacing:0px;word-spacing:0px;fill:url(#linearGradient4042);fill-opacity:1;stroke:none;font-family:Nimbus Roman No9 L;-inkscape-font-specification:Nimbus Roman No9 L"
         x="-211.93967"
         y="95.552071"
         id="text4019"
         sodipodi:linespacing="125%"><tspan
           sodipodi:role="line"
           id="tspan4021"
           x="-211.93967"
           y="95.552071"
           style="fill:url(#linearGradient4042);fill-opacity:1">siduction</tspan></text>
</g></g></svg>