<?xml version="1.0" encoding="UTF-8" standalone="no"?>
<!-- Created with Inkscape (http://www.inkscape.org/) -->

<svg
   xmlns:dc="http://purl.org/dc/elements/1.1/"
   xmlns:cc="http://creativecommons.org/ns#"
   xmlns:rdf="http://www.w3.org/1999/02/22-rdf-syntax-ns#"
   xmlns:svg="http://www.w3.org/2000/svg"
   xmlns="http://www.w3.org/2000/svg"
   xmlns:xlink="http://www.w3.org/1999/xlink"
   xmlns:sodipodi="http://sodipodi.sourceforge.net/DTD/sodipodi-0.dtd"
   xmlns:inkscape="http://www.inkscape.org/namespaces/inkscape"
   width="744.09448819"
   height="1052.3622047"
   id="svg4217"
   version="1.1"
   inkscape:version="0.49+devel r"
   sodipodi:docname="se7en-xfontAndFF.svg"
   inkscape:export-filename="/home/se7en/Dropbox/Photos/siduction/se7en-xfontFF.png"
   inkscape:export-xdpi="90"
   inkscape:export-ydpi="90">
  <defs
     id="defs4219">
    <radialGradient
       inkscape:collect="always"
       xlink:href="#linearGradient4001"
       id="radialGradient4138"
       gradientUnits="userSpaceOnUse"
       cx="303.80588"
       cy="597.40912"
       fx="303.80588"
       fy="597.40912"
       r="8.313096" />
    <linearGradient
       id="linearGradient4001">
      <stop
         id="stop4003"
         offset="0"
         style="stop-color:#f68712;stop-opacity:1;" />
      <stop
         id="stop4005"
         offset="1"
         style="stop-color:#8b0c27;stop-opacity:1;" />
    </linearGradient>
    <radialGradient
       inkscape:collect="always"
       xlink:href="#linearGradient4001"
       id="radialGradient4134"
       cx="303.80588"
       cy="597.40912"
       fx="303.80588"
       fy="597.40912"
       r="8.313096"
       gradientUnits="userSpaceOnUse" />
    <linearGradient
       id="linearGradient4155">
      <stop
         id="stop4157"
         offset="0"
         style="stop-color:#f68712;stop-opacity:1;" />
      <stop
         id="stop4159"
         offset="1"
         style="stop-color:#8b0c27;stop-opacity:1;" />
    </linearGradient>
    <linearGradient
       inkscape:collect="always"
       xlink:href="#linearGradient4001"
       id="linearGradient3346"
       gradientUnits="userSpaceOnUse"
       gradientTransform="matrix(2.1806739,0.50418769,-0.67764102,2.0457664,346.18138,-38.332666)"
       x1="0"
       y1="143.79688"
       x2="278.23724"
       y2="143.79688" />
    <linearGradient
       id="linearGradient4162">
      <stop
         id="stop4164"
         offset="0"
         style="stop-color:#f68712;stop-opacity:1;" />
      <stop
         id="stop4166"
         offset="1"
         style="stop-color:#8b0c27;stop-opacity:1;" />
    </linearGradient>
    <linearGradient
       inkscape:collect="always"
       xlink:href="#linearGradient4001"
       id="linearGradient3348"
       gradientUnits="userSpaceOnUse"
       gradientTransform="matrix(2.1492707,0.6246436,-0.7903284,2.0049287,363.28126,-66.195144)"
       x1="0"
       y1="143.79688"
       x2="278.23724"
       y2="143.79688" />
    <linearGradient
       id="linearGradient4169">
      <stop
         id="stop4171"
         offset="0"
         style="stop-color:#f68712;stop-opacity:1;" />
      <stop
         id="stop4173"
         offset="1"
         style="stop-color:#8b0c27;stop-opacity:1;" />
    </linearGradient>
    <linearGradient
       inkscape:collect="always"
       xlink:href="#linearGradient4001"
       id="linearGradient3350"
       gradientUnits="userSpaceOnUse"
       gradientTransform="matrix(2.0455151,0.90852206,-1.0532487,1.8801662,416.60982,-119.24035)"
       x1="0"
       y1="143.79688"
       x2="278.23724"
       y2="143.79688" />
    <linearGradient
       id="linearGradient4176">
      <stop
         id="stop4178"
         offset="0"
         style="stop-color:#f68712;stop-opacity:1;" />
      <stop
         id="stop4180"
         offset="1"
         style="stop-color:#8b0c27;stop-opacity:1;" />
    </linearGradient>
    <linearGradient
       inkscape:collect="always"
       xlink:href="#linearGradient4001"
       id="linearGradient3352"
       gradientUnits="userSpaceOnUse"
       gradientTransform="matrix(1.9685558,1.0650504,-1.1964617,1.792439,454.17893,-140.83165)"
       x1="0"
       y1="143.79688"
       x2="278.23724"
       y2="143.79688" />
    <linearGradient
       id="linearGradient4183">
      <stop
         id="stop4185"
         offset="0"
         style="stop-color:#f68712;stop-opacity:1;" />
      <stop
         id="stop4187"
         offset="1"
         style="stop-color:#8b0c27;stop-opacity:1;" />
    </linearGradient>
    <linearGradient
       inkscape:collect="always"
       xlink:href="#linearGradient4001"
       id="linearGradient3354"
       gradientUnits="userSpaceOnUse"
       gradientTransform="matrix(1.9381835,1.1193699,-1.2458339,1.7584812,467.92841,-139.94327)"
       x1="0"
       y1="143.79688"
       x2="278.23724"
       y2="143.79688" />
    <linearGradient
       id="linearGradient4190">
      <stop
         id="stop4192"
         offset="0"
         style="stop-color:#f68712;stop-opacity:1;" />
      <stop
         id="stop4194"
         offset="1"
         style="stop-color:#8b0c27;stop-opacity:1;" />
    </linearGradient>
    <radialGradient
       inkscape:collect="always"
       xlink:href="#linearGradient5080-3"
       id="radialGradient3449-9"
       gradientUnits="userSpaceOnUse"
       gradientTransform="matrix(1,0,0,2.0000014,0,-646.20378)"
       cx="706.15985"
       cy="646.20288"
       fx="706.15985"
       fy="646.20288"
       r="35.569271" />
    <linearGradient
       id="linearGradient5080-3">
      <stop
         id="stop5082-1"
         offset="0"
         style="stop-color:#a32222;stop-opacity:1;" />
      <stop
         id="stop5084-9"
         offset="1"
         style="stop-color:#090505;stop-opacity:1;" />
    </linearGradient>
    <clipPath
       id="clipPath3624-4"
       clipPathUnits="userSpaceOnUse">
      <rect
         style="fill:#ffffff;stroke:#ffffff;stroke-width:0;stroke-miterlimit:4;stroke-dasharray:none"
         id="rect3626-7"
         width="1094.5142"
         height="496.77719"
         x="-339.74292"
         y="482.71722"
         inkscape:export-filename="/home/se7en/siduction.png"
         inkscape:export-xdpi="100"
         inkscape:export-ydpi="100" />
    </clipPath>
    <radialGradient
       inkscape:collect="always"
       xlink:href="#linearGradient5080-3"
       id="radialGradient3447-8"
       gradientUnits="userSpaceOnUse"
       gradientTransform="matrix(1,0,0,2.0000014,0,-646.20378)"
       cx="650.96149"
       cy="646.20288"
       fx="650.96149"
       fy="646.20288"
       r="35.569271" />
    <linearGradient
       id="linearGradient5172">
      <stop
         id="stop5174"
         offset="0"
         style="stop-color:#a32222;stop-opacity:1;" />
      <stop
         id="stop5176"
         offset="1"
         style="stop-color:#090505;stop-opacity:1;" />
    </linearGradient>
    <clipPath
       id="clipPath3628-4"
       clipPathUnits="userSpaceOnUse">
      <rect
         style="fill:#ffffff;stroke:#ffffff;stroke-width:0;stroke-miterlimit:4;stroke-dasharray:none"
         id="rect3630-5"
         width="1094.5142"
         height="496.77719"
         x="-339.74292"
         y="482.71722"
         inkscape:export-filename="/home/se7en/siduction.png"
         inkscape:export-xdpi="100"
         inkscape:export-ydpi="100" />
    </clipPath>
    <radialGradient
       r="3.6435485"
       fy="489.55539"
       fx="101.29065"
       cy="489.55539"
       cx="101.29065"
       gradientUnits="userSpaceOnUse"
       id="radialGradient3311"
       xlink:href="#linearGradient5080-3"
       inkscape:collect="always" />
    <linearGradient
       id="linearGradient5181">
      <stop
         id="stop5183"
         offset="0"
         style="stop-color:#a32222;stop-opacity:1;" />
      <stop
         id="stop5185"
         offset="1"
         style="stop-color:#090505;stop-opacity:1;" />
    </linearGradient>
    <clipPath
       id="clipPath3632-3"
       clipPathUnits="userSpaceOnUse">
      <rect
         style="fill:#ffffff;stroke:#ffffff;stroke-width:0;stroke-miterlimit:4;stroke-dasharray:none"
         id="rect3634-6"
         width="228.48639"
         height="107.98151"
         x="-96.833015"
         y="454.03104"
         inkscape:export-filename="/home/se7en/siduction.png"
         inkscape:export-xdpi="100"
         inkscape:export-ydpi="100" />
    </clipPath>
    <radialGradient
       r="3.6435485"
       fy="489.55539"
       fx="101.29065"
       cy="489.55539"
       cx="101.29065"
       gradientUnits="userSpaceOnUse"
       id="radialGradient5192"
       xlink:href="#linearGradient5080-3"
       inkscape:collect="always" />
    <radialGradient
       inkscape:collect="always"
       xlink:href="#linearGradient5080-3"
       id="radialGradient5251"
       gradientUnits="userSpaceOnUse"
       cx="101.29065"
       cy="489.55539"
       fx="101.29065"
       fy="489.55539"
       r="3.6435485" />
    <radialGradient
       inkscape:collect="always"
       xlink:href="#linearGradient5080-3"
       id="radialGradient5255"
       gradientUnits="userSpaceOnUse"
       cx="101.29065"
       cy="489.55539"
       fx="101.29065"
       fy="489.55539"
       r="3.6435485" />
    <radialGradient
       inkscape:collect="always"
       xlink:href="#linearGradient5080-3"
       id="radialGradient5259"
       gradientUnits="userSpaceOnUse"
       cx="101.29065"
       cy="489.55539"
       fx="101.29065"
       fy="489.55539"
       r="3.6435485" />
    <radialGradient
       inkscape:collect="always"
       xlink:href="#linearGradient5172"
       id="radialGradient5868"
       cx="152.30241"
       cy="309.3024"
       fx="152.30241"
       fy="309.3024"
       r="400.16269"
       gradientTransform="matrix(1.1584193,0,0,0.18905056,-40.358007,242.82861)"
       gradientUnits="userSpaceOnUse" />
    <radialGradient
       inkscape:collect="always"
       xlink:href="#linearGradient5080-3"
       id="radialGradient3186"
       gradientUnits="userSpaceOnUse"
       gradientTransform="matrix(1,0,0,2.0000014,0,-646.20378)"
       cx="650.96149"
       cy="646.20288"
       fx="650.96149"
       fy="646.20288"
       r="35.569271" />
    <radialGradient
       inkscape:collect="always"
       xlink:href="#linearGradient5172"
       id="radialGradient3194"
       gradientUnits="userSpaceOnUse"
       gradientTransform="matrix(1.1584193,0,0,0.18905056,-40.358007,242.82861)"
       cx="152.30241"
       cy="309.3024"
       fx="152.30241"
       fy="309.3024"
       r="400.16269" />
    <radialGradient
       inkscape:collect="always"
       xlink:href="#linearGradient5080-3"
       id="radialGradient3196"
       gradientUnits="userSpaceOnUse"
       cx="101.29065"
       cy="489.55539"
       fx="101.29065"
       fy="489.55539"
       r="3.6435485" />
    <radialGradient
       inkscape:collect="always"
       xlink:href="#linearGradient5080-3"
       id="radialGradient3198"
       gradientUnits="userSpaceOnUse"
       gradientTransform="matrix(1,0,0,2.0000014,0,-646.20378)"
       cx="650.96149"
       cy="646.20288"
       fx="650.96149"
       fy="646.20288"
       r="35.569271" />
    <radialGradient
       inkscape:collect="always"
       xlink:href="#linearGradient5080-3"
       id="radialGradient3200"
       gradientUnits="userSpaceOnUse"
       gradientTransform="matrix(1,0,0,2.0000014,0,-646.20378)"
       cx="706.15985"
       cy="646.20288"
       fx="706.15985"
       fy="646.20288"
       r="35.569271" />
    <filter
       inkscape:collect="always"
       id="filter3976">
      <feGaussianBlur
         inkscape:collect="always"
         stdDeviation="3.3463335"
         id="feGaussianBlur3978" />
    </filter>
  </defs>
  <sodipodi:namedview
     id="base"
     pagecolor="#ffffff"
     bordercolor="#666666"
     borderopacity="1.0"
     inkscape:pageopacity="0.0"
     inkscape:pageshadow="2"
     inkscape:zoom="0.75874627"
     inkscape:cx="415.10993"
     inkscape:cy="772.20246"
     inkscape:document-units="px"
     inkscape:current-layer="g3188"
     showgrid="false"
     inkscape:window-width="1280"
     inkscape:window-height="981"
     inkscape:window-x="-3"
     inkscape:window-y="-3"
     inkscape:window-maximized="1" />
  <metadata
     id="metadata4222">
    <rdf:RDF>
      <cc:Work
         rdf:about="">
        <dc:format>image/svg+xml</dc:format>
        <dc:type
           rdf:resource="http://purl.org/dc/dcmitype/StillImage" />
        <dc:title />
        <dc:date>06.09.2001</dc:date>
        <dc:creator>
          <cc:Agent>
            <dc:title>Sven Strohmeier</dc:title>
          </cc:Agent>
        </dc:creator>
        <cc:license
           rdf:resource="http://creativecommons.org/licenses/by-sa/3.0/" />
      </cc:Work>
      <cc:License
         rdf:about="http://creativecommons.org/licenses/by-sa/3.0/">
        <cc:permits
           rdf:resource="http://creativecommons.org/ns#Reproduction" />
        <cc:permits
           rdf:resource="http://creativecommons.org/ns#Distribution" />
        <cc:requires
           rdf:resource="http://creativecommons.org/ns#Notice" />
        <cc:requires
           rdf:resource="http://creativecommons.org/ns#Attribution" />
        <cc:permits
           rdf:resource="http://creativecommons.org/ns#DerivativeWorks" />
        <cc:requires
           rdf:resource="http://creativecommons.org/ns#ShareAlike" />
      </cc:License>
    </rdf:RDF>
  </metadata>
  <g
     inkscape:label="Layer 1"
     inkscape:groupmode="layer"
     id="layer1">
    <g
       id="g3202"
       transform="translate(34.220946,0)"
       style="fill:#000000;filter:url(#filter3976)">
      <path
         id="path3178"
         style="fill:#000000;fill-opacity:1;stroke:none"
         d="m -278.0191,307.98283 37.87157,0 0,21.51794 -37.87157,0 z m -43.81134,64.00267 925.45869,0 0,8.96788 -925.45869,0 z M 375.42023,258.01901 c 0,10.74632 -8.71165,19.45794 -19.45797,19.45794 -10.74628,0 -19.45793,-8.71162 -19.45793,-19.45794 0,-10.74633 8.71165,-19.45794 19.45793,-19.45794 10.74632,0 19.45797,8.71161 19.45797,19.45794 z m -57.50354,108.77013 0,-57.05433 q 0,-5.88862 -4.25287,-10.0761 -4.18747,-4.25289 -10.07613,-4.25289 l -5.23434,0 0,-21.39538 19.56337,0 q 14.72158,0 25.19027,10.5341 10.53408,10.46869 10.53408,25.19027 l 0,57.05433 -35.72438,0 z M -129.19914,255.04915 c 0,10.74632 -8.71165,19.45795 -19.45797,19.45795 -10.74629,0 -19.45793,-8.71163 -19.45793,-19.45795 0,-10.74632 8.71164,-19.45794 19.45793,-19.45794 10.74632,0 19.45797,8.71162 19.45797,19.45794 z m -59.48348,110.048 0,-57.05434 q 0,-5.88861 -4.25291,-10.07609 -4.18746,-4.2529 -10.07612,-4.2529 l -5.23435,0 0,-21.39537 19.56338,0 q 14.72159,0 25.19027,10.53411 10.53411,10.46868 10.53411,25.19025 l 0,57.05434 -35.72438,0 z m 683.06195,1.69199 0,-57.05431 q 0,-14.72159 10.40326,-25.19027 10.46869,-10.53411 25.25569,-10.53411 l 35.72438,0 q 14.72157,0 25.19025,10.53411 10.53414,10.46868 10.53414,25.19027 l 0,57.05431 -35.72439,0 q 0,-14.06731 0,-28.39628 0,-14.39448 0,-28.65803 0,-5.88863 -4.2529,-10.07611 -4.18748,-4.2529 -10.07611,-4.2529 l -7.13181,0 q -5.88862,0 -10.0761,4.2529 -4.18746,4.18748 -4.18746,10.07611 0,14.26355 0,28.65803 0,14.32897 0,28.39628 l -35.65895,0 z m -97.55507,-92.77869 57.11975,0 q 14.72159,0 25.2557,10.53411 10.53411,10.46868 10.53411,25.19027 l 0,21.39536 q 0,14.78702 -10.53411,25.2557 -10.53411,10.40325 -25.2557,10.40325 l -57.11975,0 q -14.787,0 -25.25569,-10.40325 -10.4033,-10.46868 -10.4033,-25.2557 l 0,-21.39536 q 0,-14.72159 10.4033,-25.19027 10.46869,-10.53411 25.25569,-10.53411 z m 42.85616,21.39537 q -7.1972,0 -9.8798,0 -2.68264,0 -4.51464,0 -1.83203,0 -4.51463,0 -2.61718,0 -9.68353,0 -5.88862,0 -10.07608,4.2529 -4.18748,4.18748 -4.18748,10.07611 l 0,21.39536 q 0,5.95406 4.18748,10.14154 4.18746,4.18747 10.07608,4.18747 7.06635,0 9.68353,0 2.6826,0 4.51463,0 1.832,0 4.51464,0 2.6826,0 9.8798,0 5.88864,0 10.07611,-4.18747 4.18748,-4.18748 4.18748,-10.14154 l 0,-21.39536 q 0,-5.88863 -4.18748,-10.07611 -4.18747,-4.2529 -10.07611,-4.2529 z m -139.84981,-21.39537 0,21.39537 q -11.58102,0 -23.29285,0 -11.71182,0 -30.29375,0 0,10.5341 0,20.02134 0,9.42183 0,15.70303 0,5.95406 4.18748,10.14154 4.18747,4.18747 10.07615,4.18747 l 3.59861,0 0,0 35.72436,0 0,21.32994 -35.72436,0 0,0 -17.86224,0 q -14.787,0 -25.25568,-10.40325 -10.46869,-10.46868 -10.46869,-25.2557 l 0,-35.72437 q -5.16891,0 -9.74893,0 -4.51464,0 -8.04784,0 l 0,-21.39537 q 5.23435,0 9.55269,0 4.38378,0 8.24408,0 l 0,-25.05943 35.72437,0 q 0,4.71091 0,11.18841 0,6.47751 0,13.87102 4.97264,0 8.83296,0 3.86033,0 9.22555,0 5.43061,0 13.60928,0 8.24407,0 21.91881,0 z m -162.30121,0 57.11975,0 0,21.39537 q -14.26361,0 -21.52623,0 -7.19722,0 -21.32994,0 -5.88862,0 -10.0761,4.2529 -4.18748,4.18748 -4.18748,10.07611 l 0,21.39536 q 0,5.95406 4.18748,10.14154 4.18748,4.18747 10.0761,4.18747 14.13272,0 21.32994,0 7.26262,0 21.52623,0 l 0,21.32994 -57.11975,0 q -14.787,0 -25.2557,-10.40325 -10.4033,-10.46868 -10.4033,-25.2557 l 0,-21.39536 q 0,-14.72159 10.4033,-25.19027 10.4687,-10.53411 25.2557,-10.53411 z m -146.36526,57.11974 0,-57.11974 35.658916,0 q 0,14.26356 0,28.65798 0,14.32904 0,28.46176 0,5.95406 4.187477,10.14154 4.187478,4.18747 10.076117,4.18747 l 7.131821,0 q 5.888581,0 10.076058,-4.18747 4.25294,-4.18748 4.25294,-10.14154 0,-14.13272 0,-28.46176 0,-14.39442 0,-28.65798 l 35.724401,0 0,57.11974 q 0,14.78702 -10.534136,25.2557 -10.468681,10.40325 -25.190265,10.40325 l -35.724413,0 q -14.787014,0 -25.2556963,-10.40325 Q -8.83586,345.91721 -8.83586,331.13019 z m -100.93909,-57.11974 42.856153,0 0,21.39537 -9.8798,0 -4.514638,0 -4.514592,0 -9.68354,0 c -3.925744,0 -7.284473,1.4176 -10.076103,4.2529 -2.79163,2.79163 -4.18748,6.15031 -4.18748,10.07611 l 0,21.39536 c 0,3.96936 1.39585,7.3499 4.18748,10.14154 2.79163,2.79162 6.150359,4.18747 10.076103,4.18747 l 21.329952,0 21.526235,0 0,21.32994 -57.11977,0 c -9.858,0 -18.2766,-3.46775 -25.25571,-10.40325 -6.9355,-6.97912 -10.40326,-15.39768 -10.40326,-25.2557 l 0,-21.39536 c 0,-9.81441 3.46776,-18.21117 10.40326,-25.19027 6.97911,-7.02276 15.39771,-10.53411 25.25571,-10.53411 z m 57.11977,-44.35903 35.789794,0 0,101.47492 c 0,9.85802 -3.511389,18.27659 -10.534121,25.25569 -7.02272,6.97915 -15.44129,10.46868 -25.255673,10.46868 l -42.856187,0 0,-21.39536 9.814395,0 4.514604,0 4.514638,0 9.748933,0 c 3.925778,0 7.284488,-1.39585 10.07614,-4.18748 2.791628,-2.79164 4.187477,-6.17218 4.187477,-10.14153 z m -161.95474,78.39139 0,21.3954 q 0,14.787 -10.53407,25.25568 -10.46868,10.40327 -25.19026,10.40327 l -71.44875,0 0,-21.32997 q 14.19817,0 28.59257,0 14.45985,0 28.59257,0 5.88865,0 10.07613,-4.18746 4.18748,-4.18748 4.18748,-10.14152 l 0,-21.3954 35.72433,0 z m -49.98794,21.3954 -58.88628,0 0,-21.3954 q 0,-14.72156 10.40319,-25.19024 10.46875,-10.53411 25.25574,-10.53411 l 71.44872,0 0,21.39537 q -14.26358,0 -28.65801,0 -14.39445,0 -28.52721,0 -5.88859,0 -10.07605,4.2529 -4.18745,4.18746 -4.18745,10.07608 l 23.22735,0 0,21.3954 z"
         inkscape:connector-curvature="0" />
      <path
         sodipodi:type="arc"
         style="fill:#000000;fill-opacity:1;stroke:none"
         id="path3180"
         sodipodi:cx="101.29065"
         sodipodi:cy="489.55539"
         sodipodi:rx="3.6435485"
         sodipodi:ry="3.6435485"
         d="m 104.9342,489.55539 c 0,2.01228 -1.63127,3.64355 -3.64355,3.64355 -2.012277,0 -3.643549,-1.63127 -3.643549,-3.64355 0,-2.01228 1.631272,-3.64355 3.643549,-3.64355 2.01228,0 3.64355,1.63127 3.64355,3.64355 z"
         transform="matrix(6.085185,0,0,5.8441989,26.579835,-2593.7062)"
         inkscape:export-filename="/home/se7en/siduction.png"
         inkscape:export-xdpi="100"
         inkscape:export-ydpi="100"
         clip-path="url(#clipPath3632-3)" />
      <path
         transform="matrix(1.2703188,0,0,1.2703188,-131.08513,-553.46349)"
         style="fill:#000000;fill-opacity:1;stroke:#ffffff;stroke-width:0;stroke-miterlimit:4"
         d="m 615.39222,575.06428 71.13854,71.13864 -71.13854,71.13854 c 0,0 26.74313,-45.80547 26.74313,-71.13854 0,-25.33309 -26.74313,-71.13864 -26.74313,-71.13864 z"
         id="path3182"
         inkscape:connector-curvature="0"
         sodipodi:nodetypes="cccsc"
         inkscape:export-filename="/home/se7en/siduction.png"
         inkscape:export-xdpi="100"
         inkscape:export-ydpi="100"
         clip-path="url(#clipPath3628-4)" />
      <path
         transform="matrix(1.2703188,0,0,1.2703188,-131.08513,-553.46349)"
         sodipodi:nodetypes="cccsc"
         inkscape:connector-curvature="0"
         id="path3184"
         d="m 670.59061,575.06428 71.13854,71.13864 -71.13854,71.13854 c 0,0 26.74311,-45.80547 26.74311,-71.13854 0,-25.33309 -26.74311,-71.13864 -26.74311,-71.13864 z"
         style="fill:#000000;fill-opacity:1;stroke:#ffffff;stroke-width:0;stroke-miterlimit:4"
         inkscape:export-filename="/home/se7en/siduction.png"
         inkscape:export-xdpi="100"
         inkscape:export-ydpi="100"
         clip-path="url(#clipPath3624-4)" />
    </g>
    <g
       transform="matrix(2.8918533,0,0,2.8918533,-712.86576,441.13925)"
       id="g4092" />
    <g
       transform="matrix(2.8918533,0,0,2.8918533,-723.08996,441.13925)"
       id="g4096" />
    <g
       id="g3188"
       transform="translate(34.220946,0)">
      <path
         inkscape:connector-curvature="0"
         d="m -282.0191,303.98283 37.87157,0 0,21.51794 -37.87157,0 z m -43.81134,64.00267 939.45869,0 0,8.96788 -939.45869,0 z M 379.42023,254.01901 c 0,10.74632 -8.71165,19.45794 -19.45797,19.45794 -10.74628,0 -19.45793,-8.71162 -19.45793,-19.45794 0,-10.74633 8.71165,-19.45794 19.45793,-19.45794 10.74632,0 19.45797,8.71161 19.45797,19.45794 z m -57.50354,108.77013 0,-57.05433 c 0,-3.92575 -1.41762,-7.28445 -4.25287,-10.0761 -2.79165,-2.83526 -6.15036,-4.25289 -10.07613,-4.25289 l -5.23434,0 0,-21.39538 19.56337,0 c 9.81439,0 18.21114,3.51137 25.19027,10.5341 7.02272,6.97913 10.87791,15.38191 10.53408,25.19027 l 0,57.05433 z M -133.19914,251.04915 c 0,10.74632 -8.71165,19.45795 -19.45797,19.45795 -10.74629,0 -19.45793,-8.71163 -19.45793,-19.45795 0,-10.74632 8.71164,-19.45794 19.45793,-19.45794 10.74632,0 19.45797,8.71162 19.45797,19.45794 z m -59.48348,110.048 0,-57.05434 c 0,-3.92574 -1.41764,-7.28444 -4.25291,-10.07609 -2.79164,-2.83527 -6.15035,-4.2529 -10.07612,-4.2529 l -5.23435,0 0,-21.39537 19.56338,0 c 9.81439,0 18.21115,3.51137 25.19027,10.53411 7.02274,6.97912 10.53411,15.37587 10.53411,25.19025 l 0,57.05434 z m 697.06195,1.69199 0,-57.05431 c 0,-9.81439 3.46775,-18.21115 10.40326,-25.19027 6.97913,-7.02274 15.39769,-10.53411 25.25569,-10.53411 l 35.72438,0 c 9.81438,0 18.21113,3.51137 25.19025,10.53411 7.02276,6.97912 10.53414,15.37588 10.53414,25.19027 l 0,57.05431 -35.72439,0 0,-28.39628 0,-28.65803 c 0,-3.92575 -1.41763,-7.28446 -4.2529,-10.07611 -2.79165,-2.83527 -6.15036,-4.2529 -10.07611,-4.2529 l -7.13181,0 c -3.92575,0 -7.28445,1.41763 -10.0761,4.2529 -2.79164,2.79165 -3.91415,6.15989 -4.18746,10.07611 l 0,28.65803 0,28.39628 z m -103.55507,-92.77869 57.11975,0 c 9.81439,0 18.23296,3.51137 25.2557,10.53411 7.02274,6.97912 8.53411,15.37588 8.53411,25.19027 l 0,21.39536 c 0,9.85801 -1.51137,18.27658 -8.53411,25.2557 -7.02274,6.9355 -15.44131,10.40325 -25.2557,10.40325 l -57.11975,0 c -9.858,0 -18.27656,-3.46775 -25.25569,-10.40325 -6.93553,-6.97912 -10.4033,-15.39769 -10.4033,-25.2557 l 0,-21.39536 c 0,-9.81439 3.46777,-18.21115 10.4033,-25.19027 6.97913,-7.02274 15.39769,-10.53411 25.25569,-10.53411 z m 42.85616,21.39537 -9.8798,0 -4.51464,0 -4.51463,0 -9.68353,0 c -3.92575,0 -7.28444,1.41763 -10.07608,4.2529 -2.79165,2.79165 -4.18748,6.15036 -4.18748,10.07611 l 0,21.39536 c 0,3.96937 1.39583,7.34989 4.18748,10.14154 2.79164,2.79165 6.15033,4.18747 10.07608,4.18747 l 9.68353,0 4.51463,0 4.51464,0 9.8798,0 c 3.92576,0 7.28446,-1.39582 10.07611,-4.18747 2.79165,-2.79165 4.18748,-6.17217 4.18748,-10.14154 l 0,-21.39536 c 0,-3.92575 -1.39583,-7.28446 -4.18748,-10.07611 -2.79165,-2.83527 -6.15035,-4.2529 -10.07611,-4.2529 z m -139.84981,-21.39537 0,21.39537 -23.29285,0 -30.29375,0 0,20.02134 0,15.70303 c 0,3.96937 1.39583,7.34989 4.18748,10.14154 2.79165,2.79165 6.15036,4.18747 10.07615,4.18747 l 3.59861,0 0,0 35.72436,0 0,21.32994 -35.72436,0 0,0 -17.86224,0 c -9.858,0 -18.27656,-3.46775 -25.25568,-10.40325 -6.97913,-6.97912 -9.91766,-15.4131 -10.46869,-25.2557 l 0,-35.72437 -9.74893,0 -8.04784,0 0,-21.39537 9.55269,0 8.24408,0 0,-25.05943 35.72437,0 0,11.18841 0,13.87102 8.83296,0 9.22555,0 13.60928,0 z m -162.30121,0 57.11975,0 0,21.39537 -21.52623,0 -21.32994,0 c -3.92575,0 -7.28445,1.41763 -10.0761,4.2529 -2.79165,2.79165 -4.18748,6.15036 -4.18748,10.07611 l 0,21.39536 c 0,3.96937 1.39583,7.34989 4.18748,10.14154 2.79165,2.79165 6.15035,4.18747 10.0761,4.18747 l 21.32994,0 21.52623,0 0,21.32994 -57.11975,0 c -9.858,0 -18.27657,-3.46775 -25.2557,-10.40325 -6.93553,-6.97912 -12.4033,-15.39769 -12.4033,-25.2557 l 0,-21.39536 c 0,-9.81439 5.46777,-18.21115 12.4033,-25.19027 6.97913,-7.02274 15.3977,-10.53411 25.2557,-10.53411 z m -154.36526,57.11974 0,-57.11974 35.658916,0 0,28.65798 0,28.46176 c 0,3.96937 1.395826,7.34989 4.187477,10.14154 2.791652,2.79165 6.150358,4.18747 10.076117,4.18747 l 7.131821,0 c 3.925721,0 7.284407,-1.39582 10.076058,-4.18747 2.835293,-2.79165 4.25294,-6.17217 4.25294,-10.14154 l 0,-28.46176 0,-28.65798 37.724401,0 0,57.11974 c 0,9.85801 -5.511379,18.27658 -12.534136,25.2557 -6.979121,6.9355 -15.375876,10.40325 -25.190265,10.40325 l -35.724413,0 c -9.858009,0 -18.2765748,-3.46775 -25.2556963,-10.40325 C -9.3681201,345.40677 -12.83586,336.9882 -12.83586,327.13019 z m -100.93909,-57.11974 42.856153,0 0,21.39537 -9.8798,0 -4.514638,0 -4.514592,0 -9.68354,0 c -3.925743,0 -7.284473,1.4176 -10.076103,4.2529 -2.79163,2.79163 -4.18748,6.15031 -4.18748,10.07611 l 0,21.39536 c 0,3.96936 1.39585,7.3499 4.18748,10.14154 2.79163,2.79162 6.15036,4.18747 10.076103,4.18747 l 21.329952,0 21.526235,0 0,21.32994 -57.11977,0 c -9.858,0 -18.2766,-3.46775 -25.25571,-10.40325 -6.9355,-6.97912 -10.40326,-15.39768 -10.40326,-25.2557 l 0,-21.39536 c 0,-9.81441 3.46776,-18.21117 10.40326,-25.19027 6.97911,-7.02276 15.39771,-10.53411 25.25571,-10.53411 z m 57.11977,-44.35903 35.789794,0 0,101.47492 c 0,9.85802 -3.511389,18.27659 -10.534121,25.25569 -7.02272,6.97915 -15.44129,10.46868 -25.255673,10.46868 l -42.856187,0 0,-21.39536 9.814395,0 4.514604,0 4.514638,0 9.748933,0 c 3.925778,0 7.284488,-1.39585 10.07614,-4.18748 2.791628,-2.79164 4.187477,-6.17218 4.187477,-10.14153 z m -161.95474,78.39139 0,21.3954 c 0,9.858 -3.51136,18.27656 -10.53407,25.25568 -6.97912,6.93551 -15.37587,10.40327 -25.19026,10.40327 l -71.44875,0 0,-21.32997 28.59257,0 28.59257,0 c 3.92577,0 7.28448,-1.39582 10.07613,-4.18746 2.79165,-2.79165 4.18748,-6.17216 4.18748,-10.14152 l 0,-21.3954 z m -49.98794,21.3954 -58.88628,0 0,-21.3954 c 0,-9.81437 3.46773,-18.21112 10.40319,-25.19024 6.97917,-7.02274 15.39775,-10.53411 25.25574,-10.53411 l 71.44872,0 0,21.39537 -28.65801,0 -28.52721,0 c -3.92573,0 -7.28441,1.41763 -10.07605,4.2529 -2.79163,2.79164 -4.18745,6.15033 -4.18745,10.07608 l 23.22735,0 z"
         style="fill:url(#radialGradient3194);fill-opacity:1;stroke:none"
         id="rect4328"
         sodipodi:nodetypes="ccccccccccssssscscsccscsccssssscscsccscscccscsscscccscsscscccsscsscsscsscsscccscsssscccsssscscccccsssccccccscsccccccccccccccscccscsssscccscsscsscccsssscscccscsscsscccccscsssscccscsscsccssscccccsssccscscccsssccccscscccscccc" />
      <path
         clip-path="url(#clipPath3632-3)"
         inkscape:export-ydpi="100"
         inkscape:export-xdpi="100"
         inkscape:export-filename="/home/se7en/siduction.png"
         transform="matrix(6.085185,0,0,5.8441989,22.579835,-2597.7062)"
         d="m 104.9342,489.55539 c 0,2.01228 -1.63127,3.64355 -3.64355,3.64355 -2.012277,0 -3.643549,-1.63127 -3.643549,-3.64355 0,-2.01228 1.631272,-3.64355 3.643549,-3.64355 2.01228,0 3.64355,1.63127 3.64355,3.64355 z"
         sodipodi:ry="3.6435485"
         sodipodi:rx="3.6435485"
         sodipodi:cy="489.55539"
         sodipodi:cx="101.29065"
         id="path3437"
         style="fill:url(#radialGradient3196);fill-opacity:1;stroke:none"
         sodipodi:type="arc" />
      <path
         clip-path="url(#clipPath3628-4)"
         inkscape:export-ydpi="100"
         inkscape:export-xdpi="100"
         inkscape:export-filename="/home/se7en/siduction.png"
         sodipodi:nodetypes="cccsc"
         inkscape:connector-curvature="0"
         id="path3439"
         d="m 615.39222,575.06428 71.13854,71.13864 -71.13854,71.13854 c 0,0 26.74313,-45.80547 26.74313,-71.13854 0,-25.33309 -26.74313,-71.13864 -26.74313,-71.13864 z"
         style="fill:url(#radialGradient3198);fill-opacity:1;stroke:#ffffff;stroke-width:0;stroke-miterlimit:4"
         transform="matrix(1.2703188,0,0,1.2703188,-135.08513,-557.46349)" />
      <path
         clip-path="url(#clipPath3624-4)"
         inkscape:export-ydpi="100"
         inkscape:export-xdpi="100"
         inkscape:export-filename="/home/se7en/siduction.png"
         style="fill:url(#radialGradient3200);fill-opacity:1;stroke:#ffffff;stroke-width:0;stroke-miterlimit:4"
         d="m 670.59061,575.06428 71.13854,71.13864 -71.13854,71.13854 c 0,0 26.74311,-45.80547 26.74311,-71.13854 0,-25.33309 -26.74311,-71.13864 -26.74311,-71.13864 z"
         id="path3441"
         inkscape:connector-curvature="0"
         sodipodi:nodetypes="cccsc"
         transform="matrix(1.2703188,0,0,1.2703188,-135.08513,-557.46349)" />
    </g>
  </g>
</svg>
